<?xml version="1.0" standalone="no"?>
<!DOCTYPE svg PUBLIC "-//W3C//DTD SVG 1.1//EN" "http://www.w3.org/Graphics/SVG/1.1/DTD/svg11.dtd" >
<svg xmlns="http://www.w3.org/2000/svg" xmlns:xlink="http://www.w3.org/1999/xlink" version="1.1">
<metadata>
Created by FontForge 20170731 at Tue Nov 20 02:51:02 2018
 By Aleksey,,,
Copyright (c) 2014 by Lobsang monlam. All rights reserved.
</metadata>
<defs>
<font id="MonlamTBslim" horiz-adv-x="0" >
  <font-face 
    font-family="Monlam TBslim"
    font-weight="400"
    font-stretch="normal"
    units-per-em="1700"
    panose-1="1 1 1 0 1 1 1 1 1 1"
    ascent="1360"
    descent="-340"
    x-height="904"
    cap-height="1247"
    bbox="-1608 -5310 2984 2154"
    underline-thickness="50"
    underline-position="-150"
    unicode-range="U+0020-301F"
  />
<missing-glyph horiz-adv-x="1275" 
d="M212 0v1062h850v-1062h-850zM239 27h797v1009h-797v-1009z" />
    <glyph glyph-name=".notdef" horiz-adv-x="1275" 
d="M212 0v1062h850v-1062h-850zM239 27h797v1009h-797v-1009z" />
    <glyph glyph-name=".null" 
 />
    <glyph glyph-name="nonmarkingreturn" horiz-adv-x="1024" 
 />
    <glyph glyph-name="space" unicode=" " horiz-adv-x="472" 
 />
    <glyph glyph-name="exclam" unicode="!" horiz-adv-x="395" 
d="M149 287l-49 677v283h195v-283l-46 -677h-100zM108 -30v178h180v-178h-180z" />
    <glyph glyph-name="quotedbl" unicode="&#x22;" horiz-adv-x="668" 
d="M144 775l-44 244v209h178v-209l-39 -244h-95zM432 775l-42 244v209h178v-209l-42 -244h-94z" />
    <glyph glyph-name="numbersign" unicode="#" horiz-adv-x="1153" 
d="M172 -52l76 371h-148v130h175l64 316h-239v131h265l76 373h131l-77 -373h275l76 373h131l-76 -373h152v-131h-178l-65 -316h243v-130h-269l-76 -371h-131l76 371h-274l-76 -371h-131zM405 449h274l65 316h-274z" />
    <glyph glyph-name="dollar" unicode="$" horiz-adv-x="1045" 
d="M480 -213v157q-118 15 -191.5 53t-127 122.5t-61.5 206.5l157 29q18 -126 64 -185q67 -83 159 -94v500q-97 19 -197 74q-75 42 -116 116.5t-41 168.5q0 167 119 271q80 70 235 86v75h92v-75q138 -14 218 -81q103 -85 124 -234l-163 -24q-14 92 -58 141t-121 65v-452
q119 -30 158 -46q72 -33 118.5 -79t71.5 -109.5t25 -138.5q0 -162 -104 -271.5t-269 -116.5v-159h-92zM480 1161q-91 -14 -143.5 -73.5t-52.5 -139.5q0 -81 44.5 -135t151.5 -86v434zM572 76q92 12 151.5 80t59.5 168q0 86 -42 137.5t-169 92.5v-478z" />
    <glyph glyph-name="percent" unicode="%" horiz-adv-x="1574" 
d="M100 941q0 137 69 233t199 96q121 0 199.5 -86t78.5 -252q0 -163 -79.5 -250.5t-196.5 -87.5q-115 0 -192.5 86.5t-77.5 260.5zM373 1162q-59 0 -97.5 -51t-38.5 -185q0 -123 39.5 -173.5t96.5 -50.5q59 0 98 51t39 184q0 124 -39.5 174.5t-97.5 50.5zM373 -77l700 1347
h127l-697 -1347h-130zM927 270q0 138 68.5 233t199.5 95q121 0 200 -85.5t79 -252.5q0 -162 -80 -249.5t-198 -87.5q-115 0 -192 86.5t-77 260.5zM1200 491q-59 0 -98 -51t-39 -185q0 -123 39.5 -173.5t97.5 -50.5q59 0 98 50.5t39 184.5q0 124 -39.5 174.5t-97.5 50.5z" />
    <glyph glyph-name="ampersand" unicode="&#x26;" horiz-adv-x="1274" 
d="M872 121q-78 -87 -169.5 -130t-197.5 -43q-197 0 -311 132q-94 108 -94 241q0 119 76.5 214.5t228.5 168.5q-86 99 -115 160.5t-29 119.5q0 116 90.5 201t226.5 85q130 0 213.5 -80.5t83.5 -192.5q0 -183 -241 -312l229 -292q40 77 61 178l163 -34q-42 -168 -113 -276
q88 -117 200 -197l-107 -124q-94 61 -195 181zM553 787q102 59 132 104.5t30 100.5q0 66 -41.5 107t-103.5 41q-63 0 -105.5 -40.5t-42.5 -100.5q0 -30 15 -62.5t46 -69.5zM773 244l-287 357q-127 -76 -172 -141t-45 -129q0 -77 62 -161t176 -84q70 0 145.5 44t120.5 114z
" />
    <glyph glyph-name="quotesingle" unicode="'" horiz-adv-x="378" 
d="M140 775l-40 240v213h178v-213l-42 -240h-96z" />
    <glyph glyph-name="parenleft" unicode="(" horiz-adv-x="622" 
d="M410 -398q-131 164 -220.5 384t-89.5 455q0 207 67 397q79 220 243 440h112q-106 -182 -140 -259q-53 -120 -84 -251q-37 -163 -37 -328q0 -419 261 -838h-112z" />
    <glyph glyph-name="parenright" unicode=")" horiz-adv-x="622" 
d="M212 -398h-112q260 419 260 838q0 164 -37 325q-30 131 -82 251q-35 78 -141 262h112q164 -220 243 -440q67 -190 67 -397q0 -235 -90.5 -455t-219.5 -384z" />
    <glyph glyph-name="asterisk" unicode="*" horiz-adv-x="777" 
d="M100 995l40 123q139 -49 202 -84q-17 157 -18 217h127q-3 -87 -20 -216q89 45 206 83l40 -123q-112 -37 -218 -50q54 -46 151 -164l-105 -74q-51 68 -119 187q-65 -123 -114 -187l-102 74q100 124 143 164q-112 22 -213 50z" />
    <glyph glyph-name="plus" unicode="+" horiz-adv-x="1043" 
d="M447 177v350h-347v147h347v347h149v-347h347v-147h-347v-350h-149z" />
    <glyph glyph-name="comma" unicode="," horiz-adv-x="389" 
d="M111 2v178h178v-178q0 -99 -34.5 -159.5t-109.5 -93.5l-45 67q50 22 73.5 64t26.5 122h-89z" />
    <glyph glyph-name="hyphen" unicode="-" horiz-adv-x="681" 
d="M100 361v158h481v-158h-481z" />
    <glyph glyph-name="period" unicode="." horiz-adv-x="379" 
d="M100 -4v178h179v-178h-179z" />
    <glyph glyph-name="slash" unicode="/" horiz-adv-x="696" 
d="M100 -52l371 1321h125l-370 -1321h-126z" />
    <glyph glyph-name="zero" unicode="0" horiz-adv-x="1033" 
d="M100 600q0 227 46.5 365t138.5 213t231 75q103 0 180.5 -41.5t128 -119.5t79.5 -190t29 -302q0 -225 -46.5 -363t-138 -213.5t-232.5 -75.5q-185 0 -290 132q-126 160 -126 520zM261 600q0 -315 73.5 -419t181.5 -104t182 104.5t74 418.5q0 316 -74 419.5t-183 103.5
q-108 0 -173 -91q-81 -117 -81 -432z" />
    <glyph glyph-name="one" unicode="1" horiz-adv-x="670" 
d="M570 -31h-156v1000q-57 -54 -149 -108t-165 -81v151q131 62 229.5 150.5t139.5 171.5h101v-1284z" />
    <glyph glyph-name="two" unicode="2" horiz-adv-x="1046" 
d="M946 121v-152h-845q-1 57 19 110q32 86 103 169.5t205 193.5q208 171 281.5 271t73.5 188q0 93 -66.5 157t-174.5 64q-112 0 -180.5 -67.5t-69.5 -188.5l-161 17q16 181 124 275.5t291 94.5q184 0 291 -102t107 -253q0 -77 -31.5 -151t-104 -156t-241.5 -225
q-142 -118 -181.5 -160.5t-66.5 -84.5h627z" />
    <glyph glyph-name="three" unicode="3" horiz-adv-x="1037" 
d="M100 307l158 21q27 -133 91.5 -192t157.5 -59q111 0 187.5 76.5t76.5 190.5q0 108 -71 178.5t-180 70.5q-44 0 -110 -18l18 137q15 -1 25 -1q100 0 180 52t80 161q0 87 -58 143.5t-151 56.5q-91 0 -152.5 -58t-78.5 -172l-157 27q29 159 131 245.5t253 86.5
q105 0 193.5 -45t134.5 -122.5t46 -164.5q0 -83 -44 -151t-131 -108q113 -26 175.5 -108.5t62.5 -206.5q0 -167 -122 -283.5t-309 -116.5q-168 0 -279 100t-127 260z" />
    <glyph glyph-name="four" unicode="4" horiz-adv-x="1083" 
d="M654 -30v305h-554v144l583 828h128v-828h172v-144h-172v-305h-157zM654 419v576l-400 -576h400z" />
    <glyph glyph-name="five" unicode="5" horiz-adv-x="1046" 
d="M100 305l164 14q19 -121 85.5 -181t160.5 -60q113 0 191.5 85.5t78.5 225.5q0 135 -75.5 212.5t-197.5 77.5q-75 0 -136 -34.5t-97 -89.5l-147 19l124 657h635v-150h-509l-69 -344q115 81 241 81q167 0 282 -116t115 -298q0 -174 -101 -300q-123 -156 -335 -156
q-174 0 -284.5 98t-125.5 259z" />
    <glyph glyph-name="six" unicode="6" horiz-adv-x="1043" 
d="M921 935l-156 -13q-21 93 -59 135q-64 67 -158 67q-74 0 -131 -42q-73 -54 -116.5 -158t-45.5 -295q57 86 139.5 127.5t171.5 41.5q157 0 267 -115.5t110 -297.5q0 -120 -51.5 -223.5t-142 -158.5t-206.5 -55q-195 0 -319 144.5t-124 474.5q0 371 136 539
q120 147 323 147q150 0 246.5 -84.5t115.5 -233.5zM281 384q0 -81 34 -155t96 -113t130 -39q100 0 171 80.5t71 217.5q0 133 -70.5 209t-177.5 76q-106 0 -180 -76t-74 -200z" />
    <glyph glyph-name="seven" unicode="7" horiz-adv-x="1027" 
d="M100 1081v150h827v-122q-122 -130 -242 -345t-185 -442q-47 -161 -61 -352h-160q2 151 58.5 364t162.5 411.5t226 335.5h-626z" />
    <glyph glyph-name="eight" unicode="8" horiz-adv-x="1042" 
d="M342 663q-96 36 -143.5 102t-47.5 158q0 140 100.5 235t266.5 95q168 0 270 -97t102 -237q0 -89 -47 -154.5t-141 -101.5q117 -39 178.5 -124t61.5 -204q0 -163 -116 -275t-305 -112t-305 112.5t-116 279.5q0 125 63 209t179 114zM312 929q0 -91 58.5 -148.5t151.5 -57.5
q90 0 148 57t58 140q0 86 -59.5 145t-148.5 59q-90 0 -149 -58t-59 -137zM261 339q0 -68 32 -130.5t95 -97t134 -34.5q113 0 186 72.5t73 183.5q0 114 -75.5 188t-187.5 74q-111 0 -184 -73t-73 -183z" />
    <glyph glyph-name="nine" unicode="9" horiz-adv-x="1040" 
d="M123 265l151 15q19 -107 73 -155t138 -48q73 0 127.5 33t89 89t58.5 149.5t24 191.5q0 11 -2 32q-46 -76 -128 -122t-176 -46q-159 0 -268.5 115t-109.5 303q0 194 114.5 312.5t286.5 118.5q125 0 228.5 -67t157 -191.5t53.5 -359.5q0 -245 -53.5 -390t-158.5 -221
t-246 -76q-150 0 -245 83.5t-114 233.5zM766 829q0 135 -72 214.5t-174 79.5q-104 0 -181.5 -85.5t-77.5 -221.5q0 -122 73.5 -198t181.5 -76q109 0 179.5 76t70.5 211z" />
    <glyph glyph-name="colon" unicode=":" horiz-adv-x="378" 
d="M100 724v180h178v-180h-178zM100 -22v178h178v-178h-178z" />
    <glyph glyph-name="semicolon" unicode=";" horiz-adv-x="389" 
d="M111 731v179h178v-179h-178zM111 -16v178h178v-178q0 -99 -34.5 -159t-109.5 -94l-45 67q50 22 73.5 64t26.5 122h-89z" />
    <glyph glyph-name="less" unicode="&#x3c;" horiz-adv-x="1046" 
d="M100 529v147l846 357v-157l-671 -275l671 -278v-156z" />
    <glyph glyph-name="equal" unicode="=" horiz-adv-x="1043" 
d="M943 722h-843v146h843v-146zM943 333h-843v147h843v-147z" />
    <glyph glyph-name="greater" unicode="&#x3e;" horiz-adv-x="1046" 
d="M946 529l-846 -362v156l670 278l-670 275v157l846 -357v-147z" />
    <glyph glyph-name="question" unicode="?" horiz-adv-x="1025" 
d="M433 284q-1 32 -1 46q0 93 26 160q19 51 62 103q32 36 113.5 108t105.5 115t24 94q0 91 -71.5 160.5t-175.5 69.5q-100 0 -167 -63t-88 -197l-161 20q21 179 129 274t285 95q187 0 299 -102.5t112 -246.5q0 -84 -39.5 -154.5t-153.5 -171.5q-77 -68 -100 -100.5
t-35 -74.5t-14 -135h-150zM424 -31v179h178v-179h-178z" />
    <glyph glyph-name="at" unicode="@" horiz-adv-x="1850" 
d="M1015 120q-56 -65 -126.5 -104.5t-140.5 -39.5q-78 0 -151 45t-119.5 139t-46.5 206q0 139 71.5 278t177 209t204.5 70q76 0 145 -40t119 -121l29 136h156l-126 -585q-26 -122 -26 -136q0 -23 18 -40t43 -17q46 0 122 53q99 70 157 187.5t58 241.5q0 146 -74.5 272.5
t-222.5 202t-327 75.5q-203 0 -371.5 -95.5t-261.5 -273.5t-93 -382q0 -214 93 -368.5t268 -228t390 -73.5q227 0 381.5 77t231.5 187h157q-44 -92 -152 -187t-257 -150.5t-359 -55.5q-194 0 -357 50t-278.5 149.5t-173.5 230.5q-73 164 -73 354q0 214 87 406
q106 236 302 361.5t475 125.5q216 0 387.5 -88t271.5 -264q85 -151 85 -327q0 -253 -178 -450q-159 -175 -347 -175q-60 0 -97 18.5t-55 51.5q-10 22 -16 75zM593 356q0 -119 57 -185.5t130 -66.5q48 0 102.5 29.5t103.5 87t80.5 146t31.5 177.5q0 119 -58.5 184t-143.5 65
q-56 0 -105.5 -28.5t-95.5 -91t-74 -152t-28 -165.5z" />
    <glyph glyph-name="A" unicode="A" horiz-adv-x="1394" 
d="M100 -30l490 1277h182l522 -1277h-192l-149 387h-534l-140 -387h-179zM468 495h433l-134 353q-61 161 -90 265q-24 -123 -69 -244z" />
    <glyph glyph-name="B" unicode="B" horiz-adv-x="1164" 
d="M100 -30v1277h479q147 0 235 -38.5t138 -119.5t50 -168q0 -82 -44 -154.5t-135 -117.5q117 -34 179 -115.5t62 -193.5q0 -90 -38 -167t-93.5 -118.5t-139.5 -63t-206 -21.5h-487zM269 711h276q113 0 161 15q65 18 97.5 63t32.5 112q0 63 -30.5 111.5t-87 66t-194.5 17.5
h-255v-385zM269 121h318q82 0 115 5q58 11 97 35.5t65 71t26 107.5q0 72 -37 124.5t-102 74t-187 21.5h-295v-439z" />
    <glyph glyph-name="C" unicode="C" horiz-adv-x="1329" 
d="M1060 418l169 -43q-53 -208 -191 -317.5t-337 -109.5q-207 0 -336.5 84t-197 243.5t-67.5 342.5q0 200 76 348.5t217 225.5t310 77q192 0 322.5 -97.5t182.5 -274.5l-167 -39q-44 140 -128.5 203.5t-212.5 63.5q-148 0 -247 -71t-139 -189.5t-40 -246.5
q0 -162 47.5 -283.5t147.5 -182t217 -60.5q143 0 241 82t133 244z" />
    <glyph glyph-name="D" unicode="D" horiz-adv-x="1256" 
d="M100 -30v1277h440q149 0 228 -18q110 -26 187 -92q101 -85 151 -218t50 -304q0 -146 -34 -258t-87 -185.5t-116 -115.5t-152.5 -64t-205.5 -22h-461zM269 121h273q126 0 198 23t115 66q60 60 93.5 162t33.5 246q0 200 -65.5 308t-160.5 144q-68 26 -218 26h-269v-975z
" />
    <glyph glyph-name="E" unicode="E" horiz-adv-x="1155" 
d="M100 -30v1277h924v-151h-754v-390h707v-151h-707v-434h785v-151h-955z" />
    <glyph glyph-name="F" unicode="F" horiz-adv-x="1063" 
d="M100 -30v1277h863v-151h-693v-396h600v-150h-600v-580h-170z" />
    <glyph glyph-name="G" unicode="G" horiz-adv-x="1382" 
d="M741 470v151l541 1v-475q-125 -99 -257 -149t-272 -50q-188 0 -342 80.5t-232.5 233t-78.5 341.5q0 186 78 347.5t224.5 240t337.5 78.5q139 0 251 -45t175.5 -125t96.5 -209l-152 -42q-29 98 -71.5 153.5t-122 89.5t-176.5 34q-116 0 -200.5 -35.5t-136.5 -93
t-81 -127.5q-49 -117 -49 -256q0 -171 59.5 -286t171.5 -170.5t238 -55.5q111 0 215.5 42t157.5 90v237h-375z" />
    <glyph glyph-name="H" unicode="H" horiz-adv-x="1203" 
d="M100 -30v1277h169v-525h665v525h169v-1277h-169v602h-665v-602h-169z" />
    <glyph glyph-name="I" unicode="I" horiz-adv-x="369" 
d="M100 -30v1277h169v-1277h-169z" />
    <glyph glyph-name="J" unicode="J" horiz-adv-x="906" 
d="M103 332l153 21q6 -146 55 -200t135 -54q64 0 110 29t63.5 79.5t17.5 160.5v880h169v-871q0 -160 -39 -248.5t-123 -134.5t-197 -46q-168 0 -257.5 97t-86.5 287z" />
    <glyph glyph-name="K" unicode="K" horiz-adv-x="1256" 
d="M100 -30v1277h169v-634l634 634h229l-536 -517l560 -760h-224l-454 646l-209 -203v-443h-169z" />
    <glyph glyph-name="L" unicode="L" horiz-adv-x="998" 
d="M100 -30v1277h169v-1126h629v-151h-798z" />
    <glyph glyph-name="M" unicode="M" horiz-adv-x="1419" 
d="M100 -30v1277h255l303 -905l60 -189q21 71 68 205l306 889h227v-1277h-163v1070l-370 -1070h-154l-369 1087v-1087h-163z" />
    <glyph glyph-name="N" unicode="N" horiz-adv-x="1207" 
d="M100 -30v1277h174l671 -1003v1003h162v-1277h-173l-671 1003v-1003h-163z" />
    <glyph glyph-name="O" unicode="O" horiz-adv-x="1422" 
d="M100 592q0 318 171 497.5t441 179.5q176 0 318.5 -84.5t217 -235.5t74.5 -342q0 -194 -78 -348t-222 -232.5t-311 -78.5q-181 0 -322.5 87t-215 237.5t-73.5 319.5zM274 589q0 -231 124.5 -364t311.5 -133q191 0 314.5 134.5t123.5 381.5q0 155 -53 271.5t-154.5 181
t-227.5 64.5q-179 0 -309 -123.5t-130 -412.5z" />
    <glyph glyph-name="P" unicode="P" horiz-adv-x="1175" 
d="M100 -30v1277h482q127 0 194 -12q94 -16 158 -60t102.5 -123.5t38.5 -173.5q0 -163 -104 -276t-375 -113h-327v-519h-169zM269 639h331q163 0 232 61.5t69 172.5q0 79 -40.5 136.5t-106.5 75.5q-43 11 -159 11h-326v-457z" />
    <glyph glyph-name="Q" unicode="Q" horiz-adv-x="1447" 
d="M1129 108q118 -81 218 -119l-50 -117q-137 50 -275 157q-142 -80 -314 -80q-173 0 -314 84t-217.5 235.5t-76.5 341.5t77 345t218.5 235.5t316.5 80.5q177 0 319 -84t217 -235t75 -341q0 -158 -48 -284t-146 -219zM758 324q146 -41 241 -122q149 136 149 409
q0 155 -53 271t-154 180t-227 64q-191 0 -315 -129.5t-124 -386.5q0 -249 123 -382.5t316 -133.5q90 0 170 34q-79 51 -167 73z" />
    <glyph glyph-name="R" unicode="R" horiz-adv-x="1326" 
d="M100 -30v1277h566q171 0 260 -34.5t142 -121.5t53 -192q0 -137 -88 -230t-271 -118q67 -32 102 -64q73 -68 139 -170l223 -347h-212l-169 265q-75 116 -122.5 177t-86 85t-77.5 34q-28 6 -94 6h-196v-567h-169zM269 684h364q115 0 180.5 23.5t99 76.5t33.5 115
q0 90 -65.5 148.5t-207.5 58.5h-404v-422z" />
    <glyph glyph-name="S" unicode="S" horiz-adv-x="1217" 
d="M100 380l159 14q12 -96 53.5 -157.5t128.5 -99t196 -37.5q97 0 171 28t110 78.5t36 109.5q0 61 -35 105.5t-115 75.5q-51 20 -227 62.5t-246 78.5q-93 49 -137.5 119.5t-44.5 159.5q0 96 54.5 180.5t160 128t235.5 43.5q141 0 250 -46t167 -134.5t63 -201.5l-162 -12
q-13 121 -88.5 183t-222.5 62q-153 0 -223.5 -56t-70.5 -136q0 -68 49 -113q50 -44 256 -91t283 -81q111 -52 164 -130.5t53 -181.5q0 -102 -58 -192.5t-168 -140.5t-246 -50q-174 0 -291 50.5t-183.5 152t-70.5 229.5z" />
    <glyph glyph-name="T" unicode="T" horiz-adv-x="1212" 
d="M521 -30v1126h-421v151h1012v-151h-422v-1126h-169z" />
    <glyph glyph-name="U" unicode="U" horiz-adv-x="1205" 
d="M936 1248h169v-738q0 -193 -43.5 -306t-157.5 -184.5t-299 -71.5q-179 0 -293 62t-163 179t-49 321v738h169v-737q0 -167 31 -246t106 -121.5t184 -42.5q187 0 266.5 84.5t79.5 325.5v737z" />
    <glyph glyph-name="V" unicode="V" horiz-adv-x="1370" 
d="M596 -30l-496 1277h184l332 -928q40 -111 67 -209q29 104 69 209l345 928h173l-501 -1277h-173z" />
    <glyph glyph-name="W" unicode="W" horiz-adv-x="1842" 
d="M439 -30l-339 1277h173l194 -837q32 -132 55 -262q48 205 57 236l243 863h204l183 -646q69 -241 99 -453q25 122 64 278l201 821h169l-350 -1277h-162l-270 973q-34 122 -40 150q-20 -88 -38 -150l-271 -973h-172z" />
    <glyph glyph-name="X" unicode="X" horiz-adv-x="1372" 
d="M100 -30l495 665l-436 612h201l233 -327q72 -102 102 -158q42 71 101 146l257 339h184l-449 -602l484 -675h-209l-321 455q-28 39 -57 85q-42 -69 -61 -95l-320 -445h-204z" />
    <glyph glyph-name="Y" unicode="Y" horiz-adv-x="1372" 
d="M593 -30v540l-493 737h206l252 -385q69 -108 129 -216q58 101 140 226l247 375h198l-510 -737v-540h-169z" />
    <glyph glyph-name="Z" unicode="Z" horiz-adv-x="1210" 
d="M100 -30v156l654 819q70 87 133 151h-713v151h915v-151l-717 -886l-78 -89h816v-151h-1010z" />
    <glyph glyph-name="bracketleft" unicode="[" horiz-adv-x="546" 
d="M100 -377v1633h346v-130h-189v-1373h189v-130h-346z" />
    <glyph glyph-name="backslash" unicode="\" horiz-adv-x="696" 
d="M471 -52l-371 1321h126l370 -1321h-125z" />
    <glyph glyph-name="bracketright" unicode="]" horiz-adv-x="546" 
d="M446 -377h-346v130h189v1373h-189v130h346v-1633z" />
    <glyph glyph-name="asciicircum" unicode="^" horiz-adv-x="944" 
d="M261 556h-161l308 699h126l310 -699h-158l-215 520z" />
    <glyph glyph-name="underscore" unicode="_" horiz-adv-x="1241" 
d="M100 -341v114h1041v-114h-1041z" />
    <glyph glyph-name="grave" unicode="`" horiz-adv-x="528" 
d="M428 985h-126l-202 245h210z" />
    <glyph glyph-name="a" unicode="a" horiz-adv-x="1052" 
d="M757 92q-87 -74 -167.5 -104.5t-172.5 -30.5q-154 0 -235.5 74.5t-81.5 190.5q0 68 31 124t81 90t113 52q47 12 139 23q190 23 280 54q1 32 1 41q0 96 -45 135q-60 54 -178 54q-110 0 -163.5 -39t-78.5 -138l-153 21q21 99 69 159.5t138.5 93t210.5 32.5q119 0 193 -28
t108.5 -70t48.5 -107q8 -40 8 -144v-210q0 -218 10 -275.5t39 -111.5h-164q-24 48 -31 114zM744 442q-85 -35 -256 -59q-96 -13 -136.5 -30.5t-62 -51t-21.5 -74.5q0 -63 47 -105t139 -42q91 0 161.5 40t103.5 108q25 53 25 157v57z" />
    <glyph glyph-name="b" unicode="b" horiz-adv-x="1003" 
d="M246 -30h-146v1278h157v-456q99 124 253 124q87 0 163 -34t125 -96.5t77 -150t28 -188.5q0 -239 -117.5 -368.5t-282.5 -129.5q-164 0 -257 137v-116zM244 439q0 -165 45 -240q74 -121 200 -121q103 0 178 89.5t75 266.5q0 181 -71.5 267.5t-173.5 86.5q-103 0 -178 -90
t-75 -259z" />
    <glyph glyph-name="c" unicode="c" horiz-adv-x="1006" 
d="M752 317l154 -20q-25 -159 -129 -249.5t-256 -90.5q-190 0 -305.5 124.5t-115.5 355.5q0 150 50 262.5t151 168.5t221 56q151 0 246.5 -76t122.5 -216l-152 -24q-22 93 -77 140.5t-134 47.5q-118 0 -192.5 -85t-74.5 -269q0 -187 71.5 -271.5t187.5 -84.5q92 0 154 57
t78 174z" />
    <glyph glyph-name="d" unicode="d" horiz-adv-x="1003" 
d="M757 -30v117q-88 -138 -259 -138q-110 0 -203 61t-144 170.5t-51 251.5q0 139 46 251.5t138.5 172.5t207.5 60q82 0 148 -35t107 -92v459h156v-1278h-146zM262 432q0 -177 74.5 -265.5t177.5 -88.5q102 0 173.5 84t71.5 256q0 190 -73 279.5t-180 89.5
q-105 0 -174.5 -85.5t-69.5 -269.5z" />
    <glyph glyph-name="e" unicode="e" horiz-adv-x="1053" 
d="M786 276l162 -20q-39 -143 -142.5 -221t-264.5 -78q-203 0 -322 125t-119 351q0 234 120 362.5t312 128.5q186 0 303.5 -126t117.5 -356q0 -14 -1 -41h-690q9 -153 86.5 -234t193.5 -81q86 0 147 45t97 145zM271 529h516q-10 118 -58 176q-76 91 -195 91
q-108 0 -182 -72.5t-81 -194.5z" />
    <glyph glyph-name="f" unicode="f" horiz-adv-x="741" 
d="M239 -31v803h-139v123h139v98q0 93 17 138q22 61 79 99.5t160 38.5q66 0 146 -16l-23 -137q-50 9 -93 9q-71 0 -101 -30.5t-30 -114.5v-85h181v-123h-181v-803h-155z" />
    <glyph glyph-name="g" unicode="g" horiz-adv-x="1015" 
d="M131 -90l152 -23q10 -71 54 -103q58 -43 158 -43q110 0 169 43.5t80 122.5q13 47 12 200q-103 -121 -256 -121q-191 0 -295.5 138t-104.5 331q0 132 47.5 244t139 172.5t214.5 60.5q163 0 270 -132v113h144v-801q0 -216 -44 -306t-139.5 -142.5t-235.5 -52.5
q-164 0 -266.5 74.5t-98.5 224.5zM260 466q0 -182 72.5 -265.5t181.5 -83.5q108 0 181 83t73 261q0 169 -75 255.5t-182 86.5q-104 0 -177.5 -85t-73.5 -252z" />
    <glyph glyph-name="h" unicode="h" horiz-adv-x="954" 
d="M100 -30v1277h156v-458q111 127 278 127q103 0 179 -40.5t108.5 -112t32.5 -206.5v-587h-157v587q0 117 -50.5 170.5t-144.5 53.5q-70 0 -131.5 -36t-88 -98t-26.5 -171v-506h-156z" />
    <glyph glyph-name="i" unicode="i" horiz-adv-x="357" 
d="M100 1067v180h157v-180h-157zM100 -30v926h157v-926h-157z" />
    <glyph glyph-name="j" unicode="j" horiz-adv-x="555" 
d="M298 1074v182h157v-182h-157zM100 -381l29 134q47 -13 74 -13q48 0 71.5 32t23.5 159v974h157v-977q0 -171 -45 -238q-56 -87 -188 -87q-64 0 -122 16z" />
    <glyph glyph-name="k" unicode="k" horiz-adv-x="966" 
d="M100 -30v1277h156v-728l372 377h203l-354 -345l389 -581h-193l-306 473l-111 -107v-366h-156z" />
    <glyph glyph-name="l" unicode="l" horiz-adv-x="357" 
d="M100 -30v1277h157v-1277h-157z" />
    <glyph glyph-name="m" unicode="m" horiz-adv-x="1455" 
d="M100 -23v927h141v-131q43 69 115.5 110t164.5 41q103 0 168.5 -43t93.5 -119q110 162 285 162q138 0 212.5 -76.5t74.5 -234.5v-636h-157v583q0 95 -15 136.5t-55 66.5t-94 25q-98 0 -162.5 -65t-64.5 -208v-538h-157v602q0 104 -38 156.5t-125 52.5q-67 0 -123 -34.5
t-81.5 -102t-25.5 -194.5v-480h-157z" />
    <glyph glyph-name="n" unicode="n" horiz-adv-x="952" 
d="M100 -23v927h142v-133q102 153 294 153q84 0 153.5 -30t105 -79t48.5 -116q9 -43 9 -152v-570h-157v563q0 97 -18 144t-65 75.5t-109 28.5q-101 0 -173.5 -63.5t-72.5 -241.5v-506h-157z" />
    <glyph glyph-name="o" unicode="o" horiz-adv-x="1068" 
d="M100 441q0 257 144 381q119 102 291 102q191 0 312 -125t121 -345q0 -179 -53.5 -281.5t-156 -159t-223.5 -56.5q-194 0 -314.5 124.5t-120.5 359.5zM262 441q0 -178 77.5 -266.5t195.5 -88.5q117 0 194.5 89t77.5 271q0 171 -78 260t-194 89q-118 0 -195.5 -88.5
t-77.5 -265.5z" />
    <glyph glyph-name="p" unicode="p" horiz-adv-x="1003" 
d="M100 -369v1281h143v-121q50 71 114 106t154 35q119 0 209.5 -61t136.5 -171.5t46 -244.5q0 -141 -51 -255t-148 -174.5t-204 -60.5q-79 0 -141 33t-103 83v-450h-156zM242 444q0 -179 72.5 -264.5t174.5 -85.5q105 0 180 88t75 274q0 178 -73 265.5t-174 87.5t-178 -93.5
t-77 -271.5z" />
    <glyph glyph-name="q" unicode="q" horiz-adv-x="1001" 
d="M745 -369v454q-37 -52 -102.5 -86t-140.5 -34q-165 0 -283.5 131.5t-118.5 360.5q0 140 48.5 251t140 167.5t202.5 56.5q171 0 269 -144v124h141v-1281h-156zM261 451q0 -178 75 -267.5t180 -89.5q99 0 171.5 85t72.5 258q0 185 -76 278.5t-179 93.5q-102 0 -173 -87
t-71 -271z" />
    <glyph glyph-name="r" unicode="r" horiz-adv-x="703" 
d="M100 -23v927h142v-141q53 99 99 130t101 31q79 0 161 -51l-54 -145q-57 34 -115 34q-52 0 -92.5 -31t-57.5 -86q-26 -84 -26 -182v-486h-158z" />
    <glyph glyph-name="s" unicode="s" horiz-adv-x="968" 
d="M100 254l155 24q13 -92 72.5 -142t166.5 -50q109 0 161.5 44t52.5 103q0 54 -47 84q-32 21 -160 54q-172 43 -239 75t-101.5 88t-34.5 123q0 62 28.5 115t77.5 88q36 27 99.5 45.5t135.5 18.5q109 0 191 -31t121.5 -84.5t54.5 -143.5l-154 -21q-10 71 -60 111.5
t-141 40.5q-108 0 -154.5 -35.5t-46.5 -84.5q0 -30 19 -54q19 -26 60 -42q24 -10 139 -40q166 -45 232 -73.5t103 -82.5t37 -134q0 -79 -45.5 -148t-131.5 -107t-195 -38q-181 0 -275.5 75t-120.5 222z" />
    <glyph glyph-name="t" unicode="t" horiz-adv-x="652" 
d="M529 111l23 -138q-66 -15 -119 -15q-85 0 -132 27.5t-66.5 71.5t-19.5 184v533h-115v123h115v229l156 94v-323h158v-123h-158v-541q0 -67 8.5 -86.5t27.5 -30.5t53 -11q27 0 69 6z" />
    <glyph glyph-name="u" unicode="u" horiz-adv-x="950" 
d="M710 -22v136q-108 -157 -294 -157q-82 0 -152.5 31.5t-105.5 79t-48 116.5q-10 46 -10 146v575h157v-514q0 -123 9 -166q15 -62 63 -97t119 -35q70 0 132 36t87.5 98t25.5 181v497h157v-927h-140z" />
    <glyph glyph-name="v" unicode="v" horiz-adv-x="1048" 
d="M452 -22l-352 926h165l199 -554q32 -91 59 -187q21 73 59 176l206 565h160l-351 -926h-145z" />
    <glyph glyph-name="w" unicode="w" horiz-adv-x="1469" 
d="M383 -22l-283 926h161l149 -534l54 -200q3 16 48 191l147 543h161l139 -538l46 -176l53 179l159 535h152l-289 -926h-162l-148 554l-36 158l-187 -712h-164z" />
    <glyph glyph-name="x" unicode="x" horiz-adv-x="1068" 
d="M100 -22l339 481l-312 445h195l143 -217q40 -62 64 -104q39 57 70 102l157 219h186l-319 -436l345 -490h-194l-190 288l-50 77l-244 -365h-190z" />
    <glyph glyph-name="y" unicode="y" horiz-adv-x="1048" 
d="M182 -370l-17 148q51 -15 89 -15q53 0 84.5 18t51.5 49q14 24 48 117q4 13 14 38l-352 928h169l193 -537q38 -101 67 -214q28 108 64 211l199 540h156l-352 -942q-56 -152 -88 -210q-42 -78 -96 -114t-128 -36q-46 0 -102 19z" />
    <glyph glyph-name="z" unicode="z" horiz-adv-x="1019" 
d="M100 -22v127l590 676q-100 -5 -177 -5h-378v128h757v-104l-501 -588l-97 -107q106 8 198 8h427v-135h-819z" />
    <glyph glyph-name="braceleft" unicode="{" horiz-adv-x="705" 
d="M100 511q67 2 109.5 36.5t56.5 94.5t15 205.5t5 192.5q8 73 29 117t52.5 71t81.5 40q32 10 107 10h49v-138h-27q-91 0 -120.5 -32.5t-29.5 -145.5q0 -228 -10 -289q-16 -92 -53.5 -143t-118.5 -90q95 -40 138.5 -122.5t43.5 -270.5q0 -169 4 -201q6 -60 34.5 -83
t111.5 -23h27v-138h-49q-85 0 -123 15q-57 20 -93 64.5t-47 113.5t-12 225.5t-15 217t-56.5 95.5t-109.5 37v141z" />
    <glyph glyph-name="bar" unicode="|" horiz-adv-x="336" 
d="M100 -398v1676h136v-1676h-136z" />
    <glyph glyph-name="braceright" unicode="}" horiz-adv-x="705" 
d="M605 511v-141q-67 -2 -109.5 -37t-56.5 -94.5t-15 -205t-5 -192.5q-8 -74 -29 -118t-52.5 -70.5t-81.5 -40.5q-32 -10 -108 -10h-48v138h27q91 0 120.5 32.5t29.5 146.5q0 218 8 276q13 97 55 154.5t119 90.5q-100 48 -141 127t-41 266q0 170 -5 203q-5 58 -33.5 81
t-111.5 23h-27v138h48q86 0 124 -15q56 -19 92.5 -64t47.5 -114t12 -226t15 -216.5t56.5 -94.5t109.5 -37z" />
    <glyph glyph-name="asciitilde" unicode="~" horiz-adv-x="1091" 
d="M100 455v180q92 104 242 104q53 0 110 -15.5t164 -60.5q60 -25 90 -33t61 -8q56 0 117 34t107 86v-185q-55 -52 -112 -76t-129 -24q-52 0 -99.5 12t-151 58.5t-171.5 46.5q-56 0 -105.5 -23.5t-122.5 -95.5z" />
    <glyph glyph-name="uni00A0" unicode="&#xa0;" horiz-adv-x="472" 
 />
    <glyph glyph-name="exclamdown" unicode="&#xa1;" horiz-adv-x="395" 
d="M287 912v-179h-180v179h180zM246 594l49 -677v-282h-195v282l46 677h100z" />
    <glyph glyph-name="cent" unicode="&#xa2;" horiz-adv-x="1007" 
d="M655 757l-194 -668q29 -7 54 -7q90 0 156 62t81 173l155 -18q-28 -160 -135.5 -252.5t-254.5 -92.5q-42 0 -90 11l-103 -344l-97 28l100 347q-100 48 -163.5 160t-63.5 281q0 154 51 265.5t152 167t207 55.5q32 0 87 -6l99 337l96 -28l-98 -337q86 -38 132.5 -101
t64.5 -158l-153 -24q-22 98 -83 149zM563 797q-29 3 -44 3q-72 0 -134.5 -40t-93.5 -122.5t-31 -193.5q0 -114 28.5 -194t79.5 -118z" />
    <glyph glyph-name="sterling" unicode="&#xa3;" horiz-adv-x="1120" 
d="M422 675h274v-129h-247q16 -39 16 -77q0 -76 -36 -160.5t-119 -171.5q69 18 126 18q73 0 163 -22q150 -35 204 -35q64 0 166 49l51 -144q-80 -34 -124 -44.5t-88 -10.5q-36 0 -74 7q-24 4 -113 31.5t-116 32.5q-41 7 -82 7q-61 0 -132.5 -22t-129.5 -59l-61 151
q84 46 142.5 132t58.5 210q0 52 -15 108h-170v129h133q-28 98 -36 142.5t-8 87.5q0 181 134 283q109 82 262 82q157 0 259.5 -87.5t126.5 -243.5l-156 -23q-13 104 -78 164t-155 60q-98 0 -162 -62.5t-64 -150.5q0 -96 50 -252z" />
    <glyph glyph-name="currency" unicode="&#xa4;" horiz-adv-x="1056" 
d="M221 808l-121 118l100 103l121 -120q93 63 207 63q115 0 207 -63l121 120l100 -103l-120 -118q62 -97 62 -205q0 -110 -62 -206l120 -118l-100 -104l-121 121q-92 -63 -207 -63q-114 0 -207 63l-121 -121l-100 104l121 118q-62 96 -62 206q0 108 62 205zM301 603
q0 -94 66 -160.5t160 -66.5q93 0 159.5 66.5t66.5 160.5q0 92 -66 159t-160 67t-160 -67t-66 -159z" />
    <glyph glyph-name="yen" unicode="&#xa5;" horiz-adv-x="1190" 
d="M518 -30v283h-362v121h362v125h-362v129h298l-354 619h175l252 -449q43 -77 66 -134q20 46 71 141l240 442h186l-353 -619h297v-129h-359v-125h359v-121h-359v-283h-157z" />
    <glyph glyph-name="brokenbar" unicode="&#xa6;" horiz-adv-x="336" 
d="M236 1278v-689h-136v689h136zM236 292v-690h-136v690h136z" />
    <glyph glyph-name="section" unicode="&#xa7;" horiz-adv-x="1040" 
d="M155 -83l157 22q24 -112 77 -158.5t146 -46.5q88 0 138.5 46t50.5 107q0 44 -32 82q-54 65 -296 213q-129 79 -180 124t-83.5 106t-32.5 128q0 83 52.5 151t143.5 94q-62 60 -87 110t-25 107q0 112 87 194t231 82q163 0 254.5 -78t109.5 -225l-162 -16q-19 106 -65 148
t-123 42q-80 0 -129.5 -43t-49.5 -96q0 -45 32 -84q48 -59 266 -191q137 -84 185 -124q62 -51 91 -107.5t29 -121.5q0 -98 -63 -168q-37 -40 -134 -81q69 -53 103.5 -114t34.5 -130q0 -78 -43.5 -146t-125.5 -104.5t-177 -36.5q-166 0 -264 83.5t-116 231.5zM664 191
q65 33 96.5 77t31.5 86q0 49 -45 104q-46 55 -197 148q-118 72 -177 120q-70 -40 -100 -80t-30 -89q0 -55 40 -104q40 -51 180 -134q117 -68 201 -128z" />
    <glyph glyph-name="dieresis" unicode="&#xa8;" horiz-adv-x="689" 
d="M100 1050v178h164v-178h-164zM425 1050v178h164v-178h-164z" />
    <glyph glyph-name="copyright" unicode="&#xa9;" horiz-adv-x="1515" 
d="M758 1269q166 0 323.5 -85t245.5 -243.5t88 -329.5q0 -170 -86.5 -327t-243 -243.5t-327.5 -86.5q-170 0 -326.5 86.5t-244 243.5t-87.5 327q0 171 88.5 329.5t246 243.5t323.5 85zM758 1160q-139 0 -270 -71t-205 -203t-74 -275q0 -142 73 -272.5t203.5 -203
t272.5 -72.5q143 0 273.5 72.5t202.5 203t72 272.5q0 143 -73.5 275t-205 203t-269.5 71zM969 505l107 -32q-26 -109 -111 -174t-206 -65q-153 0 -249 100t-96 275q0 115 43.5 200t124 128.5t184.5 43.5q116 0 192.5 -56t105.5 -150l-104 -25q-27 64 -77.5 98.5t-120.5 34.5
q-100 0 -165 -71.5t-65 -204.5q0 -134 61.5 -202.5t159.5 -68.5q79 0 138 45.5t78 123.5z" />
    <glyph glyph-name="ordfeminine" unicode="&#xaa;" horiz-adv-x="785" 
d="M537 697q-106 -93 -224 -93q-97 0 -155 53.5t-58 137.5q0 42 14 73.5t41.5 55.5t70.5 39q31 9 87 19l128 18q62 13 83 18q-1 61 -12 81.5t-42 36.5t-82 16q-70 0 -103.5 -28.5t-41.5 -81.5l-120 30q11 78 77.5 129.5t189.5 51.5q143 0 201 -53q59 -54 59 -158v-209
l-1 -53q0 -117 36 -161h-129q-17 35 -19 78zM523 915q-46 -11 -167 -30q-78 -13 -102 -35t-24 -55q0 -36 29.5 -61t84.5 -25q63 0 110 34t63 83q6 18 6 89z" />
    <glyph glyph-name="guillemotleft" unicode="&#xab;" horiz-adv-x="948" 
d="M280 438l225 -397h-127l-278 397l278 398h130zM617 438l231 -397h-134l-272 397l272 398h134z" />
    <glyph glyph-name="logicalnot" unicode="&#xac;" horiz-adv-x="1043" 
d="M943 339h-148v383h-695v146h843v-529z" />
    <glyph glyph-name="uni00AD" unicode="&#xad;" horiz-adv-x="681" 
d="M100 361v158h481v-158h-481z" />
    <glyph glyph-name="registered" unicode="&#xae;" horiz-adv-x="1515" 
d="M758 1269q166 0 323.5 -85t245.5 -243.5t88 -329.5q0 -170 -86.5 -327t-243 -243.5t-327.5 -86.5q-170 0 -326.5 86.5t-244 243.5t-87.5 327q0 171 88.5 329.5t246 243.5t323.5 85zM758 1160q-139 0 -270 -71t-205 -203t-74 -275q0 -142 73 -272.5t203.5 -203
t272.5 -72.5q143 0 273.5 72.5t202.5 203t72 272.5q0 143 -73.5 275t-205 203t-269.5 71zM469 248v707h244q125 0 180.5 -20t88.5 -68.5t33 -103.5q0 -77 -55 -134.5t-147 -64.5q37 -16 61 -38q42 -41 103 -140l88 -138h-140l-63 111q-75 131 -120 165q-31 24 -91 24h-67
v-300h-115zM584 646h138q100 0 136.5 29.5t36.5 78.5q0 31 -18 56t-48.5 37.5t-114.5 12.5h-130v-214z" />
    <glyph glyph-name="macron" unicode="&#xaf;" horiz-adv-x="1241" 
d="M100 1297v113h1041v-113h-1041z" />
    <glyph glyph-name="degree" unicode="&#xb0;" horiz-adv-x="685" 
d="M100 1008q0 100 71.5 171t170.5 71q101 0 172 -71t71 -171q0 -101 -71 -172t-172 -71q-99 0 -170.5 70.5t-71.5 172.5zM196 1008q0 -61 43 -104.5t104 -43.5q60 0 103 43.5t43 104.5t-43 104t-103 43q-61 0 -104 -43t-43 -104z" />
    <glyph glyph-name="plusminus" unicode="&#xb1;" horiz-adv-x="1043" 
d="M447 201v351h-347v146h347v347h149v-347h347v-146h-347v-351h-149zM943 -26h-843v146h843v-146z" />
    <glyph glyph-name="twosuperior" unicode="&#xb2;" horiz-adv-x="743" 
d="M100 592q5 51 41 100q55 75 180.5 166t149.5 118q31 35 31 73q0 41 -30.5 68.5t-88.5 27.5t-86.5 -20.5t-46.5 -79.5l-132 15q25 96 87.5 142t179.5 46q132 0 193.5 -51.5t61.5 -126.5q0 -72 -52 -138q-40 -49 -179 -150q-72 -52 -103 -84h337v-106h-543z" />
    <glyph glyph-name="threesuperior" unicode="&#xb3;" horiz-adv-x="735" 
d="M100 764l128 14q17 -53 46 -72q36 -26 88 -26q62 0 99.5 33.5t37.5 81.5q0 44 -31.5 70t-106.5 26q-11 0 -30 -1q-11 -1 -19 -1l19 95q72 -1 104.5 25.5t32.5 64.5q0 32 -26.5 54.5t-77.5 22.5q-48 0 -76 -19.5t-48 -69.5l-124 20q36 92 90 129t159 37q125 0 182 -47
t57 -116q0 -48 -31 -85.5t-88 -53.5q77 -19 113.5 -63.5t36.5 -103.5q0 -81 -69 -141t-196 -60q-122 0 -186.5 48.5t-83.5 137.5z" />
    <glyph glyph-name="acute" unicode="&#xb4;" horiz-adv-x="523" 
d="M100 985l117 245h206l-192 -245h-131z" />
    <glyph glyph-name="mu" unicode="&#xb5;" horiz-adv-x="948" 
d="M848 912v-926h-141v111q-45 -71 -89 -97q-61 -36 -142 -36q-72 0 -128 30q-42 21 -92 86v-449h-156v1281h156v-392q0 -213 22.5 -276.5t73.5 -100t117 -36.5q69 0 124 38.5t77.5 99t22.5 273.5v394h155z" />
    <glyph glyph-name="mu" unicode="&#x3bc;" horiz-adv-x="948" 
d="M848 912v-926h-141v111q-45 -71 -89 -97q-61 -36 -142 -36q-72 0 -128 30q-42 21 -92 86v-449h-156v1281h156v-392q0 -213 22.5 -276.5t73.5 -100t117 -36.5q69 0 124 38.5t77.5 99t22.5 273.5v394h155z" />
    <glyph glyph-name="paragraph" unicode="&#xb6;" horiz-adv-x="1164" 
d="M452 -377v912q-163 8 -257.5 105t-94.5 248q0 168 105 268t307 100h552v-151h-126v-1482h-148v1482h-194v-1482h-144z" />
    <glyph glyph-name="periodcentered" unicode="&#xb7;" horiz-adv-x="378" 
d="M100 525v178h178v-178h-178z" />
    <glyph glyph-name="periodcentered" unicode="&#x2219;" horiz-adv-x="378" 
d="M100 525v178h178v-178h-178z" />
    <glyph glyph-name="cedilla" unicode="&#xb8;" horiz-adv-x="577" 
d="M195 -126l45 154h117l-29 -93q74 -9 111.5 -46t37.5 -82q0 -65 -62.5 -115t-189.5 -50q-71 0 -125 9l9 103q56 -4 82 -4q82 0 116 23q25 17 25 43q0 15 -10 27.5t-37 21t-90 9.5z" />
    <glyph glyph-name="onesuperior" unicode="&#xb9;" horiz-adv-x="522" 
d="M296 592v483q-90 -70 -196 -97v107q54 17 120 63t107 100h95v-656h-126z" />
    <glyph glyph-name="ordmasculine" unicode="&#xba;" horiz-adv-x="773" 
d="M387 1254q126 0 206 -87.5t80 -240.5t-80.5 -240.5t-205.5 -87.5q-126 0 -206.5 86t-80.5 238q0 157 80 244.5t207 87.5zM387 1137q-71 0 -114 -49.5t-43 -161.5q0 -110 44 -161t113 -51t112.5 51t43.5 165q0 106 -44 156.5t-112 50.5z" />
    <glyph glyph-name="guillemotright" unicode="&#xbb;" horiz-adv-x="948" 
d="M668 438l-228 398h130l278 -398l-278 -397h-129zM330 438l-230 398h132l273 -398l-273 -397h-132z" />
    <glyph glyph-name="onequarter" unicode="&#xbc;" horiz-adv-x="1570" 
d="M226 -79l961 1349h136l-959 -1349h-138zM296 609v483q-90 -71 -196 -98v107q54 17 120 63t107 100h95v-655h-126zM1253 -57v134h-334v107l353 414h107v-426h91v-95h-91v-134h-126zM1253 172v229l-200 -229h200z" />
    <glyph glyph-name="onehalf" unicode="&#xbd;" horiz-adv-x="1563" 
d="M205 -79l959 1349h137l-959 -1349h-137zM295 609v483q-89 -71 -195 -98v107q53 17 119 63t107 100h95v-655h-126zM921 -57q5 49 42 99q53 75 178.5 166t149.5 118q32 36 32 73q0 42 -30 68.5t-90 26.5q-58 0 -86 -20.5t-46 -78.5l-133 14q26 97 89 143t178 46
q132 0 193.5 -51.5t61.5 -125.5t-51 -139q-40 -48 -179 -150q-72 -53 -104 -83h337v-106h-542z" />
    <glyph glyph-name="threequarters" unicode="&#xbe;" horiz-adv-x="1634" 
d="M291 -79l960 1349h136l-959 -1349h-137zM100 780l128 13q17 -52 45 -71q37 -26 88 -26q62 0 100 33.5t38 81.5q0 44 -31.5 70t-105.5 26q-43 -2 -50 -2l19 95q71 -1 103.5 25.5t32.5 64.5q0 32 -26 54.5t-78 22.5q-48 0 -76 -19.5t-48 -69.5l-123 20q35 92 89 129t159 37
q125 0 182.5 -47t57.5 -116q0 -48 -31 -85.5t-89 -54.5q78 -18 114 -62.5t36 -104.5q0 -80 -68.5 -140t-195.5 -60q-122 0 -186.5 48.5t-83.5 137.5zM1317 -57v134h-333v107l352 414h108v-426h90v-95h-90v-134h-127zM1317 172v229l-200 -229h200z" />
    <glyph glyph-name="questiondown" unicode="&#xbf;" horiz-adv-x="1025" 
d="M601 913v-180h-178v180h178zM591 598q1 -29 1 -44q0 -97 -26 -164q-19 -50 -62 -102q-31 -37 -113 -108.5t-105.5 -114t-23.5 -93.5q0 -92 71.5 -161t175.5 -69q99 0 166.5 62.5t88.5 194.5l161 -17q-22 -177 -130 -273t-284 -96q-188 0 -299.5 102t-111.5 247
q0 84 39 153.5t154 171.5q77 68 100 100.5t34 74t14 136.5h150z" />
    <glyph glyph-name="Agrave" unicode="&#xc0;" horiz-adv-x="1394" 
d="M100 -38l490 1278h182l522 -1278h-192l-149 387h-534l-140 -387h-179zM468 487h433l-134 354q-61 160 -90 264q-24 -123 -69 -243zM820 1318h-126l-202 244h210z" />
    <glyph glyph-name="Aacute" unicode="&#xc1;" horiz-adv-x="1394" 
d="M100 -38l490 1278h182l522 -1278h-192l-149 387h-534l-140 -387h-179zM468 487h433l-134 354q-61 160 -90 264q-24 -123 -69 -243zM573 1318l116 244h205l-191 -244h-130z" />
    <glyph glyph-name="Acircumflex" unicode="&#xc2;" horiz-adv-x="1394" 
d="M100 -38l490 1278h182l522 -1278h-192l-149 387h-534l-140 -387h-179zM468 487h433l-134 354q-61 160 -90 264q-24 -123 -69 -243zM680 1467l-99 -149h-179l189 244h167l196 -244h-178z" />
    <glyph glyph-name="Atilde" unicode="&#xc3;" horiz-adv-x="1394" 
d="M100 -37l490 1278h182l522 -1278h-192l-149 387h-534l-140 -387h-179zM468 488h433l-134 354q-61 160 -90 264q-24 -122 -69 -243zM406 1320q-1 90 49 143q50 55 128 55q54 0 147 -47q51 -27 82 -27q28 0 42.5 15.5t20.5 60.5h114q-2 -99 -50 -148.5t-121 -49.5
q-55 0 -144 49q-59 30 -86 30q-30 0 -47 -20q-20 -21 -19 -61h-116z" />
    <glyph glyph-name="Adieresis" unicode="&#xc4;" horiz-adv-x="1394" 
d="M100 -37l490 1278h182l522 -1278h-192l-149 388h-534l-140 -388h-179zM468 488h433l-134 354q-61 161 -90 265q-24 -123 -69 -244zM432 1320v179h164v-179h-164zM757 1320v179h164v-179h-164z" />
    <glyph glyph-name="Aring" unicode="&#xc5;" horiz-adv-x="1394" 
d="M100 -37l490 1278h182l522 -1278h-192l-149 387h-534l-140 -387h-179zM468 488h433l-134 354q-61 161 -90 264q-24 -122 -69 -243zM521 1358q0 65 46.5 111t110.5 46t110.5 -47t46.5 -113q0 -67 -46.5 -113t-109.5 -46q-66 0 -112 46.5t-46 115.5zM587 1357
q0 -41 27.5 -68.5t64.5 -27.5q38 0 65.5 27.5t27.5 66.5q0 40 -27 68t-66 28q-37 0 -64.5 -27.5t-27.5 -66.5z" />
    <glyph glyph-name="AE" unicode="&#xc6;" horiz-adv-x="1886" 
d="M100 -30l614 1277h1049v-151h-643v-392h597v-151h-597v-432h666v-151h-836v368h-493l-174 -368h-183zM528 488h422v608h-126z" />
    <glyph glyph-name="Ccedilla" unicode="&#xc7;" horiz-adv-x="1329" 
d="M1060 426l169 -43q-53 -208 -191 -317.5t-337 -109.5q-207 0 -336.5 84t-197 243.5t-67.5 343.5q0 199 76 347.5t217 226t310 77.5q192 0 322.5 -98t182.5 -275l-167 -39q-44 140 -128.5 203.5t-212.5 63.5q-148 0 -247 -71t-139 -189.5t-40 -245.5q0 -163 47.5 -284.5
t147.5 -181.5t217 -60q143 0 241 81.5t133 243.5zM552 -157l45 155h116l-28 -94q73 -8 111 -45.5t38 -82.5q0 -65 -63 -115t-189 -50q-71 0 -126 10l10 103q55 -5 81 -5q82 0 116 24q25 16 25 43q0 14 -10 27t-37 21t-89 9z" />
    <glyph glyph-name="Egrave" unicode="&#xc8;" horiz-adv-x="1155" 
d="M100 -38v1278h924v-151h-754v-391h707v-150h-707v-435h785v-151h-955zM701 1318h-127l-202 244h211z" />
    <glyph glyph-name="Eacute" unicode="&#xc9;" horiz-adv-x="1155" 
d="M100 -38v1278h924v-151h-754v-391h707v-150h-707v-435h785v-151h-955zM450 1318l115 244h206l-192 -244h-129z" />
    <glyph glyph-name="Ecircumflex" unicode="&#xca;" horiz-adv-x="1155" 
d="M100 -38v1278h924v-151h-754v-391h707v-150h-707v-435h785v-151h-955zM576 1467l-99 -149h-179l188 244h168l196 -244h-179z" />
    <glyph glyph-name="Edieresis" unicode="&#xcb;" horiz-adv-x="1155" 
d="M100 -37v1278h924v-151h-754v-391h707v-150h-707v-434h785v-152h-955zM330 1320v179h164v-179h-164zM655 1320v179h163v-179h-163z" />
    <glyph glyph-name="Igrave" unicode="&#xcc;" horiz-adv-x="528" 
d="M220 -38v1278h169v-1278h-169zM428 1318h-126l-202 244h210z" />
    <glyph glyph-name="Iacute" unicode="&#xcd;" horiz-adv-x="522" 
d="M144 -38v1278h169v-1278h-169zM100 1318l116 244h206l-191 -244h-131z" />
    <glyph glyph-name="Icircumflex" unicode="&#xce;" horiz-adv-x="752" 
d="M295 -38v1278h169v-1278h-169zM378 1467l-99 -149h-179l189 244h167l196 -244h-177z" />
    <glyph glyph-name="Idieresis" unicode="&#xcf;" horiz-adv-x="690" 
d="M264 -37v1278h169v-1278h-169zM100 1320v179h164v-179h-164zM426 1320v179h164v-179h-164z" />
    <glyph glyph-name="Eth" unicode="&#xd0;" horiz-adv-x="1395" 
d="M239 -30v581h-139v115h139v581h441q148 0 227 -18q110 -26 187 -92q102 -85 151.5 -218t49.5 -304q0 -195 -61.5 -335.5t-148 -204t-198.5 -91.5q-62 -14 -187 -14h-461zM408 121h273q127 0 198.5 23t113.5 65q60 61 94 161.5t34 246.5q0 151 -33.5 240.5t-87.5 143
t-120 74.5t-203 21h-269v-430h353v-115h-353v-430z" />
    <glyph glyph-name="Ntilde" unicode="&#xd1;" horiz-adv-x="1207" 
d="M100 -37v1278h174l671 -1004v1004h162v-1278h-173l-671 1004v-1004h-163zM339 1320q-1 90 50 143q50 55 127 55q54 0 148 -47q51 -27 82 -27q27 0 42.5 15.5t20.5 60.5h113q-2 -99 -49.5 -148.5t-120.5 -49.5q-56 0 -145 49q-59 30 -86 30q-29 0 -47 -20q-19 -21 -19 -61
h-116z" />
    <glyph glyph-name="Ograve" unicode="&#xd2;" horiz-adv-x="1422" 
d="M100 585q0 318 171 497.5t441 179.5q176 0 318.5 -84.5t217 -235.5t74.5 -342q0 -194 -78 -348t-222 -233t-311 -79q-181 0 -322.5 87.5t-215 238t-73.5 319.5zM274 582q0 -231 124.5 -364t311.5 -133q191 0 314.5 134.5t123.5 381.5q0 155 -53 271.5t-154.5 180.5
t-227.5 64q-179 0 -309 -123t-130 -412zM812 1319h-126l-202 244h210z" />
    <glyph glyph-name="Oacute" unicode="&#xd3;" horiz-adv-x="1422" 
d="M100 585q0 318 171 497.5t441 179.5q176 0 318.5 -84.5t217 -235.5t74.5 -342q0 -194 -78 -348t-222 -233t-311 -79q-181 0 -322.5 87.5t-215 238t-73.5 319.5zM274 582q0 -231 124.5 -364t311.5 -133q191 0 314.5 134.5t123.5 381.5q0 155 -53 271.5t-154.5 180.5
t-227.5 64q-179 0 -309 -123t-130 -412zM604 1319l115 244h206l-191 -244h-130z" />
    <glyph glyph-name="Ocircumflex" unicode="&#xd4;" horiz-adv-x="1422" 
d="M100 585q0 318 171 497.5t441 179.5q176 0 318.5 -84.5t217 -235.5t74.5 -342q0 -194 -78 -348t-222 -233t-311 -79q-181 0 -322.5 87.5t-215 238t-73.5 319.5zM274 582q0 -231 124.5 -364t311.5 -133q191 0 314.5 134.5t123.5 381.5q0 155 -53 271.5t-154.5 180.5
t-227.5 64q-179 0 -309 -123t-130 -412zM709 1467l-98 -148h-179l188 244h167l196 -244h-178z" />
    <glyph glyph-name="Otilde" unicode="&#xd5;" horiz-adv-x="1422" 
d="M100 586q0 318 171 497.5t441 179.5q176 0 318.5 -84.5t217 -235.5t74.5 -342q0 -194 -78 -348t-222 -233t-311 -79q-181 0 -322.5 87.5t-215 238t-73.5 319.5zM274 583q0 -231 124.5 -364t311.5 -133q191 0 314.5 134.5t123.5 381.5q0 155 -53 271.5t-154.5 180.5
t-227.5 64q-179 0 -309 -123t-130 -412zM420 1320q-1 90 49 144t128 54q54 0 148 -47q51 -26 81 -26q28 0 42.5 15t20.5 61h114q-2 -99 -50 -149t-121 -50q-55 0 -144 49q-59 31 -86 31q-30 0 -47 -20q-20 -21 -19 -62h-116z" />
    <glyph glyph-name="Odieresis" unicode="&#xd6;" horiz-adv-x="1422" 
d="M100 587q0 318 171 497.5t441 179.5q176 0 318.5 -84.5t217 -236t74.5 -342.5q0 -194 -78 -348t-222 -232.5t-311 -78.5q-181 0 -322.5 87t-215 238t-73.5 320zM274 583q0 -231 124.5 -363.5t311.5 -132.5q191 0 314.5 134.5t123.5 380.5q0 156 -53 272.5t-154.5 180.5
t-227.5 64q-179 0 -309 -123.5t-130 -412.5zM463 1321v178h164v-178h-164zM789 1321v178h163v-178h-163z" />
    <glyph glyph-name="multiply" unicode="&#xd7;" horiz-adv-x="959" 
d="M100 327l274 274l-274 274l107 106l273 -274l273 273l105 -105l-272 -273l273 -274l-106 -106l-273 274l-275 -275z" />
    <glyph glyph-name="Oslash" unicode="&#xd8;" horiz-adv-x="1450" 
d="M1118 1131l146 164l86 -74l-154 -172q76 -112 101 -195q36 -110 36 -246q0 -196 -79.5 -349.5t-223 -232t-304.5 -78.5q-121 0 -218 34q-75 27 -175 100l-147 -164l-86 74l154 171q-86 130 -114.5 222t-28.5 221q0 197 78 351t220 233.5t315 79.5q116 0 204 -31t190 -108
zM1013 1013q-82 64 -143.5 88t-144.5 24q-191 0 -315.5 -130t-124.5 -387q0 -101 19 -179q14 -58 59 -144zM1084 923l-648 -725q67 -55 124 -77q75 -28 161 -28q190 0 314 134t124 376q0 181 -75 320z" />
    <glyph glyph-name="Ugrave" unicode="&#xd9;" horiz-adv-x="1205" 
d="M936 1240h169v-738q0 -193 -43.5 -306t-157.5 -184.5t-299 -71.5q-179 0 -293 62t-163 179t-49 321v738h169v-737q0 -167 31 -245.5t106 -121t184 -42.5q187 0 266.5 84.5t79.5 324.5v737zM704 1319h-126l-202 244h210z" />
    <glyph glyph-name="Uacute" unicode="&#xda;" horiz-adv-x="1205" 
d="M936 1240h169v-738q0 -193 -43.5 -306t-157.5 -184.5t-299 -71.5q-179 0 -293 62t-163 179t-49 321v738h169v-737q0 -167 31 -245.5t106 -121t184 -42.5q187 0 266.5 84.5t79.5 324.5v737zM495 1319l115 244h206l-192 -244h-129z" />
    <glyph glyph-name="Ucircumflex" unicode="&#xdb;" horiz-adv-x="1205" 
d="M936 1240h169v-738q0 -193 -43.5 -306t-157.5 -184.5t-299 -71.5q-179 0 -293 62t-163 179t-49 321v738h169v-737q0 -167 31 -245.5t106 -121t184 -42.5q187 0 266.5 84.5t79.5 324.5v737zM601 1467l-99 -148h-179l188 244h168l196 -244h-179z" />
    <glyph glyph-name="Udieresis" unicode="&#xdc;" horiz-adv-x="1205" 
d="M936 1242h169v-738q0 -194 -43.5 -306.5t-157.5 -184t-299 -71.5q-179 0 -293 62t-163 179t-49 321v738h169v-737q0 -167 31 -246t106 -121.5t184 -42.5q187 0 266.5 84.5t79.5 325.5v737zM355 1321v178h164v-178h-164zM680 1321v178h165v-178h-165z" />
    <glyph glyph-name="Yacute" unicode="&#xdd;" horiz-adv-x="1372" 
d="M593 -38v541l-493 737h206l252 -386q69 -108 129 -216q58 101 140 226l247 376h198l-510 -737v-541h-169zM579 1318l115 244h206l-192 -244h-129z" />
    <glyph glyph-name="Thorn" unicode="&#xde;" horiz-adv-x="1175" 
d="M100 -30v1277h169v-259h313q127 0 195 -13q95 -16 158.5 -60.5t101.5 -123.5t38 -174q0 -162 -104 -275t-375 -113h-327v-259h-169zM269 380h331q163 0 232 61t69 171q0 79 -40 136.5t-106 75.5q-43 13 -160 13h-326v-457z" />
    <glyph glyph-name="germandbls" unicode="&#xdf;" horiz-adv-x="1100" 
d="M100 -30v870q0 160 38.5 246t129.5 134.5t203 48.5q151 0 237.5 -75.5t86.5 -174.5q0 -45 -15.5 -92t-56 -117t-51 -97.5t-10.5 -47.5q0 -29 19 -56t106 -84q119 -78 158 -125q55 -67 55 -158q0 -121 -89 -207.5t-229 -86.5q-109 0 -192 58.5t-124 151.5l136 63
q43 -81 86.5 -112.5t91.5 -31.5q66 0 113.5 45t47.5 107q0 48 -29 83q-17 23 -97 77q-145 99 -179 149t-34 101q0 35 11.5 69.5t56.5 111.5t58.5 115t13.5 68q0 54 -47 95.5t-127 41.5q-93 0 -152.5 -57.5t-59.5 -248.5v-864h-156z" />
    <glyph glyph-name="agrave" unicode="&#xe0;" horiz-adv-x="1052" 
d="M757 84q-87 -74 -167.5 -104.5t-172.5 -30.5q-154 0 -235.5 74.5t-81.5 189.5q0 69 31 125t81 90t113 52q47 12 139 23q190 23 280 54q1 32 1 41q0 96 -45 135q-60 54 -178 54q-110 0 -163.5 -39t-78.5 -138l-153 21q21 99 69 159.5t138.5 93t210.5 32.5q119 0 193 -28
t108.5 -70t48.5 -107q8 -40 8 -144v-210q0 -218 10 -276t39 -111h-164q-24 48 -31 114zM744 434q-85 -35 -256 -59q-96 -13 -136.5 -30.5t-62 -51t-21.5 -74.5q0 -63 47 -105t139 -42q91 0 161.5 40t103.5 108q25 53 25 157v57zM659 1010h-127l-201 245h210z" />
    <glyph glyph-name="aacute" unicode="&#xe1;" horiz-adv-x="1052" 
d="M757 84q-87 -74 -167.5 -104.5t-172.5 -30.5q-154 0 -235.5 74.5t-81.5 189.5q0 69 31 125t81 90t113 52q47 12 139 23q190 23 280 54q1 32 1 41q0 96 -45 135q-60 54 -178 54q-110 0 -163.5 -39t-78.5 -138l-153 21q21 99 69 159.5t138.5 93t210.5 32.5q119 0 193 -28
t108.5 -70t48.5 -107q8 -40 8 -144v-210q0 -218 10 -276t39 -111h-164q-24 48 -31 114zM744 434q-85 -35 -256 -59q-96 -13 -136.5 -30.5t-62 -51t-21.5 -74.5q0 -63 47 -105t139 -42q91 0 161.5 40t103.5 108q25 53 25 157v57zM439 1010l116 245h206l-192 -245h-130z" />
    <glyph glyph-name="acircumflex" unicode="&#xe2;" horiz-adv-x="1052" 
d="M757 84q-87 -74 -167.5 -104.5t-172.5 -30.5q-154 0 -235.5 74.5t-81.5 189.5q0 69 31 125t81 90t113 52q47 12 139 23q190 23 280 54q1 32 1 41q0 96 -45 135q-60 54 -178 54q-110 0 -163.5 -39t-78.5 -138l-153 21q21 99 69 159.5t138.5 93t210.5 32.5q119 0 193 -28
t108.5 -70t48.5 -107q8 -40 8 -144v-210q0 -218 10 -276t39 -111h-164q-24 48 -31 114zM744 434q-85 -35 -256 -59q-96 -13 -136.5 -30.5t-62 -51t-21.5 -74.5q0 -63 47 -105t139 -42q91 0 161.5 40t103.5 108q25 53 25 157v57zM529 1158l-99 -148h-179l188 245h168
l195 -245h-177z" />
    <glyph glyph-name="atilde" unicode="&#xe3;" horiz-adv-x="1052" 
d="M757 85q-87 -75 -167.5 -105.5t-172.5 -30.5q-154 0 -235.5 74.5t-81.5 190.5q0 68 31 124.5t81 90.5t113 52q47 11 139 23q190 23 280 53q1 33 1 41q0 97 -45 136q-60 53 -178 53q-110 0 -163.5 -38.5t-78.5 -137.5l-153 21q21 99 69 159t138.5 92.5t210.5 32.5
q119 0 193 -27.5t108.5 -69.5t48.5 -107q8 -40 8 -144v-210q0 -219 10 -276.5t39 -111.5h-164q-24 49 -31 115zM744 434q-85 -34 -256 -58q-96 -14 -136.5 -31.5t-62 -51t-21.5 -74.5q0 -63 47 -105t139 -42q91 0 161.5 40t103.5 108q25 54 25 158v56zM235 1033
q-1 90 49 145q51 53 129 53q53 0 147 -47q51 -26 81 -26q28 0 43 15t20 62h114q-2 -100 -50 -150t-120 -50q-56 0 -145 49q-59 32 -85 32q-31 0 -48 -21q-19 -21 -19 -62h-116z" />
    <glyph glyph-name="adieresis" unicode="&#xe4;" horiz-adv-x="1052" 
d="M757 84q-87 -74 -167.5 -104.5t-172.5 -30.5q-154 0 -235.5 74.5t-81.5 189.5q0 69 31 125t81 90t113 52q47 12 139 23q190 23 280 54q1 32 1 41q0 96 -45 135q-60 54 -178 54q-110 0 -163.5 -39t-78.5 -138l-153 21q21 99 69 159.5t138.5 93t210.5 32.5q119 0 193 -28
t108.5 -70t48.5 -107q8 -40 8 -144v-210q0 -218 10 -276t39 -111h-164q-24 48 -31 114zM744 434q-85 -35 -256 -59q-96 -13 -136.5 -30.5t-62 -51t-21.5 -74.5q0 -63 47 -105t139 -42q91 0 161.5 40t103.5 108q25 53 25 157v57zM282 1077v178h164v-178h-164zM608 1077v178
h164v-178h-164z" />
    <glyph glyph-name="aring" unicode="&#xe5;" horiz-adv-x="1052" 
d="M757 83q-87 -74 -167.5 -104.5t-172.5 -30.5q-154 0 -235.5 74.5t-81.5 190.5q0 68 31 124t81 90t113 52q47 12 139 23q190 24 280 54q1 33 1 41q0 97 -45 135q-60 54 -178 54q-110 0 -163.5 -39t-78.5 -137l-153 21q21 98 69 158.5t138.5 93t210.5 32.5q119 0 193 -28
t108.5 -70t48.5 -107q8 -40 8 -144v-210q0 -218 10 -275.5t39 -111.5h-164q-24 48 -31 114zM744 433q-85 -35 -256 -59q-96 -13 -136.5 -30.5t-62 -51t-21.5 -74.5q0 -63 47 -105t139 -42q91 0 161.5 40t103.5 108q25 53 25 157v57zM370 1136q0 63 46.5 109t109.5 46
q65 0 111 -46.5t46 -113.5t-46 -113t-110 -46q-65 0 -111 46.5t-46 117.5zM436 1135q0 -41 27 -69t65 -28t65 28t27 66q0 40 -26.5 68t-65.5 28q-38 0 -65 -28t-27 -65z" />
    <glyph glyph-name="ae" unicode="&#xe6;" horiz-adv-x="1657" 
d="M1552 261q-43 -145 -147.5 -224.5t-259.5 -79.5q-111 0 -194 42t-150 130q-91 -88 -183.5 -130t-200.5 -42q-150 0 -233.5 77t-83.5 188q0 75 43.5 140.5t121 100t246.5 56.5q130 17 219 42q1 22 1 35q0 111 -46 155t-159 44q-77 0 -129 -18.5t-76.5 -52t-41.5 -108.5
l-152 19q24 102 69.5 162t131 93.5t199.5 33.5q146 0 235 -43q51 -25 86 -81q56 61 126 92.5t171 31.5q141 0 233.5 -68t135.5 -180.5t43 -221.5q0 -17 -2 -53h-669q2 -126 31.5 -182.5t93.5 -94.5t140 -38q90 0 152.5 51.5t85.5 144.5zM886 529h509q-13 139 -79 202.5
t-172 63.5q-110 0 -180 -70t-78 -196zM732 442q-68 -29 -280 -63q-95 -15 -133 -44q-52 -42 -52 -108q0 -62 46.5 -104t134.5 -42q100 0 174.5 50t97.5 123q12 45 12 188z" />
    <glyph glyph-name="ccedilla" unicode="&#xe7;" horiz-adv-x="1006" 
d="M752 325l154 -20q-25 -160 -129 -250t-256 -90q-190 0 -305.5 124.5t-115.5 355.5q0 150 50 262t151 168.5t221 56.5q151 0 246.5 -76t122.5 -216l-152 -24q-22 93 -77 140.5t-134 47.5q-118 0 -192.5 -85t-74.5 -269q0 -187 71.5 -271.5t187.5 -84.5q92 0 154 56.5
t78 174.5zM389 -131l45 155h117l-29 -94q74 -8 111.5 -45.5t37.5 -82.5q0 -65 -62.5 -115.5t-189.5 -50.5q-71 0 -125 11l9 101q56 -3 82 -3q82 0 115 22q25 18 25 43q0 16 -10 28t-36.5 21t-89.5 10z" />
    <glyph glyph-name="egrave" unicode="&#xe8;" horiz-adv-x="1053" 
d="M786 268l162 -20q-39 -143 -142.5 -221t-264.5 -78q-203 0 -322 125t-119 351q0 234 120 362.5t312 128.5q186 0 303.5 -126t117.5 -356q0 -14 -1 -41h-690q9 -153 86.5 -234t193.5 -81q86 0 147 45t97 145zM271 521h516q-10 118 -58 175q-76 92 -195 92
q-108 0 -182 -72.5t-81 -194.5zM632 1010h-126l-202 245h210z" />
    <glyph glyph-name="eacute" unicode="&#xe9;" horiz-adv-x="1053" 
d="M786 268l162 -20q-39 -143 -142.5 -221t-264.5 -78q-203 0 -322 125t-119 351q0 234 120 362.5t312 128.5q186 0 303.5 -126t117.5 -356q0 -14 -1 -41h-690q9 -153 86.5 -234t193.5 -81q86 0 147 45t97 145zM271 521h516q-10 118 -58 175q-76 92 -195 92
q-108 0 -182 -72.5t-81 -194.5zM440 1010l115 245h206l-191 -245h-130z" />
    <glyph glyph-name="ecircumflex" unicode="&#xea;" horiz-adv-x="1053" 
d="M786 268l162 -20q-39 -143 -142.5 -221t-264.5 -78q-203 0 -322 125t-119 351q0 234 120 362.5t312 128.5q186 0 303.5 -126t117.5 -356q0 -14 -1 -41h-690q9 -153 86.5 -234t193.5 -81q86 0 147 45t97 145zM271 521h516q-10 118 -58 175q-76 92 -195 92
q-108 0 -182 -72.5t-81 -194.5zM529 1158l-99 -148h-179l188 245h168l195 -245h-177z" />
    <glyph glyph-name="edieresis" unicode="&#xeb;" horiz-adv-x="1053" 
d="M786 268l162 -20q-39 -143 -142.5 -221t-264.5 -78q-203 0 -322 125t-119 351q0 234 120 362.5t312 128.5q186 0 303.5 -126t117.5 -356q0 -14 -1 -41h-690q9 -153 86.5 -234t193.5 -81q86 0 147 45t97 145zM271 521h516q-10 118 -58 175q-76 92 -195 92
q-108 0 -182 -72.5t-81 -194.5zM282 1077v178h164v-178h-164zM607 1077v178h164v-178h-164z" />
    <glyph glyph-name="igrave" unicode="&#xec;" horiz-adv-x="528" 
d="M242 -31v926h157v-926h-157zM428 1010h-126l-202 245h210z" />
    <glyph glyph-name="iacute" unicode="&#xed;" horiz-adv-x="522" 
d="M108 -31v926h157v-926h-157zM100 1010l116 245h206l-191 -245h-131z" />
    <glyph glyph-name="icircumflex" unicode="&#xee;" horiz-adv-x="751" 
d="M287 -31v926h157v-926h-157zM378 1158l-99 -148h-179l188 245h168l195 -245h-177z" />
    <glyph glyph-name="idieresis" unicode="&#xef;" horiz-adv-x="690" 
d="M265 -31v926h158v-926h-158zM100 1076v179h165v-179h-165zM426 1076v179h164v-179h-164z" />
    <glyph glyph-name="eth" unicode="&#xf0;" horiz-adv-x="1056" 
d="M304 1248h189q63 -47 110 -89l185 89l40 -89l-150 -73q278 -320 278 -662q0 -221 -120.5 -348.5t-308.5 -127.5q-223 0 -347 169q-80 111 -80 304q0 227 112 351t281 124q51 0 89 -10.5t96 -40.5q-31 63 -55 98t-69 87l-239 -111l-39 90l208 95q-84 79 -180 144zM794 431
q0 167 -79 255.5t-194 88.5q-114 0 -188 -88.5t-74 -270.5q0 -169 76.5 -254.5t190.5 -85.5q112 0 190 90.5t78 264.5z" />
    <glyph glyph-name="ntilde" unicode="&#xf1;" horiz-adv-x="952" 
d="M100 -30v926h142v-132q102 152 294 152q84 0 153.5 -30t105 -79t48.5 -116q9 -43 9 -152v-569h-157v563q0 96 -18 143.5t-65 75.5t-109 28q-101 0 -173.5 -63.5t-72.5 -241.5v-505h-157zM210 1032q0 91 51 145q49 54 127 54q53 0 147 -47q51 -27 82 -27q28 0 42.5 15.5
t21.5 61.5h113q-3 -100 -50.5 -149.5t-120.5 -49.5q-55 0 -145 49q-58 31 -85 31q-29 0 -48 -21t-18 -62h-117z" />
    <glyph glyph-name="ograve" unicode="&#xf2;" horiz-adv-x="1068" 
d="M100 433q0 257 144 381q119 102 291 102q191 0 312 -125t121 -345q0 -179 -53.5 -281.5t-156 -159t-223.5 -56.5q-194 0 -314.5 124.5t-120.5 359.5zM262 433q0 -179 77.5 -267t195.5 -88q117 0 194.5 88.5t77.5 271.5q0 171 -78 260t-194 89q-118 0 -195.5 -88.5
t-77.5 -265.5zM640 1010h-126l-202 245h210z" />
    <glyph glyph-name="oacute" unicode="&#xf3;" horiz-adv-x="1068" 
d="M100 433q0 257 144 381q119 102 291 102q191 0 312 -125t121 -345q0 -179 -53.5 -281.5t-156 -159t-223.5 -56.5q-194 0 -314.5 124.5t-120.5 359.5zM262 433q0 -179 77.5 -267t195.5 -88q117 0 194.5 88.5t77.5 271.5q0 171 -78 260t-194 89q-118 0 -195.5 -88.5
t-77.5 -265.5zM448 1010l115 245h206l-192 -245h-129z" />
    <glyph glyph-name="ocircumflex" unicode="&#xf4;" horiz-adv-x="1068" 
d="M100 433q0 257 144 381q119 102 291 102q191 0 312 -125t121 -345q0 -179 -53.5 -281.5t-156 -159t-223.5 -56.5q-194 0 -314.5 124.5t-120.5 359.5zM262 433q0 -179 77.5 -267t195.5 -88q117 0 194.5 88.5t77.5 271.5q0 171 -78 260t-194 89q-118 0 -195.5 -88.5
t-77.5 -265.5zM536 1158l-98 -148h-179l188 245h167l196 -245h-177z" />
    <glyph glyph-name="otilde" unicode="&#xf5;" horiz-adv-x="1068" 
d="M100 433q0 258 144 382q119 101 291 101q191 0 312 -124.5t121 -345.5q0 -178 -53.5 -280.5t-156 -159.5t-223.5 -57q-194 0 -314.5 124.5t-120.5 359.5zM262 433q0 -178 77.5 -266t195.5 -88q117 0 194.5 88.5t77.5 271.5q0 171 -78 259.5t-194 88.5q-118 0 -195.5 -88
t-77.5 -266zM243 1033q-1 90 49 145q50 53 128 53q54 0 148 -47q51 -26 81 -26q28 0 42.5 15t20.5 62h114q-2 -100 -50 -150t-121 -50q-55 0 -144 49q-59 32 -86 32q-30 0 -47 -21q-20 -21 -19 -62h-116z" />
    <glyph glyph-name="odieresis" unicode="&#xf6;" horiz-adv-x="1068" 
d="M100 433q0 257 144 381q119 102 291 102q191 0 312 -125t121 -345q0 -179 -53.5 -281.5t-156 -159t-223.5 -56.5q-194 0 -314.5 124.5t-120.5 359.5zM262 433q0 -179 77.5 -267t195.5 -88q117 0 194.5 88.5t77.5 271.5q0 171 -78 260t-194 89q-118 0 -195.5 -88.5
t-77.5 -265.5zM290 1077v178h164v-178h-164zM615 1077v178h164v-178h-164z" />
    <glyph glyph-name="divide" unicode="&#xf7;" horiz-adv-x="1043" 
d="M432 773v179h178v-179h-178zM943 526h-843v147h843v-147zM432 248v179h178v-179h-178z" />
    <glyph glyph-name="oslash" unicode="&#xf8;" horiz-adv-x="1068" 
d="M789 849l86 111l84 -61l-93 -120q54 -75 74 -136q28 -87 28 -203q0 -261 -147 -384q-120 -99 -288 -99q-139 0 -245 70l-92 -118l-82 62l94 123q-51 60 -73 118q-35 96 -35 216q0 262 128.5 379t300.5 117q72 0 132 -17.5t128 -57.5zM701 734q-80 61 -167 61
q-116 0 -194 -89t-78 -265q0 -131 45 -219zM766 649l-391 -508q68 -55 154 -55q120 0 199 89t79 267q0 67 -11 116q-6 37 -30 91z" />
    <glyph glyph-name="ugrave" unicode="&#xf9;" horiz-adv-x="950" 
d="M710 -30v135q-108 -156 -294 -156q-82 0 -152.5 31.5t-105.5 78.5t-48 117q-10 46 -10 146v574h157v-513q0 -123 9 -166q15 -62 63 -97.5t119 -35.5q70 0 132 36.5t87.5 98.5t25.5 180v497h157v-926h-140zM620 1010h-126l-202 245h210z" />
    <glyph glyph-name="uacute" unicode="&#xfa;" horiz-adv-x="950" 
d="M710 -30v135q-108 -156 -294 -156q-82 0 -152.5 31.5t-105.5 78.5t-48 117q-10 46 -10 146v574h157v-513q0 -123 9 -166q15 -62 63 -97.5t119 -35.5q70 0 132 36.5t87.5 98.5t25.5 180v497h157v-926h-140zM380 1010l116 245h206l-191 -245h-131z" />
    <glyph glyph-name="ucircumflex" unicode="&#xfb;" horiz-adv-x="950" 
d="M710 -30v135q-108 -156 -294 -156q-82 0 -152.5 31.5t-105.5 78.5t-48 117q-10 46 -10 146v574h157v-513q0 -123 9 -166q15 -62 63 -97.5t119 -35.5q70 0 132 36.5t87.5 98.5t25.5 180v497h157v-926h-140zM477 1158l-99 -148h-179l189 245h167l196 -245h-178z" />
    <glyph glyph-name="udieresis" unicode="&#xfc;" horiz-adv-x="950" 
d="M710 -30v135q-108 -156 -294 -156q-82 0 -152.5 31.5t-105.5 78.5t-48 117q-10 46 -10 146v574h157v-513q0 -123 9 -166q15 -62 63 -97.5t119 -35.5q70 0 132 36.5t87.5 98.5t25.5 180v497h157v-926h-140zM230 1077v178h164v-178h-164zM556 1077v178h164v-178h-164z" />
    <glyph glyph-name="yacute" unicode="&#xfd;" horiz-adv-x="1048" 
d="M182 -379l-17 148q51 -14 89 -14q53 0 84.5 17.5t51.5 49.5q14 23 48 116q4 13 14 38l-352 928h169l193 -536q38 -102 67 -214q28 108 64 211l199 539h156l-352 -941q-56 -153 -88 -210q-42 -78 -96 -114.5t-128 -36.5q-46 0 -102 19zM438 1019l115 245h206l-192 -245
h-129z" />
    <glyph glyph-name="thorn" unicode="&#xfe;" horiz-adv-x="1003" 
d="M100 -377v1633h156v-450q64 67 113 89q62 29 142 29q119 0 209.5 -61t136.5 -171.5t46 -244.5q0 -142 -51 -255.5t-148 -174t-203 -60.5q-72 0 -134 28q-48 23 -111 89v-451h-156zM242 436q0 -179 72.5 -264.5t174.5 -85.5q105 0 180 88.5t75 273.5q0 178 -73 265.5
t-174 87.5t-178 -93.5t-77 -271.5z" />
    <glyph glyph-name="ydieresis" unicode="&#xff;" horiz-adv-x="1048" 
d="M182 -379l-17 148q51 -14 89 -14q53 0 84.5 17.5t51.5 49.5q14 23 48 116q4 13 14 38l-352 928h169l193 -536q38 -102 67 -214q28 108 64 211l199 539h156l-352 -941q-56 -153 -88 -210q-42 -78 -96 -114.5t-128 -36.5q-46 0 -102 19zM284 1085v179h163v-179h-163z
M608 1085v179h164v-179h-164z" />
    <glyph glyph-name="OE" unicode="&#x152;" horiz-adv-x="1815" 
d="M1715 121v-151h-750v184q-119 -206 -350 -206q-261 0 -397 202q-118 179 -118 460q0 280 123.5 469.5t391.5 189.5q231 0 350 -194v172h723v-151h-566v-390h522v-149h-522v-436h593zM615 1132q-88 0 -172 -56.5t-126.5 -172t-42.5 -306.5q0 -264 100.5 -388.5
t240.5 -124.5t239.5 124t99.5 410q0 267 -100 390.5t-239 123.5z" />
    <glyph glyph-name="oe" unicode="&#x153;" horiz-adv-x="1749" 
d="M881 130q-66 -86 -152.5 -129.5t-192.5 -43.5q-196 0 -316 124.5t-120 347.5q0 147 51 264t155.5 174t231.5 57q120 0 209 -50t134 -126q56 80 143.5 128t195.5 48q192 0 310.5 -131t116.5 -394h-683q2 -145 80.5 -229t194.5 -84q86 0 148.5 48.5t90.5 144.5l157 -22
q-38 -144 -140 -222t-259 -78q-116 0 -208.5 45.5t-146.5 127.5zM262 442q0 -162 62 -246q80 -110 208 -110q112 0 192.5 92.5t80.5 265.5q0 172 -79 262t-194 90q-76 0 -139.5 -43t-97 -126.5t-33.5 -184.5zM970 528h512q-11 131 -80 199.5t-172 68.5q-105 0 -177.5 -72
t-82.5 -196z" />
    <glyph glyph-name="Scaron" unicode="&#x160;" horiz-adv-x="1217" 
d="M100 373l159 14q12 -96 53.5 -157.5t128.5 -99t196 -37.5q97 0 171 28t110 78.5t36 109.5q0 61 -35 105.5t-115 75.5q-51 20 -227 62.5t-246 78.5q-93 49 -137.5 119.5t-44.5 159.5q0 96 54.5 180.5t160 128t235.5 43.5q141 0 250 -46t167 -134.5t63 -201.5l-162 -12
q-13 121 -88.5 183t-222.5 62q-153 0 -223.5 -56t-70.5 -136q0 -68 49 -113q50 -44 256 -91t283 -81q111 -52 164 -130.5t53 -181.5q0 -102 -58 -192.5t-168 -141t-246 -50.5q-174 0 -291 51t-183.5 152.5t-70.5 229.5zM591 1409l96 148h177l-195 -243h-168l-188 243h179z
" />
    <glyph glyph-name="scaron" unicode="&#x161;" horiz-adv-x="968" 
d="M100 246l155 24q13 -92 72.5 -142t166.5 -50q109 0 161.5 44t52.5 103q0 54 -47 84q-32 21 -160 54q-172 43 -239 75t-101.5 88t-34.5 123q0 62 28.5 115t77.5 88q36 27 99.5 45.5t135.5 18.5q109 0 191 -31t121.5 -84.5t54.5 -143.5l-154 -21q-10 71 -60 111.5
t-141 40.5q-108 0 -154.5 -36t-46.5 -84q0 -30 19 -54q19 -26 60 -42q24 -10 139 -40q166 -46 232 -74t103 -82t37 -134q0 -79 -45.5 -148.5t-131.5 -107t-195 -37.5q-181 0 -275.5 75t-120.5 222zM487 1106l96 149h177l-195 -245h-168l-188 245h179z" />
    <glyph glyph-name="Ydieresis" unicode="&#x178;" horiz-adv-x="1372" 
d="M593 -37v541l-493 737h206l252 -385q69 -108 129 -216q58 100 140 225l247 376h198l-510 -737v-541h-169zM441 1320v179h164v-179h-164zM766 1320v179h164v-179h-164z" />
    <glyph glyph-name="Zcaron" unicode="&#x17d;" horiz-adv-x="1210" 
d="M100 -38v156l654 819q70 88 133 152h-713v151h915v-151l-717 -887l-78 -89h816v-151h-1010zM618 1409l95 148h179l-197 -244h-167l-189 244h180z" />
    <glyph glyph-name="zcaron" unicode="&#x17e;" horiz-adv-x="1019" 
d="M100 -31v127l590 677q-100 -6 -177 -6h-378v128h757v-103l-501 -588l-97 -108q106 9 198 9h427v-136h-819zM539 1105l96 150h177l-195 -245h-168l-188 245h180z" />
    <glyph glyph-name="florin" unicode="&#x192;" horiz-adv-x="1107" 
d="M100 -375l31 135q88 -19 132 -19q47 0 72.5 24.5t40.5 107.5l154 908h-175l21 123h175l20 116q20 105 40 143q27 54 77 84.5t131 30.5q70 0 188 -33l-31 -133q-90 21 -134 21q-50 0 -74 -24t-41 -116l-17 -89h179l-22 -123h-179l-165 -951q-24 -129 -77 -178.5
t-150 -49.5q-82 0 -196 23z" />
    <glyph glyph-name="circumflex" unicode="&#x2c6;" horiz-adv-x="751" 
d="M378 1133l-99 -148h-179l188 245h167l196 -245h-177z" />
    <glyph glyph-name="tilde" unicode="&#x2dc;" horiz-adv-x="784" 
d="M101 1007q-1 90 49 145q50 54 128 54q54 0 148 -48q51 -26 81 -26q28 0 42.5 15.5t20.5 61.5h114q-2 -100 -50 -150t-121 -50q-55 0 -144 50q-59 31 -86 31q-30 0 -47 -21q-20 -21 -19 -62h-116z" />
    <glyph glyph-name="tibAa.Naro.Anusvara" unicode="&#xf00;" horiz-adv-x="1416" 
d="M1229 1054v-965q0 -41 -15 -52q-24 0 -48 32q-146 330 -296 528.5t-301 267.5q-54 -46 -91.5 -83.5t-59.5 -63.5q123 -30 184.5 -87t70.5 -148q-18 -295 -313 -284q-310 15 -300 373q0 215 151 474h-118l62 179h259q-272 -429 -272 -608q2 -246 209 -246q156 2 156 140
q0 48 -53 87.5t-159 70.5q56 92 130.5 191.5t160.5 185.5h-135l77 179h151q-26 34 -54 67q-60 66 -125 107q-34 24 -81.5 43.5t-108.5 34.5q-49 11 -101 17.5t-84 6.5h-50q54 179 197 189q103 9 198 -49h-2q62 -37 115 -93t98 -142q35 97 92 156t141 72q119 0 185 9
q41 4 96 23.5t122 62.5q56 33 87.5 62t42.5 48q4 26 28 26q34 -6 21 -37q-34 -77 -90 -149.5t-130 -138.5q-47 -57 -122.5 -88t-174.5 -29h-58q-80 0 -127.5 -23.5t-73.5 -69.5q7 -13 18.5 -33t24.5 -46q4 -13 7 -26h148l-43 -179h-71q-15 -7 -36.5 -24t-43.5 -37
q263 -237 427 -689q-2 655 -127 758l47 171h207zM701 2154q237 -30 263 -293q-26 -250 -266 -281q-247 31 -271 281q26 263 271 293h3zM748 1984q-65 38 -121 38q-82 0 -112 -58v2q-4 -15 -6 -25.5t-2 -23.5q0 -41 34.5 -84t98.5 -87q74 -45 127 -36q65 8 102 54
q2 11 3 21.5t1 23.5q0 108 -125 175z" />
    <glyph glyph-name="tibTruncAa" unicode="&#xf01;" horiz-adv-x="1350" 
d="M1030 1225l-64 -171h-69q-54 -30 -104 -77q214 -183 358 -492q13 -19 30.5 -58t39 -86.5t43 -96t38.5 -92.5t28 -80.5t11 -53.5q0 -18 -3.5 -31t-16.5 -13q-10 0 -14.5 4.5t-15.5 21.5q-161 356 -320.5 568.5t-328.5 287.5q-49 -39 -93.5 -82t-82.5 -88
q138 -30 209 -91.5t71 -158.5q0 -69 -25 -126t-70 -97t-111 -61.5t-139 -21.5q-179 0 -265 98t-86 285q0 74 22.5 147t57 146.5t73 135t73.5 112.5h-147l78 171h263q-73 -112 -135.5 -211.5t-107 -184.5t-70 -162.5t-25.5 -153.5q0 -64 19 -105t52.5 -67t81 -34.5
t103.5 -8.5q43 0 79.5 13t62.5 34.5t39 48.5t13 61q0 58 -50.5 105.5t-171.5 80.5q67 114 146.5 217.5t174.5 195.5h-153l78 171h424z" />
    <glyph glyph-name="tibAchung_Shapkyu.Hon__Visarga" unicode="&#xf02;" horiz-adv-x="1985" 
d="M1865 901q0 -73 -29 -131t-71.5 -101.5t-97 -63.5t-108.5 -20q-56 0 -113.5 20t-101.5 63.5t-72 101.5t-28 131q0 76 26 135t70 101.5t100 65t119 22.5q54 0 110 -22.5t100 -67t70 -102.5t26 -132zM1865 145q0 -74 -29 -133t-71.5 -100t-97 -63.5t-108.5 -22.5
q-56 0 -113.5 22.5t-101.5 63.5t-72 100t-28 133q0 71 26 132.5t70 102.5t100 64.5t119 23.5q54 0 110 -23.5t100 -65.5t70 -102.5t26 -131.5zM1776 82q0 52 -31 95t-77.5 77.5t-98 55t-99.5 20.5q-26 0 -51.5 -7.5t-47 -20.5t-36 -36.5t-14.5 -58.5q0 -26 22 -70t64 -83
t97 -68t121 -29q24 0 51 6.5t51 21.5t36.5 39t12.5 58zM1776 841q0 47 -31 91.5t-77.5 78t-98 56t-99.5 22.5q-26 0 -51.5 -7.5t-47 -22.5t-36 -38t-14.5 -55q0 -30 22 -73t64 -82t97 -67t121 -28q24 0 51 6.5t51 20.5t36.5 39t12.5 59zM931 1684q5 -95 -45 -151t-155 -62
q-93 -7 -154.5 45t-63.5 133q-4 65 37 90t125 12q-37 -22 -35 -71.5t32.5 -75.5t74.5 -7.5t52.5 65t-36.5 89.5t-69 85t-24 128q7 35 17.5 66t28 55t28.5 34.5t13 10.5q4 0 4 -4q-13 -218 60.5 -268.5t90.5 -98t19 -75.5zM722 1248q-56 -2 -103.5 4.5t-112 42t-146.5 126.5
q-2 11 -2 19.5t-2 21.5q-2 34 10.5 67.5t47.5 53.5q47 -59 85 -91t77 -52q41 -19 83 -31t85 -10q32 3 75 19t83 39.5t76.5 54t56.5 58.5q23 0 26 -20q0 -10 -28 -56.5t-57.5 -82t-65 -69t-75.5 -58.5t-83 -33zM229 132q40 -30 84.5 -60.5t85.5 -62.5q32 -24 82.5 -72.5
t109.5 -108.5q58 -52 107.5 -96t81.5 -61q46 -28 104 -45.5t123 -17.5q220 7 224 114q0 117 -123 117q-114 2 -181 -93q0 250 181 250q37 0 63 -11q-67 188 -177 296q-106 114 -227 140q-36 4 -57.5 7.5t-30.5 3.5q-118 0 -256 -50q25 220 258 248q102 0 190 -39
q56 101 56 209q0 164 -162 272h-317q-92 -41 -154.5 -130.5t-84.5 -218.5q-6 -100 11 -158t56 -118q-39 -121 -140 -197q-52 93 -75.5 182.5t-23.5 173.5q0 431 431 619h649l-97 -142q23 -63 37 -116t14 -91q0 -177 -129 -330q104 -82 178 -213.5t117 -323.5q3 -30 -13 -45
q87 -63 80 -246q-4 -276 -291 -285q-200 -8 -468 315q-77 93 -165.5 176t-191.5 156q-19 14 -11 39q18 26 52 13z" />
    <glyph glyph-name="tibAchung_Shapkyu.Hon__XXX" unicode="&#xf03;" horiz-adv-x="1985" 
d="M1865 901q0 -73 -29 -131t-71.5 -101.5t-97 -63.5t-108.5 -20q-56 0 -113.5 20t-101.5 63.5t-72 101.5t-28 131q0 76 26 135t70 101.5t100 65t119 22.5q54 0 110 -22.5t100 -67t70 -102.5t26 -132zM1934 24q0 -73 -29 -132.5t-71.5 -100.5t-97 -63.5t-108.5 -22.5
q-56 0 -113.5 22.5t-101.5 63.5t-72 100.5t-28 132.5q0 71 26 132.5t70 102.5t100 64.5t119 23.5q54 0 110 -23.5t100 -65.5t70 -102.5t26 -131.5zM1845 -39q0 52 -31 95t-77.5 77.5t-98 55t-99.5 20.5q-26 0 -51.5 -7.5t-47 -20.5t-36 -36.5t-14.5 -57.5q0 -26 22 -70.5
t64 -83t97 -68t121 -29.5q24 0 51 6.5t50.5 22t36.5 39t13 57.5zM1776 841q0 47 -31 91.5t-77.5 78t-98 56t-99.5 22.5q-26 0 -51.5 -7.5t-47 -22.5t-36 -38t-14.5 -55q0 -30 22 -73t64 -82t97 -67t121 -28q24 0 51 6.5t51 20.5t36.5 39t12.5 59zM931 1684q5 -95 -45 -151
t-155 -62q-93 -7 -154.5 45t-63.5 133q-4 65 37 90t125 12q-37 -22 -35 -71.5t32.5 -75.5t74.5 -7.5t52.5 65t-36.5 89.5t-69 85t-24 128q7 35 17.5 66t28 55t28.5 34.5t13 10.5q4 0 4 -4q-13 -218 60.5 -268.5t90.5 -98t19 -75.5zM722 1248q-56 -2 -103.5 4.5t-112 42
t-146.5 126.5q-2 11 -2 19.5t-2 21.5q-2 34 10.5 67.5t47.5 53.5q47 -59 85 -91t77 -52q41 -19 83 -31t85 -10q32 3 75 19t83 39.5t76.5 54t56.5 58.5q23 0 26 -20q0 -10 -28 -56.5t-57.5 -82t-65 -69t-75.5 -58.5t-83 -33zM1380 550h536l-36 -144h-537zM229 132
q40 -30 84.5 -60.5t85.5 -62.5q32 -24 82.5 -72.5t109.5 -108.5q58 -52 107.5 -96t81.5 -61q46 -28 104 -45.5t123 -17.5q220 7 224 114q0 117 -123 117q-114 2 -181 -93q0 250 181 250q37 0 63 -11q-67 188 -177 296q-106 114 -227 140q-36 4 -57.5 7.5t-30.5 3.5
q-118 0 -256 -50q25 220 258 248q102 0 190 -39q56 101 56 209q0 164 -162 272h-317q-92 -41 -154.5 -130.5t-84.5 -218.5q-6 -100 11 -158t56 -118q-39 -121 -140 -197q-52 93 -75.5 182.5t-23.5 173.5q0 431 431 619h649l-97 -142q23 -63 37 -116t14 -91q0 -177 -129 -330
q104 -82 178 -213.5t117 -323.5q3 -30 -13 -45q87 -63 80 -246q-4 -276 -291 -285q-200 -8 -468 315q-77 93 -165.5 176t-191.5 156q-19 14 -11 39q18 26 52 13z" />
    <glyph glyph-name="tibSnail" unicode="&#xf04;" horiz-adv-x="1852" 
d="M1794 787q0 -224 -122 -342.5t-335 -122.5q-169 -5 -307 94.5t-230 301.5q-112 248 -294.5 416t-423.5 261q17 13 32 21.5t52 8.5q95 0 198.5 -50.5t201.5 -132.5t188.5 -195t166.5 -243q84 -155 193.5 -229.5t241.5 -71.5q155 8 236 78t98 200q-6 140 -77.5 214.5
t-213.5 76.5q-84 0 -123 -28t-36 -78q6 -49 43.5 -77.5t91.5 -28.5q56 0 88.5 22t49.5 41q15 -9 20.5 -23t5.5 -40q0 -41 -19.5 -74t-49.5 -57t-64.5 -34.5t-64.5 -6.5q-95 9 -150 72.5t-64 177.5q20 274 283 287q183 -15 281 -123t103 -315zM1794 281q0 -63 -39 -130
t-103.5 -120.5t-151 -89.5t-183.5 -36q-209 0 -368.5 110t-290.5 332q-141 233 -295 387t-339 215q15 13 25.5 20.5t36.5 7.5q80 0 171.5 -45.5t187.5 -129.5t193 -195t188 -247q32 -51 77.5 -97.5t103.5 -81t135.5 -54t181.5 -19.5q75 0 145 18.5t129.5 54t110 85
t87.5 107.5z" />
    <glyph glyph-name="tibSnail2" unicode="&#xf05;" horiz-adv-x="1026" 
d="M933 817q0 -245 -115 -371.5t-348 -126.5q-86 0 -155 25t-126 82t-104.5 147.5t-93.5 220.5q50 -52 103 -105t113 -93t125 -68t142 -28q175 0 265.5 83t88.5 234q-2 63 -25 106t-59.5 77.5t-86 50.5t-105.5 16q-91 0 -129.5 -26.5t-38.5 -76.5q0 -17 7.5 -35.5
t22.5 -33.5t37.5 -26t50.5 -11q30 0 48.5 4.5t36 12t34.5 17t39 22.5q13 -17 15 -25.5t2 -30.5q0 -30 -15 -61t-40 -55t-57.5 -39t-64.5 -15q-52 0 -94 15t-73 46.5t-47.5 77.5t-16.5 109q0 62 19.5 115t57.5 91t90.5 59.5t115.5 21.5q82 0 154 -34.5t121.5 -90.5
t77.5 -128.5t28 -152.5zM953 358q6 -97 -28.5 -180t-100 -143.5t-155 -96t-193.5 -35.5q-116 0 -201 42t-142.5 109t-83 151t-23.5 166q34 -47 73 -95.5t92 -95.5t121 -69.5t165 -22.5q138 0 259.5 69.5t216.5 200.5z" />
    <glyph glyph-name="tibSnailShey" unicode="&#xf06;" horiz-adv-x="1822" 
d="M1774 781q0 -222 -121.5 -342t-335.5 -124q-168 -2 -306 98t-231 303q-112 246 -294 415t-423 262q17 13 32 18.5t52 5.5q94 0 197.5 -47.5t202 -131.5t189 -197.5t165.5 -244.5q84 -149 194 -224.5t242 -71.5q155 7 235.5 77t98.5 199q-7 143 -78 217t-213 74
q-84 3 -123 -26.5t-37 -78.5q7 -50 44.5 -78t91.5 -28q56 0 88.5 22.5t49.5 40.5q15 -9 20.5 -23t5.5 -40q0 -45 -19.5 -77.5t-49.5 -54t-64.5 -32t-65.5 -6.5q-94 6 -149 69.5t-64 178.5q19 274 282 286q184 -15 282 -122.5t102 -316.5zM1768 367q0 -63 -39 -129.5
t-103.5 -121.5t-151 -88.5t-183.5 -33.5q-209 0 -368.5 109t-290.5 331q-140 235 -294.5 388t-339.5 213q15 13 25.5 21.5t36.5 8.5q80 0 171.5 -46t187.5 -129t193 -195.5t188 -247.5q32 -52 77.5 -97.5t103.5 -81t135.5 -55t181.5 -19.5q75 0 145 19.5t129.5 54t110 84
t87.5 107.5zM1477 -39l-63 -170v-1136q-2 -34 -34 -37q-35 3 -35 37q-24 528 -33.5 644.5t-26.5 219t-37.5 177t-48.5 95.5l60 170h218z" />
    <glyph glyph-name="tibSnailShey2" unicode="&#xf07;" horiz-adv-x="2940" 
d="M1740 735q0 -222 -120 -341.5t-337 -123.5q-166 -2 -304 98t-233 301q-110 248 -292 415t-424 259q15 13 31.5 22t50.5 9q97 0 199.5 -50t201.5 -133t190.5 -195t165.5 -243q82 -156 192 -229t241 -69q155 4 237 74.5t97 201.5q-4 140 -75 213.5t-216 79.5
q-84 0 -121.5 -29t-33.5 -78q4 -48 41 -77t93 -29q51 0 84.5 22.5t53.5 39.5q15 -10 18 -23t3 -41q0 -41 -17 -73.5t-47.5 -56t-65 -33.5t-66.5 -8q-93 7 -150 71.5t-61 178.5q17 274 282 285q369 -26 382 -438zM2803 1173v-977h-95v977h95zM2005 1182v-986h-95v986h95z
M2499 1011q-13 -140 -154 -153q-140 13 -153 153q13 138 153 151q141 -13 154 -151zM2499 500q-13 -140 -154 -153q-140 13 -153 153q13 141 153 153q141 -12 154 -153z" />
    <glyph glyph-name="tibPalmTree" unicode="&#xf08;" horiz-adv-x="1061" 
d="M690 1100q0 -74 -80 -136q-6 -2 -12.5 -7.5t-13.5 -11.5q-19 -16 -36.5 -31t-60.5 -43q56 0 103.5 -2t99.5 -2q105 0 138 34q19 31 19 143v202l177 104v-179q0 -71 -26 -143.5t-75 -141.5q-67 -101 -162 -147.5t-218 -39.5l-278 19l123 130q123 131 123 200
q0 138 -134 138q-142 0 -155 -237l-200 -110l30 183q26 112 73 151h-2q2 4 39.5 25.5t111.5 60.5q30 15 75.5 22.5t105.5 7.5q103 0 142 -34q93 -78 93 -155zM985 332q0 -21 -32 -90q-30 -69 -45 -82q-80 0 -148 -32.5t-120 -94.5q-13 -15 -20.5 -56t-9.5 -102
q-11 -133 -13 -212t-2 -105v-543q0 -6 -17 -17h4l-9 -9q-10 0 -21 -6q-15 0 -45 30v670q0 123 -18.5 213.5t-53.5 140.5q-40 45 -100.5 69t-144.5 24q-18 -3 -38 -8l-40 -10l13 158q4 41 22 47q8 7 53 7q141 0 214 -41q86 -43 138 -156q26 46 64.5 82.5t97.5 73.5
q118 84 217 84q20 4 28 -2q5 -5 7 -5l4 11q15 -4 15 -39zM921 475q-162 0 -371 -222q-15 43 -46.5 82.5t-76.5 74.5q-91 65 -164 56l-54 -2q-19 -11 -43 -19.5t-41 -19.5v168q7 45 22 58q17 7 69 7q127 8 214 -54.5t139 -195.5q60 114 170 213q56 56 222 56q0 -58 -21 -159z
" />
    <glyph glyph-name="tibBhutanMark1" unicode="&#xf09;" horiz-adv-x="1479" 
d="M1440 33q0 -20 -7.5 -41.5t-26.5 -21.5q-33 -2 -63 52q-282 481 -944 481h-67q-45 0 -37 62q7 24 25 33.5t41 13t48.5 2.5t45.5 1q47 4 99 16t109 31.5t105.5 45t87.5 59t63.5 76.5t24.5 93q0 121 -102.5 190t-287.5 69q-52 0 -143.5 -26t-240.5 -95q-36 -17 -64 -32.5
t-54 -15.5q-22 0 -31.5 10t-11.5 29q0 39 19 61.5t71 55.5q41 30 105.5 60t135 54t142.5 40t139 16q88 0 172 -27t150 -75.5t109 -118.5t43 -152q0 -62 -22.5 -117t-61.5 -105t-93 -91t-118 -75q502 -183 625 -481q15 -41 15 -77zM1289 -271q0 -22 -18 -41.5t-47 -19.5
q-34 0 -51 41q-188 503 -776 503q-65 0 -65 60q6 52 82 56q591 -11 817 -438q9 -15 17.5 -37.5t19 -44t16 -42t5.5 -37.5z" />
    <glyph glyph-name="tibBhutanMark2" unicode="&#xf0a;" horiz-adv-x="1697" 
d="M1615 -465q0 -106 -76 -106q-327 15 -601 114t-473.5 265t-309.5 404.5t-110 538.5q0 668 962 836q47 4 92.5 8.5t93 6.5t102.5 4.5t119 2.5q39 0 74.5 -2.5t66 -10t52 -22.5t27.5 -43q7 -69 -39 -71q-45 2 -90 2h-82q-1229 0 -1229 -742q0 -241 86 -437t233 -340.5
t345 -234t427 -113.5q34 -9 64.5 -11t56.5 -2q56 0 75 15t19 37v28q0 15 6.5 30t32.5 17q26 0 42 -22.5t24 -49.5t9 -56t1 -46zM1630 102q0 -18 -7.5 -41.5t-27.5 -23.5q-30 0 -60 58q-73 117 -160.5 197.5t-185.5 130t-200.5 71.5t-199.5 22h-34q-11 0 -18 -3q-43 3 -34 63
q13 45 56 45h43q9 0 45.5 6.5t84 19.5t101.5 39t98 60.5t74 82t30 107.5q0 121 -62.5 177t-178.5 56q-45 0 -84 -3.5t-80 -15t-89.5 -31t-121.5 -54.5q-41 -19 -67 -33t-56 -14q-20 -2 -31.5 9.5t-11.5 29.5q0 38 21.5 62t66.5 54q45 28 98 57t110 50.5t118.5 33.5t128.5 12
q88 0 158 -22.5t122 -64.5t79 -110t27 -150q0 -62 -21.5 -117t-60.5 -105t-90.5 -91t-118.5 -75q82 -17 161.5 -59t151 -94t126.5 -118.5t85 -140.5q15 -39 15 -77zM1492 -211q0 -24 -18.5 -43t-46.5 -19q-34 0 -52 40q-47 126 -105 212t-138 137.5t-189 73.5t-260 22
q-64 0 -64 60q10 52 84 56q149 -4 260 -23.5t197 -61.5t152 -114.5t119 -182.5q11 -15 21 -35.5t18.5 -43t15 -44t6.5 -34.5z" />
    <glyph glyph-name="tibTsek" unicode="&#xf0b;" horiz-adv-x="388" 
d="M320 1223q-46 -208 -160 -277q17 56 17 65q0 17 -24 35q-21 17 -41 17l-43 -2l62 161z" />
    <glyph glyph-name="tibNBTsek" unicode="&#xf0c;" horiz-adv-x="388" 
d="M320 1223q-46 -198 -160 -267q17 56 17 65q0 17 -24 35q-21 17 -41 17l-43 -2l62 151z" />
    <glyph glyph-name="tibShey" unicode="&#xf0d;" horiz-adv-x="397" 
d="M351 1223l-64 -168v-1725q0 -43 -35 -43q-52 4 -52 52q0 314 -5 707.5t-18 667.5q-13 330 -168 341l75 168h267z" />
    <glyph glyph-name="tibSheyShey" unicode="&#xf0e;" horiz-adv-x="970" 
d="M390 1223l-64 -168v-1739q0 -43 -37 -43q-50 4 -50 52q0 328 -6.5 721.5t-19.5 667.5q-13 330 -168 341l76 168h269zM901 1223l-67 -168v-1739q0 -43 -36 -43q-46 4 -46 52q0 328 -6.5 721.5t-18.5 667.5q-13 330 -169 341l74 168h269z" />
    <glyph glyph-name="tibTsekShey" unicode="&#xf0f;" horiz-adv-x="399" 
d="M354 763l-65 -168v-1278q0 -45 -35 -45q-51 6 -51 51q0 212 -5.5 436t-18.5 494q-13 329 -168 340l75 170h268z" />
    <glyph glyph-name="tibTsekTsekShey" unicode="&#xf10;" horiz-adv-x="388" 
d="M347 1225q-62 -229 -175 -296q-8 7 -15.5 22t3.5 28q4 50 -35 67h-82l73 179h231zM345 867q-63 -226 -179 -293q-4 4 -11.5 18t0.5 27q7 52 -34 71h-82l75 177h231zM349 496l-64 -168v-1022q0 -45 -35 -45q-52 6 -52 51l-23 673q-13 332 -169 343l76 168h267z" />
    <glyph glyph-name="tibTsekTsekTsekShey" unicode="&#xf11;" horiz-adv-x="675" 
d="M317 1225q-63 -229 -177 -298q-8 9 -16 23t3 27q5 49 -34 67h-80l73 181h231zM660 1225q-63 -229 -175 -296q-6 7 -14 22t1 28q7 50 -34 67h-78l73 179h227zM451 839q-63 -226 -173 -295q-11 6 -17.5 21t0.5 26q6 52 -30 69h-82l71 179h231zM459 496l-69 -168v-1024
q0 -45 -32 -45q-50 6 -50 51q0 171 -6.5 286t-19.5 389q-13 332 -168 343l76 168h269z" />
    <glyph glyph-name="tibElaboratePlusShey" unicode="&#xf12;" horiz-adv-x="2988" 
d="M1585 576l-61 -170v-1471q-2 -34 -34 -36q-37 2 -37 36v464q0 28 -3 107.5t-11 185.5t-17.5 222t-28 217.5t-37.5 176t-47 98.5l60 170h216zM1671 1693q4 -80 -49 -124.5t-139 -44.5q-77 0 -121.5 42.5t-44.5 110.5q0 63 28 94.5t82 48.5q24 17 31.5 40.5t9.5 62.5l9 18
q4 8 19 8q9 0 18.5 -5.5t9.5 -18.5q0 -41 10 -64.5t33 -36.5q95 -19 104 -131zM1817 826q0 -41 -11.5 -73.5t-30 -54t-40 -33.5t-45.5 -12q-45 0 -100 26t-126 95q-30 24 -67 43.5t-60 19.5q-26 0 -44.5 -6.5t-33.5 -24t-31 -45.5t-40 -75q-7 -28 -26 -28q-22 0 -22 28
q9 140 44.5 204.5t124.5 64.5q32 0 62 -9.5t55 -25.5t45.5 -32.5t37.5 -33.5q28 -22 46.5 -38t34.5 -25.5t32 -15t40 -5.5q91 0 106 134q6 21 21 21t21.5 -24.5t6.5 -48.5v-26zM2984 1059v-41l-623 -48q-28 -4 -46.5 -12.5t-32.5 -23.5t-26 -28t-23 -20v311q35 -33 66 -53.5
t62 -35.5zM755 886q-11 7 -22 20t-24 28t-33.5 23.5t-48.5 12.5l-623 48v41l623 49q31 15 63 35.5t65 53.5v-311zM1830 1585q-41 -138 -126 -206t-223 -66q-157 4 -240 86t-101 216q0 13 9 13q9 2 22 -7q69 -114 148.5 -169t174.5 -57q88 0 160.5 50.5t132.5 143.5
q13 24 30 24q15 -9 13 -28zM1106 1186q-2 -30 -26 -61.5t-82 -82.5q-69 45 -96 79.5t-27 62.5q0 30 35.5 36.5t81.5 8.5q41 0 77.5 -9.5t36.5 -33.5zM2098 1186q-5 -30 -27.5 -61.5t-82.5 -82.5q-69 45 -94 79.5t-25 62.5q0 30 32.5 36.5t79.5 8.5q43 0 80 -9.5t37 -33.5z
M1768 1186q-5 -30 -29.5 -61.5t-85.5 -82.5q-64 45 -90 79.5t-26 62.5q0 30 34.5 36.5t77.5 8.5q43 0 81 -9.5t38 -33.5zM1438 1186q-4 -30 -28 -61.5t-84 -82.5q-65 45 -91 79.5t-26 62.5q0 30 33.5 36.5t78.5 8.5q44 0 80.5 -9.5t36.5 -33.5zM1589 1686q0 71 -99 73
q-43 -2 -67 -16t-28 -53q-5 -36 22 -61t73 -27q99 0 99 84z" />
    <glyph glyph-name="tibCircle4Dots" unicode="&#xf13;" horiz-adv-x="2160" 
d="M1565 242q0 -115 -35.5 -207.5t-100 -156t-156.5 -99t-204 -35.5t-204.5 35.5t-158.5 99t-100.5 156t-34.5 207.5q0 116 34.5 210t100.5 159.5t158.5 100t204.5 34.5t204 -34.5t156.5 -100t100 -159.5t35.5 -210zM1423 250q0 80 -26 146t-72.5 111t-110 70t-145.5 25
q-84 0 -150.5 -25t-113 -70t-73.5 -111t-27 -146q0 -84 27 -152t73.5 -114t113 -71t150.5 -25q82 0 145.5 25t110 71t72.5 114t26 152zM403 250q0 -73 -42 -117t-111 -44t-113 44t-44 117q-2 67 40 107t117 40q69 0 111 -40t42 -107zM2044 250q0 -73 -42 -117t-109 -44
q-74 0 -116 44t-42 117q-2 67 40 107t118 40q67 0 109 -40t42 -107zM1224 1065q0 -71 -39.5 -114t-110.5 -43q-72 0 -114 43t-46 114q0 69 42 111t118 42q71 0 110.5 -42t39.5 -111zM1224 -571q0 -71 -39.5 -114t-110.5 -43q-72 0 -114 43t-46 114q0 71 42 112t118 41
q71 0 110.5 -41t39.5 -112z" />
    <glyph glyph-name="tibCircleDashCircle" unicode="&#xf14;" horiz-adv-x="845" 
d="M733 895q0 -73 -28 -131.5t-71 -99.5t-96 -64.5t-111 -23.5q-56 0 -113 23.5t-101.5 64.5t-72.5 99.5t-28 131.5q0 75 26 134.5t70 102.5t101 64.5t118 21.5q58 0 112 -23.5t98 -64.5t70 -101.5t26 -133.5zM733 -133q0 -74 -28 -132t-71 -99t-96 -64.5t-111 -23.5
q-56 0 -113 23.5t-101.5 64.5t-72.5 99t-28 132q0 75 26 134.5t70 100.5t101 64.5t118 23.5q58 0 112 -23.5t98 -64.5t70 -102.5t26 -132.5zM645 832q0 52 -31.5 95t-78 79t-98 55t-96.5 19q-26 0 -52 -4t-48.5 -20.5t-36.5 -39t-14 -54.5q0 -30 21.5 -74.5t63.5 -83
t97 -66.5t126 -28q19 0 47 6t51 21.5t36 39t13 55.5zM645 -196q0 52 -31.5 95t-78 78.5t-98 55t-96.5 19.5q-26 0 -52 -5.5t-48.5 -20.5t-36.5 -38.5t-14 -54.5q0 -30 21.5 -74t63.5 -83t97 -68t126 -29q19 0 47 6.5t51 22.5t36 39t13 57zM757 453l-35 -140h-606l35 140h606
z" />
    <glyph glyph-name="tibGuillotine" unicode="&#xf15;" horiz-adv-x="1530" 
d="M1436 -788h-226q-47 0 -88 23t-79.5 61t-76 86.5t-77.5 98.5t-83.5 98.5t-93.5 86.5t-108.5 61t-128.5 23h-395v1469h1356v-2007zM473 -137q114 0 199 -36t149.5 -91.5t114 -121t93 -125.5t85.5 -105.5t92 -59.5h4q-35 86 -66 178.5t-68.5 180.5t-86 167.5t-118.5 139
t-166.5 94.5t-229.5 35h-170v108h170q146 0 257.5 -42.5t196 -114t145 -164.5t104.5 -193.5t75 -201t56 -187.5h14v1102h-1130v-563h280zM702 991v-112h-509v-338h1130v338h-510v112h510v113h-1130v-113h509zM674 651h-398v115h398v-115zM1210 651h-366v115h366v-115z" />
    <glyph glyph-name="tibBrickWall" unicode="&#xf16;" horiz-adv-x="1526" 
d="M711 626v-287h-537v-113h651v400h523v110h-1061v283h538v115h-651v-508h537zM911 933h-540v-113h1063v-280h-523v-400h-823v285h537v115h-537v680h823v-287zM1434 -116h-609v-139h609v-369h-1346v369h623v139h-623v117h1346v-117zM682 -509v141h-481v-141h481zM1319 -509
v141h-467v-141h467z" />
    <glyph glyph-name="tibFeather" unicode="&#xf17;" horiz-adv-x="1585" 
d="M262 375q-26 0 -56 -9.5t-57.5 -21.5t-48.5 -21.5t-28 -9.5q-6 0 -6 5q0 36 17.5 87.5t51 107t81 110.5t108 98.5t132.5 70.5t154 27q52 0 111 -18.5t119 -50t116.5 -72.5t102.5 -86q37 -29 72.5 -52.5t73 -41t78 -28.5t85.5 -15q10 0 10 -4q0 -5 -4 -10t-6 -5
q-20 0 -50 -3t-54 -3q-26 0 -44 -13t-40 -26q-36 -21 -72.5 -42.5t-76.5 -38t-84.5 -27t-98.5 -10.5q-105 0 -185 16t-147.5 35t-128 35t-125.5 16zM305 481q34 0 86.5 -17t118 -38t139.5 -38t150 -17q71 0 130.5 8.5t102 20t66.5 23.5t24 20q-40 13 -77 37.5t-75.5 54
t-80.5 60.5t-92 56.5t-110.5 41.5t-135.5 16q-41 0 -86 -17t-88.5 -44t-83.5 -60t-70.5 -65t-48.5 -59t-18 -42q2 0 16.5 9t36 20.5t47 20.5t49.5 9zM545 443q-22 0 -44 7t-40 21.5t-29.5 36.5t-11.5 51q0 32 12.5 54.5t32.5 36.5t45.5 20t52.5 6q51 0 78 -34.5t27 -82.5
q0 -14 -4.5 -34t-17.5 -38t-37 -31t-64 -13zM147 651q-5 0 -6.5 12.5t-1.5 30.5q0 25 3 53.5t8 51.5q6 22 18.5 44t27.5 39.5t30.5 28.5t27.5 11q4 0 6 -9t3.5 -22t2 -26.5t0.5 -22.5q0 -17 -2 -27.5t-8 -15.5q-2 -5 -10 -12t-17.5 -14t-18 -13.5t-11.5 -9.5
q-12 -10 -18 -27t-9.5 -33t-8.5 -27.5t-16 -11.5zM336 864q0 13 7 34.5t13 39.5q6 15 12.5 33t15 33.5t21 26t31.5 10.5q11 0 20 -2t9 -15q0 -20 -10 -51t-21 -57q-8 -8 -24.5 -16.5t-30.5 -20.5q-9 -6 -15 -18.5t-10 -25t-7 -21.5t-5 -9t-3.5 8t-2 18.5t-0.5 20v12.5z
M500 850q-5 0 -5.5 9.5t-0.5 17.5q0 37 8.5 69.5t19.5 67.5q13 32 33 53t51 21q2 0 7 -3t5 -10q0 -3 -5.5 -20t-13.5 -37.5t-17 -38.5t-15 -22q-6 -7 -16 -10t-16 -9q-11 -8 -15 -23t-6 -29.5t-4.5 -25t-9.5 -10.5zM1147 817q4 0 11 -0.5t14 -2.5t12.5 -6.5t5.5 -12.5
q0 -4 -14.5 -18t-32.5 -29.5t-35 -28t-23 -12.5q-11 0 -17 6t-17 6q-10 0 -15 -4t-9 -8.5t-9.5 -8.5t-16.5 -4q0 12 17 32.5t40 40.5t48 35t41 15zM844 852q4 16 16.5 42.5t31 51.5t43 43.5t52.5 18.5q8 0 10 -3t2 -10q0 -6 -9 -23t-21 -35t-25 -32.5t-20 -15.5
q-24 -6 -36 -13.5t-18.5 -14t-10.5 -11t-11 -4.5q-4 0 -4 6zM1124 645q12 9 25.5 22.5t29 26t33 21t35.5 8.5q4 0 10 -0.5t11.5 -2.5t9.5 -6t4 -11q0 -5 -13.5 -18.5t-31.5 -28t-34.5 -26t-22.5 -11.5q-8 0 -16.5 4t-16.5 4q-17 0 -28 -9.5t-21 -9.5q0 7 4 12.5t9 10t9 8
t4 6.5zM59 443q-5 0 -8 10t-5.5 25.5t-3.5 34t-1 34.5q0 18 3.5 41t9 44t12.5 35.5t14 14.5t10.5 -12t5 -29.5t1 -37.5t-0.5 -36q-2 -18 -6 -40t-8.5 -40.5t-10.5 -31t-12 -12.5zM913 774q0 5 3.5 8t5.5 5l12 12t17 16.5t17 16t11 10.5q21 17 34.5 30.5t27 23.5t31 15
t46.5 5q0 -2 1 -4.5t1 -4.5q0 -5 -10.5 -17.5t-24.5 -26.5t-28.5 -26t-22.5 -16q-5 -4 -9 -5.5t-7.5 -2t-8.5 -1.5t-12 -3q-7 -4 -18 -11.5l-22 -15t-19.5 -13t-9.5 -5.5q-15 0 -15 10zM1206 531q0 11 16 25t33 28q15 10 27 21t24 20t26 14.5t32 5.5q19 0 26 -4t7 -10
q0 -4 -12.5 -17.5t-29.5 -28.5t-34.5 -26.5t-26.5 -11.5q-12 0 -19 4t-18 4q-7 0 -13.5 -4t-12.5 -8.5t-12.5 -8t-12.5 -3.5zM618 885q0 19 8 52.5t23 66t35.5 56.5t44.5 24q6 0 6 -9q0 -10 -5.5 -28.5t-13 -38t-15 -34.5t-11.5 -17q-20 -3 -30.5 -15.5t-16.5 -27t-10 -26
t-10 -11.5q-5 0 -5 8zM1339 502q-8 0 -8 8q0 1 15.5 16t37.5 31.5t45.5 30.5t38.5 14q13 0 21 -4t8 -12q0 -9 -12.5 -23t-29 -27.5t-33.5 -23.5t-27 -10q-8 0 -15.5 2t-13.5 2t-13 -2t-14 -2zM741 877q0 19 10.5 50t26 60t33.5 50.5t33 21.5q8 -2 9 -5.5t1 -8.5
q0 -10 -6.5 -28.5t-17 -37t-24 -33t-26.5 -16.5q-5 -4 -9 -14t-7.5 -20.5t-8 -19t-10.5 -8.5q-5 0 -4.5 3.5t0.5 5.5zM479 567q0 -20 13 -34.5t36 -14.5q17 0 30 13.5t13 27.5q0 19 -12 35t-35 16q-20 0 -32.5 -12t-12.5 -31z" />
    <glyph glyph-name="tib_WireCoil" unicode="&#xf18;" horiz-adv-x="1008" 
d="M-104 -778q34 15 69 34.5t67.5 44t60 54t48.5 64.5q-20 -5 -36.5 -6t-34.5 -1q-55 0 -100 8t-77 29t-49.5 58t-17.5 96q0 37 15.5 84t41.5 84l80 110q9 13 23.5 26t32 23t37 16.5t38.5 6.5q39 0 72 -24.5t56.5 -61.5t36.5 -79t13 -77q0 -32 -9.5 -61t-14.5 -62
q34 19 74 52t77.5 71.5t69.5 79t51 74.5q-17 -2 -36 -4t-38 -2q-52 0 -96.5 8t-77 29.5t-51 58.5t-18.5 94q0 18 4.5 40.5t12 45t18 43.5t22.5 37l82 115q9 13 22.5 25.5t31 22.5t37 16t40.5 6q39 0 72 -24.5t56.5 -61t36.5 -78.5t13 -76q0 -32 -10 -62t-16 -61
q40 12 70.5 27t56.5 34.5t49 46t47 62.5l67 20q-27 -53 -61 -98t-74.5 -86t-87.5 -79.5t-100 -78.5q-8 -20 -26.5 -56t-43.5 -76.5t-52.5 -80t-53.5 -65.5q-38 -38 -92 -82t-111 -86q-7 -15 -21 -42t-32 -59.5t-39.5 -66.5t-44 -63.5t-46 -51t-44.5 -28.5zM190 -422
q0 27 -12.5 65t-34.5 72.5t-51 59t-63 24.5q-21 0 -43.5 -10t-41 -25.5t-30.5 -35t-12 -37.5q0 -33 22 -58t53.5 -41.5t66.5 -25t62 -8.5q45 0 84 12v8zM569 27q0 23 -13 60.5t-35 73t-51.5 61.5t-61.5 26q-21 0 -44 -10t-41.5 -26t-31 -36t-12.5 -39q0 -33 22 -57.5t54 -41
t67.5 -24.5t62.5 -8q23 0 42 3t42 10v8z" />
    <glyph glyph-name="tib_Shey" unicode="&#xf19;" horiz-adv-x="338" 
d="M297 52l-62 -170v-947q-2 -34 -39 -36q-30 2 -32 36v41q0 24 -3.5 97.5t-10 168t-16 198t-28 195.5t-39 160.5t-50.5 86.5l63 170h217z" />
    <glyph glyph-name="tibSymbolO" unicode="&#xf1a;" horiz-adv-x="623" 
d="M558 757q0 -54 -17 -100.5t-49.5 -79.5t-79 -51.5t-104.5 -18.5q-54 0 -99 18.5t-77.5 51.5t-48.5 79.5t-16 100.5t16 101.5t48.5 77.5t77.5 47.5t99 17.5q58 0 103.5 -17.5t79 -47.5t50.5 -77.5t17 -101.5zM455 757q0 32 -12 56t-30 43.5t-45 29t-60 9.5q-30 0 -56 -9.5
t-43 -29t-28 -43.5t-11 -56q0 -65 39 -103.5t99 -38.5q71 0 109 37.5t38 104.5z" />
    <glyph glyph-name="tibSymbolOO" unicode="&#xf1b;" horiz-adv-x="1419" 
d="M573 697q0 -56 -19 -101.5t-50.5 -79t-78 -50.5t-99.5 -17q-59 0 -104 17t-77.5 50.5t-48.5 79t-16 101.5q0 54 16 99t48.5 77.5t77.5 49.5t104 17q53 0 98.5 -17t78 -49.5t51.5 -77.5t19 -99zM468 697q0 32 -11 58t-29 43t-45 28t-57 11q-33 0 -60 -11t-43 -28t-27 -43
t-11 -58q0 -67 39 -104t102 -37q66 0 104 36t38 105zM1341 697q0 -56 -16 -101.5t-48.5 -79t-78 -50.5t-99.5 -17q-58 0 -104 17t-77.5 50.5t-50 79t-18.5 101.5q0 54 18.5 99t50 77.5t77.5 49.5t104 17q54 0 99.5 -17t78 -49.5t48.5 -77.5t16 -99zM1237 697q0 32 -9.5 58
t-28 43t-44 28t-56.5 11q-36 0 -61 -11t-43 -28t-27 -43t-9 -58q0 -67 35.5 -104t104.5 -37q65 0 101.5 36t36.5 105z" />
    <glyph glyph-name="tibSymbolOOO" unicode="&#xf1c;" horiz-adv-x="1354" 
d="M537 281q0 -57 -16.5 -104t-48.5 -79.5t-78.5 -48.5t-102.5 -16q-54 0 -100.5 16t-77.5 48.5t-50.5 79.5t-19.5 104q0 53 19.5 98.5t50.5 76.5t77.5 48.5t100.5 17.5q56 0 102.5 -17.5t78.5 -48.5t48.5 -76.5t16.5 -98.5zM431 281q0 30 -8.5 54.5t-27 43t-46.5 30.5
t-58 12q-32 0 -57 -12t-43.5 -30.5t-28 -43t-9.5 -54.5q0 -65 36.5 -104t101.5 -39q69 0 104.5 37t35.5 106zM1311 281q0 -57 -18.5 -104t-48.5 -79.5t-77.5 -48.5t-103.5 -16t-100.5 16t-77.5 48.5t-50.5 79.5t-17.5 104q0 53 17.5 98.5t50.5 76.5t77.5 48.5t100.5 17.5
t100 -17.5t77.5 -48.5t52 -76.5t18.5 -98.5zM1205 281q0 30 -10.5 54.5t-30 43t-45.5 30.5t-56 12t-56 -12t-44.5 -30.5t-29 -43t-10.5 -54.5q0 -65 38.5 -104t101.5 -39q64 0 103 37t39 106zM923 951q0 -58 -16.5 -104.5t-48.5 -77.5t-77.5 -48.5t-103.5 -17.5
q-54 0 -99.5 17.5t-77.5 48.5t-50.5 77.5t-18.5 104.5q0 56 18.5 100t50.5 75.5t77.5 51t99.5 19.5q58 0 103.5 -19.5t77.5 -51t48.5 -75.5t16.5 -100zM817 951q0 30 -8.5 55t-27 44.5t-45.5 30t-59 10.5t-57 -10.5t-44.5 -30t-29 -44.5t-9.5 -55q0 -65 37.5 -103.5
t102.5 -38.5t102.5 38.5t37.5 103.5z" />
    <glyph glyph-name="tibSymbolX" unicode="&#xf1d;" horiz-adv-x="972" 
d="M892 970l-301 -304l155 -155q80 -80 153 -149l-110 -116l-304 302q-71 -76 -149.5 -154.5t-147.5 -145.5l-115 114l300 304l-302 304l123 106l291 -298q37 33 76 72l77 77q39 39 74.5 76.5t67.5 72.5z" />
    <glyph glyph-name="tibSymbolXX" unicode="&#xf1e;" horiz-adv-x="2044" 
d="M1955 966l-302 -304q76 -75 157 -155t152 -149l-108 -116l-306 302q-69 -76 -150 -154.5t-150 -145.5l-112 114l302 304l-306 304l125 106l291 -298q34 33 72 71.5t76.5 77.5t75.5 76.5t71 72.5zM903 966l-302 -304l156 -155q79 -80 153 -149l-110 -116l-304 302
q-71 -76 -150 -154.5t-148 -145.5l-114 114l300 304l-302 304l123 106l291 -298q36 33 75 72l78 77q39 39 74.5 76.5t67.5 72.5z" />
    <glyph glyph-name="tibSymbolOX" unicode="&#xf1f;" horiz-adv-x="1576" 
d="M1492 968l-304 -300q75 -75 157 -156t151 -152l-108 -117l-304 304q-71 -73 -151 -153l-150 -151l-115 117l304 308l-304 300l125 105l291 -293q35 33 72.5 71.5t76.5 76.5t74.5 76.5t72.5 73.5zM624 659q0 -68 -22 -125.5t-61 -93.5t-94 -58.5t-123 -22.5
q-65 0 -119.5 22.5t-94 58.5t-60.5 93.5t-21 125.5q0 65 21 120.5t60.5 93t94 58.5t119.5 21q68 0 123 -21t94 -58.5t61 -93t22 -120.5zM496 659q0 36 -10 66.5t-34 53t-54.5 36.5t-73.5 14q-36 0 -67.5 -14t-53.5 -36.5t-34 -53t-12 -66.5q0 -77 46 -124.5t121 -47.5
q81 0 126.5 44.5t45.5 127.5z" />
    <glyph glyph-name="tibZero" unicode="&#xf20;" horiz-adv-x="981" 
d="M716 196q-145 -163 -248 -163q-26 0 -37 8q-39 11 -77 39q-39 30 -82 82q-119 152 -119 391q8 146 46 295.5t82.5 223t93.5 118.5q58 37 119 37q112 0 239 -147q108 -174 108 -457q0 -293 -125 -427zM677 621q0 164 -43 285q-48 157 -140 166q-9 -13 -20 -32.5t-23 -41.5
q-59 -125 -91 -242.5t-32 -227.5q0 -112 47 -204q43 -93 121 -93q47 0 79.5 31t58.5 98q43 117 43 261z" />
    <glyph glyph-name="tibOne" unicode="&#xf21;" horiz-adv-x="847" 
d="M663 639q7 -105 0 -160q-13 -109 -40.5 -187.5t-133.5 -194.5l-114 -82q-147 -90 -218 -103q-8 11 -14 23t-8 25t2.5 28.5t17.5 33.5q5 6 47 31t120 77.5t148 165.5q63 132 58 282q-11 459 -17 483q-35 -11 -66 -17.5t-64 -20t-56 -52.5q0 -52 1.5 -90t1.5 -57
q4 -155 -1.5 -185t-14.5 -48q-49 -76 -118 -101q-22 2 -43 4.5t-43 25.5q-10 25 0 41l32 26q29 36 31.5 60.5t2.5 60.5v309q17 19 41 39t71 40l180 75q45 34 57 40.5t25 8.5h106z" />
    <glyph glyph-name="tibTwo" unicode="&#xf22;" horiz-adv-x="1149" 
d="M1079 -51q-28 -41 -67 -47q-50 -16 -79 50l-27 483q-7 173 -59 231q-35 45 -133 28q-52 -2 -144.5 -48.5t-128.5 -74.5q-30 -23 -58 -43l-109 55q183 157 253 190.5t99 44.5q29 10 50 21q51 30 63 176q-6 46 -75 59q-89 -2 -172 -45q-61 -28 -120 -60.5t-115 -64.5
q-134 -20 -166 64l403 209q60 22 99.5 25.5t59.5 5.5q196 2 229 -74q17 -58 2 -127q-13 -44 -35 -81t-36 -72q170 -16 205 -118q33 -106 40 -332z" />
    <glyph glyph-name="tibThree" unicode="&#xf23;" horiz-adv-x="1233" 
d="M1071 -32q-14 -24 -30 -36t-36 -14q-66 6 -85 46q0 38 8 182q6 74 7 119.5t1 79.5q7 259 -116 273q-36 -9 -110 -91q-28 -31 -112 -143q-23 -25 -45.5 -35.5t-45.5 -1.5l-30 12l-57 27l115 151q56 71 111 126t106 83q132 60 104 169q-31 14 -62 14q-47 0 -104 -36
q-110 -94 -175 -194q-20 -14 -40 -18t-45 4q-9 5 -14.5 9t-10 7.5t-10 9t-14.5 13.5q2 4 36 57.5t76 99.5l111 111q6 6 22 38q28 82 -57 70q-43 -9 -103 -48.5t-95.5 -77t-50 -55t-40 -50t-55.5 -49.5q-110 26 -113 56l104 118q136 185 345 209q83 6 183 -4q20 -7 31 -24
t5 -56q-1 -21 -5 -45t-17 -57q59 16 116.5 21t102.5 -27q35 -28 36.5 -92.5t-86.5 -185.5q47 -4 81.5 -43t54.5 -112q8 -39 13.5 -108t3.5 -182z" />
    <glyph glyph-name="tibFour" unicode="&#xf24;" horiz-adv-x="1253" 
d="M1046 5l-113 41q-109 41 -260 126t-214.5 144t-89.5 94q-52 60 -94 131.5t-81 161.5l-82 185l218 154l198 127q32 29 62 41.5t59 14.5l15 -82v-37q-2 -28 22.5 -140t86 -179t97 -90t91.5 -56q67 -34 97 -52q22 -21 24 -71q-5 -84 -54 -74l-142 59q-175 93 -247 190.5
t-93 157.5q-13 20 -30 102l-18 79q-41 -27 -92.5 -65t-97.5 -74q14 -52 27 -92.5t36.5 -91.5t71.5 -118t115.5 -135.5t199.5 -147.5t203 -116q31 -17 76 -35.5t47 -20.5q25 -143 -38 -131z" />
    <glyph glyph-name="tibFive" unicode="&#xf25;" horiz-adv-x="1052" 
d="M972 -41q5 -37 -151 -38l-49 27l-106 98q-30 30 -58 70t-56 106q-45 80 -45 175v136q-38 -40 -95.5 -80t-124.5 -73q-7 -9 -15 -9q-13 0 -33 13q-30 26 -53.5 69t-53.5 110q-13 26 -8.5 78t7 97.5t48.5 354.5q2 2 5.5 8.5t29 22.5t55.5 25t65 7l28 -9l-30 -116
q-41 -244 -41 -304q-5 -51 -4 -101q19 -67 69 -74q41 -2 74.5 21t53.5 53q19 19 44 96q5 99 76 462q15 39 95 47q53 5 104 -20l-32 -80q-36 -87 -63 -256.5t-32.5 -298.5t0 -206t39 -134.5t84.5 -119.5z" />
    <glyph glyph-name="tibSix" unicode="&#xf26;" horiz-adv-x="972" 
d="M895 334q-26 -62 -57.5 -112.5t-79 -123t-85.5 -106.5q-274 0 -393 179q-133 194 -157 500v468q0 38 23.5 62t71.5 43q68 12 67 -49v-477q23 -429 214 -542q37 -17 68.5 -28t64.5 -10q56 0 113 95l10 32q-3 7 -9.5 14.5t-16.5 16.5q-35 15 -90 63t-105 108.5t-69 97.5
l246 263q14 10 26.5 16.5t23.5 6.5t20 -10t17 -33q5 -15 2 -27.5t-7 -29.5l-167 -164q54 -92 129.5 -133t125.5 -59q6 -6 12 -10t9.5 -10t2.5 -15.5t-10 -25.5z" />
    <glyph glyph-name="tibSeven" unicode="&#xf27;" horiz-adv-x="1043" 
d="M890 578q0 -78 -3 -128.5t-10 -80.5q-14 -127 -64 -197t-138 -70q-11 0 -56.5 19t-83.5 30q-103 15 -180 -5.5t-146 -80.5l-82 -67q-5 3 -10 7.5t-9 14.5t-6.5 26.5t-2.5 44.5q0 27 28 58l216 196q62 55 78 115q14 74 -1 181q-41 2 -90.5 -9.5t-61.5 -77.5q-2 -36 2 -81
l-135 -84q-46 204 68 310q36 18 67.5 29t60.5 17.5t57 9t57 4.5q53 9 78 18.5t53 13.5l-3 -163q1 -155 -13.5 -193t-63.5 -96q-7 -9 -20 -22l-25 -26q36 2 87 -4t102 -41q35 0 63.5 30t34 68.5t5.5 44.5q4 149 1.5 305t-3.5 418q23 23 37 34.5t28 16.5q72 43 84 -27v-558z
" />
    <glyph glyph-name="tibEight" unicode="&#xf28;" horiz-adv-x="957" 
d="M822 -52q-29 -51 -67 -62q-56 13 -71.5 35.5t-17.5 24.5v171q45 509 -300 590l-308 54l142 93q65 37 118 73.5t87 66.5q24 20 46.5 43.5t44.5 47.5q39 47 43 95q52 43 90 47q104 22 76 -58q-26 -63 -71 -117t-106 -95q-34 -28 -65.5 -52.5l-67.5 -52.5q61 -16 141 -44
q309 -107 286 -689v-171z" />
    <glyph glyph-name="tibNine" unicode="&#xf29;" horiz-adv-x="1087" 
d="M1000 1175l-58 -101l-34 -43q-44 -80 -101 -208.5t-100 -209.5q-8 -16 -6 -33q2 -32 51 -43q36 2 48.5 -9.5t-1.5 -48.5q-16 -23 -77 -48q-174 16 -179 129q0 13 13 46.5t78 178t137 282.5q-38 3 -85 -2q-38 -7 -52 -25q-28 -46 -81.5 -130.5t-95.5 -155.5
q-63 -118 -89 -167t-51 -116q-26 -91 -37.5 -146t-15.5 -130q18 -143 186 -247q6 -7 0.5 -14.5t-19 -14t-33 -12.5t-43.5 -10q-12 -2 -73 47q-151 122 -176 263q0 341 315 799q68 102 176 158z" />
    <glyph glyph-name="tibHalfOne" unicode="&#xf2a;" horiz-adv-x="1225" 
d="M806 645q7 -105 0 -160q-13 -109 -40.5 -187.5t-133.5 -194.5l-114 -82q-147 -90 -218 -103q-8 11 -14 23t-8 25t2.5 28.5t17.5 33.5q5 6 47 31t120 77.5t148 165.5q63 132 58 282q-11 459 -17 483q-35 -11 -66 -17.5t-64 -20t-56 -52.5q0 -52 1.5 -90t1.5 -57
q4 -155 -1.5 -185t-14.5 -48q-49 -76 -118 -101q-22 2 -43 4.5t-43 25.5q-10 25 0 41l32 26q29 36 31.5 60.5t2.5 60.5v309q17 19 41 39t71 40l180 75q45 34 57 40.5t25 8.5h106zM1225 831q-1 -41 -18.5 -83.5t-51 -74.5t-73.5 -62q-32 -3 -54 40q2 16 16 31t28 29t30 32
t21.5 39.5t-3 48t-49.5 20.5q-34 -2 -96 -36.5t-141 -96.5q-26 -22 -123 -101l-191 -158q-65 -57 -382 -317q-23 -19 -36 -1.5t-29 65.5q372 331 466 413l172 142q89 72 107 88q80 62 148 85.5t125 26.5q75 -7 95.5 -26t29 -46.5t9.5 -57.5z" />
    <glyph glyph-name="tibHalfTwo" unicode="&#xf2b;" horiz-adv-x="1380" 
d="M1079 -51q-28 -41 -67 -47q-50 -16 -79 50l-27 483q-7 173 -59 231q-35 45 -133 28q-52 -2 -144.5 -48.5t-128.5 -74.5q-30 -23 -58 -43l-109 55q183 157 253 190.5t99 44.5q29 10 50 21q51 30 63 176q-6 46 -75 59q-89 -2 -172 -45q-61 -28 -120 -60.5t-115 -64.5
q-134 -20 -166 64l403 209q60 22 99.5 25.5t59.5 5.5q196 2 229 -74q17 -58 2 -127q-13 -44 -35 -81t-36 -72q170 -16 205 -118q33 -106 40 -332zM1367 852q-1 -41 -18.5 -83.5t-51 -74.5t-73.5 -62q-32 -3 -54 40q2 16 16 31t28 29t30 32t21.5 39.5t-3 48t-49.5 20.5
q-34 -2 -96 -36.5t-141 -96.5q-26 -22 -123 -101l-191 -158q-65 -57 -382 -317q-23 -19 -36 -1.5t-29 65.5q372 331 466 413l172 142q89 72 107 88q80 62 148 85.5t125 26.5q75 -7 95.5 -26t29 -46.5t9.5 -57.5z" />
    <glyph glyph-name="tibHalfThree" unicode="&#xf2c;" horiz-adv-x="1310" 
d="M1071 -32q-14 -24 -30 -36t-36 -14q-66 6 -85 46q0 38 8 182q6 74 7 119.5t1 79.5q7 259 -116 273q-36 -9 -110 -91q-28 -31 -112 -143q-23 -25 -45.5 -35.5t-45.5 -1.5l-30 12l-57 27l115 151q56 71 111 126t106 83q132 60 104 169q-31 14 -62 14q-47 0 -104 -36
q-110 -94 -175 -194q-20 -14 -40 -18t-45 4q-9 5 -14.5 9t-10 7.5t-10 9t-14.5 13.5q2 4 36 57.5t76 99.5l111 111q6 6 22 38q28 82 -57 70q-43 -9 -103 -48.5t-95.5 -77t-50 -55t-40 -50t-55.5 -49.5q-110 26 -113 56l104 118q136 185 345 209q83 6 183 -4q20 -7 31 -24
t5 -56q-1 -21 -5 -45t-17 -57q59 16 116.5 21t102.5 -27q35 -28 36.5 -92.5t-86.5 -185.5q47 -4 81.5 -43t54.5 -112q8 -39 13.5 -108t3.5 -182zM1300 839q-1 -41 -18.5 -83.5t-51 -74.5t-73.5 -62q-32 -3 -54 40q2 16 16 31t28 29t30 32t21.5 39.5t-3 48t-49.5 20.5
q-34 -2 -96 -36.5t-141 -96.5q-26 -22 -123 -101l-191 -158q-65 -57 -382 -317q-23 -19 -36 -1.5t-29 65.5q372 331 466 413l172 142q89 72 107 88q80 62 148 85.5t125 26.5q75 -7 95.5 -26t29 -46.5t9.5 -57.5z" />
    <glyph glyph-name="tibHalfFour" unicode="&#xf2d;" horiz-adv-x="1253" 
d="M1046 5l-113 41q-109 41 -260 126t-214.5 144t-89.5 94q-52 60 -94 131.5t-81 161.5l-82 185l218 154l198 127q32 29 62 41.5t59 14.5l15 -82v-37q-2 -28 22.5 -140t86 -179t97 -90t91.5 -56q67 -34 97 -52q22 -21 24 -71q-5 -84 -54 -74l-142 59q-175 93 -247 190.5
t-93 157.5q-13 20 -30 102l-18 79q-41 -27 -92.5 -65t-97.5 -74q14 -52 27 -92.5t36.5 -91.5t71.5 -118t115.5 -135.5t199.5 -147.5t203 -116q31 -17 76 -35.5t47 -20.5q25 -143 -38 -131zM1195 926q-1 -41 -18.5 -83.5t-51 -74.5t-73.5 -62q-32 -3 -54 40q2 16 16 31t28 29
t30 32t21.5 39.5t-3 48t-49.5 20.5q-34 -2 -96 -36.5t-141 -96.5q-26 -22 -123 -101l-191 -158q-65 -57 -382 -317q-23 -19 -36 -1.5t-29 65.5q372 331 466 413l172 142q89 72 107 88q80 62 148 85.5t125 26.5q75 -7 95.5 -26t29 -46.5t9.5 -57.5z" />
    <glyph glyph-name="tibHalfFive" unicode="&#xf2e;" horiz-adv-x="1168" 
d="M972 -41q5 -37 -151 -38l-49 27l-106 98q-30 30 -58 70t-56 106q-45 80 -45 175v136q-38 -40 -95.5 -80t-124.5 -73q-7 -9 -15 -9q-13 0 -33 13q-30 26 -53.5 69t-53.5 110q-13 26 -8.5 78t7 97.5t48.5 354.5q2 2 5.5 8.5t29 22.5t55.5 25t65 7l28 -9l-30 -116
q-41 -244 -41 -304q-5 -51 -4 -101q19 -67 69 -74q41 -2 74.5 21t53.5 53q19 19 44 96q5 99 76 462q15 39 95 47q53 5 104 -20l-32 -80q-36 -87 -63 -256.5t-32.5 -298.5t0 -206t39 -134.5t84.5 -119.5zM1155 814q-1 -41 -18.5 -83.5t-51 -74.5t-73.5 -62q-32 -3 -54 40
q2 16 16 31t28 29t30 32t21.5 39.5t-3 48t-49.5 20.5q-34 -2 -96 -36.5t-141 -96.5q-26 -22 -123 -101l-191 -158q-65 -57 -382 -317q-23 -19 -36 -1.5t-29 65.5q372 331 466 413l172 142q89 72 107 88q80 62 148 85.5t125 26.5q75 -7 95.5 -26t29 -46.5t9.5 -57.5z" />
    <glyph glyph-name="tibHalfSix" unicode="&#xf2f;" horiz-adv-x="1225" 
d="M895 334q-26 -62 -57.5 -112.5t-79 -123t-85.5 -106.5q-274 0 -393 179q-133 194 -157 500v468q0 38 23.5 62t71.5 43q68 12 67 -49v-477q23 -429 214 -542q37 -17 68.5 -28t64.5 -10q56 0 113 95l10 32q-3 7 -9.5 14.5t-16.5 16.5q-35 15 -90 63t-105 108.5t-69 97.5
l246 263q14 10 26.5 16.5t23.5 6.5t20 -10t17 -33q5 -15 2 -27.5t-7 -29.5l-167 -164q54 -92 129.5 -133t125.5 -59q6 -6 12 -10t9.5 -10t2.5 -15.5t-10 -25.5zM1188 693q-1 -41 -18.5 -83.5t-51 -74.5t-73.5 -62q-32 -3 -54 40q2 16 16 31t28 29t30 32t21.5 39.5t-3 48
t-49.5 20.5q-34 -2 -96 -36.5t-141 -96.5q-26 -22 -123 -101l-191 -158q-65 -57 -382 -317q-23 -19 -36 -1.5t-29 65.5q372 331 466 413l172 142q89 72 107 88q80 62 148 85.5t125 26.5q75 -7 95.5 -26t29 -46.5t9.5 -57.5z" />
    <glyph glyph-name="tibHalfSeven" unicode="&#xf30;" horiz-adv-x="1225" 
d="M890 578q0 -78 -3 -128.5t-10 -80.5q-14 -127 -64 -197t-138 -70q-11 0 -56.5 19t-83.5 30q-103 15 -180 -5.5t-146 -80.5l-82 -67q-5 3 -10 7.5t-9 14.5t-6.5 26.5t-2.5 44.5q0 27 28 58l216 196q62 55 78 115q14 74 -1 181q-41 2 -90.5 -9.5t-61.5 -77.5q-2 -36 2 -81
l-135 -84q-46 204 68 310q36 18 67.5 29t60.5 17.5t57 9t57 4.5q53 9 78 18.5t53 13.5l-3 -163q1 -155 -13.5 -193t-63.5 -96q-7 -9 -20 -22l-25 -26q36 2 87 -4t102 -41q35 0 63.5 30t34 68.5t5.5 44.5q4 149 1.5 305t-3.5 418q23 23 37 34.5t28 16.5q72 43 84 -27v-558z
M1178 856q-1 -41 -18.5 -83.5t-51 -74.5t-73.5 -62q-32 -3 -54 40q2 16 16 31t28 29t30 32t21.5 39.5t-3 48t-49.5 20.5q-34 -2 -96 -36.5t-141 -96.5q-26 -22 -123 -101l-191 -158q-65 -57 -382 -317q-23 -19 -36 -1.5t-29 65.5q372 331 466 413l172 142q89 72 107 88
q80 62 148 85.5t125 26.5q75 -7 95.5 -26t29 -46.5t9.5 -57.5z" />
    <glyph glyph-name="tibHalfEight" unicode="&#xf31;" horiz-adv-x="1176" 
d="M822 -52q-29 -51 -67 -62q-56 13 -71.5 35.5t-17.5 24.5v171q45 509 -300 590l-308 54l142 93q65 37 118 73.5t87 66.5q24 20 46.5 43.5t44.5 47.5q39 47 43 95q52 43 90 47q104 22 76 -58q-26 -63 -71 -117t-106 -95q-34 -28 -65.5 -52.5l-67.5 -52.5q61 -16 141 -44
q309 -107 286 -689v-171zM1146 850q-1 -41 -18.5 -83.5t-51 -74.5t-73.5 -62q-32 -3 -54 40q2 16 16 31t28 29t30 32t21.5 39.5t-3 48t-49.5 20.5q-34 -2 -96 -36.5t-141 -96.5q-26 -22 -123 -101l-191 -158q-65 -57 -382 -317q-23 -19 -36 -1.5t-29 65.5q372 331 466 413
l172 142q89 72 107 88q80 62 148 85.5t125 26.5q75 -7 95.5 -26t29 -46.5t9.5 -57.5z" />
    <glyph glyph-name="tibHalfNine" unicode="&#xf32;" horiz-adv-x="1208" 
d="M1000 1175l-58 -101l-34 -43q-44 -80 -101 -208.5t-100 -209.5q-8 -16 -6 -33q2 -32 51 -43q36 2 48.5 -9.5t-1.5 -48.5q-16 -23 -77 -48q-174 16 -179 129q0 13 13 46.5t78 178t137 282.5q-38 3 -85 -2q-38 -7 -52 -25q-28 -46 -81.5 -130.5t-95.5 -155.5
q-63 -118 -89 -167t-51 -116q-26 -91 -37.5 -146t-15.5 -130q18 -143 186 -247q6 -7 0.5 -14.5t-19 -14t-33 -12.5t-43.5 -10q-12 -2 -73 47q-151 122 -176 263q0 341 315 799q68 102 176 158zM1173 880q-1 -41 -18.5 -83.5t-51 -74.5t-73.5 -62q-32 -3 -54 40q2 16 16 31
t28 29t30 32t21.5 39.5t-3 48t-49.5 20.5q-34 -2 -96 -36.5t-141 -96.5q-26 -22 -123 -101l-191 -158q-65 -57 -382 -317q-23 -19 -36 -1.5t-29 65.5q372 331 466 413l172 142q89 72 107 88q80 62 148 85.5t125 26.5q75 -7 95.5 -26t29 -46.5t9.5 -57.5z" />
    <glyph glyph-name="tibHalfZero" unicode="&#xf33;" horiz-adv-x="1145" 
d="M716 196q-145 -163 -248 -163q-26 0 -37 8q-39 11 -77 39q-39 30 -82 82q-119 152 -119 391q8 146 46 295.5t82.5 223t93.5 118.5q58 37 119 37q112 0 239 -147q108 -174 108 -457q0 -293 -125 -427zM677 621q0 164 -43 285q-48 157 -140 166q-9 -13 -20 -32.5t-23 -41.5
q-59 -125 -91 -242.5t-32 -227.5q0 -112 47 -204q43 -93 121 -93q47 0 79.5 31t58.5 98q43 117 43 261zM1135 880q-1 -41 -18.5 -83.5t-51 -74.5t-73.5 -62q-32 -3 -54 40q2 16 16 31t28 29t30 32t21.5 39.5t-3 48t-49.5 20.5q-34 -2 -96 -36.5t-141 -96.5
q-26 -22 -123 -101l-191 -158q-65 -57 -382 -317q-23 -19 -36 -1.5t-29 65.5q372 331 466 413l172 142q89 72 107 88q80 62 148 85.5t125 26.5q75 -7 95.5 -26t29 -46.5t9.5 -57.5z" />
    <glyph glyph-name="tibTsekDashDash" unicode="&#xf34;" horiz-adv-x="619" 
d="M573 218q0 -11 -2 -21.5t-13 -10.5q-15 0 -34 15q-80 84 -139 138t-116.5 83t-117.5 39.5t-138 10.5v201q222 -2 360 -104.5t196 -318.5q4 -19 4 -32zM573 -245q0 -9 -2 -22t-13 -13q-15 0 -34 17q-80 82 -139 136t-116.5 84t-117.5 41t-138 11v198q222 -2 360 -104.5
t196 -315.5q4 -20 4 -32zM425 1223q-60 -227 -174 -296q17 56 17 65q0 17 -24 35q-21 17 -41 17h-80l76 179h226z" />
    <glyph glyph-name="tib_SunMoon" unicode="&#xf35;" horiz-adv-x="67" 
d="M-582 -1280q-28 6 -57 14.5t-53 28t-40 44.5t-16 57v26q6 30 21.5 58t34.5 54t48.5 40t65.5 14q28 0 57 -12t52 -31t37 -45t14 -54q0 -71 -50 -121q-24 -26 -53 -44t-59 -29h-2zM-589 -1420q-40 0 -78 11.5t-72.5 31t-63.5 47.5t-49 65l65 77q20 -21 45.5 -47t51.5 -41
q30 -15 60.5 -26t60.5 -11q26 0 56 11t62.5 26t60.5 35.5t41 40.5q15 0 15 -13q0 -9 -4.5 -16.5t-10.5 -20.5v2q-2 -6 -3.5 -7.5t-7.5 -9.5q-17 -24 -38.5 -47.5t-49.5 -46.5t-59.5 -40t-61.5 -21h-20zM-614 -1043q-11 0 -22 -1t-18.5 -6.5t-14 -13t-6.5 -20.5
q0 -15 13 -34.5t30.5 -33.5t39 -22.5t38.5 -8.5q22 0 39 10.5t17 32.5q0 21 -11 39.5t-28 31.5t-38.5 19.5t-38.5 6.5z" />
    <glyph glyph-name="tibFourDots" unicode="&#xf36;" horiz-adv-x="1809" 
d="M1067 1242q-17 -151 -170 -170q-153 19 -170 170q17 153 170 168q155 -15 170 -168zM1796 503q-20 -153 -173 -171q-151 18 -170 171q19 153 170 168q156 -15 173 -168zM1067 -224q-17 -151 -170 -170q-153 19 -170 170q17 153 170 168q155 -15 170 -168zM349 503
q-15 -153 -168 -171q-153 18 -168 171q15 153 168 168q155 -15 168 -168z" />
    <glyph glyph-name="tib_Circle" unicode="&#xf37;" horiz-adv-x="43" 
d="M-541 -1425q-35 7 -71.5 17.5t-65.5 35.5t-49.5 56t-20.5 70v33q9 38 27 72.5t42 67.5q26 32 61.5 49.5t80.5 17.5q37 0 72.5 -15.5t63.5 -39t46.5 -56t18.5 -66.5q0 -89 -63 -151q-30 -32 -65.5 -55t-74.5 -36h-2zM-582 -1129q-13 0 -26 -2.5t-22.5 -9t-18.5 -15
t-9 -25.5q0 -19 16.5 -43t38 -41t48.5 -28t48 -11q28 0 48.5 13t20.5 41q0 26 -12.5 48.5t-34.5 38.5t-49 25t-48 9z" />
    <glyph glyph-name="tibHighLaMark" unicode="&#xf38;" horiz-adv-x="1479" 
d="M873 977q0 -71 -63.5 -159.5t-182.5 -189.5q71 0 137 -1.5t131 -1.5q75 -4 122.5 13.5t75.5 45.5q13 21 22.5 73t9.5 129v270l194 125v-224q0 -244 -95 -375q-90 -126 -219.5 -191.5t-284.5 -54.5l-362 21l155 168q164 182 164 268t-47.5 135.5t-129.5 49.5
q-222 0 -241 -319l-220 -140q13 287 146 412q52 49 192 125q104 54 231 54q136 0 187 -48q78 -69 78 -185z" />
    <glyph glyph-name="tib.Flag" unicode="&#xf39;" horiz-adv-x="41" 
d="M75 1662q3 -47 -22 -94.5t-74.5 -89.5t-119.5 -68t-156 -26q12 -15 25 -41t26 -52.5t20.5 -51.5t7.5 -40h-60q-11 30 -29.5 62.5t-40 63.5t-45 60t-45.5 49l115 140q49 -2 106 4.5t111 18.5t102.5 29t78.5 36z" />
    <glyph glyph-name="tibSnail3Circles" unicode="&#xf3a;" horiz-adv-x="2953" 
d="M1729 518q0 -222 -119.5 -342t-337.5 -124q-166 -2 -304 98t-233 301q-110 248 -292 415t-424 260q15 13 31.5 21.5t50.5 8.5q97 0 199.5 -49.5t201.5 -132.5t191 -195.5t165 -243.5q82 -155 192 -228.5t241 -69.5q156 5 237.5 75t96.5 201q-4 140 -75 213.5t-216 80.5
q-84 0 -121.5 -29.5t-33.5 -78.5q5 -48 41.5 -77t92.5 -29q52 0 85 22.5t53 40.5q15 -11 18 -24t3 -41q0 -41 -17 -73.5t-47 -56t-64.5 -33t-67.5 -7.5q-92 6 -149.5 70.5t-61.5 179.5q17 274 282 284q369 -26 382 -437zM2869 906q0 -123 -71 -194t-196 -71q-123 0 -194 71
t-71 194t71 194t194 71q125 0 196 -71t71 -194zM2348 503q0 -123 -72.5 -194.5t-199.5 -71.5q-121 0 -192 71.5t-71 194.5q0 122 71 193.5t192 71.5q127 0 199.5 -71.5t72.5 -193.5zM2869 123q0 -123 -71 -196t-196 -73q-123 0 -194 73t-71 196q0 119 71 192t194 73
q125 0 196 -73t71 -192zM2266 503q0 88 -49.5 137.5t-140.5 49.5q-82 0 -132.5 -49.5t-50.5 -137.5q0 -84 50.5 -136t132.5 -52q91 0 140.5 52t49.5 136zM2790 906q0 88 -48.5 137.5t-139.5 49.5q-84 0 -136 -49.5t-52 -137.5q0 -84 52 -136t136 -52q91 0 139.5 52t48.5 136
zM2790 123q0 84 -48.5 136t-139.5 52q-84 0 -136 -52t-52 -136q0 -86 52 -139t136 -53q91 0 139.5 53t48.5 139z" />
    <glyph glyph-name="tibRevSnail3Circles" unicode="&#xf3b;" horiz-adv-x="2958" 
d="M2938 1126q-239 -93 -420 -260t-293 -415q-93 -201 -231 -301t-310 -98q-214 4 -333.5 124t-119.5 342q0 204 100 313t279 124q266 -10 287 -284q-9 -115 -66 -179.5t-149 -70.5q-31 -2 -66.5 7.5t-63.5 33t-47.5 56t-19.5 73.5q0 28 5.5 41t20.5 24q9 -11 22 -21
t28 -19.5t36.5 -16t51.5 -6.5q54 0 89.5 29t42.5 77q2 49 -37 78.5t-121 29.5q-140 -7 -212 -80.5t-79 -213.5q13 -131 97 -201t237 -75q132 -4 241 69.5t197 228.5q71 131 161.5 243.5t191 195.5t203 132.5t199.5 49.5q34 0 49 -8.5t30 -21.5zM84 906q0 123 72.5 194
t194.5 71q123 0 195.5 -71t72.5 -194t-72.5 -194t-195.5 -71q-122 0 -194.5 71t-72.5 194zM608 503q0 122 72 193.5t197 71.5q121 0 194.5 -71.5t73.5 -193.5q0 -123 -73.5 -194.5t-194.5 -71.5q-125 0 -197 71.5t-72 194.5zM84 123q0 119 72.5 192t194.5 73
q123 0 195.5 -73t72.5 -192q0 -123 -72.5 -196t-195.5 -73q-122 0 -194.5 73t-72.5 196zM164 906q0 -84 51.5 -136t135.5 -52q87 0 137.5 52t50.5 136q0 88 -50.5 137.5t-137.5 49.5q-84 0 -135.5 -49.5t-51.5 -137.5zM688 503q0 -84 50.5 -136t138.5 -52q82 0 134 52
t52 136q0 88 -52 137.5t-134 49.5q-88 0 -138.5 -49.5t-50.5 -137.5zM164 123q0 -86 51.5 -139t135.5 -53q87 0 137.5 53t50.5 139q0 84 -50.5 136t-137.5 52q-84 0 -135.5 -52t-51.5 -136z" />
    <glyph glyph-name="tibAlbatrossL" unicode="&#xf3c;" horiz-adv-x="1350" 
d="M623 1057q19 0 41 -1.5t41 -7.5q-32 71 -50.5 129.5t-25.5 101.5q-2 47 4.5 87t26.5 70v-2q32 65 84 101q19 9 40.5 23t32.5 27q7 2 15.5 7.5t12.5 7.5q35 13 64 20.5t57 16.5q43 12 76.5 22t52.5 18q39 13 102.5 50t152.5 95l-31 -114q-13 -117 -241 -197
q-114 -38 -182 -77t-90 -78q-26 -36 -36.5 -72t-6.5 -74q2 -39 9.5 -78t18.5 -84q4 -41 17 -94t33 -115q-33 24 -61 36.5t-49 15.5q-110 -15 -179 -55t-93 -105q-45 -131 -56 -653q-11 -513 -28 -623q-17 -104 -49.5 -213.5t-71.5 -204.5q-38 -100 -94.5 -200t-125.5 -195
l-8 101q93 145 149 311v-2q28 88 45 173t28 174q4 41 5 151t1 289v633q0 63 5.5 121t14.5 110q6 56 22.5 105.5t44.5 92.5q49 80 133 125q63 31 149 31z" />
    <glyph glyph-name="tibAlbatrossR" unicode="&#xf3d;" horiz-adv-x="1347" 
d="M720 1281q-4 -45 -21.5 -103.5t-51.5 -129.5q17 6 39.5 7.5t40.5 1.5q84 0 148 -31q84 -45 134 -125q56 -90 67 -198q15 -108 15 -231v-519q0 -226 3 -365.5t8 -188.5q10 -84 28.5 -174.5t44.5 -172.5v2q26 -80 63.5 -159.5t82.5 -151.5l-6 -101q-71 95 -126 195t-92 200
q-39 95 -70 204.5t-48 213.5q-13 54 -19.5 208t-13.5 415q-4 263 -18 425.5t-38 227.5q-23 67 -92 106t-179 54q-24 -3 -55.5 -15.5t-61.5 -36.5q24 62 33.5 100t18.5 70q2 9 3 21t4 18q10 45 16.5 84t8.5 78q7 71 -43 146q-47 76 -274 155q-226 80 -239 197q-4 23 -15 56.5
t-15 57.5q88 -58 153 -95t101 -50q15 -8 38 -15.5t55 -14.5q30 -10 72 -21t88 -26q15 -15 39.5 -31.5t52.5 -31.5q59 -41 95 -103q15 -30 22.5 -70t3.5 -83z" />
    <glyph glyph-name="tibTailR" unicode="&#xf3e;" horiz-adv-x="957" 
d="M933 -582q-6 -32 -47 -32q-69 0 -123 24.5t-92.5 70t-62.5 108t-41 140.5q-13 77 -21.5 229t-17.5 385q-4 78 -4 153q0 71 -8.5 140t-31.5 132.5t-72 122.5q-58 75 -149 120.5t-213 83.5q-46 16 -46 61q0 32 29.5 50.5t63.5 18.5q67 0 132.5 -15t120.5 -45.5t102.5 -69
t82.5 -81.5q56 -76 85 -141.5t43 -142.5t19.5 -166t7.5 -206q4 -103 8.5 -187t7.5 -155.5t8.5 -135t16.5 -125.5q8 -67 40.5 -112.5t68 -81t64.5 -68t29 -75.5z" />
    <glyph glyph-name="tibTailL" unicode="&#xf3f;" horiz-adv-x="959" 
d="M949 1156q6 -45 -41 -61q-125 -38 -217 -83.5t-150 -120.5q-47 -59 -71 -122.5t-31.5 -132.5t-8.5 -141t-3 -152q-9 -233 -18.5 -385t-22.5 -229q-13 -78 -38 -140.5t-63.5 -108t-91.5 -70t-122 -24.5q-43 0 -45 32q0 43 27 75.5t63.5 68t69 81t40.5 112.5
q9 62 14.5 125.5t11 135t7.5 155.5t6 187q7 117 10 206t18 166t43 142.5t84 141.5q37 43 83.5 81.5t102.5 69t119.5 45.5t130.5 15q39 0 66 -18.5t27 -50.5z" />
    <glyph glyph-name="tibKa" unicode="&#xf40;" horiz-adv-x="1293" 
d="M1156 1073q0 -483 -1.5 -966t-1.5 -808q-2 -33 -38 -41q-44 6 -44 41q-2 215 -5 346.5t-5 342.5q-3 179 -8 338.5t-16 299.5q-19 222 -37.5 334t-38.5 112h-228q4 -45 6.5 -118t2.5 -179v-517q0 -43 -41 -43q-18 0 -27.5 11.5t-9.5 31.5q-4 161 -16 292.5t-32.5 237.5
t-46.5 177t-60 107l-190 1q9 -78 16 -246q-10 -141 -100 -218q-95 -64 -172 -216q-24 42 -36 88t-12 76q-10 77 61 135q98 67 135 137.5t37 242.5h-192l45 151h1103z" />
    <glyph glyph-name="tibKha" unicode="&#xf41;" horiz-adv-x="1334" 
d="M1276 1224l-60 -144q11 -87 21.5 -289.5t8.5 -640.5q-111 122 -208 204t-182 126.5t-246 50.5q-69 0 -119 -7q20 141 45.5 281.5t98.5 266.5h-174q-125 -17 -198 -171t-86 -389q-2 -36 -3.5 -66.5t-1.5 -47.5l-12 -407v-322q0 -53 -39 -53q-37 2 -37 53v940
q0 544 274 615h918zM788 1072q-140 -156 -162 -404q211 -20 316.5 -96t234.5 -249q-9 299 -44.5 493t-117.5 256h-227z" />
    <glyph glyph-name="tibGa" unicode="&#xf42;" horiz-adv-x="1350" 
d="M1199 1069v-1756q0 -49 -37 -49q-44 -8 -50 47q0 423 -17 814.5t-30 559.5q-17 188 -42 287t-70 99h-205q6 -125 12 -206t-1 -654q-203 183 -403 229q-194 24 -348 -8q42 275 80.5 424.5t66.5 214.5h-118l75 152h1166zM326 1071q-65 -52 -117 -152t-72 -323
q194 -4 319 -56.5t227 -169.5q-13 602 -112 701h-245z" />
    <glyph glyph-name="tibGha" unicode="&#xf43;" horiz-adv-x="1207" 
d="M1032 256h-484q-72 -33 -131 -98t-98 -137q113 -23 198 -115q56 84 124 126t158 47q144 -2 215 -66.5t78 -158t-22 -202.5t-195 -397q-22 -28 -50 -20q-19 15 -15 45q154 307 163 413.5t-25 180.5t-177 62q-72 -5 -121 -26.5t-94 -54.5q32 -42 51 -91.5t33 -99.5
q11 -37 -11 -47q-28 -11 -40 21h2q-171 255 -417 289q37 145 154 329h-179l88 143h798q-13 11 -13 30q4 642 -123 643h-203q10 -83 14 -228t6 -365q0 -43 -22 -43q-17 -4 -43 17q-141 116 -279 165t-290 49h-43q-7 -3 -22 -3q61 238 177 408h-136l65 151h1024l-48 -145v-655
q0 -13 -12 -24h12zM371 1072q-67 -46 -120 -110.5t-106 -166.5q139 -12 254.5 -60.5t246.5 -190.5q-12 390 -107 528h-168z" />
    <glyph glyph-name="tibNga" unicode="&#xf44;" horiz-adv-x="1235" 
d="M1123 1224l-58 -153h-621q-194 -143 -270 -501q62 18 110.5 21t127.5 7q305 -8 537 -228q109 -101 245 -274q26 -36 15 -64q-28 -18 -64 13q-375 362 -702 392q-205 7 -361 -55v30q0 432 131 659h-160l55 153h1015z" />
    <glyph glyph-name="tibCa" unicode="&#xf45;" horiz-adv-x="1300" 
d="M1145 1072h-412v-20q6 -97 4 -169q27 -12 57 -24t107 -33.5t144 -57.5q173 -71 173 -334q0 -102 -58 -194q-56 -87 -132.5 -139.5t-173.5 -63.5h-18q-17 -6 -45 -6q-220 0 -446 250q-48 58 -123 165.5t-177 269.5l88 144q46 -77 77 -120t50 -70q376 98 376 370v32h-515
l62 152h1027zM794 699q-83 41 -130 74q-75 -89 -148.5 -137.5t-190.5 -82.5q75 -113 139.5 -176t147.5 -128q119 -89 263 -98q86 0 153 59q63 53 74 142q2 13 2 24v23q0 162 -143 243q-10 6 -54.5 20t-112.5 37z" />
    <glyph glyph-name="tibCha" unicode="&#xf46;" horiz-adv-x="1418" 
d="M1229 1072h-481q2 -20 2 -35v-51q0 -60 -2 -130t-13 -152q92 112 265 112q340 0 332 -368q0 -182 -86.5 -274.5t-255.5 -92.5q-95 2 -173 43t-129 136q-97 -184 -300 -179q-320 4 -317 371q2 174 86 256.5t243 92.5q82 -4 150.5 -28t104.5 -95q-8 149 -36 245.5
t-69 148.5h-453l84 152h1112zM636 454q-32 194 -259 203q-95 -18 -152 -71.5t-63 -137.5q0 -104 61.5 -161t175.5 -57q108 0 166 57t71 167zM990 672q-121 0 -181.5 -54t-64.5 -164q13 -108 77.5 -166t185.5 -60q120 0 183 55t54 163q0 111 -66 168.5t-188 57.5z" />
    <glyph glyph-name="tibJa" unicode="&#xf47;" horiz-adv-x="1337" 
d="M1144 1072h-741q-47 -30 -90.5 -84t-68.5 -133h840l-47 -160h-832q-13 -41 -28 -103.5t-33 -144.5q76 15 139.5 22.5t119.5 7.5q166 0 309.5 -69t264.5 -194q32 -37 74 -105t96 -165q49 -103 82.5 -177.5t48.5 -130.5q6 -36 -15 -45t-39 13q-357 606 -577 651
q-160 36 -224 36q-154 0 -356 -66v110q0 101 4 186t17 154q11 97 40 199.5t77 197.5h-167l68 151h1106z" />
    <glyph glyph-name="tibNya" unicode="&#xf49;" horiz-adv-x="1209" 
d="M559 -685q30 69 83.5 171.5t157.5 305.5q202 390 207 508q-2 78 -15.5 146t-37.5 117q-18 33 -47.5 55.5t-71.5 47.5q-40 15 -75.5 21t-76.5 6q-69 0 -126 -24t-110 -154q-10 -50 -13 -79q-9 -89 65 -143q34 -24 107 -24q36 0 82 6q-12 -42 -39.5 -84.5t-54.5 -71.5
q-120 -9 -198 47q-66 59 -84 164q-19 149 100 343q92 117 220 156q64 15 142 15q52 0 110 -11q4 26 4 54q0 127 -101 185h-431q-63 -26 -115.5 -80.5t-66.5 -172.5q0 -91 53 -173q-9 -11 -41.5 -53.5t-73.5 -89.5q-26 32 -45.5 77.5t-33 119t0.5 148.5q69 250 397 375h633
l-57 -138q28 -52 28 -110q0 -49 -16.5 -96.5t-48.5 -90.5q65 -46 108 -101t69 -126q21 -54 21 -129q0 -194 -527 -1130q-13 -26 -32 -40t-34.5 -14t-21.5 16t6 51z" />
    <glyph glyph-name="tibTta" unicode="&#xf4a;" horiz-adv-x="1143" 
d="M136 1223h951l-46 -143q-56 -235 -111 -467t-109 -465q0 -4 -8 -21t-37.5 -13t-23.5 54q7 77 16.5 159t20.5 164q-22 19 -56.5 42t-81.5 40q-43 13 -87 21.5t-79 8.5q-58 -2 -107.5 -29t-90.5 -87q-39 -54 -59.5 -109t-24.5 -118q-5 -247 224 -916q0 -66 -25.5 -71.5
t-45.5 32.5q-28 78 -158 453q-73 216 -106.5 355t-37.5 191q-7 478 450 480q210 0 302 -189l69 477h-810z" />
    <glyph glyph-name="tibTtha" unicode="&#xf4b;" horiz-adv-x="1162" 
d="M1022 1223l-48 -123q26 -36 41 -68.5t15 -67.5v-34q0 -69 -20 -123t-74 -95q69 -110 120.5 -234t92.5 -266q-140 50 -291 50h-65q-17 0 -47 -3q-313 -51 -608 -325q-17 -19 -43 -19q-7 10 -7 34v1130l80 144h854zM642 628q-250 0 -452 177v15l-9 -4q7 -7 9 -11
q-15 -140 -21.5 -323.5t-6.5 -411.5q194 192 361 289t324 85q56 0 93 -11q-37 102 -119 208q-28 -6 -72 -9.5t-107 -3.5zM291 1070q-28 -17 -49.5 -57t-28.5 -105q31 -28 80.5 -53.5t116.5 -49.5h-3q136 -39 235 -39q39 0 69 4q194 50 194 220q0 30 -17 80h-597z" />
    <glyph glyph-name="tibDda" unicode="&#xf4c;" horiz-adv-x="1274" 
d="M1207 1223l-64 -150h-184q67 -99 110 -260t52 -361q-95 26 -187.5 41t-185.5 15q-347 0 -468 -369q-43 -116 -83 -354q-42 -396 -46.5 -436t-4.5 -62q-4 -43 -49 -43q-39 20 -30 58q0 164 5.5 254t18 228t30 254t36.5 207q61 218 217 332t417 114q48 0 100.5 -5.5
t95.5 -15.5q-15 58 -42 112t-63 110q-41 71 -87.5 115t-96.5 66h-596l64 150h1041z" />
    <glyph glyph-name="tibDdha" unicode="&#xf4d;" horiz-adv-x="1296" 
d="M1209 1223l-86 -151h-93q67 -95 109 -226.5t51 -291.5q-185 52 -373 72q-392 0 -563 -190q-99 -205 -122.5 -367.5t-28.5 -206.5q-4 -41 -51 -41q-35 22 -30 57q21 224 54.5 382.5t83.5 259.5q125 267 711 253q56 0 105.5 -4t94.5 -13q-4 63 -110 174q-47 49 -97.5 85.5
t-100.5 56.5h-666l95 151h1017zM1015 262h-383q-76 -29 -134 -76.5t-117 -111.5q143 -27 225 -117q47 80 115 122t154 42q153 0 229 -143q30 -58 30 -138q0 -71 -26 -146q-21 -69 -129 -251t-155 -279q-16 -28 -50 -22q-28 15 -13 45q203 421 229 513q10 39 10 80
q0 190 -166 190q-54 0 -102.5 -18.5t-89.5 -50.5q28 -43 47.5 -90.5t30.5 -99.5q9 -39 -15 -52q-9 -4 -20.5 2.5t-16.5 17.5q-82 129 -190.5 194t-240.5 62q54 184 170 327h-178l61 138h776z" />
    <glyph glyph-name="tibNna" unicode="&#xf4e;" horiz-adv-x="1261" 
d="M136 1223h1012l-49 -151h-385q-44 -35 -72 -80.5t-34 -95.5q39 1 83 5.5t91 4.5q190 0 294 -90q118 -107 114 -288q-8 -345 -377 -358q-305 7 -405 345q-54 -78 -108 -429.5t-108 -783.5q-2 -17 -8.5 -29t-21.5 -12q-54 -13 -45 67q11 190 14 264.5t11 202.5
q13 215 28 372.5t30 230.5q74 324 315 472q-4 15 -5 74.5t0 83.5t5 44h-437zM839 744q-140 12 -218 -13.5t-154 -132.5q128 -281 348 -275q137 0 211.5 46.5t88.5 158.5q-28 179 -276 216z" />
    <glyph glyph-name="tibTa" unicode="&#xf4f;" horiz-adv-x="1121" 
d="M951 1072h-753q18 -120 36 -235t40 -240q98 163 324 175q404 -12 445 -378q11 -147 -68.5 -345t-177.5 -365.5t-221 -383.5q-25 -40 -52 -27q-22 20 -9 49q362 693 372 943q10 130 -63 234q-43 60 -101 83t-132 23q-33 0 -77 -7.5t-91 -22.5q-41 -17 -78 -40t-54 -42
q9 -82 16.5 -164t18.5 -159q0 -20 -11 -35t-35 -15q-6 0 -12.5 7.5t-10.5 22.5q-57 229 -113 465t-112 467l132 141h879z" />
    <glyph glyph-name="tibTha" unicode="&#xf50;" horiz-adv-x="1229" 
d="M1153 1224l-64 -144v-1127q0 -24 -9 -34q-24 0 -41 19q-297 274 -608 325q-19 3 -30 3h-82q-153 0 -291 -50q73 287 209 500q-97 84 -97 218v34q11 104 173 256h840zM1011 74q0 452 -30 735q-196 -177 -449 -177q-125 0 -178 13q-89 -110 -122 -218q30 11 93 11
q311 22 686 -364zM289 1072q-22 -48 -22 -78q0 -170 196 -220q31 -4 69 -4q100 0 233 39q69 24 118.5 49.5t80.5 53.5q-24 128 -78 160h-597zM981 822v-13q6 4 8.5 6t2.5 5z" />
    <glyph glyph-name="tibDa" unicode="&#xf51;" horiz-adv-x="1188" 
d="M1140 1223l-65 -151h-608q-48 -20 -93 -64t-88 -104q-39 -56 -67 -117.5t-40 -138.5q43 10 95 13.5t101 3.5q259 0 397.5 -80t196.5 -231q39 -179 53 -306t67 -727q8 -38 -31 -58q-47 0 -49 43q-4 11 -37 292.5t-49 369.5t-42 188q-53 208 -154 281.5t-295 77.5
q-107 -10 -200 -24t-188 -40q7 213 45.5 366.5t114.5 254.5h-186l83 151h1039z" />
    <glyph glyph-name="tibDha" unicode="&#xf52;" horiz-adv-x="1218" 
d="M1168 1223l-77 -151h-608q-50 -20 -100.5 -56.5t-95.5 -85.5q-89 -95 -99 -179q94 17 202 17q531 -16 646 -289q98 -157 139 -601q6 -35 -35 -57q-43 0 -49 41q0 41 -39 194q-24 76 -55 157t-76 173h2q-7 9 -13 15l-74 -141h-385q-154 -37 -251 -186q145 -32 225 -118
q47 80 116 122t160 42q151 0 226 -143q26 -58 26 -138q0 -71 -24 -146q-17 -65 -41 -104t-189 -300q-20 -28 -50 -22q-26 15 -15 47q133 202 174 385q11 37 11 80q0 190 -166 190q-52 0 -101.5 -18.5t-88.5 -50.5q24 -43 44.5 -90.5t37.5 -99.5q9 -37 -13 -49q-30 -7 -38 17
q-168 259 -431 256q49 184 168 326h-181l88 140h767q-144 206 -472 206q-189 0 -375 -52q9 160 51 291.5t107 226.5h-184l95 151h1041z" />
    <glyph glyph-name="tibNa" unicode="&#xf53;" horiz-adv-x="1321" 
d="M1156 1072h-408q7 -38 7 -101v-52q0 -21 -5 -65q121 -60 199.5 -182t102.5 -272q57 -459 69 -653l24 -421q7 -57 -28 -59q-42 2 -46 33q-32 274 -56.5 426t-53 328.5t-54 295.5t-51.5 158q-104 -313 -412 -369q-188 -7 -276.5 94.5t-87.5 291.5q0 84 27 161.5t85 126.5
q110 83 295 83q47 0 92.5 -3t80.5 -14q-13 111 -110 193h-459l69 151h1079zM429 736q-127 -17 -195 -70t-85 -141q5 -129 78 -188.5t210 -54.5q136 2 239.5 91t103.5 233q-83 138 -301 132h-26q-11 0 -24 -2z" />
    <glyph glyph-name="tibPa" unicode="&#xf54;" horiz-adv-x="1233" 
d="M1080 1076v-922q0 -24 -15 -35q-9 0 -19.5 5.5t-19.5 12.5q-179 185 -361 283t-324 107q-71 6 -137.5 0.5t-179.5 -33.5q6 145 54.5 287t139.5 289h-158l78 153h545l-75 -153h-211q-69 -63 -127.5 -149t-101.5 -222q207 0 328 -33q237 -53 509 -400v203q0 470 -151 603
l56 151h252z" />
    <glyph glyph-name="tibPha" unicode="&#xf55;" horiz-adv-x="1296" 
d="M1087 339q0 478 -113 651q-127 -67 -218.5 -144.5t-151.5 -183.5q133 -45 253 -148.5t227 -250.5q0 24 1.5 40t1.5 36zM755 1224l-76 -152h-248q-101 -69 -175.5 -159.5t-112.5 -219.5q21 0 115 6t173.5 -3.5t96.5 -12.5q117 216 386 367q-26 20 -56 28l93 146h284
l-73 -144v-933q0 -28 -19 -41q-11 0 -21 7.5t-16 20.5q-164 175 -336 284t-295 122.5t-187.5 13.5t-130.5 -12.5t-123 -21.5q5 155 54.5 292t142.5 260h-184l65 152h643z" />
    <glyph glyph-name="tibBa" unicode="&#xf56;" horiz-adv-x="1263" 
d="M1190 1223l-60 -137v-996q0 -34 -31 -39q-8 -6 -21 2l-9 7q-75 90 -143 160.5t-131 119.5q-191 164 -490 182q-74 -3 -147.5 -9.5t-138.5 -19.5q13 186 65 329t140 248h-174l88 153h1052zM440 1070q-97 -68 -169.5 -160.5t-101.5 -236.5q24 2 44.5 5.5t43.5 3.5
q499 5 789 -456v58q0 341 -41 537t-121 249h-444z" />
    <glyph glyph-name="tibBha" unicode="&#xf57;" horiz-adv-x="1194" 
d="M1071 1068v-653q0 -9 -2 -15h18l-78 -142h-511q-73 -32 -131.5 -79t-117.5 -120q143 -20 227 -108q89 162 307 162q77 0 134 -37t92 -106q34 -58 34 -135q0 -63 -28 -143q-19 -73 -253 -415q-15 -31 -50 -20q-24 15 -13 45q174 302 198 393q8 38 8 79q0 190 -161 190
q-76 0 -135 -18.5t-96 -48.5q52 -88 78 -194q10 -37 -18 -49q-19 -9 -34 23q-86 125 -194 190t-237 63q21 90 64.5 168.5t105.5 159.5h-181l88 142h809q-155 116 -330 172q-188 60 -388 60q-136 0 -250 -30q0 140 32.5 261t92.5 209h-125l62 151h1050zM371 1072
q-78 -35 -132 -104.5t-96 -194.5q482 40 849 -270q-11 246 -43.5 390t-84.5 179h-493z" />
    <glyph glyph-name="tibMa" unicode="&#xf58;" horiz-adv-x="1321" 
d="M845 1223l-50 -149h-213q2 -22 5.5 -53.5t3.5 -61.5v-86q-2 -20 -2 -26q129 -76 258.5 -229t260.5 -377q-6 783 -143 831l46 151h235l-65 -146v-996q-8 -29 -34 -36l-35 36q-32 39 -51.5 67t-30.5 37q-185 261 -267 332q-159 -291 -383 -299q-170 -8 -252.5 78.5
t-88.5 237.5q1 148 82 234t196.5 100.5t191.5 -5.5q-24 83 -49 133.5t-55 77.5h-308l47 149h701zM384 741q-131 -3 -181.5 -51t-46.5 -160q18 -116 69 -146.5t151 -27.5q202 29 322 232q-144 156 -314 153z" />
    <glyph glyph-name="tibTsa" unicode="&#xf59;" horiz-adv-x="1358" 
d="M1121 1072h-412v-20q0 -90 35 -155q6 -17 35 -33t70 -29q65 -15 105 -26t55 -24q88 -45 136.5 -133.5t48.5 -219.5q0 -50 -15 -98.5t-45 -95.5q-56 -87 -131.5 -139.5t-176.5 -63.5h-13q-18 -6 -50 -6q-220 0 -411 248q-99 139 -316 456l76 151q50 -77 83.5 -120
t43.5 -58q373 60 373 334v32h-543l86 151h899l-75 101l133 229q100 -48 199 -48q28 0 69 15q-9 -77 -96 -154h-26q-34 0 -65.5 7.5t-59.5 20.5l-51 -70q22 -24 48 -56q17 -24 32 -45h47zM763 682q-105 36 -142 73q-58 -73 -129.5 -121.5t-155.5 -76.5q74 -110 137.5 -192.5
t108.5 -118.5q75 -52 144 -74.5t126 -22.5q86 0 148 59q61 53 74 142q4 21 4 47q0 162 -142 231q-13 6 -55 20t-118 34z" />
    <glyph glyph-name="tibTsha" unicode="&#xf5a;" horiz-adv-x="1442" 
d="M1175 1070h-466q0 -100 -3 -186.5t-10 -157.5q46 56 112.5 91.5t150.5 35.5q341 -4 337 -381q-5 -369 -345 -386q-95 -2 -170.5 46.5t-129.5 143.5q-101 -195 -295 -190q-324 11 -324 392q0 356 326 375q177 7 259 -155q-11 136 -39 230t-69 142h-414l82 153h944l-28 84
l125 224q97 -39 201 -39h32q13 0 43 9q-15 -89 -92 -159h-4q-2 0 -5.5 -1t-7.5 -1h-15q-52 0 -127 30l-51 -63q7 -24 20 -52q6 -17 12 -32h35zM951 689q-121 0 -183.5 -52.5t-64.5 -156.5q13 -101 73 -175.5t172 -78.5q125 0 193 75.5t77 172.5q-17 99 -82 156t-185 59z
M597 485q-17 97 -81.5 146.5t-174.5 57.5q-197 -43 -231 -215q4 -97 63.5 -165.5t167.5 -72.5q114 13 179.5 82.5t76.5 166.5z" />
    <glyph glyph-name="tibDza" unicode="&#xf5b;" horiz-adv-x="1352" 
d="M1081 1342q18 -29 98 -119h26l-79 -151h-715q-24 -17 -51 -48t-55 -73q-9 -14 -26 -43t-30 -55h787l-63 -152h-778q-11 -42 -19.5 -79.5t-14 -81t-8.5 -113.5q75 15 137.5 22.5t121.5 7.5q161 0 307.5 -60.5t260.5 -185.5q36 -37 77 -105t91 -165q54 -103 87.5 -177.5
t52.5 -130.5l6 -17q4 -21 -15 -32q-13 -6 -27 -3.5t-24 20.5q-352 608 -579 656q-81 23 -126.5 28.5t-96.5 6.5q-153 2 -352 -70q-2 23 -2 51v46q0 110 6.5 196t15.5 157q13 97 43 199.5t77 200.5h-191l74 151h953l-73 114l174 224q22 -13 44.5 -23.5t54.5 -28.5
q41 -17 84.5 -24.5t86.5 -5.5q-26 -73 -123 -122q-7 -11 -22 -11l-6 4q-65 11 -123 52z" />
    <glyph glyph-name="tibDzha" unicode="&#xf5c;" horiz-adv-x="1330" 
d="M875 257h-383q-72 -32 -129 -77t-110 -105q123 -41 217 -121q91 162 310 162q74 0 131 -37t94 -106q15 -28 22.5 -63.5t7.5 -71.5q0 -63 -22 -143q-21 -73 -40 -112.5t-177 -312.5q-15 -28 -49 -20q-28 15 -17 45q137 312 160 403q11 38 11 79q0 190 -168 190
q-69 0 -127 -18.5t-97 -48.5q21 -43 44 -96t33 -98q7 -37 -13 -47q-25 -11 -38 21q-173 255 -432 253q52 183 166 324h-174l86 143h763q-54 48 -116 61q-203 47 -380 45q-170 0 -373 -64v105q0 190 20 235q28 192 118 290h-191l88 151h969l-87 114l176 224
q18 -13 41.5 -23.5t51.5 -28.5q89 -34 168 -30q-10 -34 -47 -70.5t-82 -62.5q-9 -11 -24 -11q-4 4 -8 4q-67 11 -121 52l-62 -52q24 -37 111 -116h20l-86 -151h-720q-35 -9 -65 -30t-52 -40q-17 -17 -28 -41t-13 -29h787l-60 -130h-781q-32 -76 -24 -176q73 40 303 44
q424 -4 530 -136q82 -88 132.5 -227t61.5 -200q9 -35 -15 -51q-36 -12 -54 28q-65 220 -179 310z" />
    <glyph glyph-name="tibWa" unicode="&#xf5d;" horiz-adv-x="1401" 
d="M783 1223l-80 -144q43 -65 43 -166q0 -15 -0.5 -49.5t-9.5 -73.5q111 -17 221 -60.5t211 -127.5q-4 412 -149 469l50 152h257l-65 -147v-1116q0 -33 -10.5 -37.5t-19.5 -3t-30 14.5q-321 276 -615 276q-90 0 -181 -15q28 127 75.5 241t110.5 209q-74 -6 -184 -45
q-23 168 100 192l155 5l3 30q-1 96 -40 153t-112 92h-220q-17 -10 -52 -35q-43 -36 -62.5 -72t-23.5 -109q3 -88 52 -157l-99 -138q-86 104 -90 218l3 55q54 251 374 389h388zM1171 518q-190 108 -431 128q-106 -89 -205 -283h35q312 4 611 -304v187q0 156 -10 272z" />
    <glyph glyph-name="tibZha" unicode="&#xf5e;" horiz-adv-x="1278" 
d="M1166 -741q-32 0 -39 65l-28 443q-12 194 -25 319.5t-26 216.5q-7 36 -15.5 73t-17.5 67q-69 -173 -308 -209q-321 25 -331 328q25 292 273 313q131 8 218 -24q79 -31 129 -61q-4 201 -119 282h-435q-52 -20 -97 -61t-79.5 -93t-61.5 -114.5t-40 -127.5v-51
q-6 -185 125 -360q-17 -84 -101 -192q-179 213 -179 483q0 58 10 116q28 194 137 327t297 224h700l-92 -143q15 -46 24.5 -87t9.5 -71q0 -98 -34 -184q86 -106 118 -438v3q9 -87 14.5 -197.5t5.5 -271.5l2 -532q0 -43 -35 -43zM713 364q174 12 255 178q-57 183 -256 186h-41
q-88 0 -136 -53t-48 -113q-13 -72 41 -133t185 -65z" />
    <glyph glyph-name="tibZa" unicode="&#xf5f;" horiz-adv-x="1218" 
d="M1129 1223l-55 -146v-1043q0 -28 -16 -30q-12 -11 -43 4q-332 250 -682 275q-42 0 -80 -1.5t-98 -18t-133 -48.5q49 218 157 225q32 6 81 6q55 0 100 -6q127 -18 296.5 -97.5t339.5 -211.5q0 97 -7.5 222t-20.5 276h-897l56 144h834q-6 108 -28.5 174.5t-65.5 123.5h-817
l58 152h1021z" />
    <glyph glyph-name="tibAchung" unicode="&#xf60;" horiz-adv-x="1289" 
d="M1104 1223l-97 -143q23 -63 37 -116t14 -91v-28q0 -3 -1 -8t-1 -7q-2 -3 -2 -9v-4q-19 -115 -125 -274q106 -90 178.5 -221.5t116.5 -315.5q3 -41 -17 -54q-32 -8 -45 30q-69 188 -192 325.5t-297 151.5q-132 6 -257 -59q19 199 185 214q170 1 256 -34q57 109 57 217
q0 164 -164 274h-315q-92 -43 -154.5 -132.5t-88.5 -211.5q-10 -118 10 -174.5t58 -115.5q-31 -114 -137 -190q-50 93 -73.5 182.5t-23.5 173.5q0 431 431 620h647z" />
    <glyph glyph-name="tibYa" unicode="&#xf61;" horiz-adv-x="1375" 
d="M386 1223q-95 -107 -152 -217t-74 -196q-8 -100 46.5 -164.5t103.5 -78.5t111 -14q243 31 254 283q13 164 -147 238l91 149h174l-90 -146q77 -107 77 -250q0 -75 -9 -139q102 -63 201 -161t196 -226v87q0 34 -1 75t-1 73q-10 481 -131 536l49 151h216l-56 -143v-912
q0 -35 -17 -39q-15 -7 -35 17q-243 287 -499 394q-61 -81 -130 -110t-136.5 -29.5t-144.5 12t-157 94t-80 219.5q0 179 117 345h-130l93 152h261z" />
    <glyph glyph-name="tibRa" unicode="&#xf62;" horiz-adv-x="1248" 
d="M1124 1223l-83 -152h-383v-73q0 -93 -31 -203q371 -114 610 -776q5 -15 5 -28q-5 -17 -15 -26q-17 -12 -43 24q-350 631 -703 664h-41q-224 -11 -434 -158q10 217 141 261q120 48 248 58q60 3 104 3t55 -3l2 31q0 62 -28 119t-77 107h-417l85 152h1005z" />
    <glyph glyph-name="tibLa" unicode="&#xf63;" horiz-adv-x="1388" 
d="M1268 1070v-891q0 -54 -21 -56q-10 -2 -24 6.5t-29 32.5q-166 166 -308 266.5t-245 119.5q-26 5 -63 5q-99 -3 -192 -46q18 174 89 197q83 9 135 4.5t71 -9.5q13 45 15 77.5t2 60.5q0 168 -118 235h-272q-62 -45 -101 -117.5t-39 -154.5q0 -92 57 -220l-133 -109
q-28 58 -49 128t-17 158q6 231 284 466h496l-56 -134q52 -62 52 -155q0 -52 -13 -115.5t-41 -139.5q183 -73 438 -405q-5 252 -11.5 405.5t-18.5 206.5q-24 134 -98 194l41 143h207z" />
    <glyph glyph-name="tibSha" unicode="&#xf64;" horiz-adv-x="1261" 
d="M1095 1067q4 -479 4 -957.5t3 -811.5q0 -39 -46 -39q-54 9 -54 54v182q0 129 -2 269.5t-5 299t-9.5 334t-11.5 373.5q-25 -58 -43.5 -98t-31.5 -57q-24 -32 -69.5 -63t-95.5 -42.5t-109 -15.5q-86 1 -166 32q-67 31 -114 115q0 -15 4.5 -36.5t6.5 -47.5q0 -2 6.5 -56.5
t21.5 -121.5q52 -43 92.5 -106t71.5 -154q13 -39 -18 -62q-17 -5 -26.5 -1.5t-22.5 24.5q-136 220 -366 236q-43 0 -97.5 -12t-101.5 -21q80 171 195 171q79 0 117 -10t73 -22q-66 213 -66 435v64q0 260 336 301h582zM925 1008q-15 20 -42 37.5t-55 26.5h-259
q-200 -23 -231 -167q0 -45 19 -103t52 -88q55 -76 205 -88q214 4 335 270q-9 54 -15.5 80t-8.5 32z" />
    <glyph glyph-name="tibSsa" unicode="&#xf65;" horiz-adv-x="1192" 
d="M175 1223h791l-52 -151q31 -64 37 -213q0 -218 -60 -419q30 9 60.5 14.5t86.5 8.5q189 23 236 -178q-50 9 -95 13t-88 4q-252 0 -386 -220q-22 -36 -52 -23q-27 22 -13 62q28 91 64.5 149.5t100.5 117.5q28 173 34 253q-46 -78 -110 -106q-99 -46 -230 -33
q-75 7 -127.5 38t-86.5 77q-31 42 -69 155q-16 -388 -23.5 -706t-7.5 -570v-177q0 -45 -58 -54q-39 0 -39 39l3 1766zM263 1009q-4 -6 -10.5 -32t-19.5 -80q146 -245 315 -249q172 4 232 63q41 47 55 98.5t17 96.5q-33 144 -233 166h-259q-30 -9 -56 -26t-41 -37z" />
    <glyph glyph-name="tibSa" unicode="&#xf66;" horiz-adv-x="1323" 
d="M907 1223l-75 -153h-205q131 -143 252 -340.5t237 -445.5q-8 380 -50 578t-98 213l56 148h222l-52 -146v-955q0 -32 -22 -41q-8 -4 -30 24q-220 341 -392.5 564t-307.5 353q-188 -130 -261 -309q161 -28 287.5 -107.5t212.5 -254.5q6 -9 6 -26q0 -34 -32 -34
q-15 0 -26 10q-254 261 -565 248q20 158 72.5 290.5t130.5 230.5h-207l82 153h765z" />
    <glyph glyph-name="tibHa" unicode="&#xf67;" horiz-adv-x="1164" 
d="M642 -705q-9 -16 -23 -37q-34 -15 -45.5 0.5t-4.5 42.5q9 28 63 140t148 309q95 198 144.5 318.5t52.5 163.5q2 39 2 69q0 61 -13 115t-37 103q-17 54 -56 81t-99 33h-30q-143 0 -233 -129q43 -62 75.5 -132.5t55.5 -149.5q11 -33 -16 -50q-32 -10 -48 17
q-99 164 -186 237q-56 39 -129 60.5t-153 21.5h-60q-10 -1 -28 -2q88 343 207 564h-195l61 153h998l-50 -153h-580q-71 -45 -141 -140.5t-137 -235.5q78 -7 144 -40.5t122 -89.5q125 250 316 250q199 0 294 -189v2q56 -65 56 -224q6 -162 -179 -537q-89 -185 -162 -326.5
t-134 -244.5z" />
    <glyph glyph-name="tibAa" unicode="&#xf68;" horiz-adv-x="1356" 
d="M1229 1080v-965q0 -41 -15 -52q-33 -4 -48 32q-146 330 -297 528.5t-300 267.5q-54 -46 -91.5 -83.5t-59.5 -63.5q123 -30 184.5 -87t70.5 -148q-20 -295 -313 -284q-310 15 -302 373q0 215 153 474h-118l62 151h259q-272 -401 -272 -580q2 -246 226 -275q160 0 139 169
q0 48 -53 87.5t-159 70.5q56 92 129.5 191.5t161.5 185.5h-135l77 151h390l-45 -151h-69q-15 -7 -37.5 -24t-42.5 -37q263 -237 427 -689q-2 655 -127 758l47 143h207z" />
    <glyph glyph-name="tibKssa" unicode="&#xf69;" horiz-adv-x="1317" 
d="M362 467h636l-53 -144q55 -40 77 -163l2 -69q-2 -167 -75 -344q75 30 135 30q177 0 220 -151q-36 7 -74 10t-72 3q-233 0 -356 -200q-46 -30 -39 19q28 84 66 149t83 110q18 83 24 134t8 76t2 38q-54 -92 -115 -125q-77 -31 -171 -26q-135 9 -216 104q-39 41 -90 165
l-29 -781q-17 -24 -36 -30q-20 0 -24 19q0 176 2 458.5t2 568.5zM735 1071q7 -104 8 -189t1 -152v-67q0 -28 -2 -49q0 -13 -1.5 -30.5t-1.5 -30.5q0 -25 -30 -25q-36 0 -36 25q-3 108 -7 181.5t-13 114.5q-15 93 -49.5 149t-86.5 73h-151q7 -26 7 -67q0 -26 -2 -48.5
t-5 -46.5q-30 -75 -97 -112q-43 -26 -65.5 -41t-31.5 -17q-19 -24 -40.5 -55t-38.5 -79q-37 108 -37 164q0 50 24 75q43 20 79.5 44.5t66.5 57.5q24 21 56 125h-211l52 152h1097l-67 -135v-776q0 -26 -41 -26q-28 0 -28 20l-32 424v-2q-26 162 -55 248t-64 95h-198zM401 275
q-11 -13 -26 -114q134 -231 295 -231q158 0 214 63q75 82 67 179q-22 146 -216 166h-241q-31 -11 -54.5 -28t-38.5 -35z" />
    <glyph glyph-name="tibRaGoFixed" unicode="&#xf6a;" horiz-adv-x="1257" 
d="M1132 1223l-91 -153h-383v-72q0 -93 -31 -203q371 -114 610 -776q5 -15 5 -28q-2 -19 -15 -26q-23 -9 -43 24q-350 631 -708 653h-41q-219 0 -429 -147q28 203 214 287q47 22 175 32q60 3 104 3t55 -3l2 31q0 62 -28 119.5t-77 105.5h-417l85 153h1013z" />
    <glyph glyph-name="tib_Achung" unicode="&#xf71;" 
d="M-121 305l-82 -151q24 -48 24 -100q0 -30 -2.5 -50.5t-13 -39.5t-25.5 -42t-39 -55q30 -26 61.5 -65t58.5 -78.5t43 -76.5t16 -52t-4.5 -23.5t-23.5 -8.5q-17 0 -23.5 8.5t-15.5 21.5q-37 61 -75.5 101.5t-87 71t-108 45.5t-136.5 17q-15 0 -33.5 -1t-35.5 -3
q30 80 66.5 110t90.5 30q30 0 69 -13t78 -37q21 37 29.5 58.5t8.5 51.5q0 43 -15 77.5t-43 62.5h-312q-61 -13 -86.5 -59t-25.5 -94q0 -30 4 -61t13 -74q-22 -41 -57.5 -79t-89.5 -72q-11 34 -18.5 74t-11.5 89q0 141 61.5 241t214.5 176h526z" />
    <glyph glyph-name="tib.Gigu" unicode="&#xf72;" 
d="M-200 1201q-79 79 -137.5 138t-144.5 142q-252 235 -443 244q-73 1 -94 0q-124 -26 -129 -118q-1 -46 27 -73t73 -38q33 -8 47 -2q76 3 124 61l8 -8q-44 -187 -177 -217q-186 23 -194 200q-2 65 8 96q63 272 317 277q121 5 230 -67.5t236 -213.5q95 -117 169.5 -212
t127.5 -166l1 -13q1 -17 -8.5 -23.5t-22.5 -7.5q-15 -1 -18 1z" />
    <glyph glyph-name="tib_Achung.Gigu" unicode="&#xf73;" 
d="M-170 1199q-76 82 -132 143.5t-97 93.5q-265 265 -534 295q-26 7 -48 7q-110 0 -118 -91q-9 -45 20 -74t74 -42q31 -4 48 -4q75 0 125 56l8 -9q-19 -198 -163 -233q-205 26 -237 203q0 21 6 58t11 58q84 298 332 289q136 -4 251 -84t223 -235q91 -121 161 -219t119 -171
v-13q0 -17 -9.5 -23.5t-22.5 -6.5h-13q-2 0 -4 2zM-263 190l-82 -153q24 -50 24 -101q0 -28 -2.5 -48.5t-13 -40t-25.5 -43.5t-39 -54q30 -23 61.5 -63t58.5 -80t43 -76.5t16 -51.5q0 -16 -4.5 -25.5t-23.5 -9.5q-17 0 -24 11l-15 21q-37 59 -75.5 101t-87 71t-108 45
t-136.5 18q-15 3 -33.5 0.5t-35.5 -2.5q30 78 66.5 107t90.5 29q30 0 69 -13t78 -34q21 34 29.5 56.5t8.5 53.5q0 38 -15 67.5t-43 57.5h-312q-61 -13 -86.5 -52t-25.5 -86q0 -31 4 -62t13 -74q-22 -45 -57.5 -81t-89.5 -72q-11 36 -18.5 77t-11.5 89q0 138 61.5 240.5
t214.5 177.5h526z" />
    <glyph glyph-name="tib_Shapkyu" unicode="&#xf74;" horiz-adv-x="41" 
d="M-16 -1043q12 -72 -3 -136.5t-50 -111.5t-89 -79.5t-126 -44.5q-54 -8 -120 -2.5t-142 36t-162.5 101t-193.5 192.5q-73 74 -132.5 138t-110 114.5t-94.5 96t-94 85.5q-5 3 -12 12t-8 20q-5 28 27 33q16 2 59 -30.5t104.5 -92.5t140.5 -141t176 -177q80 -75 154.5 -122
t142 -69t128.5 -27.5t112 2.5t96.5 24.5t77.5 36.5t49 47.5t11 64.5q-9 57 -60.5 85.5t-121.5 17.5q-111 -17 -149 -77q-21 103 7 167.5t115 78.5q103 17 175 -44t93 -198z" />
    <glyph glyph-name="tib_Achung_Shapkyu" unicode="&#xf75;" 
d="M-63 20l-79 -153q13 -24 18 -43.5t5 -43.5q0 -51 -17 -86.5t-41 -68.5q33 -39 57.5 -85t31.5 -85q47 -43 67.5 -106.5t20.5 -124.5q0 -73 -25 -134.5t-67 -102.5t-100 -64.5t-131 -23.5q-82 0 -162 32t-161 94.5t-165 158.5t-176 226q-63 82 -112.5 144.5t-89.5 111
t-77.5 91.5t-74.5 88q-6 9 -10.5 16.5t-4.5 20.5t11 22.5t24 5.5q6 0 18 -10t20 -20q37 -41 67 -73.5t69 -75.5t89.5 -104.5t126.5 -163.5q142 -194 295 -294t315 -100q52 0 98 8.5t81.5 23.5t57 40t21.5 62q0 58 -46 94.5t-120 36.5q-112 0 -157 -54q-2 41 3.5 81
t23.5 72.5t48.5 53t81.5 20.5h7q-47 45 -104.5 71t-117.5 26q-19 0 -38.5 -2.5t-43.5 -4.5q32 78 67.5 102.5t87.5 24.5q33 0 62 -14t65 -37q11 21 17.5 37.5t6.5 48.5q0 30 -17 51.5t-45 51.5h-227q-60 -10 -91.5 -49t-31.5 -89q0 -17 3.5 -23.5t4.5 -12t5 -13.5l9 -30
q-22 -46 -57.5 -82.5t-91.5 -70.5q-13 34 -21.5 74t-8.5 92q0 25 15 70.5t51.5 96t89.5 102.5t131 93h439z" />
    <glyph glyph-name="tib_Rata.RevGigu" unicode="&#xf76;" horiz-adv-x="1257" 
d="M63 1195q-7 -7 -18 -7q-8 0 -19 6.5t-11 30.5q0 4 2 11q50 71 119 171t159 217q108 155 222.5 236t249.5 87q248 6 337 -295q2 -18 7.5 -54.5t5.5 -60.5q-30 -172 -237 -198q-141 32 -164 233l13 2q47 -52 125 -52q15 0 41 5q47 10 76 40.5t23 75.5q-9 88 -117 88
q-21 0 -49 -2q-270 -34 -539 -295q-39 -37 -94 -96t-128 -143h-4zM1184 190v-746q0 -43 -16 -43q-17 0 -44 14t-70 42q-26 13 -69 39t-100 57t-127 63.5t-148 59.5t-157.5 44t-163.5 17q-17 0 -43 -1t-56 -6.5t-62.5 -20.5t-64.5 -45q6 65 22 115.5t44 86t69 53t102 17.5
q88 0 177.5 -29.5t188.5 -82t210 -132.5t236 -175v673h72z" />
    <glyph glyph-name="tib_Rata_Achung.RevGigu" unicode="&#xf77;" horiz-adv-x="1386" 
d="M1181 190v-565h108l-82 -151q24 -49 24 -103q0 -24 -3.5 -44.5t-14 -43t-25.5 -45t-39 -55.5q32 -19 62.5 -57t55 -76.5t38.5 -70t14 -46.5t-4 -24.5t-22 -9.5q-15 0 -21 10l-15 22q-39 58 -78 97t-86 65t-104.5 38.5t-132.5 15.5q-17 4 -36.5 0.5t-39.5 -3.5
q33 78 70.5 109.5t89.5 31.5q30 0 69 -13t80 -41q19 41 27.5 62.5t8.5 53.5q0 37 -15 65t-41 54h-317q-56 -11 -83 -50t-27 -82q0 -34 4.5 -63.5t13.5 -76.5q-22 -43 -57.5 -81t-87.5 -72q-13 34 -20.5 76.5t-11.5 89.5q0 142 62.5 243.5t215.5 174.5h269q-45 24 -122.5 69
t-178 89.5t-213.5 75.5t-229 31h-43q-26 0 -56.5 -6.5t-62.5 -20.5t-65 -44q7 65 23 115.5t44 86t69 53t101 17.5q89 0 178.5 -29t188.5 -84t210 -133t236 -172v517h71zM1244 1772q0 -135 -53 -207.5t-152 -72.5q-39 0 -66 16t-47.5 47.5t-34.5 75.5t-20 94q30 -35 72 -53
t103 -12q62 2 94.5 33.5t32.5 78.5q0 22 -10 42.5t-35.5 37.5t-70 29t-108.5 12q-311 0 -835 -528q-2 -7 -8.5 -14.5t-17 -16t-23.5 -16t-28 -7.5q-9 0 -16.5 8.5t-7.5 21.5t13 30.5t24 30.5q157 181 288.5 306t241.5 203.5t202.5 115t166.5 36.5q159 0 227 -75.5t68 -215.5
z" />
    <glyph glyph-name="tib_Lata.RevGigu" unicode="&#xf78;" horiz-adv-x="1324" 
d="M1263 190l-62 -170v-673q0 -15 -4.5 -31t-25.5 -16q-18 0 -27.5 10.5t-22.5 23.5q-84 80 -146.5 131.5t-118.5 83t-110 41t-123 9.5q-103 0 -200 -41q0 48 16 86.5t43 66.5t64.5 45.5t85.5 17.5q36 0 56.5 -6.5t44.5 -12.5q15 36 15 88q0 110 -110 177h-272
q-155 -110 -153 -278q5 -54 30.5 -105t45.5 -83l-153 -114q-22 49 -39 109.5t-17 148.5q0 106 74.5 230t229.5 262h478l-67 -166q44 -63 44 -140q0 -35 -10 -76t-29 -81q60 -31 109.5 -73t91.5 -85t74.5 -86t54.5 -80q-9 295 -46.5 442t-115.5 175l78 170h217zM80 1195
q-7 -7 -17 -7q-9 0 -20 6.5t-11 30.5q0 4 2 11q50 71 119 171t160 217q107 155 221.5 236t250.5 87q248 6 336 -295q2 -18 7.5 -54.5t5.5 -60.5q-30 -172 -237 -198q-140 32 -164 233l13 2q47 -52 125 -52q15 0 41 5q47 10 76.5 40.5t22.5 75.5q-9 88 -116 88q-22 0 -50 -2
q-269 -34 -539 -295q-39 -37 -94 -96t-128 -143h-4z" />
    <glyph glyph-name="tib_Lata_Achung.RevGigu" unicode="&#xf79;" horiz-adv-x="1345" 
d="M1250 190l-62 -170v-565h82l-82 -153q13 -26 19.5 -43.5t6.5 -42.5q0 -52 -17.5 -90t-40.5 -70q12 -9 25 -26t25 -36.5t19.5 -38t7.5 -24.5q0 -11 -5.5 -21.5t-18.5 -10.5q-15 0 -22.5 6.5t-15.5 16.5q-50 56 -126.5 93t-169.5 37q-26 0 -42 -5.5t-38 -5.5
q18 52 55.5 85.5t89.5 33.5q32 0 72 -14t79 -43q6 26 12.5 43.5t6.5 47.5q0 28 -16 51.5t-44 49.5h-259q-58 -8 -89.5 -48t-31.5 -92q0 -15 2.5 -20.5t3.5 -12t6.5 -15t7.5 -32.5q-20 -45 -56.5 -79.5t-92.5 -68.5q-9 34 -17.5 74t-8.5 87q0 28 13 73.5t49.5 96t89.5 102.5
t131 95h207q-59 39 -106 68t-90.5 45t-93 23.5t-105.5 7.5q-103 0 -200 -41q0 48 16 86.5t43 66.5t64.5 45.5t85.5 17.5q36 0 56.5 -6.5t44.5 -12.5q15 36 15 88q0 110 -110 177h-271q-156 -110 -154 -278q5 -54 31 -105t45 -83l-153 -114q-22 49 -39 109.5t-17 148.5
q0 106 74.5 230t229.5 262h478l-66 -166q43 -63 43 -140q0 -35 -10 -76t-29 -81q49 -24 99 -61t94 -75.5t79.5 -75t57.5 -60.5q-2 144 -14 245.5t-31.5 168.5t-49.5 102.5t-67 48.5l78 170h217zM1250 1772q0 -135 -52.5 -207.5t-151.5 -72.5q-39 0 -66 16t-47.5 47.5
t-34.5 75.5t-21 94q31 -35 73 -53t102 -12q63 2 95 33.5t32 78.5q0 22 -9.5 42.5t-35.5 37.5t-70 29t-109 12q-310 0 -834 -528q-2 -7 -8.5 -14.5t-17.5 -16t-24 -16t-28 -7.5q-9 0 -16.5 8.5t-7.5 21.5t13 30.5t24 30.5q157 181 288.5 306t241.5 203.5t203 115t166 36.5
q160 0 227.5 -75.5t67.5 -215.5z" />
    <glyph glyph-name="tib.Drengbo" unicode="&#xf7a;" 
d="M-184 1205q-385 315 -737 391q-147 25 -223 8t-105 -24q22 110 74 142t128 36h43q364 0 854 -501z" />
    <glyph glyph-name="tib.DrengboDrengbo" unicode="&#xf7b;" 
d="M-229 1233l-12 22q-373 319 -755 364q-45 2 -83 6.5t-70 2.5q-32 0 -61.5 -6.5t-57.5 -15.5q18 112 73 170.5t143 62.5q9 0 21.5 1t21.5 1q270 0 660 -411q-151 224 -287 329q-190 151 -343 171q-30 8 -58 13.5t-58 7.5q56 99 128 133.5t156 6.5q9 -2 21 -6t18 -7
q300 -105 589 -834q6 -6 13 -15l-26 -17z" />
    <glyph glyph-name="tib.Naro" unicode="&#xf7c;" 
d="M-558 1214q-52 84 -112.5 150t-128.5 127t-157 83t-136.5 22h-82.5l-54 -6q65 163 203 151q103 2 198 -50q59 -37 113.5 -81.5t97.5 -130.5q41 97 101.5 138t139.5 38q127 -8 195 -2q159 50 292 134q16 22 38 22q24 0 16 -38q-19 -28 -59.5 -67t-112.5 -100
q-56 -47 -132.5 -78.5t-179.5 -29.5h-54q-78 0 -127.5 -23.5t-70.5 -68.5q4 -13 16 -33.5t23 -46.5q8 -35 21 -63t19 -47h-66z" />
    <glyph glyph-name="tib.NaroNaro" unicode="&#xf7d;" 
d="M-604 1223q-64 64 -157.5 125.5t-177.5 81.5q-75 13 -138 11.5t-100 -1.5h-22q-13 0 -30 -4q56 157 200 150q98 -10 196 -45q65 -32 116.5 -75.5t104.5 -111.5q39 89 93.5 127.5t134.5 51.5q123 0 192 4q43 0 82 13.5t98 64t92.5 76t42.5 43.5q4 21 26 21q36 -2 23 -30h3
q-37 -69 -94 -132.5t-117.5 -118.5t-115.5 -81t-158 -26h-56q-82 0 -132 -19.5t-73 -60.5q6 -6 18 -27.5t21 -36.5h-72zM-642 1443q-59 71 -124.5 124t-117 75.5t-132.5 27.5q-52 9 -102 5t-87 -4h-22q-13 0 -28 -6q56 159 205 168q104 6 198 -43q61 -35 108 -83t102 -124
q43 90 101 141t138 63q123 0 187 5q46 0 79.5 11.5t96 51.5t94.5 64t43 43q2 22 24 22q34 -3 21 -28h7q-39 -72 -96 -134.5t-117 -106.5t-115 -69.5t-158 -25.5h-56q-82 0 -131 -30.5t-73 -69.5q6 -15 9.5 -34.5t3.5 -36.5z" />
    <glyph glyph-name="tib.Anusvara" unicode="&#xf7e;" 
d="M-632 1815q242 -30 266 -295q-24 -248 -268 -278q-248 30 -269 280q28 263 269 293h2zM-584 1647q-65 33 -117 33q-86 0 -116 -56h4q-4 -11 -5 -24t-1 -26q0 -37 32 -82t99 -88q69 -46 127 -35q67 7 100 52q6 13 7 25t1 20q0 108 -131 181z" />
    <glyph glyph-name="tibVisarga" unicode="&#xf7f;" horiz-adv-x="750" 
d="M686 906q0 -74 -29.5 -132t-71.5 -101t-97 -63.5t-109 -20.5q-56 0 -113 20.5t-101 63.5t-72 101t-28 132q0 75 25.5 134.5t70 101.5t100.5 64.5t118 22.5q54 0 110 -22.5t100.5 -67t70.5 -102.5t26 -131zM686 149q0 -73 -29.5 -132.5t-71.5 -100.5t-97 -63.5t-109 -22.5
q-56 0 -113 22.5t-101 63.5t-72 100.5t-28 132.5q0 71 25.5 132.5t70 102.5t100.5 64.5t118 23.5q54 0 110 -23.5t100.5 -65.5t70.5 -102.5t26 -131.5zM597 845q0 48 -31 92t-77.5 77.5t-98.5 56t-99 22.5q-26 0 -52 -7.5t-47.5 -22.5t-35.5 -37.5t-14 -55.5q0 -30 21.5 -73
t63.5 -82t97 -67t122 -28q24 0 51 6.5t50.5 20.5t36.5 39t13 59zM597 87q0 51 -31 94t-77.5 77.5t-98.5 55t-99 20.5q-26 0 -52 -7.5t-47.5 -20.5t-35.5 -36.5t-14 -57.5q0 -26 21.5 -70.5t63.5 -83t97 -68t122 -29.5q24 0 51 6.5t50.5 22t36.5 39t13 58.5z" />
    <glyph glyph-name="tib.RevGigu" unicode="&#xf80;" 
d="M-1115 1195q-6 -7 -17 -7q-8 0 -19 6.5t-11 30.5q0 4 2 11q50 71 119 171t159 217q108 155 222.5 236t249.5 87q248 6 337 -295q2 -18 7.5 -54.5t5.5 -60.5q-31 -172 -237 -198q-141 32 -164 233l13 2q47 -52 125 -52q15 0 41 5q47 10 76 40.5t23 75.5q-9 88 -117 88
q-21 0 -49 -2q-265 -2 -539 -295q-39 -37 -94 -96t-128 -143h-5z" />
    <glyph glyph-name="tib_Achung.RevGigu" unicode="&#xf81;" horiz-adv-x="1184" 
d="M71 1199q-2 -2 -4 -2h-13q-9 0 -20.5 6.5t-11.5 23.5q0 9 4 13q45 73 115 171t161 219q108 155 223 235t253 84q248 9 334 -289q5 -21 9 -58t4 -58q-32 -177 -237 -203q-138 35 -164 233l13 9q46 -56 121 -56q17 0 47 4q46 13 76 42t19 74q-4 91 -116 91q-24 0 -48 -7
q-271 -30 -536 -295q-41 -32 -97 -93.5t-132 -143.5zM983 -120l-82 -151q24 -48 24 -100q0 -30 -2 -50.5t-13 -39.5t-26 -42t-39 -55q30 -26 61.5 -65t58.5 -78.5t43 -76.5t16 -52t-4.5 -23.5t-23.5 -8.5q-17 0 -23.5 8.5t-15.5 21.5q-36 61 -75 101.5t-87.5 71t-108 45.5
t-136.5 17q-15 0 -33.5 -1t-35.5 -3q30 80 66.5 110t90.5 30q30 0 69 -13t78 -37q21 37 30 58.5t9 51.5q0 43 -15.5 70t-43.5 55h-312q-61 -13 -86.5 -51.5t-25.5 -86.5q0 -30 4 -61t13 -74q-22 -41 -57.5 -79t-89.5 -72q-11 34 -18.5 74t-11.5 89q0 141 61.5 241t214.5 176
h526z" />
    <glyph glyph-name="tib.SunMoonHon" unicode="&#xf82;" 
d="M-371 1697q9 -95 -38.5 -154.5t-151.5 -67.5q-92 -11 -157 38.5t-69 131.5q-6 65 32.5 91t125.5 15q-37 -24 -31.5 -72.5t35.5 -73.5t73 -4.5t50.5 67t-40 87.5t-73 82t-30.5 127q7 35 16.5 67t26 57t27 36t12.5 11q5 0 5 -5q-5 -220 70.5 -266t95 -92.5t21.5 -74.5z
M-561 1253q-56 -5 -104.5 -1.5t-114 37t-149.5 121.5q-4 11 -4 20l-3 21q-4 35 7 68t47 53q48 -56 86.5 -86.5t79.5 -47.5q41 -19 84 -29t87 -5q32 4 74 22.5t81 43t74.5 56t52.5 59.5q24 2 26 -17q2 -11 -24 -58.5t-54 -84t-62.5 -71t-73 -61.5t-79.5 -38z" />
    <glyph glyph-name="tib.SunMoon" unicode="&#xf83;" 
d="M-761 1561q-52 60 -41 127t29 106t46 73q29 33 67.5 53.5t90.5 20.5q39 0 77.5 -15.5t70 -42.5t51 -62.5t19.5 -76.5q0 -95 -54 -170q-24 -37 -114.5 -79t-241.5 66zM-647 1255q-95 17 -157.5 57t-137.5 135q-2 11 -2 19v22q0 34 14 66.5t50 49.5q44 -60 79.5 -94.5
t73.5 -56.5q39 -21 81 -35t85 -14q33 0 77 14t85 35.5t79 49.5t59 54q24 0 24 -20q0 -10 -30 -55.5t-61.5 -79t-69 -64.5t-85 -57t-164.5 -26zM-632 1820q-17 0 -34 -5.5t-30 -13t-22 -18.5t-9 -28q0 -30 20.5 -59t47.5 -50.5t62.5 -34.5t64.5 -20q32 0 60 18.5t28 55.5
q0 34 -18.5 62t-47.5 47.5t-61.5 32.5t-60.5 13z" />
    <glyph glyph-name="tib_Halanta" unicode="&#xf84;" 
d="M-126 -460q4 -30 -24 -34q-22 -3 -38 22q-86 130 -265.5 230.5t-375.5 75.5q-28 -4 -56 -9.5t-55 -17.5q1 200 173 222q200 26 376.5 -119t255.5 -338q4 -7 6 -15t3 -17z" />
    <glyph glyph-name="tibPaluta" unicode="&#xf85;" horiz-adv-x="1201" 
d="M1160 -304l-4 -64q-91 -181 -292.5 -116.5t-89.5 301.5q190 395 200 492q-2 77 -17 140.5t-34 113.5q-18 32 -46 53.5t-69 41.5q-36 19 -70.5 25.5t-75.5 6.5q-69 0 -123 -23.5t-91 -73.5q-13 -30 -13 -56q0 -50 67 -101q39 -26 108 -26h13q15 6 33.5 7.5t33.5 1.5
q-22 -59 -50 -110.5t-60 -96.5q-117 -11 -192 43q-71 60 -75 176q-5 125 86 238q88 114 213 150q63 16 138 16q50 0 104 -9q6 26 6 50q0 125 -99 176h-416q-60 -23 -101 -76t-59 -128v-35q0 -65 54 -144q-28 -35 -59 -76t-70 -90q-26 34 -45.5 78t-30.5 92q-12 54 -12 93
q8 25 10 44.5t2 30.5q67 241 382 384h634l-76 -155q31 -52 31 -104q0 -49 -18.5 -95.5t-48.5 -89.5q67 -43 108 -97t64 -123q22 -50 28 -214q-6 -77 -46 -161t-85.5 -167t-90.5 -157.5t-64.5 -131.5t0 -91.5t99.5 -37.5q21 0 38.5 4.5t28 14t21.5 26t26 40.5q11 10 25 15.5
t31 12.5z" />
    <glyph glyph-name="tib.CupHook" unicode="&#xf86;" 
d="M-623 1438q2 24 19.5 61.5t82 51.5t62.5 215q0 4 4 4q2 0 13 -8.5t25 -29t19.5 -77.5t7.5 -88.5t-20.5 -65t-62.5 -42t-33.5 -48.5t45 -56t65.5 3.5t31.5 60.5t-27.5 60q77 9 114 -13.5t30 -76.5q-6 -69 -64.5 -109t-140.5 -32q-95 9 -137 59.5t-33 130.5z" />
    <glyph glyph-name="tib.Shey" unicode="&#xf87;" 
d="M-507 2057l-84 -125l-15 -599q-2 -31 -28 -31q-28 0 -28 31l-24 599l-86 125h265z" />
    <glyph glyph-name="tibSuperX" unicode="&#xf88;" horiz-adv-x="1179" 
d="M584 846q-51 -37 -91.5 -65t-96.5 -88q100 -2 187 -3t181 -5zM1087 698l-53 -163h-1016l43 163h154q79 68 150.5 111t145.5 86q-74 48 -148.5 91t-154.5 86h-137l42 152h1023l-51 -152h-137q-73 -43 -140.5 -86t-143.5 -91q69 -43 139.5 -90.5t136.5 -111.5zM396 1068
q47 -26 89.5 -53t86.5 -55q31 15 60.5 31t56.5 27t54 24t58 30z" />
    <glyph glyph-name="tibSuper3" unicode="&#xf89;" horiz-adv-x="1328" 
d="M63 1287q4 54 94 362q65 253 218 300q11 2 22 2h21q63 0 115.5 -57t100.5 -173q4 -20 7.5 -39.5t3.5 -40.5q4 -2 4 -7v-4q0 -11 2 -24q0 11 4 24l5 22q0 15 2 35.5t6 37.5q97 246 227 246q26 0 45 -7q80 -26 137 -104.5t89 -207.5h-4q52 -160 76.5 -253.5t24.5 -117.5
l-39 -41q-30 80 -81 192q-91 230 -279 325q-36 22 -62 22q-54 0 -67 -80q-6 -26 -6 -47q0 -74 60 -115q11 -4 18.5 -8.5t16.5 -4.5q12 -6 25 -6q33 0 67 41l5 -11q-63 -198 -162 -205q-101 65 -108 207q-4 -60 -24 -105q-23 -54 -75 -82q-39 0 -76.5 41t-65.5 123
q13 -13 28 -17.5t30 -4.5q13 0 26 4q8 0 15.5 2.5t18.5 10.5q67 41 67 130q0 23 -9 49q-15 91 -73 91q-13 0 -30 -3.5t-39 -11.5q-93 -52 -163 -135t-115 -199q-24 -52 -44.5 -98.5t-33.5 -83.5z" />
    <glyph glyph-name="tibCamel" unicode="&#xf8a;" horiz-adv-x="1130" 
d="M80 968q0 89 36 153q37 56 113 125q32 22 72 35t78 13q35 0 59 -7q54 -8 80.5 -43.5t35.5 -72.5q2 -13 4.5 -30.5t2.5 -32.5q0 -17 2 -30t4 -24q19 46 55 84.5t76.5 68t85 43.5t87.5 14q26 0 47 -5q37 -11 72.5 -44t71 -78.5t67 -99.5t58.5 -110t48.5 -111t42.5 -100
q3 -9 9 -26t6 -24q-4 -8 -10.5 -10.5t-16 -2.5t-17 5.5t-9.5 5.5q-20 26 -33 50l-26 47q-8 13 -14.5 25t-15.5 23q-34 56 -61 102t-51 83q-21 37 -52.5 60.5t-72.5 36.5h-4q-2 0 -2 4q-24 5 -56 5q-33 0 -63 -6.5t-58 -23t-45.5 -40t-21.5 -53.5q-9 -24 -9 -37t4.5 -23.5
t8.5 -19.5q13 -17 28 -36.5t28 -41.5l13 -8v2q13 -2 34.5 3.5t46.5 15t48.5 22.5t38.5 30q26 -24 52 -49.5t56 -60.5q-19 -28 -49.5 -56t-66 -49.5t-74 -32.5t-75.5 -2q-54 17 -91.5 60.5t-61.5 93t-39 100t-24 80.5q-4 15 -22 52t-57 67q-18 21 -40.5 34t-46.5 13
q-32 0 -69 -34q-28 -13 -48 -52t-31 -80q-11 -30 -11 -54q0 -23 7.5 -38.5t29.5 -25.5q53 -15 110 -15q30 0 60 2q4 -13 19 -31.5t26 -39t24 -40t24 -36.5q-39 -17 -91 -17q-50 0 -102.5 12t-80.5 33q-35 13 -57.5 32.5t-36.5 46.5t-26 60.5t-22 78.5q-5 4 -7 12.5t-4 19.5z
" />
    <glyph glyph-name="tibSuper3Trunc" unicode="&#xf8b;" horiz-adv-x="1464" 
d="M873 977q0 -71 -63.5 -159.5t-182.5 -189.5q71 0 137 -1.5t131 -1.5q75 -4 122.5 13.5t75.5 45.5q13 21 22.5 73t9.5 129v270l194 125v-224q0 -244 -95 -375q-90 -126 -219.5 -191.5t-284.5 -54.5l-362 21l155 168q164 182 164 268t-47.5 135.5t-129.5 49.5
q-222 0 -241 -319l-220 -140q13 287 146 412q52 49 192 125q104 54 231 54q136 0 187 -48q78 -69 78 -185z" />
    <glyph glyph-name="tib_Ka" unicode="&#xf90;" 
d="M-526 249q6 -143 7.5 -238t1.5 -166v-104q-3 -23 -35 -23q-34 0 -34 23q-5 104 -8 174t-12 100q-32 186 -123 234h-146q4 -18 5 -39.5t1 -41.5q0 -49 -13 -90q-10 -37 -32 -63t-54 -41q-39 -26 -64.5 -41t-36.5 -26q-18 -15 -35 -44t-32 -70q-37 97 -37 153q0 48 24 69
q80 45 138 99q19 18 56 135h-201l48 152h1043l-64 -137v-945q0 -33 -41 -33q-22 0 -28 22l-26 599q-45 311 -117 342h-185z" />
    <glyph glyph-name="tib_Kha" unicode="&#xf91;" 
d="M-63 399l-56 -150q16 -76 28.5 -209.5t12.5 -349.5v-138q0 -28 -17 -28t-34 26q-54 58 -110 108t-120 86.5t-138 58t-161 21.5q-58 0 -122 -11q6 78 23.5 140.5t40 111t51.5 93.5t66 91h-296q-58 -50 -92.5 -127.5t-52.5 -170.5t-23.5 -200.5t-5.5 -219.5v-369
q0 -15 -10 -23.5t-25 -10.5q-17 2 -25.5 10.5t-8.5 23.5v1024l131 213h944zM-470 249q-69 -65 -123 -126.5t-80 -126.5q235 0 522 -336q-2 127 -11.5 224t-29 166t-48.5 117.5t-70 81.5h-160z" />
    <glyph glyph-name="tib_Ga" unicode="&#xf92;" 
d="M-63 399l-62 -150v-1076q0 -30 -7.5 -36.5t-20.5 -8.5q-19 2 -31 10.5t-12 34.5q0 485 -35.5 751t-96.5 325h-213q15 -89 20.5 -197.5t5.5 -240.5l-2 -272q-138 125 -293.5 199.5t-336.5 74.5h-52q-8 0 -17 -2q4 50 21.5 107t44.5 115t58 114t62 102h-207l75 150h1099z
M-880 249q-36 -28 -68.5 -63.5t-59.5 -71.5t-46.5 -70.5t-32.5 -59.5q138 -20 263.5 -96.5t237.5 -207.5q0 101 -9 192.5t-23 165t-33 128.5t-45 83h-184z" />
    <glyph glyph-name="tib_Gha" unicode="&#xf93;" 
d="M-140 -380h-494q-62 -30 -105.5 -54t-64.5 -39q114 -37 196 -121q41 76 108 116t146 40q72 0 128 -38t90 -103q9 -17 17.5 -39.5t8.5 -39.5q0 -95 -81 -226.5t-126 -189.5q-21 -22 -47 -20q-15 11 -18.5 22t0.5 24q13 25 77 136t64 234q6 91 -149 91q-52 0 -97 -15
t-80 -43q32 -33 50 -128q13 -36 -11 -47q-22 -9 -39 19q-71 93 -169 140.5t-225 45.5q49 164 118 235h-127l86 142h755q-11 15 -11 39q8 448 -110 448h-192q24 -106 24 -213v-35l-7 -172q0 -15 -6.5 -25t-19.5 -16q-15 -2 -38 23h4q-231 156 -436 156q-53 0 -107 -13h-43
q-5 -2 -22 -2q54 224 160 297h-119l56 152h981l-50 -139v-466q0 -23 -4 -34h6zM-761 249q-60 -13 -110 -39t-75 -84q101 0 219.5 -54t237.5 -159q-7 155 -34 236t-72 100h-166z" />
    <glyph glyph-name="tib_Nga" unicode="&#xf94;" 
d="M-127 400l-76 -151h-588q-93 -61 -155 -184.5t-92 -204.5q57 13 106.5 19.5t84.5 6.5q140 0 272 -54t262 -164q51 -43 92 -91.5t67 -83.5q22 -34 11 -60q-26 -22 -63 13q-280 256 -614 256q-132 0 -317 -49q-6 267 126 596h-179l82 151h981z" />
    <glyph glyph-name="tib_Ca" unicode="&#xf95;" 
d="M-129 400l-77 -161h-337q0 -33 8 -54.5t34.5 -48t83 -58.5t155.5 -80q47 -18 85 -53.5t64.5 -76.5t40.5 -91t14 -95q0 -92 -35.5 -163.5t-95.5 -120t-140 -75t-166 -26.5q-84 0 -159.5 23t-158.5 93t-183.5 198.5t-235.5 344.5l99 154q30 -39 62.5 -82t64.5 -79
q200 33 289.5 114.5t89.5 175.5h-418l78 161h838zM-618 13q-138 -158 -306 -199q86 -116 141 -186.5t102 -103.5q158 -112 276 -112q35 0 75 11.5t73 35.5t57 61t24 90q0 54 -31.5 107.5t-102.5 91.5q-110 48 -187.5 97.5t-120.5 106.5z" />
    <glyph glyph-name="tib_Cha" unicode="&#xf96;" 
d="M-170 400l-75 -152h-371q2 -22 8.5 -94.5t6.5 -104.5q0 -65 -2 -102q-4 -36 -11 -79q41 73 108 114t157 41q65 0 122 -19.5t97 -63.5t65 -113t25 -166q0 -95 -25 -163t-66 -113.5t-99 -67t-127 -21.5q-97 0 -170.5 55t-116.5 161q-41 -104 -113 -160t-174 -56
q-56 0 -110 17.5t-98 61.5t-72 115t-28 177q0 99 28 165t73.5 109t101.5 62.5t114 19.5q80 0 143.5 -42t104.5 -120q2 47 -7.5 93.5t-25 85.5t-37 113.5t-42.5 94.5h-352l72 152h896zM-109 -339q0 32 -13 64.5t-43.5 62.5t-76.5 49.5t-115 19.5q-54 0 -100.5 -21.5
t-77.5 -49.5t-47.5 -60.5t-16.5 -58.5q0 -91 65 -143.5t177 -54.5q133 -2 190.5 46.5t57.5 145.5zM-689 -346q0 37 -18.5 72.5t-51 63.5t-82 47.5t-107.5 19.5q-47 0 -89.5 -18.5t-72.5 -45.5t-47 -62.5t-17 -69.5q0 -48 21.5 -82.5t56 -58t75.5 -37.5t86 -14q50 0 97 9.5
t79.5 32t51 58t18.5 85.5z" />
    <glyph glyph-name="tib_Ja" unicode="&#xf97;" 
d="M-36 400l-69 -151h-718q-24 -37 -51 -100t-33 -93h778l-41 -157h-765q-13 -37 -19.5 -84.5t-15.5 -94.5q71 10 136 22t121 12q108 0 199.5 -20.5t174.5 -67t166 -124t171 -189.5q11 -11 20.5 -22.5t9.5 -24.5t-8.5 -19.5t-19.5 -8.5q-10 -3 -25 15q-123 101 -212.5 160.5
t-166 94t-152 44t-164.5 9.5q-43 0 -80.5 -5.5t-79.5 -14t-86.5 -19.5t-93.5 -24q0 61 4 139.5t16 166t30.5 178t74.5 227.5h-159l69 151h989z" />
    <glyph glyph-name="tib_Nya" unicode="&#xf99;" 
d="M-6 -142q15 -174 -383 -648q-56 -58 -67 -63q-47 0 -30 78q41 43 155 231.5t138 227.5q13 21 19.5 42.5t6.5 43.5q0 30 -16 69q-38 75 -116 123q-80 45 -144 45q-141 0 -190 -58q-7 -11 -11 -22t-4 -26q0 -17 12 -44t35 -59q30 -17 97 -17h20q13 0 32 1t28 3
q-19 -54 -48.5 -105.5t-59.5 -99.5q-114 -13 -185 48q-73 60 -78 168q-4 127 86 215q95 84 231 110q32 2 61.5 6.5t52.5 4.5q61 0 106 -13q2 22 2 50t-95 79h-414q-56 -12 -94.5 -40.5t-56.5 -73.5v-32q0 -63 57 -138q-33 -41 -65 -80l-65 -77q-26 30 -44 69.5t-31 89.5
q-15 60 -15 93q8 26 11.5 44t3.5 31q77 166 375 263l623 3l-73 -136q10 -20 16.5 -41.5t6.5 -38.5q0 -37 -62 -108q64 -45 106.5 -99t65.5 -119z" />
    <glyph glyph-name="tib_Tta" unicode="&#xf9a;" 
d="M-1010 399h903l-41 -145l-244 -629q0 -13 -13 -22q-2 -9 -15 -9q-47 0 -38 44l64 228q-17 17 -64.5 47.5t-114.5 60.5q-39 11 -77.5 18.5t-71.5 7.5q-47 0 -90 -11t-75 -30q-22 -61 -22 -110q0 -39 11 -72.5t26 -65.5q34 -60 120.5 -216.5t131.5 -212.5q8 -20 0 -35
q-2 -4 -2 -6v-4q-5 0 -7 -7q-8 -2 -17 5.5t-26 26.5q-71 76 -278 361q-52 62 -82 126.5t-32 138.5q-5 120 69.5 185t212.5 73h39q254 0 366 -185q20 69 35 142.5t34 144.5h-769z" />
    <glyph glyph-name="tib_Ttha" unicode="&#xf9b;" 
d="M-118 400l-47 -125q49 -73 54 -147q0 -30 -23 -70t-64 -78q125 -93 201 -317q-134 45 -408 45q-278 0 -556 -252q-24 -15 -43 -22q-2 13 -2 39v780l73 147h815zM-814 249q-26 -22 -46.5 -42.5t-31.5 -41.5q28 -26 74.5 -47.5t117.5 -47.5q129 -37 220 -37q32 0 67 5
q88 23 135.5 49t47.5 48q0 28 -2 56t-11 58h-571zM-480 -100q-119 0 -226.5 42t-202.5 128q0 2 1 6.5t1 6.5l-11 -2q2 -4 5.5 -6.5t3.5 -4.5q-24 -164 -24 -487q132 129 292.5 195t352.5 70q58 0 90 -11q-17 33 -43 54.5t-64 23.5q-46 -15 -175 -15z" />
    <glyph glyph-name="tib_Dda" unicode="&#xf9c;" 
d="M-81 400l-78 -151h-164q28 -48 60.5 -105t58.5 -116.5t42 -112t16 -89.5q-34 7 -84 11t-101.5 6.5t-98 3.5t-74.5 1q-133 0 -228 -19.5t-163 -62.5t-113 -100.5t-76.5 -132.5t-53 -168t-47.5 -192q0 -13 -8.5 -29t-25.5 -16q-7 0 -14.5 7.5t-7.5 15.5q0 13 1 25t3 31
l35 190q17 95 47 185.5t75.5 170.5t120 139t183 92.5t264.5 33.5h47q32 0 65.5 -1t66 -2t53.5 -6q-21 26 -43.5 61.5t-48.5 69t-52 64t-47 45.5h-690l77 151h1003z" />
    <glyph glyph-name="tib_Ddha" unicode="&#xf9d;" 
d="M-64 400l-78 -149h-56q102 -64 117 -351q-37 11 -78 19l-69 -159h-371q-69 -15 -124 -39t-93 -60q116 -16 196 -95q45 75 109.5 116t149.5 41q146 0 217 -140q26 -52 26 -106q0 -62 -276 -444q-19 -19 -45 -19q-30 17 -22 45q216 319 216 364q0 149 -157 149
q-50 0 -97.5 -16t-86.5 -44q26 -39 45.5 -84.5t32.5 -96.5q9 -33 -15 -46q-24 -10 -37 20q-140 213 -345 213q-13 0 -29 -1t-38 -5q26 90 64 150.5t92 97.5h-162l73 144q-43 -30 -71 -75q-90 -272 -93 -304q-6 -48 -45 -48q-39 26 -30 63q13 194 65 390q118 207 543 207
q30 0 66.5 -2t69.5 -7q47 -2 99 -4t90 -13q-8 60 -166 140h-743l86 149h970zM-629 -23q-146 0 -239 -51h677q-48 10 -104 17q-125 17 -267 30q-15 0 -33.5 2t-33.5 2z" />
    <glyph glyph-name="tib_Nna" unicode="&#xf9e;" 
d="M-58 400l-77 -151h-392q-59 -37 -97.5 -86.5t-64.5 -94.5q58 36 119.5 51t139.5 15q161 0 235.5 -76.5t74.5 -203.5q0 -58 -17.5 -114t-56 -100.5t-101 -70t-151.5 -25.5q-66 0 -119 21.5t-93 56t-68 77.5t-41 86q-64 -112 -97.5 -269.5t-59.5 -340.5q-7 -45 -32 -47
q-33 2 -31 47q26 302 74.5 499t128.5 305q9 41 17.5 83t19 76.5t24.5 65t27 45.5h-375l78 151h935zM-185 -150q0 21 -10.5 41.5t-38.5 41t-75.5 34.5t-116.5 14q-95 0 -164 -31t-119 -85q20 -80 90 -123t171 -43q37 0 82 3t85 18.5t68 46.5t28 83z" />
    <glyph glyph-name="tib_Ta" unicode="&#xf9f;" 
d="M-103 400l-75 -151h-733l69 -368q19 36 50.5 75t75.5 70t98 50.5t116 19.5q78 0 140.5 -21.5t108 -63.5t69 -97t23.5 -128q0 -46 -20.5 -98.5t-54 -106.5t-77.5 -107t-84 -101.5t-82 -89.5t-68 -73q-4 -6 -20.5 -18t-28.5 -12q-13 0 -15.5 6.5t-6.5 17.5q-4 6 6.5 22
t15.5 25q51 52 105 123t94 140t68 129.5t28 101.5q0 45 -22.5 82.5t-57 60.5t-78 37t-81.5 14q-82 0 -157.5 -33.5t-127.5 -98.5l28 -149q4 -34 -13 -45q-24 -4 -37 28l-202 608l41 151h905z" />
    <glyph glyph-name="tib_Tha" unicode="&#xfa0;" 
d="M-58 400l-58 -151v-873q0 -28 -5.5 -37t-11.5 -9q-11 0 -18.5 9t-22.5 22q-80 66 -166 111.5t-176.5 69t-178 31.5t-171.5 8q-153 0 -261 -46q13 67 34.5 120t46.5 101.5t54 88.5t57 78q-41 46 -62.5 92t-21.5 100q0 86 36.5 149t84.5 136h840zM-202 51q-50 -50 -107 -88
t-121.5 -64.5t-127 -38.5t-123.5 -12q-32 0 -75 4t-82 13q-56 -34 -95 -70t-60 -66q21 2 45 3.5t50 1.5q84 0 171 -15.5t181 -47.5t185.5 -87t180.5 -139v211q0 147 -4.5 238.5t-17.5 156.5zM-213 113q-4 32 -12.5 52.5t-18.5 34.5t-24 25t-27 24h-605q-16 -22 -22 -36
t-6 -40q0 -62 29 -97.5t77.5 -50.5t104.5 -19.5t114 -4.5q108 0 206 26t184 86z" />
    <glyph glyph-name="tib_Da" unicode="&#xfa1;" 
d="M-49 401l-69 -151h-642q-93 -78 -138.5 -142.5t-64.5 -118.5q19 2 43 4t48.5 3t48.5 1h35q123 0 216.5 -12.5t164.5 -39.5t125 -71.5t95 -107t73.5 -145.5t64.5 -188q17 -56 27 -122q0 -13 -5.5 -20.5t-16.5 -7.5q-21 0 -24.5 16t-11.5 31.5t-25 59.5q-50 127 -107 212
t-135.5 134.5t-190.5 71t-274 21.5q-19 0 -52.5 -1t-68 -4t-71.5 -6.5t-62 -7.5q6 54 19 113t34.5 116.5t47.5 110t56 100.5h-196l67 151h989z" />
    <glyph glyph-name="tib_Dha" unicode="&#xfa2;" 
d="M-8 400l-69 -151h-679q-95 -19 -135 -52.5t-46 -87.5q47 6 93.5 11.5t93.5 5.5q462 -2 572 -172q28 -46 60 -168.5t67 -310.5q4 -37 -32 -62q-50 30 -102 198q-21 84 -45 143.5t-47 89.5l-15 13l-63 -147h-338q-130 13 -212 -82q56 -19 103.5 -48t92.5 -75
q44 74 109.5 115t149.5 41q145 0 192 -63q43 -60 41 -136q0 -32 -31.5 -90.5t-214.5 -321.5q-15 -21 -43 -17q-28 13 -17 43q174 289 174 326q9 114 -142 114q-52 0 -99 -18.5t-82 -43.5q26 -41 39 -73.5t15 -58.5q6 -37 -19 -50q-16 -4 -31 22q-140 194 -392 194
q43 157 149 222h-158l82 166h666q-47 28 -116 48q-106 28 -269 28q-87 0 -175 -13t-183 -39q11 149 35.5 233t72.5 116h-128l93 151h983z" />
    <glyph glyph-name="tib_Na" unicode="&#xfa3;" 
d="M-124 251h-352q2 -24 2 -65v-28q0 -15 -2 -35q233 -131 274 -286q60 -153 95 -481q4 -56 -41 -63q-15 0 -22.5 12t-7.5 27q-48 218 -99.5 358t-103.5 172q-41 -109 -137 -176t-240 -82q-158 8 -242 81.5t-94 200.5q0 39 21.5 90.5t64.5 95.5q105 94 280 94q97 0 162 -17
q-11 69 -97 102h-408l67 149h946zM-443 -66q-132 84 -341 84q-103 -20 -163.5 -56.5t-73.5 -75.5q28 -121 261 -121q198 -6 317 169z" />
    <glyph glyph-name="tib_Pa" unicode="&#xfa4;" 
d="M-127 254l-4 -921q0 -22 -17 -37q-11 0 -32 17q-374 382 -696 382h-21q-11 0 -23 -4q-65 -3 -131.5 -14t-133.5 -30q11 152 57 281t126 320h-149l77 152h520l-73 -152h-201q-77 -33 -136.5 -155t-91.5 -222q45 3 85 7.5t76 4.5q92 0 148 -21q118 -22 256.5 -119.5
t286.5 -286.5v215q0 338 -158 585l69 144h244z" />
    <glyph glyph-name="tib_Pha" unicode="&#xfa5;" 
d="M-517 400l-71 -152h-239q-92 -43 -162.5 -126.5t-100.5 -186.5q37 5 56 6.5t21 1.5l189 -15q32 -11 53.5 -17.5t37.5 -6.5q58 118 148.5 199t218.5 123q-13 9 -26 15.5t-28 8.5l91 150h265l-67 -150l2 -906q0 -32 -17 -48q-9 0 -16.5 8t-15.5 24q-76 77 -154 139
t-152.5 112t-146.5 82t-137 48q-60 10 -114.5 14t-99.5 4q-123 0 -220 -40q6 354 179 561h-166l62 152h610zM-202 -455q0 438 -99 610q-124 -39 -213.5 -109.5t-141.5 -176.5q123 -66 239 -166.5t215 -219.5v62z" />
    <glyph glyph-name="tib_Ba" unicode="&#xfa6;" 
d="M-70 400l-58 -138l1 -916q0 -32 -21 -43q-2 -5 -18 0l-14 21q-83 108 -181.5 184t-153.5 112q-56 35 -157 62t-240 43q-57 -10 -113.5 -18t-109.5 -21q13 209 54.5 350.5t117.5 212.5h-146l81 151h958zM-767 249q-106 -50 -167 -132t-73 -182q18 5 35.5 6.5t41.5 1.5
q212 -24 381.5 -144.5t353.5 -334.5v41q0 317 -36 505.5t-152 238.5h-384z" />
    <glyph glyph-name="tib_Bha" unicode="&#xfa7;" 
d="M-118 245v-448h13l-75 -149h-542q-38 -15 -81.5 -41t-81.5 -65q60 -17 107.5 -45t86.5 -71q47 69 120.5 111t172.5 42q146 0 215 -91q16 -26 22 -53t4 -91q-6 -91 -185 -384q-15 -22 -45 -22q-24 22 -20 39q24 45 71.5 157.5t51.5 204t-151 91.5q-142 0 -213 -58
q13 -15 23.5 -47.5t21.5 -82.5q13 -34 -4 -49q-28 -9 -41 21q-140 188 -393 188q22 86 61 146.5t95 99.5h-162l82 149h757q-291 138 -673 138q-125 0 -237 -24q6 198 114 336h-114l62 151h998zM-790 247q-143 -26 -205 -151h32q427 0 763 -211q-8 142 -39.5 235t-78.5 127
h-472z" />
    <glyph glyph-name="tib_Ma" unicode="&#xfa8;" 
d="M-439 401l-49 -170h-163q6 -27 8.5 -62t2.5 -78v-22q105 -62 214 -196t236 -346q-10 330 -44.5 508t-104.5 207l54 159h223l-64 -163v-874q-8 -55 -23.5 -52t-38.5 52q-25 32 -42 58t-28 41l-2 2v3q-88 124 -153.5 204.5t-102.5 114.5q-148 -257 -357 -273
q-304 0 -317 288q26 298 310 313q33 0 55.5 -1t32.5 -6q21 0 37.5 -4t28.5 -6q-30 86 -89 133h-300l45 170h631zM-880 -54q-227 -7 -238 -144q7 -119 238 -117q98 5 171 42t130 107q-138 120 -301 112z" />
    <glyph glyph-name="tib_Tsa" unicode="&#xfa9;" 
d="M-51 249h-392q8 -95 36 -109t111 -38q61 -17 98 -29.5t54 -21.5q86 -53 130.5 -121.5t44.5 -158.5q0 -106 -57 -207q-50 -96 -126.5 -151.5t-165.5 -70.5h-15q-15 -8 -46 -8q-218 0 -430 275q-47 64 -120.5 152.5t-169.5 210.5l94 184q66 -77 106 -126t51 -64
q314 60 312 283h-517l84 151h853l-71 99l127 217q93 -45 192 -45q26 0 65 13q-2 -39 -28 -77.5t-73 -77.5q-11 -7 -16 -7h-10q-63 0 -121 26l-37 -49q20 -26 46 -56q19 -22 34 -43h39zM-379 -64q-101 36 -137 79q-57 -79 -116 -130.5t-124 -78.5q52 -62 105.5 -120t92.5 -94
q76 -60 141 -93t121 -33q42 0 78 16t66 46q61 66 70 154q11 50 -24 100.5t-112 95.5q-4 4 -46.5 18t-114.5 40z" />
    <glyph glyph-name="tib_Tsha" unicode="&#xfaa;" 
d="M-124 249h-440q0 -43 -6.5 -102t-10.5 -123q82 135 247 135q321 0 319 -347q-6 -354 -330 -374q-84 -4 -154.5 49t-121.5 158q-47 -105 -119 -158t-165 -49q-304 10 -304 379q0 325 313 342q154 13 236 -159q-24 154 -94 249h-399l82 151h897l-28 71l121 218
q47 -17 93.5 -27t95.5 -10h50q4 0 11.5 2.5t10.5 2.5q-9 -71 -91 -143q13 -4 12 -7t-42 -10h-11q-52 0 -118 30l-37 -56q11 -19 24 -47q2 -13 8 -24h35zM-345 -21q-219 0 -225 -157q6 -81 64.5 -132.5t160.5 -53.5q122 0 184.5 45t72.5 134q-12 76 -75.5 119t-181.5 45z
M-677 -170q-13 70 -74 108.5t-167 40.5q-96 -19 -149.5 -62t-67.5 -102q8 -84 66 -129.5t158 -49.5q101 6 163 58t71 136z" />
    <glyph glyph-name="tib_Dza" unicode="&#xfab;" 
d="M-131 538q22 -34 48 -75q17 -31 36 -63h20l-87 -152h-679q-69 -23 -85.5 -52.5t-29.5 -66.5t-13 -39h739l-56 -143h-746q-25 -50 -42 -142q78 23 135 29.5t113 6.5q323 15 542 -237q35 -39 56.5 -66t34.5 -44q11 -22 29 -56.5t34 -90.5q2 -4 2 -10.5t2 -6.5q0 -4 2 -8
q-6 -16 -19 -20q-33 -6 -46 13q-196 282 -414 328q-71 21 -123.5 26.5t-85.5 5.5q-75 0 -159 -13t-179 -49q0 133 6.5 231t19.5 161q10 52 29 127t56 116h-175l84 152h910l-75 117l168 204q17 -8 41 -19t56 -24q80 -36 157 -32q-17 -67 -131 -136h-13q-2 0 -11 2
q-30 5 -59 17.5t-55 36.5z" />
    <glyph glyph-name="tib_Dzha" unicode="&#xfac;" 
d="M-392 -311h-411q-31 -8 -67.5 -28.5t-75.5 -52.5q115 -35 188 -95q36 67 95.5 104.5t139.5 50.5q177 -11 231 -60q25 -28 38 -59.5t12 -106t-98 -212.5t-162 -194h3q-20 -21 -46 -15q-26 15 -15 45l56 78l106 183q58 173 -104 207q-133 -8 -224 -71q33 -56 48 -96t17 -66
q6 -34 -26 -51q-9 -7 -22 26q-140 196 -392 194q24 79 54 133t73 86h-136l87 138h685q-32 17 -71 25q-200 44 -362 39q-86 0 -172.5 -16t-183.5 -46q0 133 5.5 217.5t20.5 116.5q19 52 73 84h-144l80 153h916l-78 108l168 207q26 -15 93 -41q82 -41 160 -28
q-26 -74 -130 -138q-8 -2 -17 -2t-9 2q-66 11 -112 49l-43 -23q26 -39 52 -74q19 -32 34 -60h22l-91 -153h-698q-56 -11 -86 -24t-41 -21h741l-58 -115h-746q-23 5 -34 -47q73 7 132.5 10t113.5 3q465 -6 567 -136q51 -62 84.5 -115t50.5 -90q13 -41 24 -94l22 -108l10 -28
q-4 -2 -12.5 -8.5t-10.5 -6.5q-30 -11 -46 15q-77 250 -207 336z" />
    <glyph glyph-name="tib_Wazur" unicode="&#xfad;" 
d="M-128 400v-658q0 -28 -15 -39q-17 -4 -41 13q-181 158 -362 158q-18 0 -37 -1t-37 -4q95 285 421 391v140h71zM-199 152q-57 -7 -131 -28.5t-111 -101.5q72 -36 132 -87t110 -124v341z" />
    <glyph glyph-name="tib_Zha" unicode="&#xfae;" 
d="M-131 400l-77 -150q4 -13 9.5 -31.5t6.5 -40t1 -43.5v-36q0 -37 -3.5 -67t-11.5 -67q36 -60 63 -139t47.5 -164t25.5 -178t8.5 -135t3.5 -53q0 -36 -33 -41q-26 5 -28 41q-8 67 -24 175t-44 187t-64 143q-22 -49 -50 -92.5t-67 -74.5t-87.5 -50.5t-108.5 -19.5
q-78 0 -129.5 26t-85 68t-47.5 92.5t-14 100.5q0 67 18.5 118.5t54 93.5t90.5 62.5t122 20.5q90 0 161 -31t130 -85v6q0 26 -2.5 56.5t-13 60.5t-29 56t-42.5 41h-498q-23 -13 -57.5 -37t-66 -62.5t-54 -92.5t-22.5 -132q0 -86 32.5 -151.5t105.5 -134.5q-7 -31 -19.5 -54.5
t-26.5 -45t-29.5 -37.5t-25.5 -29q-35 36 -63 75t-49.5 84t-33.5 103.5t-12 129.5q0 101 30.5 186.5t83 155.5t123.5 112.5t147 79.5h655zM-292 -141q-46 69 -116 102.5t-156 33.5q-30 0 -68 -7.5t-69 -25.5t-52.5 -44t-21.5 -63q0 -39 19 -61.5t47.5 -38.5t67 -23.5
t77.5 -7.5q99 0 167 30t105 105z" />
    <glyph glyph-name="tib_Za" unicode="&#xfaf;" 
d="M-70 400l-58 -150v-898q0 -15 -15 -23q-11 -3 -28 8q-170 108 -342.5 165t-347.5 57q-77 0 -152.5 -14t-138.5 -37q20 62 40.5 103t48.5 67t61.5 37.5t78.5 11.5q319 0 728 -275q0 58 -1 110.5t-4 102.5t-8.5 102.5t-7.5 113.5h-886l82 150h791q0 17 -2 43t-7.5 67.5
t-15.5 67.5t-25 41h-840l73 150h976z" />
    <glyph glyph-name="tib_AchungFixed" unicode="&#xfb0;" 
d="M-94 400l-78 -152q41 -27 41 -122q0 -149 -118 -274q196 -162 269 -491q5 -35 -13 -48q-23 -4 -34 26q-76 209 -188 302t-263 93q-107 0 -222 -44q22 190 209 240q119 -7 190 -46q58 87 58 169q0 148 -153 196h-293q-177 -26 -222 -255q-11 -133 63 -252
q-35 -88 -119 -166q-80 155 -80 317q0 95 29 176t80 152t121 104.5t154 74.5h569z" />
    <glyph glyph-name="tib_Yata" unicode="&#xfb1;" 
d="M-120 400q0 -95 -33.5 -162t-94 -107.5t-143.5 -59t-177 -18.5q-89 0 -151.5 20.5t-113 49.5t-98 50.5t-107.5 21.5q-65 0 -117 -30q30 -19 60.5 -46t69.5 -90q36 -58 81.5 -108.5t101.5 -87.5t124 -56t152 -19q110 0 211 44t188 137q53 62 84.5 114t46.5 89.5t26 57
t26 19.5q6 0 14.5 -8.5t8.5 -21.5q0 -11 -8.5 -47.5t-22.5 -83t-38.5 -99.5t-57.5 -98q-103 -129 -220.5 -191.5t-279.5 -62.5q-88 0 -160.5 23.5t-134 71t-112 112t-89.5 146.5q-26 50 -51.5 84.5t-50.5 58t-48.5 37.5t-43.5 25q121 106 261 106q56 0 110 -24t105.5 -51
t110 -48.5t123.5 -21.5q81 0 151.5 14t122 46.5t77.5 85.5t26 128h71z" />
    <glyph glyph-name="tib_Rata" unicode="&#xfb2;" 
d="M-120 400v-746q0 -43 -15 -43q-17 0 -44 14t-70 42q-26 13 -69 39t-100.5 57t-127.5 63.5t-147.5 59.5t-157.5 44t-164 17q-17 0 -43 -1t-56 -6.5t-62.5 -20.5t-64.5 -45q6 65 22.5 115.5t44.5 86t69 53t101 17.5q88 0 177.5 -29.5t189 -82t210.5 -132.5t236 -175v673h71
z" />
    <glyph glyph-name="tib_Lata" unicode="&#xfb3;" 
d="M-65 400l-62 -180v-809q0 -18 -4.5 -37.5t-24.5 -19.5q-17 0 -27 13t-23 28q-84 96 -146 158t-117.5 100t-109.5 49.5t-122 11.5q-103 0 -199 -50q0 58 16 104.5t42.5 80t64 54.5t85.5 21q36 0 56 -8t44 -15q15 44 15 106q0 132 -109 213h-270q-155 -132 -152 -334
q4 -65 30 -126.5t45 -99.5l-152 -137q-22 59 -39 131.5t-17 178.5q0 127 74 276t228 291h476l-66 -175q43 -76 43 -169q0 -42 -10 -91t-29 -97q59 -38 109 -88.5t91.5 -102t73.5 -103t54 -96.5q-9 355 -46.5 531.5t-114.5 210.5l77 180h216z" />
    <glyph glyph-name="tib_Sha" unicode="&#xfb4;" 
d="M-58 400l-62 -150v-919q0 -32 -8.5 -45t-23.5 -15q-15 2 -25 15t-14 45v121q0 101 -3.5 185.5t-5.5 149t-7.5 116t-7.5 94.5q-73 -122 -153 -188t-196 -66q-63 0 -110.5 9.5t-86 29t-68.5 48.5t-54 68q0 -36 8.5 -69.5t25.5 -102.5q26 -22 53 -58.5t50.5 -71t40 -71
t16.5 -64.5q0 -13 -15 -17.5t-18 -4.5q-15 0 -25.5 16t-21.5 29q-75 82 -157 127.5t-207 45.5q-39 0 -71.5 -4.5t-73.5 -10.5q15 69 73.5 107.5t153.5 38.5q69 0 127 -23q-15 36 -26 71.5t-15 71.5t-6.5 80t-2.5 104q0 136 90.5 213.5t252.5 94.5h573zM-637 250
q-56 -2 -102.5 -15t-83 -32.5t-55 -48.5t-18.5 -62q0 -97 84 -141t244 -46q97 -2 177.5 37.5t160.5 130.5q-28 140 -153 177h-254z" />
    <glyph glyph-name="tib_Ssa" unicode="&#xfb5;" 
d="M45 -404q-91 20 -162 20q-51 0 -99.5 -11t-89.5 -32.5t-78 -50.5t-56 -61q-24 -33 -43 -33q-13 0 -17.5 10t-4.5 21q0 15 7.5 44t24 64.5t41 71t59.5 67.5q11 33 17 56.5t8.5 44t3.5 44.5t3 60q-52 -84 -126 -126t-174 -42q-217 0 -347 248q-6 -71 -12.5 -195t-6.5 -292
v-179q0 -26 -11 -39t-26 -15q-30 2 -34 54v925l-48 150h550q153 -17 238 -87t85 -208q0 -39 -2 -86t-8.5 -97t-16 -99.5t-22.5 -79.5q19 9 51.5 15.5t60.5 6.5q172 0 235 -169zM-328 88q0 26 -16 54t-47.5 50.5t-76.5 39t-97 18.5h-283q-62 -20 -89 -56.5t-40 -109.5
q78 -93 162 -132t181 -39q71 0 130.5 15.5t98 39t58 55t19.5 65.5z" />
    <glyph glyph-name="tib_Sa" unicode="&#xfb6;" 
d="M-402 401l-65 -148h-194q104 -108 219.5 -283t225.5 -391q-7 323 -38.5 492t-106.5 182l73 148h211l-51 -146l-18 -838q0 -39 -15 -44q-5 0 -15 3.5t-15 18.5q-203 318 -378 515.5t-319 270.5q-134 -34 -189 -178q289 -63 447 -431v7q11 -12 11 -36q0 -34 -27 -34
q-13 0 -24 12q-241 274 -534 262q24 175 68 291t122 179h-194l82 148h724z" />
    <glyph glyph-name="tib_Ha" unicode="&#xfb7;" 
d="M-344 -654q55 67 123.5 189t86.5 159q24 48 18 75q0 49 -34 123q-56 90 -181 103q-2 4 -11 4h-13q-134 0 -220 -129q41 -60 72.5 -126t54.5 -139q5 -30 -13 -52h-17q-19 0 -32 24v-2q-46 77 -90 132t-83 90q-58 41 -126 60t-145 19h-52q-9 -2 -16.5 -3t-11.5 -1
q34 160 78.5 253.5t96.5 126.5h-166l56 148h948l-47 -148h-582q-80 -20 -139.5 -71.5t-93.5 -125.5q146 -13 252 -125q114 237 300 237q92 0 174 -45t147 -133q37 -52 37 -136q-5 -117 -61 -205t-233 -302q-48 -39 -77 0z" />
    <glyph glyph-name="tib_Aa" unicode="&#xfb8;" 
d="M-126 243v-889q0 -39 -20 -54q-22 -2 -37 31q-312 661 -643 744q-31 -14 -59 -57q222 -62 238 -251q-9 -143 -89.5 -218.5t-203.5 -77.5q-136 15 -210 110t-72 281q3 225 138 371h-106l57 167h244q-256 -303 -254 -494q0 -253 194 -253q147 7 147 145q0 101 -204 170
q108 177 261 265h-110l74 167h362l-42 -167h-61q-17 -7 -37 -27.5t-42 -43.5q206 -137 398 -603q0 258 -29.5 438.5t-88.5 238.5l46 164h195z" />
    <glyph glyph-name="tib_Kssa" unicode="&#xfb9;" 
d="M-950 -141h658l-48 -123q67 -64 60 -82q11 -140 -51 -224l13 -6q30 47 127 51q155 24 190 -118q-35 4 -80.5 9.5t-96.5 5.5q-95 -15 -180 -51.5t-163 -92.5q-13 -22 -30 -11q-7 0 -8 4t-1 7q0 10 2 25q18 31 59 65.5t107 75.5q52 107 52 140q-39 -82 -114 -136
q-70 -49 -220.5 -39.5t-210 76t-76.5 129.5l-21 -440l-3 -72q-30 -24 -56 12q0 69 1.5 153t1.5 172v328zM-566 249q2 -75 4 -132t2 -100v-61q0 -8 -1 -26.5t-1 -29.5q0 -24 -34 -24q-31 0 -31 24q-10 190 -43 250q-34 65 -99 99h-125q-28 -142 -79 -176q-84 -43 -99 -56
q-36 -34 -76 -87q-39 78 -39 136q0 52 26 69q34 34 116 56q30 11 42 26t25 32h-194l50 153h1041l-63 -138v-485q0 -30 -41 -30q-32 0 -36 22q-3 36 -8 72t-7 72q-20 145 -51 232t-68 102h-211zM-939 -376q131 -149 334 -151q73 0 125 17.5t78 45.5q36 26 52.5 51.5t7.5 51.5
q-13 37 -64.5 64t-138.5 31h-284q-46 -17 -78 -56q-13 11 -32 -54z" />
    <glyph glyph-name="tib_Wa" unicode="&#xfba;" 
d="M-589 401l-78 -143q46 -73 41 -276q106 -20 207.5 -70.5t196.5 -119.5q-3 164 -40.5 300t-112.5 166l60 143h248l-65 -147v-915q0 -22 -21 -26q-3 -5 -5 -5q-15 0 -30 13h2q-233 125 -455 135q-83 -1 -170.5 -16t-135.5 -26q28 136 67 257t97 171q-44 -6 -76 -12t-80 -19
q20 188 201 188h37v17q0 160 -142 232h-205q-15 -7 -26 -13.5t-15 -12.5q-2 -5 -7.5 -8t-5.5 -5q-43 -30 -54 -84q-13 -18 -11 -59q0 -88 48 -155l-110 -153q-80 101 -80 211v28l4 26q31 115 117 209.5t233 168.5h366zM-218 -296q-91 56 -181.5 85t-275.5 47
q-69 -17 -134 -241q110 9 138 9q114 0 229.5 -40t234.5 -124q0 19 -1 36.5t-1 38.5q0 50 -2.5 77t-6.5 112z" />
    <glyph glyph-name="tib_Ya" unicode="&#xfbb;" 
d="M-935 403q-90 -117 -142 -207.5t-67 -141.5q2 -87 48.5 -142t139.5 -70q6 -4 19 -4h17q248 0 263 246q9 90 -144 170l90 149h164l-86 -147q73 -112 73 -183q0 -37 -1 -68t-7 -59q205 -127 377 -467q-13 713 -136 779l58 145h203l-50 -145v-902q0 -35 -15 -39
q-4 0 -16 6.5t-18 10.5q-146 187 -251 306.5t-230 148.5q-106 -136 -265 -136q-30 0 -48 4h-23q-128 22 -202 103.5t-74 211.5q0 112 114 280h-123l84 151h248z" />
    <glyph glyph-name="tib_Ra" unicode="&#xfbc;" 
d="M-107 400l-80 -150h-369v-37q5 -47 -8.5 -140t-29.5 -141q179 -58 295.5 -184t179.5 -338q2 -6 3 -12.5t1 -17.5q-2 -8 -13 -21q-28 -9 -43 21q-226 384 -567 403h-41q-205 0 -403 -140q28 190 200 276v-4q41 24 169 32q32 0 55.5 1t43.5 1h32q11 0 22 -2v26
q0 43 -22 136.5t-63 140.5h-406l87 150h957z" />
    <glyph glyph-name="tibXMark" unicode="&#xfbe;" horiz-adv-x="924" 
d="M571 476l301 -297l-102 -104l-295 293l-295 -293l-106 104l295 297l-299 295l116 90l289 -284q72 69 146.5 142.5t142.5 141.5l102 -96z" />
    <glyph glyph-name="tibXDot4Mark" unicode="&#xfbf;" horiz-adv-x="1335" 
d="M1260 942q-104 -91 -219.5 -196.5t-231.5 -215.5l205 -207q54 -52 105 -103.5t102 -102.5q20 -17 35.5 -34.5t15.5 -31.5q0 -27 -31 -27q-6 1 -18 7t-35.5 22t-60.5 44.5t-94 74.5t-135.5 112t-184.5 158q-88 -81 -166 -153t-139 -128.5t-100 -93t-48 -47.5l-72 80
q36 33 85 77.5t107.5 97t124 111t134.5 120.5q-81 63 -161 130t-156 133t-146.5 128.5t-132.5 116.5h332q68 -93 161.5 -196t204.5 -218q65 59 125.5 118.5t113.5 116t97.5 107t77.5 92.5zM1305 508q0 -54 -33 -89.5t-88 -35.5q-28 0 -51 9.5t-39.5 26t-25.5 39.5t-9 50
q0 54 34.5 87.5t90.5 33.5q55 0 88 -33.5t33 -87.5zM387 508q0 -54 -34 -89.5t-91 -35.5q-54 0 -87.5 35.5t-33.5 89.5t33.5 87.5t87.5 33.5q57 0 91 -33.5t34 -87.5zM868 968q0 -54 -33.5 -87t-89.5 -33q-55 0 -87.5 33t-32.5 87q0 56 32.5 88.5t87.5 32.5q56 0 89.5 -32.5
t33.5 -88.5zM868 88q0 -54 -33.5 -87.5t-89.5 -33.5q-55 0 -87.5 33.5t-32.5 87.5t32.5 85.5t87.5 31.5q56 0 89.5 -31.5t33.5 -85.5z" />
    <glyph glyph-name="tibEgg" unicode="&#xfc0;" horiz-adv-x="1116" 
d="M104 733q0 92 36 175t98 144t145 97t177 36t177 -36t144 -97t97 -144t36 -175q0 -94 -36 -177t-97 -144t-144 -97t-177 -36t-177 36t-145 97t-98 144t-36 177zM560 1105q-76 0 -142 -29t-115 -80t-77 -118t-28 -145t28 -146t77 -119t115 -80t142 -29q74 0 140 29t115 80
t77 119t28 146t-28 145t-77 118t-115 80t-140 29z" />
    <glyph glyph-name="tibEggSmall" unicode="&#xfc1;" horiz-adv-x="1063" 
d="M533 1089q-47 0 -86.5 -17t-68 -46t-44.5 -68t-16 -82q0 -47 16 -86t45 -67.5t68 -44t86 -15.5q44 0 82.5 15.5t67 44t45 67.5t16.5 86q0 43 -17 82t-45.5 68t-67 46t-81.5 17zM218 876q0 64 25.5 120t68.5 98t100 66.5t121 24.5t120.5 -24.5t98.5 -66.5t66.5 -98
t24.5 -120t-24.5 -121t-66.5 -100t-98.5 -68t-120.5 -25t-121 25t-100 68t-68.5 100t-25.5 121z" />
    <glyph glyph-name="tibCyclone" unicode="&#xfc2;" horiz-adv-x="1380" 
d="M127 419q0 75 20 145t56 131.5t87 112t112 86.5t131.5 56t146.5 20t145.5 -18.5t129.5 -52.5t109 -82t85 -107q-6 78 -32.5 135t-74 105t-116.5 94.5t-160 103.5q-28 -22 -66 -22q-25 0 -47.5 9.5t-39 26t-26 38.5t-9.5 47t10 47.5t26.5 39t38 26.5t45.5 10
q25 0 47.5 -10.5t38.5 -27.5t25.5 -39t9.5 -46q0 -5 -1 -10t-3 -11q111 -72 191.5 -133t132 -123.5t76 -132t24.5 -158.5q0 -35 -2.5 -72t-13.5 -79q5 -29 8.5 -56t3.5 -53q0 -76 -20 -146.5t-56 -132t-87 -112.5t-112.5 -87.5t-132.5 -56.5t-147 -20q-77 0 -147.5 19.5
t-131 55.5t-110.5 86t-86 112q4 -85 30 -144.5t72 -108t111 -92.5t147 -98l13 -8q28 23 67 23q25 0 47 -9.5t38.5 -26t26 -38.5t9.5 -47t-10 -47t-26 -39t-37.5 -27t-43.5 -10q-27 0 -49.5 10t-39.5 27.5t-26.5 40t-9.5 47.5v9t2 9q-107 70 -185 132t-128 125.5t-74 133.5
t-24 156q0 35 5.5 77t16.5 87q-5 25 -7.5 48t-2.5 52zM266 419q0 -86 33 -161.5t89.5 -132t132 -89t159.5 -32.5q85 0 161 32.5t133 89t90.5 132t33.5 161.5q0 85 -33.5 160.5t-90.5 132t-133 89t-161 32.5q-84 0 -159.5 -32.5t-132 -89t-89.5 -132t-33 -160.5z" />
    <glyph glyph-name="tibBullseye" unicode="&#xfc3;" horiz-adv-x="1661" 
d="M827 -625q-2 -4 -10 -12q-8 -12 -33 -31q-16 -12 -41.5 -22.5t-64.5 -10.5v430q-127 25 -236.5 91.5t-189.5 163t-126 218t-46 257.5q0 153 59.5 289.5t160.5 237.5t237.5 160.5t291.5 59.5q154 0 289 -59.5t236.5 -160.5t161 -237.5t59.5 -289.5q0 -136 -45 -257.5
t-126 -218t-190.5 -163t-238.5 -91.5v-430q-29 2 -49.5 7.5t-30.5 9.5q-23 10 -36 23.5t-19 25.5q-11 12 -13 24v-14zM453 461q0 77 29.5 145t80.5 119t120 79.5t146 28.5q76 0 143.5 -28.5t119 -79.5t80 -119t28.5 -145q0 -117 -62.5 -208t-162.5 -134v-273q98 25 186 84.5
t154.5 142t106.5 182t40 204.5q0 124 -52 239t-140 203t-203 140t-238 52q-127 0 -241.5 -52t-201.5 -140t-139 -203t-52 -239q0 -105 39.5 -204.5t106.5 -181t154 -142t183 -87.5v275q-98 41 -161.5 133t-63.5 209zM752 461q0 30 22.5 51.5t54.5 21.5q29 0 51.5 -21.5
t22.5 -51.5q0 -21 -10 -37.5t-25 -26.5l107 -160v-43q74 37 119 108t45 157q0 63 -24.5 117.5t-66.5 95t-98.5 64.5t-120.5 24q-65 0 -119.5 -24t-94.5 -64.5t-62.5 -95t-22.5 -117.5q0 -82 40 -150t108 -106v34l108 160q-34 23 -34 64zM842 -543q8 -27 18 -40t20.5 -19
t16.5 -7.5l6 -1.5v848h-151v-848q0 3 21.5 11t41.5 53q0 2 3 14.5t6 24.5t4 22.5l1 10.5l1 -9.5t3.5 -20.5t4.5 -22.5t4 -15.5z" />
    <glyph glyph-name="tibBell" unicode="&#xfc4;" horiz-adv-x="1059" 
d="M467 859q18 4 33 7.5t32 3.5q36 0 61 -11l39 52q0 8 -14 15t-31.5 12t-33 8.5t-21.5 3.5q-5 0 -21 -3.5t-34 -8.5t-31.5 -12t-13.5 -15zM576 1219q0 -29 7 -49.5t14.5 -34.5t15 -23t7.5 -15q0 -8 -3 -15t-15 -7q0 -20 -9.5 -33.5t-9.5 -35.5q0 -10 12 -10.5t26 -9.5
q27 22 45 49t18 62q0 29 -13 47t-28.5 31t-34 25t-28.5 30zM488 1230q-12 -18 -29.5 -30t-34 -25t-29 -30t-12.5 -48q0 -35 16.5 -62t42.5 -49q16 9 29.5 9.5t13.5 10.5q0 22 -11 35.5t-11 33.5q-13 0 -14.5 7t-1.5 15q0 6 6 15t15 23t16 34.5t7 49.5zM463 809
q-29 -16 -29 -42q0 -25 30 -43t68 -18q44 0 73.5 18t29.5 43q0 26 -29.5 42t-73.5 16q-37 0 -69 -16zM463 654q25 -15 37.5 -16.5t31.5 -1.5q23 0 42.5 4t32.5 11v-223q-33 -14 -75 -14q-33 0 -69 14v226zM275 247q66 -16 127 -30.5t134 -14.5q54 0 101.5 7.5t93.5 21.5
q16 4 33 8.5t33 7.5q5 -19 12 -39.5t8 -41.5q-70 -15 -137.5 -29.5t-143.5 -14.5q-75 0 -144 14t-139 30q0 24 6 37zM296 287q10 16 29.5 31.5t44 31t49.5 29t48 21.5q22 -14 65 -14q44 0 79 20q31 -13 69 -37.5t64 -49.5q11 -9 17 -16.5t13 -15.5q-57 -14 -120 -29.5
t-122 -15.5q-41 0 -88 9.5t-89 21.5zM77 -379q111 -26 219.5 -45t235.5 -19q66 0 125.5 5.5t116.5 14.5t112 21.5t115 25.5l15 -32l-10 -50q-27 -27 -56 -43q-42 -22 -96 -35t-110.5 -21t-112 -10.5t-100.5 -2.5q-42 0 -97.5 1.5t-113 8t-111.5 20.5t-92 39q-15 5 -25.5 16
t-21.5 24l-14 49zM383 1239q0 11 13 15.5t30.5 10t35 13.5t26.5 24q0 8 5 15.5t13 14.5t15.5 11t10.5 4q6 0 12 -4t14.5 -11t14 -14.5t7.5 -15.5q5 -16 23 -24t35.5 -13.5t31.5 -10t14 -15.5h16q12 -2 19.5 -15t12.5 -28t8.5 -26.5t8.5 -11.5q15 -1 30.5 -15.5t15.5 -29.5
q0 -21 -11 -41.5t-28 -34.5q11 -14 19 -20t8 -21q0 -19 -12.5 -35t-32.5 -16q-11 0 -20 10q-11 0 -14.5 -5t-3.5 -8l8 -15l-76 -85q44 -35 44 -75q0 -42 -39.5 -72t-104.5 -30q-58 0 -99 30t-41 72q0 39 34 69l-66 91l5 15q0 3 -2.5 8t-14.5 5q-11 -10 -22 -10q-18 0 -31 16
t-13 35q0 15 8.5 21t19.5 20q-38 31 -38 76q0 15 15.5 29.5t29.5 15.5q6 0 9.5 11.5t8 26.5t11 28t19.5 15h18zM225 -9q14 59 23 127q69 -11 141 -27t143 -16q62 0 113 9t102 21l73 13q11 -68 22.5 -124t28.5 -108.5t41 -105t60 -114.5q-107 -26 -218.5 -42t-221.5 -16
q-109 0 -217 15.5t-213 40.5q44 89 73.5 164.5t49.5 162.5z" />
    <glyph glyph-name="tibVajra" unicode="&#xfc5;" horiz-adv-x="1022" 
d="M446 588q19 11 41 16t43 5t42 -5t42 -16l53 57q0 10 -19 18.5t-43.5 15.5t-47 10.5t-27.5 3.5q-7 0 -29 -3.5t-45.5 -10.5t-42.5 -15.5t-19 -18.5zM394 197q0 -10 19 -18.5t42.5 -15t45.5 -10t29 -3.5q5 0 27.5 3.5t47 10t43.5 15t19 18.5l-53 55q-41 -19 -84 -19
q-45 0 -84 19zM472 -216q0 40 -9.5 69t-20 48.5t-19 31t-8.5 16.5q0 9 3.5 20t17.5 11q0 13 4 23.5t10 21.5t10.5 21.5t4.5 25.5q1 6 -5 9t-14.5 5t-18.5 4.5t-19 9.5q-34 -31 -57 -66t-23 -85q0 -41 16.5 -65.5t39 -41t45 -31t37.5 -35.5zM587 1058q0 -40 8.5 -69
t19.5 -48.5t20.5 -30.5t9.5 -18t-3 -17.5t-20 -10.5q0 -15 -4.5 -26t-9.5 -21.5t-9 -21t-4 -25.5q0 -7 4.5 -9t13.5 -3.5t18.5 -4.5t20.5 -10q30 30 54.5 65.5t24.5 83.5q0 43 -16.5 67.5t-39 41t-45.5 30t-37 36.5zM593 -224q14 21 38 35.5t46 31t38 41t16 65.5
q0 50 -24.5 85t-54.5 66q-11 -7 -20.5 -10.5t-18.5 -4.5t-13.5 -4t-4.5 -9q0 -15 4 -25.5t9 -21.5t9.5 -21.5t4.5 -23.5q17 0 20 -11t3 -20q0 -5 -9.5 -16.5t-20.5 -31t-19.5 -48.5t-8.5 -69zM466 1067q-15 -23 -37.5 -36.5t-45 -30t-39 -41t-16.5 -67.5q0 -48 23 -83.5
t57 -65.5q9 6 19 9t18.5 5t14.5 5t5 8q0 15 -4.5 25.5t-10.5 21t-10 21.5t-4 26q-14 0 -17.5 10.5t-3.5 17.5t8.5 18t19 30.5t20 48.5t9.5 69zM487 533q-29 -16 -46.5 -45.5t-17.5 -67.5q0 -47 29.5 -83.5t77.5 -36.5q22 0 42.5 9.5t35 26.5t23 38.5t8.5 45.5q0 25 -8.5 47
t-23.5 39q-30 37 -77 37q-25 0 -43 -10zM328 1082q0 17 18 23t41.5 13t46 17t31.5 33q4 10 13 21t18 20t18 15t16 6q5 0 14.5 -6t19 -15t17 -20t12.5 -21q10 -22 33 -32t46.5 -17.5t41 -14.5t17.5 -22h23q17 -2 26.5 -19t16 -36.5t10.5 -35.5t13 -16q19 -8 38.5 -22
t19.5 -41t-14 -54t-36 -45q15 -19 26 -26.5t11 -27.5q0 -26 -16 -48.5t-42 -22.5q-15 0 -32 13q-12 0 -16.5 -5t-4.5 -10l9 -22l-96 -114q22 -25 36 -57t14 -73q0 -37 -14 -70t-36 -58l96 -112l-9 -23q0 -6 4.5 -11t16.5 -5q17 13 32 13q25 0 41.5 -22t16.5 -47
q0 -21 -11 -28t-26 -28q22 -17 36 -44.5t14 -53.5q0 -25 -19.5 -43.5t-38.5 -18.5q-7 0 -12 -16t-11.5 -35.5t-16 -36.5t-26.5 -20h-23q0 -16 -17.5 -24t-41 -15t-46.5 -17t-33 -29q-9 -23 -30.5 -42.5t-32.5 -19.5q-7 0 -16 5.5t-18 14.5t-18 19.5t-13 22.5q-9 21 -32 30.5
t-46 16t-41 13.5t-18 25h-21q-21 3 -30.5 20t-15 36.5t-9 35.5t-10.5 16q-21 0 -42.5 18.5t-21.5 43.5q0 26 15 53.5t35 44.5q-5 10 -11 16.5t-11 11.5t-8.5 11t-3.5 17q0 25 17 47t41 22q17 0 29 -13q15 0 20.5 5t5.5 11l-11 23l98 112q-23 25 -37 58t-14 70q0 41 14 73
t37 57l-98 114l11 22q0 5 -5.5 10t-20.5 5q-15 -13 -29 -13q-25 0 -41.5 22.5t-16.5 48.5q0 18 11.5 26.5t22.5 27.5q-20 18 -35 45t-15 54q0 26 21.5 41.5t42.5 21.5q7 0 10.5 16t9 35.5t15 36.5t30.5 19h21z" />
    <glyph glyph-name="tib_lotus" unicode="&#xfc6;" 
d="M-505 -283q23 23 34 63t4 78.5t-22 79.5t-21 41q-5 0 -10 -13.5t9 -54.5t14.5 -84.5t-10.5 -68.5t-22.5 -33.5t-31.5 -8.5q-29 -10 -78 9t-70.5 87.5t-16.5 135t36 126.5t80 111.5t63 51.5t68.5 -55t94.5 -143t37.5 -149t-35 -101.5t-62.5 -55t-61 -16.5zM-243 -217
q50 57 50 134q0 39 -6.5 73.5t-29.5 58.5q-11 0 -11 -10q0 -25 5.5 -54t5.5 -60t-6 -60t-19.5 -52t-33.5 -37t-48 -14q-11 0 -20.5 1t-18.5 2q32 36 46.5 75t14.5 99q0 31 -14.5 63.5t-31.5 61t-31.5 46.5t-14.5 20q0 7 20 27.5t47 43.5t53 40.5t39 17.5q42 -23 74.5 -57.5
t55 -69.5t34.5 -65t12 -46q0 -37 -9 -79.5t-29.5 -78t-53 -59t-80.5 -23.5v2zM-834 -227q-32 0 -62.5 22t-54 57.5t-39 80.5t-15.5 88q0 38 16 71.5t42 63t60.5 55.5t68.5 48q10 0 30.5 -14t41 -34.5t36.5 -42.5t16 -38q-66 -144 -67 -200.5t7 -93.5t40 -73q0 -3 -16 -5
t-40.5 1t-48 32t-38 69.5t-21 85t-6.5 75.5q0 11 1 18t1 10t-2 3q-10 0 -22 -19t-12 -49q0 -57 16 -113t68 -95v-3zM-704 -425q0 64 76 116q16 0 27.5 -4.5t28.5 -8.5l-6 -28t-3 -30q0 -11 4.5 -26t12.5 -29t18 -24t23 -10t13 12q-21 30 -29.5 51.5t-8.5 46.5q0 21 9 28
t32 13q8 2 14.5 4t14.5 5q6 3 14 5.5t19 8.5q12 0 25 -11.5t23 -26.5t16.5 -32t6.5 -31q0 -73 -59.5 -107.5t-144.5 -34.5q-63 14 -94.5 47.5t-31.5 65.5zM-939 -206q-48 0 -86.5 24.5t-66 61.5t-41.5 81t-14 83q0 18 10 57.5t27 80t40 70.5t49 30q10 0 19 -10.5t17 -25.5
t12.5 -30t4.5 -23q0 -7 -11 -21t-24.5 -36t-24.5 -54.5t-11 -76.5q0 -27 5 -56t18 -57.5t31.5 -52.5t45.5 -41v-4zM-414 -270h8q13 3 16 3q57 0 93 -31t60 -79q8 0 13 3t5 15q0 16 -9 28.5t-20.5 24.5t-25.5 22t-26 20v1q24 6 52.5 9.5t47.5 3.5q16 0 33 -8.5t31 -20.5
t22.5 -28t8.5 -31q0 -33 -17.5 -58t-45 -42.5t-62 -26.5t-70.5 -9q-16 0 -33 2.5t-17 7.5q0 13 5 25t5 31q0 37 -17 73.5t-57 62.5v2zM-734 -457q-12 -12 -34.5 -17.5t-34.5 -5.5q-31 4 -62.5 12.5t-55 24.5t-38 40.5t-14.5 57.5q0 47 20.5 69t70.5 22q22 -9 44 -13.5
t51 -4.5q-12 -11 -26 -23.5t-25.5 -24.5t-20.5 -24.5t-9 -25.5q0 -26 19 -26q15 0 24 20t23.5 43.5t38.5 43t66 19.5q11 0 23 -7t14 -9q-47 -20 -62.5 -59t-15.5 -83zM-106 176q-12 13 -21.5 25t-19.5 24q0 6 10 16t24.5 18t29.5 14t23 6q12 0 32 -21.5t39 -56t33 -76.5
t14 -81q0 -28 -12.5 -61.5t-34 -63t-49 -53t-56.5 -30.5q10 17 20.5 37.5t19.5 42.5t14.5 43t5.5 41q0 45 -22 90t-50 86zM-84 -190q11 5 25 11.5t27.5 14t23 12.5t11.5 5q16 0 32.5 -10t30.5 -25.5t23 -33.5t9 -31q0 -35 -18.5 -56.5t-40.5 -34t-43.5 -17t-27.5 -4.5
q-20 0 -25.5 6.5t-5.5 18.5q0 34 -30.5 61t-59.5 45q7 4 18 10t21 6q14 0 31.5 -12t34 -28t30 -28.5t21.5 -12.5q6 0 6 9q0 37 -29 59.5t-64 32.5v2zM-932 -235q-82 -10 -82 -122q0 -6 -5.5 -6.5t-11.5 -0.5q-62 0 -104 35.5t-42 88.5q0 12 8 23.5t21 21.5t27.5 16t28.5 6
q26 -12 47 -24.5t20 -14.5q-12 -10 -24 -17t-21.5 -16t-15.5 -22.5t-6 -33.5q16 0 25 12t19.5 25.5t26.5 25t48 11.5q8 0 22 -0.5t19 -3.5v-4z" />
    <glyph glyph-name="tibDoubleVajra" unicode="&#xfc7;" horiz-adv-x="1829" 
d="M1179 555q8 -18 12.5 -41.5t4.5 -41.5q0 -25 -4.5 -45t-12.5 -40l46 -36q10 0 17.5 18t13 39.5t10 40.5t4.5 25q0 4 -4.5 23.5t-10 43t-13 40.5t-17.5 17zM698 598q-10 0 -17.5 -17t-13.5 -40.5t-9 -43t-3 -23.5q0 -6 3 -25t9 -40.5t13.5 -39.5t17.5 -18l51 36
q-12 34 -12 85q0 39 12 79zM838 213q0 -9 17 -18t40.5 -15.5t43 -10.5t26.5 -4q5 0 24.5 4t42 10.5t39.5 15.5t17 18l-47 49q-18 -5 -38 -9t-38 -4q-24 0 -45.5 4t-42.5 11zM877 679q21 9 42.5 12t45.5 3q18 0 37.5 -3t33.5 -8l52 56q0 6 -17 14t-39.5 13t-42 9.5t-24.5 4.5
q-7 0 -26.5 -4.5t-43 -9.5t-40.5 -13t-17 -14zM1018 1116q0 -37 8.5 -63t18 -44t17.5 -28.5t8 -15.5q0 -10 -2.5 -18t-16.5 -8q0 -14 -4.5 -24.5t-8.5 -21t-7.5 -20.5t-3.5 -20t15.5 -12.5t34.5 -13.5q31 28 51 61t20 77q0 36 -14 57.5t-35.5 38.5t-42.5 30.5t-33 31.5z
M320 528q38 0 63.5 8t43.5 18t28 18t17 8q6 0 17 -2t11 -17q24 0 41.5 -12t41.5 -12q7 0 9.5 4t4 11t3.5 17t8 18q-29 29 -61 50.5t-75 21.5q-37 0 -58.5 -14.5t-38.5 -36t-30.5 -42.5t-35.5 -31zM1023 -180q12 21 33 35t42.5 31t35.5 38.5t14 58.5q0 45 -20 79t-51 57
q-18 -8 -34 -11t-16 -12q0 -13 3.5 -24t5.5 -18q15 -18 15 -44q14 0 16.5 -9t2.5 -18q0 -7 -8 -17.5t-17.5 -27.5t-18 -43.5t-8.5 -62.5zM1613 535q-21 10 -33.5 31t-29 42.5t-38 36t-58.5 14.5q-46 0 -78.5 -21.5t-59.5 -50.5q12 -19 12.5 -34.5t13.5 -15.5q23 0 41.5 12
t41.5 12q0 15 11 17t18 2q5 0 16 -8t28.5 -18t43.5 -18t62 -8zM309 414q22 -12 36 -33.5t30.5 -41.5t38 -34t58.5 -14q43 0 75 19.5t61 52.5q-13 18 -13 34t-12 16q-24 0 -41.5 -13t-41.5 -13q0 -15 -11 -16t-17 -1q-7 0 -17 8.5t-28 18t-43.5 17t-63.5 7.5zM904 1123
q-11 -18 -32.5 -31.5t-42 -30.5t-36.5 -38.5t-16 -57.5q0 -44 21.5 -77t51.5 -61q19 11 36.5 13.5t17.5 12.5t-4 20t-9 20.5t-9.5 21t-4.5 24.5q-15 0 -17.5 8t-2.5 18q0 5 10 15.5t19.5 28.5t18 44t8.5 63zM913 -168q0 36 -8.5 62.5t-18 43.5t-19.5 27.5t-10 17.5
q0 9 2.5 18t17.5 9q0 9 4 21t9 23q6 7 10 18t4 24q0 7 -17.5 11.5t-36.5 11.5q-30 -23 -51.5 -57t-21.5 -79q0 -37 16 -58.5t36.5 -39t42 -31t32.5 -34.5zM1604 421q-36 0 -62 -7.5t-43.5 -17t-28.5 -18t-16 -8.5q-7 0 -18 1t-11 16q-23 0 -41.5 13t-41.5 13
q-13 0 -13.5 -16t-12.5 -34q27 -33 59.5 -52.5t78.5 -19.5q37 0 58.5 14t38 34t30 41.5t32.5 33.5zM897 627q-42 -20 -71 -62t-29 -93q0 -37 13.5 -68t36 -52.5t52 -33t64.5 -11.5q34 0 64.5 11.5t54 33t36.5 52.5t13 68q0 35 -14 65q-20 44 -62 73.5t-92 29.5
q-35 0 -66 -13zM296 681q3 16 19 25t34 14t32 8.5t14 10.5q2 20 21 38.5t37 18.5q25 0 51 -12.5t40 -34.5q17 13 25 24t29 11q19 0 38.5 -15.5t19.5 -36.5q0 -14 -9 -31q0 -12 4 -16t11 -4l18 8l97 -86q8 13 22.5 25.5t27.5 22.5l-78 103l8 17q0 6 -4 11t-16 5
q-16 -10 -28 -10q-24 0 -39 20t-15 42q0 10 3 16.5t7.5 10.5t10.5 9.5t12 15.5q-19 16 -33 41.5t-14 50.5q0 18 19.5 35.5t37.5 20.5q7 0 10.5 15t9 32.5t14 32.5t25.5 19h20q0 13 17 20t38.5 13t42.5 17t29 29q10 17 29.5 36t31.5 19q11 0 29.5 -19t28.5 -36
q10 -23 30 -31.5t42 -14.5t37.5 -13t15.5 -20h23q16 -4 25 -19t14 -32.5t9 -32.5t10 -15q21 -3 39 -20.5t18 -35.5q0 -25 -12.5 -50.5t-34.5 -41.5q13 -20 24 -27t11 -25q0 -22 -15.5 -42t-37.5 -20q-13 0 -30 10q-12 0 -16 -5t-4 -11l8 -17l-84 -99q31 -24 53 -50l95 84
l18 -8q6 0 11 4t5 16q-12 14 -12 31q0 21 21 36.5t42 15.5q18 0 25 -11t28 -24q16 22 41 34.5t50 12.5q23 0 38 -18t19 -39q0 -7 15 -10.5t33 -8.5t34 -14t17 -25v-22q12 0 19.5 -16t13.5 -38t14.5 -42t30.5 -28q18 -10 37 -30t19 -31t-19 -30.5t-37 -29.5q-22 -7 -30.5 -28
t-14.5 -42.5t-13 -37t-20 -15.5v-24q-1 -16 -17 -24.5t-34 -14.5t-33 -9.5t-15 -10.5q-6 -17 -20 -35.5t-37 -18.5q-25 0 -50 10.5t-41 33.5q-10 -6 -16 -12t-12 -10.5t-11 -7.5t-14 -3q-21 0 -42 16t-21 35q0 15 12 33q0 9 -5 13.5t-11 4.5l-18 -5l-95 74
q-11 -14 -25 -27.5t-29 -21.5l85 -95l-8 -17q0 -4 4 -9t16 -5q16 10 30 10q22 0 37.5 -20.5t15.5 -39.5q0 -22 -11.5 -28.5t-23.5 -24.5q22 -18 34.5 -42t12.5 -49q0 -26 -18 -41.5t-39 -15.5q-6 0 -10 -15t-10 -34t-14 -34.5t-24 -18.5h-23q0 -17 -15.5 -22t-37.5 -11
t-42 -14.5t-30 -30.5q-8 -19 -27.5 -37.5t-30.5 -18.5q-12 0 -31.5 18.5t-29.5 37.5q-8 22 -29 32t-42.5 14.5t-38.5 11t-17 20.5h-20q-17 3 -25.5 18.5t-14 34.5t-9 34t-10.5 15q-18 0 -37.5 15.5t-19.5 41.5q0 25 14 49t33 42q-12 18 -22.5 24.5t-10.5 28.5
q0 19 13.5 39.5t40.5 20.5q15 0 28 -10q12 0 16 5t4 9l-8 17l86 99q-33 14 -52 45l-103 -74l-18 5q-15 0 -15 -18q8 -8 8.5 -15t0.5 -18q0 -19 -19.5 -35t-38.5 -16q-12 0 -18 3t-10 7.5t-11.5 10.5t-14.5 12q-14 -23 -40 -33.5t-51 -10.5q-18 0 -37 18t-21 36q0 7 -14 10.5
t-32 9.5t-34 14.5t-19 24.5v24q-15 0 -20 16.5t-12 37t-16.5 41.5t-28.5 29q-20 9 -37.5 28.5t-17.5 30.5q0 12 17.5 30.5t37.5 30.5q19 8 28.5 27t16.5 42t12 39t20 16v22z" />
    <glyph glyph-name="tibDagger" unicode="&#xfc8;" horiz-adv-x="1022" 
d="M563 186q-10 -2 -28 -2q-15 0 -35 4l6 -2v-1067l-467 1309l422 -217q-27 20 -27 51q0 37 41 63q-8 2 -24 11q-66 28 -106 85.5t-40 135.5q0 55 25.5 104t66.5 84l-82 107l9 18q0 17 -21 17q-14 -11 -31 -11q-22 0 -38.5 20.5t-16.5 45.5q0 20 10.5 28.5t24.5 24.5
q-21 19 -34 45.5t-13 50.5q0 23 18.5 41.5t38.5 18.5q6 0 10 15t10.5 33.5t15.5 36t26 21.5h24q0 17 18.5 23t43.5 12q22 8 41.5 18.5t29.5 30.5q8 19 28.5 37.5t33.5 18.5q12 0 32.5 -18.5t28.5 -37.5q8 -18 25.5 -28.5t38.5 -18.5q24 -6 46.5 -13t22.5 -24h25
q16 -4 25.5 -21.5t14.5 -36t9 -33.5t10 -15q23 0 41.5 -18.5t18.5 -41.5q0 -24 -13.5 -50.5t-33.5 -45.5q12 -16 22 -24.5t10 -28.5q0 -25 -16 -45.5t-39 -20.5q-12 0 -29 11q-14 0 -17 -5.5t-3 -11.5l6 -18l-86 -103q47 -32 73.5 -83.5t26.5 -108.5q0 -78 -40 -135.5
t-105 -85.5q-14 -9 -39 -15q37 -22 37 -59q0 -29 -29 -53l422 219l-465 -1309v1067zM598 1233q0 -39 8 -65.5t19.5 -45t19.5 -31t8 -18.5q0 -8 -2 -18.5t-18 -10.5q0 -26 -13.5 -43.5t-13.5 -46.5q0 -12 17.5 -13t35.5 -11q33 26 55.5 61t22.5 82q0 41 -16 64.5t-37.5 39
t-44.5 28.5t-35 38zM481 1243q-12 -23 -34.5 -37t-44 -30.5t-38 -40t-16.5 -62.5q0 -47 22.5 -82t55.5 -61q16 10 34.5 11t18.5 13q0 29 -13 46.5t-13 43.5q-17 0 -20 10.5t-3 18.5q0 6 9.5 18.5t20.5 31t20 45t9 65.5zM543 878q-6 0 -27.5 -3t-45.5 -9t-42 -14t-18 -19
l43 -59q43 18 90 18q45 0 82 -14l49 55q0 11 -18.5 19t-41 14t-44 9t-27.5 3zM569 188l-6 -2q2 0 3 1t3 1z" />
    <glyph glyph-name="tibSmilingEgg" unicode="&#xfc9;" horiz-adv-x="1397" 
d="M725 -385q-162 0 -287 63t-210.5 162.5t-130.5 225t-45 251.5q0 43 20 109.5t51.5 129.5t68 109t69.5 46q0 -22 -7.5 -45.5t-17 -49.5t-17 -54t-7.5 -58q0 -92 47 -170.5t120.5 -135t165.5 -88t182 -31.5q92 0 184.5 32.5t165.5 89t120 135t47 170.5q0 52 -13.5 103
t-13.5 102q25 0 45.5 -23.5t37 -60.5t29 -80t20.5 -83.5t12.5 -72t4.5 -44.5q0 -144 -38.5 -277t-117 -234t-200 -161t-285.5 -60zM729 176q-87 0 -164 26t-136.5 78.5t-94 129t-34.5 177.5q0 39 19 94t51.5 106.5t74 87.5t88.5 36q7 0 16 -1t9 -8q-20 -33 -31 -71.5
t-11 -76.5q0 -104 61.5 -160t151.5 -56q111 0 174 64t63 166q0 35 -15 67t-46 47v16q56 0 103.5 -29.5t81 -78.5t52.5 -110t19 -126q0 -74 -37 -141.5t-96.5 -120.5t-137.5 -84.5t-161 -31.5zM707 601q-30 0 -55.5 15.5t-44.5 39.5t-29.5 56.5t-10.5 68.5q0 56 30.5 98
t67.5 81t67.5 80.5t30.5 96.5l22 -5q19 -5 19 -58q0 -34 -17 -76t-35 -64q-7 -11 -19.5 -30.5t-24.5 -42t-21 -44.5t-9 -34q0 -16 13 -38t38 -22q12 0 25 9t14 22q0 20 -34 32l2 26q0 5 6.5 16t16 21.5t23 18t30.5 7.5q43 -4 68 -34.5t25 -72.5q0 -81 -57.5 -124t-140.5 -43
z" />
    <glyph glyph-name="tibYinYang" unicode="&#xfca;" horiz-adv-x="1554" 
d="M775 1175q97 0 187 -28.5t168.5 -79t143 -118.5t110.5 -146.5t71.5 -164.5t25.5 -171q0 -94 -24.5 -185t-70 -172t-110 -149.5t-144.5 -118.5t-173 -78t-195 -28q-103 0 -197 27t-174.5 75.5t-146 115t-111.5 145t-71 165.5t-25 178q0 102 25 196.5t72 176t113 148
t147.5 113.5t177 73t201.5 26zM775 1077q-132 0 -239.5 -45t-187 -118t-129 -165.5t-65.5 -187.5q18 24 44.5 50t62.5 47.5t82.5 35.5t105.5 14q74 0 128.5 -20t95.5 -52t71.5 -72t56.5 -81q24 -35 48.5 -68t56.5 -58.5t73.5 -41.5t100.5 -16q57 0 100 16.5t74.5 41.5
t53 55.5t35 59.5t20.5 52t10 33q-2 34 -23.5 85.5t-59 109.5t-90 116t-118.5 104.5t-143.5 75.5t-163.5 29zM766 -164q119 0 220.5 44t179.5 113.5t130 156t72 171.5q-51 -66 -124 -100.5t-164 -34.5q-80 0 -137 20.5t-99.5 53t-74.5 73.5t-62 83q-23 33 -47 65t-54.5 57
t-69 40.5t-89.5 15.5q-32 0 -61 -9t-55.5 -23.5t-50 -34t-44.5 -40.5q-23 -23 -44 -48t-40 -54q1 -51 22 -111.5t59 -121.5t92 -118t121.5 -101t148 -70.5t171.5 -26.5zM1080 688q21 0 39.5 -8t32.5 -21.5t22 -31.5t8 -39q0 -22 -8 -40.5t-22 -32.5t-32.5 -22t-39.5 -8
q-44 0 -73.5 29.5t-29.5 73.5q0 21 8 39t22 31.5t32.5 21.5t40.5 8zM443 434q21 0 40 -8t32.5 -22.5t21.5 -33.5t8 -40q0 -44 -29.5 -73.5t-72.5 -29.5q-21 0 -39 8t-32 22t-22 32.5t-8 40.5q0 21 8 40t22 33.5t32 22.5t39 8z" />
    <glyph glyph-name="tibYinYangYin" unicode="&#xfcb;" horiz-adv-x="1587" 
d="M52 470q0 147 57 276t155 224t229.5 150t282.5 55t283.5 -55t230.5 -150t154.5 -224t56.5 -276q0 -159 -58.5 -293t-158 -231t-231 -151t-277.5 -54q-151 0 -282.5 56.5t-229.5 155.5t-155 232t-57 285zM1336 713q0 -69 -30 -141t-79.5 -129.5t-113 -94.5t-130.5 -37
q-65 0 -120.5 18t-104.5 72q-52 -14 -91 -62t-39 -107q0 -58 24.5 -115.5t66 -103.5t95.5 -74.5t113 -28.5q42 0 87 3.5t91 26.5q71 33 125.5 90.5t92.5 128.5t58 151t20 160q0 68 -17.5 133t-47.5 126v-16zM880 246q33 0 56.5 -23t23.5 -58q0 -36 -23.5 -56.5t-56.5 -20.5
q-30 0 -54.5 20.5t-24.5 56.5q0 35 24.5 58t54.5 23zM749 556q0 97 -62 152t-192 55q-129 0 -209.5 -70t-114.5 -227q7 -124 56 -235t127 -195.5t180.5 -135.5t219.5 -57q-50 29 -92.5 73t-72 95.5t-45.5 108t-16 112.5q0 45 16 91t45.5 85.5t70 68.5t89.5 41v38zM495 659
q31 0 56 -24.5t25 -55.5q0 -39 -25 -60t-56 -21q-30 0 -52.5 21t-22.5 60q0 31 22.5 55.5t52.5 24.5zM776 1074q-158 0 -286 -69t-209 -193q94 52 214 52q175 0 269.5 -79.5t94.5 -228.5q0 -27 -2 -45t-11 -32q29 -24 63 -37.5t69 -13.5q39 0 85 26t84 66.5t63 92t25 100.5
q0 34 -9 72.5t-28 77.5t-49.5 74t-73.5 64q-63 41 -140.5 57t-158.5 16zM1039 756q30 0 52.5 -21t22.5 -60q0 -33 -22.5 -58t-52.5 -25q-31 0 -55 25t-24 58q0 39 24 60t55 21z" />
    <glyph glyph-name="tibYinYangYinYang" unicode="&#xfcc;" horiz-adv-x="1591" 
d="M54 458q0 149 57.5 280.5t156.5 230.5t231 155.5t284 56.5q149 0 280.5 -57.5t229.5 -157.5t154.5 -233t56.5 -284q0 -148 -57.5 -278.5t-156.5 -228.5t-230.5 -154.5t-276.5 -56.5q-152 0 -284 57.5t-231 156.5t-156.5 231t-57.5 282zM1150 800q0 -72 -21.5 -135
t-61.5 -112.5t-96.5 -83t-124.5 -44.5q5 -52 33 -96t69.5 -75.5t91.5 -48.5t101 -17q50 0 98 25t84 64.5t58.5 87.5t22.5 93q0 81 -22 160t-60.5 149.5t-95 128t-127.5 96.5q51 -72 51 -183v-9zM430 829q75 0 140 -22.5t116.5 -63t85.5 -97.5t47 -125q50 2 93 29.5t74 69
t48 93t17 99.5q0 53 -25.5 101.5t-65 85.5t-86 59.5t-91.5 22.5q-83 0 -162.5 -22.5t-150.5 -63t-128.5 -97.5t-97.5 -127q40 32 80.5 43t105.5 15zM1130 87q-74 0 -137 21.5t-113.5 61t-84.5 95.5t-48 126q-53 -3 -96 -30t-73.5 -68.5t-47.5 -91t-17 -100.5q0 -52 25 -99.5
t64.5 -83.5t88 -58.5t95.5 -22.5q81 0 159.5 20.5t147.5 60t127 95.5t97 126q-36 -29 -80 -40.5t-107 -11.5zM410 105q0 76 22.5 140.5t63 115t98 84.5t127.5 49q-3 52 -31 95t-69.5 74t-92.5 47t-102 16q-52 0 -99.5 -25t-84.5 -64t-59.5 -87.5t-22.5 -95.5
q0 -81 20.5 -159t60 -147.5t96.5 -127t131 -97.5q-29 36 -42.5 78.5t-15.5 103.5zM792 951q28 0 51.5 -24.5t23.5 -58.5t-23.5 -57.5t-51.5 -23.5q-33 0 -56.5 23.5t-23.5 57.5t23.5 58.5t56.5 24.5zM1204 528q30 0 52.5 -21.5t22.5 -57.5q0 -34 -22.5 -57.5t-52.5 -23.5
q-31 0 -54.5 23.5t-23.5 57.5q0 36 23.5 57.5t54.5 21.5zM792 121q28 0 51.5 -21.5t23.5 -59.5q0 -30 -23.5 -55.5t-51.5 -25.5q-33 0 -56.5 25.5t-23.5 55.5q0 38 23.5 59.5t56.5 21.5zM351 530q28 0 51.5 -22.5t23.5 -55.5q0 -36 -23.5 -58.5t-51.5 -22.5
q-33 0 -56.5 22.5t-23.5 58.5q0 33 23.5 55.5t56.5 22.5z" />
    <glyph glyph-name="tibSymbolXXX" unicode="&#xfcf;" horiz-adv-x="1348" 
d="M770 897q50 -50 105 -104t106 -103l-78 -78l-205 205q-49 -50 -103.5 -102.5t-102.5 -102.5l-78 78l207 207l-207 203l86 73l198 -202q48 45 100 99.5t103 102.5l72 -73zM1118 364q25 -26 52.5 -53t56.5 -55l102 -101l-76 -82l-206 207l-103 -102l-104 -98l-76 75
l205 209l-205 201l84 70l199 -201q49 48 102 101.5t102 101.5l74 -72zM399 364q50 -54 107 -109t106 -100l-77 -82l-205 207q-25 -23 -51 -48.5t-54 -53.5l-102 -98l-80 75l207 209l-207 201l82 70l205 -201q45 48 99 101.5t103 101.5l72 -72z" />
    <glyph glyph-name="uni200C" unicode="&#x200c;" horiz-adv-x="39" 
d="M40 -827h-40v1538h40v-1538z" />
    <glyph glyph-name="uni200D" unicode="&#x200d;" horiz-adv-x="39" 
d="M40 -827h-40v1538h40v-1538zM185 817l-137 -71l137 -72v-24l-165 85l-165 -86v24l137 71l-137 72v24l165 -85l165 86v-24z" />
    <glyph glyph-name="endash" unicode="&#x2013;" horiz-adv-x="1193" 
d="M100 377v127h993v-127h-993z" />
    <glyph glyph-name="emdash" unicode="&#x2014;" horiz-adv-x="1985" 
d="M100 377v127h1785v-127h-1785z" />
    <glyph glyph-name="quoteleft" unicode="&#x2018;" horiz-adv-x="382" 
d="M268 1012v-183h-168v144q0 116 28 169q37 70 115 106l39 -61q-48 -21 -70.5 -60.5t-25.5 -114.5h82z" />
    <glyph glyph-name="quoteright" unicode="&#x2019;" horiz-adv-x="381" 
d="M113 1057v182h168v-144q0 -116 -27 -168q-37 -70 -117 -106l-37 62q46 19 69 60.5t26 113.5h-82z" />
    <glyph glyph-name="quotesinglbase" unicode="&#x201a;" horiz-adv-x="381" 
d="M113 1v182h168v-143q0 -117 -27 -169q-37 -70 -117 -106l-37 62q46 19 69 60.5t26 113.5h-82z" />
    <glyph glyph-name="quotedblleft" unicode="&#x201c;" horiz-adv-x="653" 
d="M268 1012v-183h-168v144q0 116 28 169q36 70 116 106l38 -61q-47 -21 -70 -60.5t-26 -114.5h82zM538 1012v-183h-168v144q0 116 28 169q37 70 116 106l39 -61q-49 -21 -71.5 -60.5t-25.5 -114.5h82z" />
    <glyph glyph-name="quotedblright" unicode="&#x201d;" horiz-adv-x="653" 
d="M114 1057v182h168v-144q0 -116 -26 -168q-38 -70 -118 -106l-38 62q47 19 70.5 60.5t25.5 113.5h-82zM385 1057v182h168v-144q0 -116 -28 -168q-37 -70 -116 -106l-39 62q47 19 70.5 60.5t26.5 113.5h-82z" />
    <glyph glyph-name="quotedblbase" unicode="&#x201e;" horiz-adv-x="653" 
d="M114 1v182h168v-143q0 -117 -26 -169q-38 -70 -118 -106l-38 62q47 19 70.5 60.5t25.5 113.5h-82zM385 1v182h168v-143q0 -117 -28 -169q-37 -70 -116 -106l-39 62q47 19 70.5 60.5t26.5 113.5h-82z" />
    <glyph glyph-name="dagger" unicode="&#x2020;" horiz-adv-x="1054" 
d="M447 -324v1056h-347v140h347v354h157v-354h350v-140h-350v-1056h-157z" />
    <glyph glyph-name="daggerdbl" unicode="&#x2021;" horiz-adv-x="1057" 
d="M449 -324v322h-349v141h349v631h-349v141h349v326h158v-326h350v-141h-350v-631h350v-141h-350v-322h-158z" />
    <glyph glyph-name="bullet" unicode="&#x2022;" horiz-adv-x="643" 
d="M100 596q0 91 65.5 156t155.5 65q92 0 157 -65t65 -156t-65 -156.5t-157 -65.5q-90 0 -155.5 65.5t-65.5 156.5z" />
    <glyph glyph-name="ellipsis" unicode="&#x2026;" horiz-adv-x="1570" 
d="M100 -4v178h180v-178h-180zM696 -4v178h178v-178h-178zM1290 -4v178h180v-178h-180z" />
    <glyph glyph-name="perthousand" unicode="&#x2030;" horiz-adv-x="1920" 
d="M347 -77l524 1347h113l-523 -1347h-114zM100 928q0 173 68.5 252.5t180.5 79.5q111 0 181 -79.5t70 -248.5q0 -171 -61 -257.5t-188 -86.5q-111 0 -181 80.5t-70 259.5zM229 921q0 -133 34 -179t91 -46q52 0 80 40q37 52 37 187q0 132 -38 187q-30 41 -82 41
q-55 0 -83 -39q-39 -56 -39 -191zM732 263q0 173 69 252t180 79t181.5 -79.5t70.5 -248.5q0 -170 -61 -256.5t-189 -86.5q-111 0 -181 81t-70 259zM861 256q0 -131 35 -178t91 -47q52 0 79 39q38 53 38 188q0 133 -39 187q-30 41 -82 41q-53 0 -82 -40q-40 -54 -40 -190z
M1320 263q0 173 68.5 252t180.5 79q111 0 181 -79.5t70 -248.5q0 -170 -60.5 -256.5t-188.5 -86.5q-111 0 -181 81t-70 259zM1449 256q0 -131 34.5 -178t90.5 -47q52 0 80 39q37 53 37 188q0 133 -38 187q-29 41 -82 41q-55 0 -83 -40q-39 -54 -39 -190z" />
    <glyph glyph-name="guilsinglleft" unicode="&#x2039;" horiz-adv-x="606" 
d="M275 437l231 -396h-131l-275 396l275 399h131z" />
    <glyph glyph-name="guilsinglright" unicode="&#x203a;" horiz-adv-x="594" 
d="M331 440l-231 396h130l264 -391l-264 -404h-130z" />
    <glyph glyph-name="Euro" unicode="&#x20ac;" horiz-adv-x="1190" 
d="M813 1125q-147 0 -245 -71q-60 -42 -107 -118q-50 -80 -58 -152h594l-24 -116h-584q-1 -19 -1 -35q0 -67 1 -81h561l-24 -116h-519q37 -200 176 -284q100 -60 217 -60q164 0 255 85v-179q-109 -50 -241 -50q-394 0 -533 327q-27 66 -47 161h-134l25 116h91q-2 37 -2 80
v36h-114l25 116h100q55 285 282 409q140 76 310 76q161 0 273 -71l-35 -162q-107 89 -242 89z" />
    <glyph glyph-name="trademark" unicode="&#x2122;" horiz-adv-x="1557" 
d="M330 523v605h-230v106h580v-106h-232v-605h-118zM759 523v711h174l180 -567l173 567h171v-711h-108v596l-183 -596h-107l-191 605v-605h-109z" />
    <glyph glyph-name="uni25CC" unicode="&#x25cc;" horiz-adv-x="883" 
d="M248 1007l-55 43l90 88l39 -60zM633 1007l-74 71l39 60l90 -88zM158 837l-6 59l6 64l69 -9l-6 -55l6 -47zM723 837l-72 12l6 47l-6 55l72 9l4 -64zM440 611l-63 7l12 67l51 -6l52 6l12 -67zM283 661l-90 88l55 41l74 -72zM492 1111l-52 6l-51 -6l-12 66l63 8l64 -8z
M598 661l-39 57l74 72l55 -41z" />
    <glyph glyph-name="leftAngleBracket" unicode="&#x3008;" horiz-adv-x="575" 
d="M126 356l377 -798l-72 -41l-391 839l424 842l72 -41z" />
    <glyph glyph-name="rightAngleBracket" unicode="&#x3009;" horiz-adv-x="575" 
d="M114 -483l-74 33l377 798l-377 793l74 41l391 -826z" />
    <glyph glyph-name="leftDoubleAngleBracket" unicode="&#x300a;" horiz-adv-x="854" 
d="M778 -443l-71 -41l-392 840l424 842l72 -41l-410 -801zM504 -443l-74 -41l-389 840l424 842l72 -41l-410 -801z" />
    <glyph glyph-name="rightDoubleAngleBracket" unicode="&#x300b;" horiz-adv-x="854" 
d="M317 -451l377 799l-377 793l74 40l391 -825l-391 -840zM41 -451l377 799l-377 793l74 40l391 -825l-391 -840z" />
    <glyph glyph-name="leftCornerBracket" unicode="&#x300c;" horiz-adv-x="559" 
d="M119 1106v-1663h-78v1743h485v-80h-407z" />
    <glyph glyph-name="rightCornerBracket" unicode="&#x300d;" horiz-adv-x="590" 
d="M527 -863h-487v80h407v1671h80v-1751z" />
    <glyph glyph-name="leftWhiteCornerBracket" unicode="&#x300e;" horiz-adv-x="590" 
d="M544 -863h-504v247h264v1504h240v-1751zM384 808v-1503h-264v-88h344v1591h-80z" />
    <glyph glyph-name="rightWhiteCornerBracket" unicode="&#x300f;" horiz-adv-x="840" 
d="M777 -549h-737v1734h743q-212 -228 -318 -447t-106 -433q0 -398 418 -854z" />
    <glyph glyph-name="leftBlackConcave" unicode="&#x3010;" horiz-adv-x="840" 
d="M759 1185v-1734h-727q408 471 408 889q0 391 -400 845h719z" />
    <glyph glyph-name="rightBlackConcave" unicode="&#x3011;" horiz-adv-x="440" 
d="M120 856v-1023l289 -288l-55 -41l-314 315v1051l314 315l55 -41z" />
    <glyph glyph-name="leftTortoiseShell" unicode="&#x3014;" horiz-adv-x="440" 
d="M392 -161l-305 -327l-55 49l280 303v991l-272 281l55 49l297 -305v-1041z" />
    <glyph glyph-name="rightTortoiseShell" unicode="&#x3015;" horiz-adv-x="926" 
d="M41 1186h848l-494 -867l502 -868h-856v1735zM121 -469h565l-369 780l377 795h-573v-1575z" />
    <glyph glyph-name="leftWhiteConcave" unicode="&#x3016;" horiz-adv-x="926" 
d="M47 -535l477 862l-483 859h842v-1721h-836zM604 321l-362 -776h559v1561h-559z" />
    </font>
</defs>
</svg>
