<?xml version="1.0" standalone="no"?>
<!DOCTYPE svg PUBLIC "-//W3C//DTD SVG 1.1//EN" "http://www.w3.org/Graphics/SVG/1.1/DTD/svg11.dtd" >
<svg xmlns="http://www.w3.org/2000/svg" xmlns:xlink="http://www.w3.org/1999/xlink" version="1.1">
<metadata>
Created by FontForge 20170731 at Tue Nov 16 00:21:25 2021
 By Aleksey,,,
Copyright (c) 2021 by Lobsang monlam. All rights reserved.
</metadata>
<defs>
<font id="MonlamDicA2021-Regular" horiz-adv-x="29" >
  <font-face 
    font-family="Monlam DicA2021"
    font-weight="400"
    font-stretch="normal"
    units-per-em="1700"
    panose-1="1 1 1 0 1 1 1 1 1 1"
    ascent="1360"
    descent="-340"
    x-height="904"
    cap-height="1247"
    bbox="-1695 -4792 2796 2198"
    underline-thickness="50"
    underline-position="-150"
    unicode-range="U+0020-301F"
  />
<missing-glyph horiz-adv-x="1275" 
d="M212 0v1062h850v-1062h-850zM239 27h797v1009h-797v-1009z" />
    <glyph glyph-name=".notdef" horiz-adv-x="1275" 
d="M212 0v1062h850v-1062h-850zM239 27h797v1009h-797v-1009z" />
    <glyph glyph-name=".null" horiz-adv-x="0" 
 />
    <glyph glyph-name="nonmarkingreturn" horiz-adv-x="1024" 
 />
    <glyph glyph-name="space" unicode=" " horiz-adv-x="472" 
 />
    <glyph glyph-name="exclam" unicode="!" horiz-adv-x="395" 
d="M149 287l-49 677v283h195v-283l-46 -677h-100zM108 -30v178h180v-178h-180z" />
    <glyph glyph-name="quotedbl" unicode="&#x22;" horiz-adv-x="668" 
d="M144 775l-44 244v209h178v-209l-39 -244h-95zM432 775l-42 244v209h178v-209l-42 -244h-94z" />
    <glyph glyph-name="numbersign" unicode="#" horiz-adv-x="1153" 
d="M172 -52l76 371h-148v130h175l64 316h-239v131h265l76 373h131l-77 -373h275l76 373h131l-76 -373h152v-131h-178l-65 -316h243v-130h-269l-76 -371h-131l76 371h-274l-76 -371h-131zM405 449h274l65 316h-274z" />
    <glyph glyph-name="dollar" unicode="$" horiz-adv-x="1045" 
d="M480 -213v157q-118 15 -191.5 53t-127 122.5t-61.5 206.5l157 29q18 -126 64 -185q67 -83 159 -94v500q-97 19 -197 74q-75 42 -116 116.5t-41 168.5q0 167 119 271q80 70 235 86v75h92v-75q138 -14 218 -81q103 -85 124 -234l-163 -24q-14 92 -58 141t-121 65v-452
q119 -30 158 -46q72 -33 118.5 -79t71.5 -109.5t25 -138.5q0 -162 -104 -271.5t-269 -116.5v-159h-92zM480 1161q-91 -14 -143.5 -73.5t-52.5 -139.5q0 -81 44.5 -135t151.5 -86v434zM572 76q92 12 151.5 80t59.5 168q0 86 -42 137.5t-169 92.5v-478z" />
    <glyph glyph-name="percent" unicode="%" horiz-adv-x="1574" 
d="M100 941q0 137 69 233t199 96q121 0 199.5 -86t78.5 -252q0 -163 -79.5 -250.5t-196.5 -87.5q-115 0 -192.5 86.5t-77.5 260.5zM373 1162q-59 0 -97.5 -51t-38.5 -185q0 -123 39.5 -173.5t96.5 -50.5q59 0 98 51t39 184q0 124 -39.5 174.5t-97.5 50.5zM373 -77l700 1347
h127l-697 -1347h-130zM927 270q0 138 68.5 233t199.5 95q121 0 200 -85.5t79 -252.5q0 -162 -80 -249.5t-198 -87.5q-115 0 -192 86.5t-77 260.5zM1200 491q-59 0 -98 -51t-39 -185q0 -123 39.5 -173.5t97.5 -50.5q59 0 98 50.5t39 184.5q0 124 -39.5 174.5t-97.5 50.5z" />
    <glyph glyph-name="ampersand" unicode="&#x26;" horiz-adv-x="1274" 
d="M872 121q-78 -87 -169.5 -130t-197.5 -43q-197 0 -311 132q-94 108 -94 241q0 119 76.5 214.5t228.5 168.5q-86 99 -115 160.5t-29 119.5q0 116 90.5 201t226.5 85q130 0 213.5 -80.5t83.5 -192.5q0 -183 -241 -312l229 -292q40 77 61 178l163 -34q-42 -168 -113 -276
q88 -117 200 -197l-107 -124q-94 61 -195 181zM553 787q102 59 132 104.5t30 100.5q0 66 -41.5 107t-103.5 41q-63 0 -105.5 -40.5t-42.5 -100.5q0 -30 15 -62.5t46 -69.5zM773 244l-287 357q-127 -76 -172 -141t-45 -129q0 -77 62 -161t176 -84q70 0 145.5 44t120.5 114z
" />
    <glyph glyph-name="quotesingle" unicode="'" horiz-adv-x="378" 
d="M140 775l-40 240v213h178v-213l-42 -240h-96z" />
    <glyph glyph-name="parenleft" unicode="(" horiz-adv-x="622" 
d="M410 -398q-131 164 -220.5 384t-89.5 455q0 207 67 397q79 220 243 440h112q-106 -182 -140 -259q-53 -120 -84 -251q-37 -163 -37 -328q0 -419 261 -838h-112z" />
    <glyph glyph-name="parenright" unicode=")" horiz-adv-x="622" 
d="M212 -398h-112q260 419 260 838q0 164 -37 325q-30 131 -82 251q-35 78 -141 262h112q164 -220 243 -440q67 -190 67 -397q0 -235 -90.5 -455t-219.5 -384z" />
    <glyph glyph-name="asterisk" unicode="*" horiz-adv-x="777" 
d="M100 995l40 123q139 -49 202 -84q-17 157 -18 217h127q-3 -87 -20 -216q89 45 206 83l40 -123q-112 -37 -218 -50q54 -46 151 -164l-105 -74q-51 68 -119 187q-65 -123 -114 -187l-102 74q100 124 143 164q-112 22 -213 50z" />
    <glyph glyph-name="plus" unicode="+" horiz-adv-x="1043" 
d="M447 177v350h-347v147h347v347h149v-347h347v-147h-347v-350h-149z" />
    <glyph glyph-name="comma" unicode="," horiz-adv-x="389" 
d="M111 2v178h178v-178q0 -99 -34.5 -159.5t-109.5 -93.5l-45 67q50 22 73.5 64t26.5 122h-89z" />
    <glyph glyph-name="hyphen" unicode="-" horiz-adv-x="681" 
d="M100 361v158h481v-158h-481z" />
    <glyph glyph-name="period" unicode="." horiz-adv-x="379" 
d="M100 -4v178h179v-178h-179z" />
    <glyph glyph-name="slash" unicode="/" horiz-adv-x="696" 
d="M100 -52l371 1321h125l-370 -1321h-126z" />
    <glyph glyph-name="zero" unicode="0" horiz-adv-x="1033" 
d="M100 600q0 227 46.5 365t138.5 213t231 75q103 0 180.5 -41.5t128 -119.5t79.5 -190t29 -302q0 -225 -46.5 -363t-138 -213.5t-232.5 -75.5q-185 0 -290 132q-126 160 -126 520zM261 600q0 -315 73.5 -419t181.5 -104t182 104.5t74 418.5q0 316 -74 419.5t-183 103.5
q-108 0 -173 -91q-81 -117 -81 -432z" />
    <glyph glyph-name="one" unicode="1" horiz-adv-x="670" 
d="M570 -31h-156v1000q-57 -54 -149 -108t-165 -81v151q131 62 229.5 150.5t139.5 171.5h101v-1284z" />
    <glyph glyph-name="two" unicode="2" horiz-adv-x="1046" 
d="M946 121v-152h-845q-1 57 19 110q32 86 103 169.5t205 193.5q208 171 281.5 271t73.5 188q0 93 -66.5 157t-174.5 64q-112 0 -180.5 -67.5t-69.5 -188.5l-161 17q16 181 124 275.5t291 94.5q184 0 291 -102t107 -253q0 -77 -31.5 -151t-104 -156t-241.5 -225
q-142 -118 -181.5 -160.5t-66.5 -84.5h627z" />
    <glyph glyph-name="three" unicode="3" horiz-adv-x="1037" 
d="M100 307l158 21q27 -133 91.5 -192t157.5 -59q111 0 187.5 76.5t76.5 190.5q0 108 -71 178.5t-180 70.5q-44 0 -110 -18l18 137q15 -1 25 -1q100 0 180 52t80 161q0 87 -58 143.5t-151 56.5q-91 0 -152.5 -58t-78.5 -172l-157 27q29 159 131 245.5t253 86.5
q105 0 193.5 -45t134.5 -122.5t46 -164.5q0 -83 -44 -151t-131 -108q113 -26 175.5 -108.5t62.5 -206.5q0 -167 -122 -283.5t-309 -116.5q-168 0 -279 100t-127 260z" />
    <glyph glyph-name="four" unicode="4" horiz-adv-x="1083" 
d="M654 -30v305h-554v144l583 828h128v-828h172v-144h-172v-305h-157zM654 419v576l-400 -576h400z" />
    <glyph glyph-name="five" unicode="5" horiz-adv-x="1046" 
d="M100 305l164 14q19 -121 85.5 -181t160.5 -60q113 0 191.5 85.5t78.5 225.5q0 135 -75.5 212.5t-197.5 77.5q-75 0 -136 -34.5t-97 -89.5l-147 19l124 657h635v-150h-509l-69 -344q115 81 241 81q167 0 282 -116t115 -298q0 -174 -101 -300q-123 -156 -335 -156
q-174 0 -284.5 98t-125.5 259z" />
    <glyph glyph-name="six" unicode="6" horiz-adv-x="1043" 
d="M921 935l-156 -13q-21 93 -59 135q-64 67 -158 67q-74 0 -131 -42q-73 -54 -116.5 -158t-45.5 -295q57 86 139.5 127.5t171.5 41.5q157 0 267 -115.5t110 -297.5q0 -120 -51.5 -223.5t-142 -158.5t-206.5 -55q-195 0 -319 144.5t-124 474.5q0 371 136 539
q120 147 323 147q150 0 246.5 -84.5t115.5 -233.5zM281 384q0 -81 34 -155t96 -113t130 -39q100 0 171 80.5t71 217.5q0 133 -70.5 209t-177.5 76q-106 0 -180 -76t-74 -200z" />
    <glyph glyph-name="seven" unicode="7" horiz-adv-x="1027" 
d="M100 1081v150h827v-122q-122 -130 -242 -345t-185 -442q-47 -161 -61 -352h-160q2 151 58.5 364t162.5 411.5t226 335.5h-626z" />
    <glyph glyph-name="eight" unicode="8" horiz-adv-x="1042" 
d="M342 663q-96 36 -143.5 102t-47.5 158q0 140 100.5 235t266.5 95q168 0 270 -97t102 -237q0 -89 -47 -154.5t-141 -101.5q117 -39 178.5 -124t61.5 -204q0 -163 -116 -275t-305 -112t-305 112.5t-116 279.5q0 125 63 209t179 114zM312 929q0 -91 58.5 -148.5t151.5 -57.5
q90 0 148 57t58 140q0 86 -59.5 145t-148.5 59q-90 0 -149 -58t-59 -137zM261 339q0 -68 32 -130.5t95 -97t134 -34.5q113 0 186 72.5t73 183.5q0 114 -75.5 188t-187.5 74q-111 0 -184 -73t-73 -183z" />
    <glyph glyph-name="nine" unicode="9" horiz-adv-x="1040" 
d="M123 265l151 15q19 -107 73 -155t138 -48q73 0 127.5 33t89 89t58.5 149.5t24 191.5q0 11 -2 32q-46 -76 -128 -122t-176 -46q-159 0 -268.5 115t-109.5 303q0 194 114.5 312.5t286.5 118.5q125 0 228.5 -67t157 -191.5t53.5 -359.5q0 -245 -53.5 -390t-158.5 -221
t-246 -76q-150 0 -245 83.5t-114 233.5zM766 829q0 135 -72 214.5t-174 79.5q-104 0 -181.5 -85.5t-77.5 -221.5q0 -122 73.5 -198t181.5 -76q109 0 179.5 76t70.5 211z" />
    <glyph glyph-name="colon" unicode=":" horiz-adv-x="378" 
d="M100 724v180h178v-180h-178zM100 -22v178h178v-178h-178z" />
    <glyph glyph-name="semicolon" unicode=";" horiz-adv-x="389" 
d="M111 731v179h178v-179h-178zM111 -16v178h178v-178q0 -99 -34.5 -159t-109.5 -94l-45 67q50 22 73.5 64t26.5 122h-89z" />
    <glyph glyph-name="less" unicode="&#x3c;" horiz-adv-x="1046" 
d="M100 529v147l846 357v-157l-671 -275l671 -278v-156z" />
    <glyph glyph-name="equal" unicode="=" horiz-adv-x="1043" 
d="M943 722h-843v146h843v-146zM943 333h-843v147h843v-147z" />
    <glyph glyph-name="greater" unicode="&#x3e;" horiz-adv-x="1046" 
d="M946 529l-846 -362v156l670 278l-670 275v157l846 -357v-147z" />
    <glyph glyph-name="question" unicode="?" horiz-adv-x="1025" 
d="M433 284q-1 32 -1 46q0 93 26 160q19 51 62 103q32 36 113.5 108t105.5 115t24 94q0 91 -71.5 160.5t-175.5 69.5q-100 0 -167 -63t-88 -197l-161 20q21 179 129 274t285 95q187 0 299 -102.5t112 -246.5q0 -84 -39.5 -154.5t-153.5 -171.5q-77 -68 -100 -100.5
t-35 -74.5t-14 -135h-150zM424 -31v179h178v-179h-178z" />
    <glyph glyph-name="at" unicode="@" horiz-adv-x="1850" 
d="M1015 120q-56 -65 -126.5 -104.5t-140.5 -39.5q-78 0 -151 45t-119.5 139t-46.5 206q0 139 71.5 278t177 209t204.5 70q76 0 145 -40t119 -121l29 136h156l-126 -585q-26 -122 -26 -136q0 -23 18 -40t43 -17q46 0 122 53q99 70 157 187.5t58 241.5q0 146 -74.5 272.5
t-222.5 202t-327 75.5q-203 0 -371.5 -95.5t-261.5 -273.5t-93 -382q0 -214 93 -368.5t268 -228t390 -73.5q227 0 381.5 77t231.5 187h157q-44 -92 -152 -187t-257 -150.5t-359 -55.5q-194 0 -357 50t-278.5 149.5t-173.5 230.5q-73 164 -73 354q0 214 87 406
q106 236 302 361.5t475 125.5q216 0 387.5 -88t271.5 -264q85 -151 85 -327q0 -253 -178 -450q-159 -175 -347 -175q-60 0 -97 18.5t-55 51.5q-10 22 -16 75zM593 356q0 -119 57 -185.5t130 -66.5q48 0 102.5 29.5t103.5 87t80.5 146t31.5 177.5q0 119 -58.5 184t-143.5 65
q-56 0 -105.5 -28.5t-95.5 -91t-74 -152t-28 -165.5z" />
    <glyph glyph-name="A" unicode="A" horiz-adv-x="1394" 
d="M100 -30l490 1277h182l522 -1277h-192l-149 387h-534l-140 -387h-179zM468 495h433l-134 353q-61 161 -90 265q-24 -123 -69 -244z" />
    <glyph glyph-name="B" unicode="B" horiz-adv-x="1164" 
d="M100 -30v1277h479q147 0 235 -38.5t138 -119.5t50 -168q0 -82 -44 -154.5t-135 -117.5q117 -34 179 -115.5t62 -193.5q0 -90 -38 -167t-93.5 -118.5t-139.5 -63t-206 -21.5h-487zM269 711h276q113 0 161 15q65 18 97.5 63t32.5 112q0 63 -30.5 111.5t-87 66t-194.5 17.5
h-255v-385zM269 121h318q82 0 115 5q58 11 97 35.5t65 71t26 107.5q0 72 -37 124.5t-102 74t-187 21.5h-295v-439z" />
    <glyph glyph-name="C" unicode="C" horiz-adv-x="1329" 
d="M1060 418l169 -43q-53 -208 -191 -317.5t-337 -109.5q-207 0 -336.5 84t-197 243.5t-67.5 342.5q0 200 76 348.5t217 225.5t310 77q192 0 322.5 -97.5t182.5 -274.5l-167 -39q-44 140 -128.5 203.5t-212.5 63.5q-148 0 -247 -71t-139 -189.5t-40 -246.5
q0 -162 47.5 -283.5t147.5 -182t217 -60.5q143 0 241 82t133 244z" />
    <glyph glyph-name="D" unicode="D" horiz-adv-x="1256" 
d="M100 -30v1277h440q149 0 228 -18q110 -26 187 -92q101 -85 151 -218t50 -304q0 -146 -34 -258t-87 -185.5t-116 -115.5t-152.5 -64t-205.5 -22h-461zM269 121h273q126 0 198 23t115 66q60 60 93.5 162t33.5 246q0 200 -65.5 308t-160.5 144q-68 26 -218 26h-269v-975z
" />
    <glyph glyph-name="E" unicode="E" horiz-adv-x="1155" 
d="M100 -30v1277h924v-151h-754v-390h707v-151h-707v-434h785v-151h-955z" />
    <glyph glyph-name="F" unicode="F" horiz-adv-x="1063" 
d="M100 -30v1277h863v-151h-693v-396h600v-150h-600v-580h-170z" />
    <glyph glyph-name="G" unicode="G" horiz-adv-x="1382" 
d="M741 470v151l541 1v-475q-125 -99 -257 -149t-272 -50q-188 0 -342 80.5t-232.5 233t-78.5 341.5q0 186 78 347.5t224.5 240t337.5 78.5q139 0 251 -45t175.5 -125t96.5 -209l-152 -42q-29 98 -71.5 153.5t-122 89.5t-176.5 34q-116 0 -200.5 -35.5t-136.5 -93
t-81 -127.5q-49 -117 -49 -256q0 -171 59.5 -286t171.5 -170.5t238 -55.5q111 0 215.5 42t157.5 90v237h-375z" />
    <glyph glyph-name="H" unicode="H" horiz-adv-x="1203" 
d="M100 -30v1277h169v-525h665v525h169v-1277h-169v602h-665v-602h-169z" />
    <glyph glyph-name="I" unicode="I" horiz-adv-x="369" 
d="M100 -30v1277h169v-1277h-169z" />
    <glyph glyph-name="J" unicode="J" horiz-adv-x="906" 
d="M103 332l153 21q6 -146 55 -200t135 -54q64 0 110 29t63.5 79.5t17.5 160.5v880h169v-871q0 -160 -39 -248.5t-123 -134.5t-197 -46q-168 0 -257.5 97t-86.5 287z" />
    <glyph glyph-name="K" unicode="K" horiz-adv-x="1256" 
d="M100 -30v1277h169v-634l634 634h229l-536 -517l560 -760h-224l-454 646l-209 -203v-443h-169z" />
    <glyph glyph-name="L" unicode="L" horiz-adv-x="998" 
d="M100 -30v1277h169v-1126h629v-151h-798z" />
    <glyph glyph-name="M" unicode="M" horiz-adv-x="1419" 
d="M100 -30v1277h255l303 -905l60 -189q21 71 68 205l306 889h227v-1277h-163v1070l-370 -1070h-154l-369 1087v-1087h-163z" />
    <glyph glyph-name="N" unicode="N" horiz-adv-x="1207" 
d="M100 -30v1277h174l671 -1003v1003h162v-1277h-173l-671 1003v-1003h-163z" />
    <glyph glyph-name="O" unicode="O" horiz-adv-x="1422" 
d="M100 592q0 318 171 497.5t441 179.5q176 0 318.5 -84.5t217 -235.5t74.5 -342q0 -194 -78 -348t-222 -232.5t-311 -78.5q-181 0 -322.5 87t-215 237.5t-73.5 319.5zM274 589q0 -231 124.5 -364t311.5 -133q191 0 314.5 134.5t123.5 381.5q0 155 -53 271.5t-154.5 181
t-227.5 64.5q-179 0 -309 -123.5t-130 -412.5z" />
    <glyph glyph-name="P" unicode="P" horiz-adv-x="1175" 
d="M100 -30v1277h482q127 0 194 -12q94 -16 158 -60t102.5 -123.5t38.5 -173.5q0 -163 -104 -276t-375 -113h-327v-519h-169zM269 639h331q163 0 232 61.5t69 172.5q0 79 -40.5 136.5t-106.5 75.5q-43 11 -159 11h-326v-457z" />
    <glyph glyph-name="Q" unicode="Q" horiz-adv-x="1447" 
d="M1129 108q118 -81 218 -119l-50 -117q-137 50 -275 157q-142 -80 -314 -80q-173 0 -314 84t-217.5 235.5t-76.5 341.5t77 345t218.5 235.5t316.5 80.5q177 0 319 -84t217 -235t75 -341q0 -158 -48 -284t-146 -219zM758 324q146 -41 241 -122q149 136 149 409
q0 155 -53 271t-154 180t-227 64q-191 0 -315 -129.5t-124 -386.5q0 -249 123 -382.5t316 -133.5q90 0 170 34q-79 51 -167 73z" />
    <glyph glyph-name="R" unicode="R" horiz-adv-x="1326" 
d="M100 -30v1277h566q171 0 260 -34.5t142 -121.5t53 -192q0 -137 -88 -230t-271 -118q67 -32 102 -64q73 -68 139 -170l223 -347h-212l-169 265q-75 116 -122.5 177t-86 85t-77.5 34q-28 6 -94 6h-196v-567h-169zM269 684h364q115 0 180.5 23.5t99 76.5t33.5 115
q0 90 -65.5 148.5t-207.5 58.5h-404v-422z" />
    <glyph glyph-name="S" unicode="S" horiz-adv-x="1217" 
d="M100 380l159 14q12 -96 53.5 -157.5t128.5 -99t196 -37.5q97 0 171 28t110 78.5t36 109.5q0 61 -35 105.5t-115 75.5q-51 20 -227 62.5t-246 78.5q-93 49 -137.5 119.5t-44.5 159.5q0 96 54.5 180.5t160 128t235.5 43.5q141 0 250 -46t167 -134.5t63 -201.5l-162 -12
q-13 121 -88.5 183t-222.5 62q-153 0 -223.5 -56t-70.5 -136q0 -68 49 -113q50 -44 256 -91t283 -81q111 -52 164 -130.5t53 -181.5q0 -102 -58 -192.5t-168 -140.5t-246 -50q-174 0 -291 50.5t-183.5 152t-70.5 229.5z" />
    <glyph glyph-name="T" unicode="T" horiz-adv-x="1212" 
d="M521 -30v1126h-421v151h1012v-151h-422v-1126h-169z" />
    <glyph glyph-name="U" unicode="U" horiz-adv-x="1205" 
d="M936 1248h169v-738q0 -193 -43.5 -306t-157.5 -184.5t-299 -71.5q-179 0 -293 62t-163 179t-49 321v738h169v-737q0 -167 31 -246t106 -121.5t184 -42.5q187 0 266.5 84.5t79.5 325.5v737z" />
    <glyph glyph-name="V" unicode="V" horiz-adv-x="1370" 
d="M596 -30l-496 1277h184l332 -928q40 -111 67 -209q29 104 69 209l345 928h173l-501 -1277h-173z" />
    <glyph glyph-name="W" unicode="W" horiz-adv-x="1842" 
d="M439 -30l-339 1277h173l194 -837q32 -132 55 -262q48 205 57 236l243 863h204l183 -646q69 -241 99 -453q25 122 64 278l201 821h169l-350 -1277h-162l-270 973q-34 122 -40 150q-20 -88 -38 -150l-271 -973h-172z" />
    <glyph glyph-name="X" unicode="X" horiz-adv-x="1372" 
d="M100 -30l495 665l-436 612h201l233 -327q72 -102 102 -158q42 71 101 146l257 339h184l-449 -602l484 -675h-209l-321 455q-28 39 -57 85q-42 -69 -61 -95l-320 -445h-204z" />
    <glyph glyph-name="Y" unicode="Y" horiz-adv-x="1372" 
d="M593 -30v540l-493 737h206l252 -385q69 -108 129 -216q58 101 140 226l247 375h198l-510 -737v-540h-169z" />
    <glyph glyph-name="Z" unicode="Z" horiz-adv-x="1210" 
d="M100 -30v156l654 819q70 87 133 151h-713v151h915v-151l-717 -886l-78 -89h816v-151h-1010z" />
    <glyph glyph-name="bracketleft" unicode="[" horiz-adv-x="546" 
d="M100 -377v1633h346v-130h-189v-1373h189v-130h-346z" />
    <glyph glyph-name="backslash" unicode="\" horiz-adv-x="696" 
d="M471 -52l-371 1321h126l370 -1321h-125z" />
    <glyph glyph-name="bracketright" unicode="]" horiz-adv-x="546" 
d="M446 -377h-346v130h189v1373h-189v130h346v-1633z" />
    <glyph glyph-name="asciicircum" unicode="^" horiz-adv-x="944" 
d="M261 556h-161l308 699h126l310 -699h-158l-215 520z" />
    <glyph glyph-name="underscore" unicode="_" horiz-adv-x="1241" 
d="M100 -341v114h1041v-114h-1041z" />
    <glyph glyph-name="grave" unicode="`" horiz-adv-x="528" 
d="M428 985h-126l-202 245h210z" />
    <glyph glyph-name="a" unicode="a" horiz-adv-x="1052" 
d="M757 92q-87 -74 -167.5 -104.5t-172.5 -30.5q-154 0 -235.5 74.5t-81.5 190.5q0 68 31 124t81 90t113 52q47 12 139 23q190 23 280 54q1 32 1 41q0 96 -45 135q-60 54 -178 54q-110 0 -163.5 -39t-78.5 -138l-153 21q21 99 69 159.5t138.5 93t210.5 32.5q119 0 193 -28
t108.5 -70t48.5 -107q8 -40 8 -144v-210q0 -218 10 -275.5t39 -111.5h-164q-24 48 -31 114zM744 442q-85 -35 -256 -59q-96 -13 -136.5 -30.5t-62 -51t-21.5 -74.5q0 -63 47 -105t139 -42q91 0 161.5 40t103.5 108q25 53 25 157v57z" />
    <glyph glyph-name="b" unicode="b" horiz-adv-x="1003" 
d="M246 -30h-146v1278h157v-456q99 124 253 124q87 0 163 -34t125 -96.5t77 -150t28 -188.5q0 -239 -117.5 -368.5t-282.5 -129.5q-164 0 -257 137v-116zM244 439q0 -165 45 -240q74 -121 200 -121q103 0 178 89.5t75 266.5q0 181 -71.5 267.5t-173.5 86.5q-103 0 -178 -90
t-75 -259z" />
    <glyph glyph-name="c" unicode="c" horiz-adv-x="1006" 
d="M752 317l154 -20q-25 -159 -129 -249.5t-256 -90.5q-190 0 -305.5 124.5t-115.5 355.5q0 150 50 262.5t151 168.5t221 56q151 0 246.5 -76t122.5 -216l-152 -24q-22 93 -77 140.5t-134 47.5q-118 0 -192.5 -85t-74.5 -269q0 -187 71.5 -271.5t187.5 -84.5q92 0 154 57
t78 174z" />
    <glyph glyph-name="d" unicode="d" horiz-adv-x="1003" 
d="M757 -30v117q-88 -138 -259 -138q-110 0 -203 61t-144 170.5t-51 251.5q0 139 46 251.5t138.5 172.5t207.5 60q82 0 148 -35t107 -92v459h156v-1278h-146zM262 432q0 -177 74.5 -265.5t177.5 -88.5q102 0 173.5 84t71.5 256q0 190 -73 279.5t-180 89.5
q-105 0 -174.5 -85.5t-69.5 -269.5z" />
    <glyph glyph-name="e" unicode="e" horiz-adv-x="1053" 
d="M786 276l162 -20q-39 -143 -142.5 -221t-264.5 -78q-203 0 -322 125t-119 351q0 234 120 362.5t312 128.5q186 0 303.5 -126t117.5 -356q0 -14 -1 -41h-690q9 -153 86.5 -234t193.5 -81q86 0 147 45t97 145zM271 529h516q-10 118 -58 176q-76 91 -195 91
q-108 0 -182 -72.5t-81 -194.5z" />
    <glyph glyph-name="f" unicode="f" horiz-adv-x="741" 
d="M239 -31v803h-139v123h139v98q0 93 17 138q22 61 79 99.5t160 38.5q66 0 146 -16l-23 -137q-50 9 -93 9q-71 0 -101 -30.5t-30 -114.5v-85h181v-123h-181v-803h-155z" />
    <glyph glyph-name="g" unicode="g" horiz-adv-x="1015" 
d="M131 -90l152 -23q10 -71 54 -103q58 -43 158 -43q110 0 169 43.5t80 122.5q13 47 12 200q-103 -121 -256 -121q-191 0 -295.5 138t-104.5 331q0 132 47.5 244t139 172.5t214.5 60.5q163 0 270 -132v113h144v-801q0 -216 -44 -306t-139.5 -142.5t-235.5 -52.5
q-164 0 -266.5 74.5t-98.5 224.5zM260 466q0 -182 72.5 -265.5t181.5 -83.5q108 0 181 83t73 261q0 169 -75 255.5t-182 86.5q-104 0 -177.5 -85t-73.5 -252z" />
    <glyph glyph-name="h" unicode="h" horiz-adv-x="954" 
d="M100 -30v1277h156v-458q111 127 278 127q103 0 179 -40.5t108.5 -112t32.5 -206.5v-587h-157v587q0 117 -50.5 170.5t-144.5 53.5q-70 0 -131.5 -36t-88 -98t-26.5 -171v-506h-156z" />
    <glyph glyph-name="i" unicode="i" horiz-adv-x="357" 
d="M100 1067v180h157v-180h-157zM100 -30v926h157v-926h-157z" />
    <glyph glyph-name="j" unicode="j" horiz-adv-x="555" 
d="M298 1074v182h157v-182h-157zM100 -381l29 134q47 -13 74 -13q48 0 71.5 32t23.5 159v974h157v-977q0 -171 -45 -238q-56 -87 -188 -87q-64 0 -122 16z" />
    <glyph glyph-name="k" unicode="k" horiz-adv-x="966" 
d="M100 -30v1277h156v-728l372 377h203l-354 -345l389 -581h-193l-306 473l-111 -107v-366h-156z" />
    <glyph glyph-name="l" unicode="l" horiz-adv-x="357" 
d="M100 -30v1277h157v-1277h-157z" />
    <glyph glyph-name="m" unicode="m" horiz-adv-x="1455" 
d="M100 -23v927h141v-131q43 69 115.5 110t164.5 41q103 0 168.5 -43t93.5 -119q110 162 285 162q138 0 212.5 -76.5t74.5 -234.5v-636h-157v583q0 95 -15 136.5t-55 66.5t-94 25q-98 0 -162.5 -65t-64.5 -208v-538h-157v602q0 104 -38 156.5t-125 52.5q-67 0 -123 -34.5
t-81.5 -102t-25.5 -194.5v-480h-157z" />
    <glyph glyph-name="n" unicode="n" horiz-adv-x="952" 
d="M100 -23v927h142v-133q102 153 294 153q84 0 153.5 -30t105 -79t48.5 -116q9 -43 9 -152v-570h-157v563q0 97 -18 144t-65 75.5t-109 28.5q-101 0 -173.5 -63.5t-72.5 -241.5v-506h-157z" />
    <glyph glyph-name="o" unicode="o" horiz-adv-x="1068" 
d="M100 441q0 257 144 381q119 102 291 102q191 0 312 -125t121 -345q0 -179 -53.5 -281.5t-156 -159t-223.5 -56.5q-194 0 -314.5 124.5t-120.5 359.5zM262 441q0 -178 77.5 -266.5t195.5 -88.5q117 0 194.5 89t77.5 271q0 171 -78 260t-194 89q-118 0 -195.5 -88.5
t-77.5 -265.5z" />
    <glyph glyph-name="p" unicode="p" horiz-adv-x="1003" 
d="M100 -369v1281h143v-121q50 71 114 106t154 35q119 0 209.5 -61t136.5 -171.5t46 -244.5q0 -141 -51 -255t-148 -174.5t-204 -60.5q-79 0 -141 33t-103 83v-450h-156zM242 444q0 -179 72.5 -264.5t174.5 -85.5q105 0 180 88t75 274q0 178 -73 265.5t-174 87.5t-178 -93.5
t-77 -271.5z" />
    <glyph glyph-name="q" unicode="q" horiz-adv-x="1001" 
d="M745 -369v454q-37 -52 -102.5 -86t-140.5 -34q-165 0 -283.5 131.5t-118.5 360.5q0 140 48.5 251t140 167.5t202.5 56.5q171 0 269 -144v124h141v-1281h-156zM261 451q0 -178 75 -267.5t180 -89.5q99 0 171.5 85t72.5 258q0 185 -76 278.5t-179 93.5q-102 0 -173 -87
t-71 -271z" />
    <glyph glyph-name="r" unicode="r" horiz-adv-x="703" 
d="M100 -23v927h142v-141q53 99 99 130t101 31q79 0 161 -51l-54 -145q-57 34 -115 34q-52 0 -92.5 -31t-57.5 -86q-26 -84 -26 -182v-486h-158z" />
    <glyph glyph-name="s" unicode="s" horiz-adv-x="968" 
d="M100 254l155 24q13 -92 72.5 -142t166.5 -50q109 0 161.5 44t52.5 103q0 54 -47 84q-32 21 -160 54q-172 43 -239 75t-101.5 88t-34.5 123q0 62 28.5 115t77.5 88q36 27 99.5 45.5t135.5 18.5q109 0 191 -31t121.5 -84.5t54.5 -143.5l-154 -21q-10 71 -60 111.5
t-141 40.5q-108 0 -154.5 -35.5t-46.5 -84.5q0 -30 19 -54q19 -26 60 -42q24 -10 139 -40q166 -45 232 -73.5t103 -82.5t37 -134q0 -79 -45.5 -148t-131.5 -107t-195 -38q-181 0 -275.5 75t-120.5 222z" />
    <glyph glyph-name="t" unicode="t" horiz-adv-x="652" 
d="M529 111l23 -138q-66 -15 -119 -15q-85 0 -132 27.5t-66.5 71.5t-19.5 184v533h-115v123h115v229l156 94v-323h158v-123h-158v-541q0 -67 8.5 -86.5t27.5 -30.5t53 -11q27 0 69 6z" />
    <glyph glyph-name="u" unicode="u" horiz-adv-x="950" 
d="M710 -22v136q-108 -157 -294 -157q-82 0 -152.5 31.5t-105.5 79t-48 116.5q-10 46 -10 146v575h157v-514q0 -123 9 -166q15 -62 63 -97t119 -35q70 0 132 36t87.5 98t25.5 181v497h157v-927h-140z" />
    <glyph glyph-name="v" unicode="v" horiz-adv-x="1048" 
d="M452 -22l-352 926h165l199 -554q32 -91 59 -187q21 73 59 176l206 565h160l-351 -926h-145z" />
    <glyph glyph-name="w" unicode="w" horiz-adv-x="1469" 
d="M383 -22l-283 926h161l149 -534l54 -200q3 16 48 191l147 543h161l139 -538l46 -176l53 179l159 535h152l-289 -926h-162l-148 554l-36 158l-187 -712h-164z" />
    <glyph glyph-name="x" unicode="x" horiz-adv-x="1068" 
d="M100 -22l339 481l-312 445h195l143 -217q40 -62 64 -104q39 57 70 102l157 219h186l-319 -436l345 -490h-194l-190 288l-50 77l-244 -365h-190z" />
    <glyph glyph-name="y" unicode="y" horiz-adv-x="1048" 
d="M182 -370l-17 148q51 -15 89 -15q53 0 84.5 18t51.5 49q14 24 48 117q4 13 14 38l-352 928h169l193 -537q38 -101 67 -214q28 108 64 211l199 540h156l-352 -942q-56 -152 -88 -210q-42 -78 -96 -114t-128 -36q-46 0 -102 19z" />
    <glyph glyph-name="z" unicode="z" horiz-adv-x="1019" 
d="M100 -22v127l590 676q-100 -5 -177 -5h-378v128h757v-104l-501 -588l-97 -107q106 8 198 8h427v-135h-819z" />
    <glyph glyph-name="braceleft" unicode="{" horiz-adv-x="705" 
d="M100 511q67 2 109.5 36.5t56.5 94.5t15 205.5t5 192.5q8 73 29 117t52.5 71t81.5 40q32 10 107 10h49v-138h-27q-91 0 -120.5 -32.5t-29.5 -145.5q0 -228 -10 -289q-16 -92 -53.5 -143t-118.5 -90q95 -40 138.5 -122.5t43.5 -270.5q0 -169 4 -201q6 -60 34.5 -83
t111.5 -23h27v-138h-49q-85 0 -123 15q-57 20 -93 64.5t-47 113.5t-12 225.5t-15 217t-56.5 95.5t-109.5 37v141z" />
    <glyph glyph-name="bar" unicode="|" horiz-adv-x="336" 
d="M100 -398v1676h136v-1676h-136z" />
    <glyph glyph-name="braceright" unicode="}" horiz-adv-x="705" 
d="M605 511v-141q-67 -2 -109.5 -37t-56.5 -94.5t-15 -205t-5 -192.5q-8 -74 -29 -118t-52.5 -70.5t-81.5 -40.5q-32 -10 -108 -10h-48v138h27q91 0 120.5 32.5t29.5 146.5q0 218 8 276q13 97 55 154.5t119 90.5q-100 48 -141 127t-41 266q0 170 -5 203q-5 58 -33.5 81
t-111.5 23h-27v138h48q86 0 124 -15q56 -19 92.5 -64t47.5 -114t12 -226t15 -216.5t56.5 -94.5t109.5 -37z" />
    <glyph glyph-name="asciitilde" unicode="~" horiz-adv-x="1091" 
d="M100 455v180q92 104 242 104q53 0 110 -15.5t164 -60.5q60 -25 90 -33t61 -8q56 0 117 34t107 86v-185q-55 -52 -112 -76t-129 -24q-52 0 -99.5 12t-151 58.5t-171.5 46.5q-56 0 -105.5 -23.5t-122.5 -95.5z" />
    <glyph glyph-name="uni00A0" unicode="&#xa0;" horiz-adv-x="472" 
 />
    <glyph glyph-name="exclamdown" unicode="&#xa1;" horiz-adv-x="395" 
d="M287 912v-179h-180v179h180zM246 594l49 -677v-282h-195v282l46 677h100z" />
    <glyph glyph-name="cent" unicode="&#xa2;" horiz-adv-x="1007" 
d="M655 757l-194 -668q29 -7 54 -7q90 0 156 62t81 173l155 -18q-28 -160 -135.5 -252.5t-254.5 -92.5q-42 0 -90 11l-103 -344l-97 28l100 347q-100 48 -163.5 160t-63.5 281q0 154 51 265.5t152 167t207 55.5q32 0 87 -6l99 337l96 -28l-98 -337q86 -38 132.5 -101
t64.5 -158l-153 -24q-22 98 -83 149zM563 797q-29 3 -44 3q-72 0 -134.5 -40t-93.5 -122.5t-31 -193.5q0 -114 28.5 -194t79.5 -118z" />
    <glyph glyph-name="sterling" unicode="&#xa3;" horiz-adv-x="1120" 
d="M422 675h274v-129h-247q16 -39 16 -77q0 -76 -36 -160.5t-119 -171.5q69 18 126 18q73 0 163 -22q150 -35 204 -35q64 0 166 49l51 -144q-80 -34 -124 -44.5t-88 -10.5q-36 0 -74 7q-24 4 -113 31.5t-116 32.5q-41 7 -82 7q-61 0 -132.5 -22t-129.5 -59l-61 151
q84 46 142.5 132t58.5 210q0 52 -15 108h-170v129h133q-28 98 -36 142.5t-8 87.5q0 181 134 283q109 82 262 82q157 0 259.5 -87.5t126.5 -243.5l-156 -23q-13 104 -78 164t-155 60q-98 0 -162 -62.5t-64 -150.5q0 -96 50 -252z" />
    <glyph glyph-name="currency" unicode="&#xa4;" horiz-adv-x="1056" 
d="M221 808l-121 118l100 103l121 -120q93 63 207 63q115 0 207 -63l121 120l100 -103l-120 -118q62 -97 62 -205q0 -110 -62 -206l120 -118l-100 -104l-121 121q-92 -63 -207 -63q-114 0 -207 63l-121 -121l-100 104l121 118q-62 96 -62 206q0 108 62 205zM301 603
q0 -94 66 -160.5t160 -66.5q93 0 159.5 66.5t66.5 160.5q0 92 -66 159t-160 67t-160 -67t-66 -159z" />
    <glyph glyph-name="yen" unicode="&#xa5;" horiz-adv-x="1190" 
d="M518 -30v283h-362v121h362v125h-362v129h298l-354 619h175l252 -449q43 -77 66 -134q20 46 71 141l240 442h186l-353 -619h297v-129h-359v-125h359v-121h-359v-283h-157z" />
    <glyph glyph-name="brokenbar" unicode="&#xa6;" horiz-adv-x="336" 
d="M236 1278v-689h-136v689h136zM236 292v-690h-136v690h136z" />
    <glyph glyph-name="section" unicode="&#xa7;" horiz-adv-x="1040" 
d="M155 -83l157 22q24 -112 77 -158.5t146 -46.5q88 0 138.5 46t50.5 107q0 44 -32 82q-54 65 -296 213q-129 79 -180 124t-83.5 106t-32.5 128q0 83 52.5 151t143.5 94q-62 60 -87 110t-25 107q0 112 87 194t231 82q163 0 254.5 -78t109.5 -225l-162 -16q-19 106 -65 148
t-123 42q-80 0 -129.5 -43t-49.5 -96q0 -45 32 -84q48 -59 266 -191q137 -84 185 -124q62 -51 91 -107.5t29 -121.5q0 -98 -63 -168q-37 -40 -134 -81q69 -53 103.5 -114t34.5 -130q0 -78 -43.5 -146t-125.5 -104.5t-177 -36.5q-166 0 -264 83.5t-116 231.5zM664 191
q65 33 96.5 77t31.5 86q0 49 -45 104q-46 55 -197 148q-118 72 -177 120q-70 -40 -100 -80t-30 -89q0 -55 40 -104q40 -51 180 -134q117 -68 201 -128z" />
    <glyph glyph-name="dieresis" unicode="&#xa8;" horiz-adv-x="689" 
d="M100 1050v178h164v-178h-164zM425 1050v178h164v-178h-164z" />
    <glyph glyph-name="copyright" unicode="&#xa9;" horiz-adv-x="1515" 
d="M758 1269q166 0 323.5 -85t245.5 -243.5t88 -329.5q0 -170 -86.5 -327t-243 -243.5t-327.5 -86.5q-170 0 -326.5 86.5t-244 243.5t-87.5 327q0 171 88.5 329.5t246 243.5t323.5 85zM758 1160q-139 0 -270 -71t-205 -203t-74 -275q0 -142 73 -272.5t203.5 -203
t272.5 -72.5q143 0 273.5 72.5t202.5 203t72 272.5q0 143 -73.5 275t-205 203t-269.5 71zM969 505l107 -32q-26 -109 -111 -174t-206 -65q-153 0 -249 100t-96 275q0 115 43.5 200t124 128.5t184.5 43.5q116 0 192.5 -56t105.5 -150l-104 -25q-27 64 -77.5 98.5t-120.5 34.5
q-100 0 -165 -71.5t-65 -204.5q0 -134 61.5 -202.5t159.5 -68.5q79 0 138 45.5t78 123.5z" />
    <glyph glyph-name="ordfeminine" unicode="&#xaa;" horiz-adv-x="785" 
d="M537 697q-106 -93 -224 -93q-97 0 -155 53.5t-58 137.5q0 42 14 73.5t41.5 55.5t70.5 39q31 9 87 19l128 18q62 13 83 18q-1 61 -12 81.5t-42 36.5t-82 16q-70 0 -103.5 -28.5t-41.5 -81.5l-120 30q11 78 77.5 129.5t189.5 51.5q143 0 201 -53q59 -54 59 -158v-209
l-1 -53q0 -117 36 -161h-129q-17 35 -19 78zM523 915q-46 -11 -167 -30q-78 -13 -102 -35t-24 -55q0 -36 29.5 -61t84.5 -25q63 0 110 34t63 83q6 18 6 89z" />
    <glyph glyph-name="guillemotleft" unicode="&#xab;" horiz-adv-x="948" 
d="M280 438l225 -397h-127l-278 397l278 398h130zM617 438l231 -397h-134l-272 397l272 398h134z" />
    <glyph glyph-name="logicalnot" unicode="&#xac;" horiz-adv-x="1043" 
d="M943 339h-148v383h-695v146h843v-529z" />
    <glyph glyph-name="uni00AD" unicode="&#xad;" horiz-adv-x="681" 
d="M100 361v158h481v-158h-481z" />
    <glyph glyph-name="registered" unicode="&#xae;" horiz-adv-x="1515" 
d="M758 1269q166 0 323.5 -85t245.5 -243.5t88 -329.5q0 -170 -86.5 -327t-243 -243.5t-327.5 -86.5q-170 0 -326.5 86.5t-244 243.5t-87.5 327q0 171 88.5 329.5t246 243.5t323.5 85zM758 1160q-139 0 -270 -71t-205 -203t-74 -275q0 -142 73 -272.5t203.5 -203
t272.5 -72.5q143 0 273.5 72.5t202.5 203t72 272.5q0 143 -73.5 275t-205 203t-269.5 71zM469 248v707h244q125 0 180.5 -20t88.5 -68.5t33 -103.5q0 -77 -55 -134.5t-147 -64.5q37 -16 61 -38q42 -41 103 -140l88 -138h-140l-63 111q-75 131 -120 165q-31 24 -91 24h-67
v-300h-115zM584 646h138q100 0 136.5 29.5t36.5 78.5q0 31 -18 56t-48.5 37.5t-114.5 12.5h-130v-214z" />
    <glyph glyph-name="macron" unicode="&#xaf;" horiz-adv-x="1241" 
d="M100 1297v113h1041v-113h-1041z" />
    <glyph glyph-name="degree" unicode="&#xb0;" horiz-adv-x="685" 
d="M100 1008q0 100 71.5 171t170.5 71q101 0 172 -71t71 -171q0 -101 -71 -172t-172 -71q-99 0 -170.5 70.5t-71.5 172.5zM196 1008q0 -61 43 -104.5t104 -43.5q60 0 103 43.5t43 104.5t-43 104t-103 43q-61 0 -104 -43t-43 -104z" />
    <glyph glyph-name="plusminus" unicode="&#xb1;" horiz-adv-x="1043" 
d="M447 201v351h-347v146h347v347h149v-347h347v-146h-347v-351h-149zM943 -26h-843v146h843v-146z" />
    <glyph glyph-name="twosuperior" unicode="&#xb2;" horiz-adv-x="743" 
d="M100 592q5 51 41 100q55 75 180.5 166t149.5 118q31 35 31 73q0 41 -30.5 68.5t-88.5 27.5t-86.5 -20.5t-46.5 -79.5l-132 15q25 96 87.5 142t179.5 46q132 0 193.5 -51.5t61.5 -126.5q0 -72 -52 -138q-40 -49 -179 -150q-72 -52 -103 -84h337v-106h-543z" />
    <glyph glyph-name="threesuperior" unicode="&#xb3;" horiz-adv-x="735" 
d="M100 764l128 14q17 -53 46 -72q36 -26 88 -26q62 0 99.5 33.5t37.5 81.5q0 44 -31.5 70t-106.5 26q-11 0 -30 -1q-11 -1 -19 -1l19 95q72 -1 104.5 25.5t32.5 64.5q0 32 -26.5 54.5t-77.5 22.5q-48 0 -76 -19.5t-48 -69.5l-124 20q36 92 90 129t159 37q125 0 182 -47
t57 -116q0 -48 -31 -85.5t-88 -53.5q77 -19 113.5 -63.5t36.5 -103.5q0 -81 -69 -141t-196 -60q-122 0 -186.5 48.5t-83.5 137.5z" />
    <glyph glyph-name="acute" unicode="&#xb4;" horiz-adv-x="523" 
d="M100 985l117 245h206l-192 -245h-131z" />
    <glyph glyph-name="mu" unicode="&#xb5;" horiz-adv-x="948" 
d="M848 912v-926h-141v111q-45 -71 -89 -97q-61 -36 -142 -36q-72 0 -128 30q-42 21 -92 86v-449h-156v1281h156v-392q0 -213 22.5 -276.5t73.5 -100t117 -36.5q69 0 124 38.5t77.5 99t22.5 273.5v394h155z" />
    <glyph glyph-name="mu" unicode="&#x3bc;" horiz-adv-x="948" 
d="M848 912v-926h-141v111q-45 -71 -89 -97q-61 -36 -142 -36q-72 0 -128 30q-42 21 -92 86v-449h-156v1281h156v-392q0 -213 22.5 -276.5t73.5 -100t117 -36.5q69 0 124 38.5t77.5 99t22.5 273.5v394h155z" />
    <glyph glyph-name="paragraph" unicode="&#xb6;" horiz-adv-x="1164" 
d="M452 -377v912q-163 8 -257.5 105t-94.5 248q0 168 105 268t307 100h552v-151h-126v-1482h-148v1482h-194v-1482h-144z" />
    <glyph glyph-name="periodcentered" unicode="&#xb7;" horiz-adv-x="378" 
d="M100 525v178h178v-178h-178z" />
    <glyph glyph-name="periodcentered" unicode="&#x2219;" horiz-adv-x="378" 
d="M100 525v178h178v-178h-178z" />
    <glyph glyph-name="cedilla" unicode="&#xb8;" horiz-adv-x="577" 
d="M195 -126l45 154h117l-29 -93q74 -9 111.5 -46t37.5 -82q0 -65 -62.5 -115t-189.5 -50q-71 0 -125 9l9 103q56 -4 82 -4q82 0 116 23q25 17 25 43q0 15 -10 27.5t-37 21t-90 9.5z" />
    <glyph glyph-name="onesuperior" unicode="&#xb9;" horiz-adv-x="522" 
d="M296 592v483q-90 -70 -196 -97v107q54 17 120 63t107 100h95v-656h-126z" />
    <glyph glyph-name="ordmasculine" unicode="&#xba;" horiz-adv-x="773" 
d="M387 1254q126 0 206 -87.5t80 -240.5t-80.5 -240.5t-205.5 -87.5q-126 0 -206.5 86t-80.5 238q0 157 80 244.5t207 87.5zM387 1137q-71 0 -114 -49.5t-43 -161.5q0 -110 44 -161t113 -51t112.5 51t43.5 165q0 106 -44 156.5t-112 50.5z" />
    <glyph glyph-name="guillemotright" unicode="&#xbb;" horiz-adv-x="948" 
d="M668 438l-228 398h130l278 -398l-278 -397h-129zM330 438l-230 398h132l273 -398l-273 -397h-132z" />
    <glyph glyph-name="onequarter" unicode="&#xbc;" horiz-adv-x="1570" 
d="M226 -79l961 1349h136l-959 -1349h-138zM296 609v483q-90 -71 -196 -98v107q54 17 120 63t107 100h95v-655h-126zM1253 -57v134h-334v107l353 414h107v-426h91v-95h-91v-134h-126zM1253 172v229l-200 -229h200z" />
    <glyph glyph-name="onehalf" unicode="&#xbd;" horiz-adv-x="1563" 
d="M205 -79l959 1349h137l-959 -1349h-137zM295 609v483q-89 -71 -195 -98v107q53 17 119 63t107 100h95v-655h-126zM921 -57q5 49 42 99q53 75 178.5 166t149.5 118q32 36 32 73q0 42 -30 68.5t-90 26.5q-58 0 -86 -20.5t-46 -78.5l-133 14q26 97 89 143t178 46
q132 0 193.5 -51.5t61.5 -125.5t-51 -139q-40 -48 -179 -150q-72 -53 -104 -83h337v-106h-542z" />
    <glyph glyph-name="threequarters" unicode="&#xbe;" horiz-adv-x="1634" 
d="M291 -79l960 1349h136l-959 -1349h-137zM100 780l128 13q17 -52 45 -71q37 -26 88 -26q62 0 100 33.5t38 81.5q0 44 -31.5 70t-105.5 26q-43 -2 -50 -2l19 95q71 -1 103.5 25.5t32.5 64.5q0 32 -26 54.5t-78 22.5q-48 0 -76 -19.5t-48 -69.5l-123 20q35 92 89 129t159 37
q125 0 182.5 -47t57.5 -116q0 -48 -31 -85.5t-89 -54.5q78 -18 114 -62.5t36 -104.5q0 -80 -68.5 -140t-195.5 -60q-122 0 -186.5 48.5t-83.5 137.5zM1317 -57v134h-333v107l352 414h108v-426h90v-95h-90v-134h-127zM1317 172v229l-200 -229h200z" />
    <glyph glyph-name="questiondown" unicode="&#xbf;" horiz-adv-x="1025" 
d="M601 913v-180h-178v180h178zM591 598q1 -29 1 -44q0 -97 -26 -164q-19 -50 -62 -102q-31 -37 -113 -108.5t-105.5 -114t-23.5 -93.5q0 -92 71.5 -161t175.5 -69q99 0 166.5 62.5t88.5 194.5l161 -17q-22 -177 -130 -273t-284 -96q-188 0 -299.5 102t-111.5 247
q0 84 39 153.5t154 171.5q77 68 100 100.5t34 74t14 136.5h150z" />
    <glyph glyph-name="Agrave" unicode="&#xc0;" horiz-adv-x="1394" 
d="M100 -38l490 1278h182l522 -1278h-192l-149 387h-534l-140 -387h-179zM468 487h433l-134 354q-61 160 -90 264q-24 -123 -69 -243zM820 1318h-126l-202 244h210z" />
    <glyph glyph-name="Aacute" unicode="&#xc1;" horiz-adv-x="1394" 
d="M100 -38l490 1278h182l522 -1278h-192l-149 387h-534l-140 -387h-179zM468 487h433l-134 354q-61 160 -90 264q-24 -123 -69 -243zM573 1318l116 244h205l-191 -244h-130z" />
    <glyph glyph-name="Acircumflex" unicode="&#xc2;" horiz-adv-x="1394" 
d="M100 -38l490 1278h182l522 -1278h-192l-149 387h-534l-140 -387h-179zM468 487h433l-134 354q-61 160 -90 264q-24 -123 -69 -243zM680 1467l-99 -149h-179l189 244h167l196 -244h-178z" />
    <glyph glyph-name="Atilde" unicode="&#xc3;" horiz-adv-x="1394" 
d="M100 -37l490 1278h182l522 -1278h-192l-149 387h-534l-140 -387h-179zM468 488h433l-134 354q-61 160 -90 264q-24 -122 -69 -243zM406 1320q-1 90 49 143q50 55 128 55q54 0 147 -47q51 -27 82 -27q28 0 42.5 15.5t20.5 60.5h114q-2 -99 -50 -148.5t-121 -49.5
q-55 0 -144 49q-59 30 -86 30q-30 0 -47 -20q-20 -21 -19 -61h-116z" />
    <glyph glyph-name="Adieresis" unicode="&#xc4;" horiz-adv-x="1394" 
d="M100 -37l490 1278h182l522 -1278h-192l-149 388h-534l-140 -388h-179zM468 488h433l-134 354q-61 161 -90 265q-24 -123 -69 -244zM432 1320v179h164v-179h-164zM757 1320v179h164v-179h-164z" />
    <glyph glyph-name="Aring" unicode="&#xc5;" horiz-adv-x="1394" 
d="M100 -37l490 1278h182l522 -1278h-192l-149 387h-534l-140 -387h-179zM468 488h433l-134 354q-61 161 -90 264q-24 -122 -69 -243zM521 1358q0 65 46.5 111t110.5 46t110.5 -47t46.5 -113q0 -67 -46.5 -113t-109.5 -46q-66 0 -112 46.5t-46 115.5zM587 1357
q0 -41 27.5 -68.5t64.5 -27.5q38 0 65.5 27.5t27.5 66.5q0 40 -27 68t-66 28q-37 0 -64.5 -27.5t-27.5 -66.5z" />
    <glyph glyph-name="AE" unicode="&#xc6;" horiz-adv-x="1886" 
d="M100 -30l614 1277h1049v-151h-643v-392h597v-151h-597v-432h666v-151h-836v368h-493l-174 -368h-183zM528 488h422v608h-126z" />
    <glyph glyph-name="Ccedilla" unicode="&#xc7;" horiz-adv-x="1329" 
d="M1060 426l169 -43q-53 -208 -191 -317.5t-337 -109.5q-207 0 -336.5 84t-197 243.5t-67.5 343.5q0 199 76 347.5t217 226t310 77.5q192 0 322.5 -98t182.5 -275l-167 -39q-44 140 -128.5 203.5t-212.5 63.5q-148 0 -247 -71t-139 -189.5t-40 -245.5q0 -163 47.5 -284.5
t147.5 -181.5t217 -60q143 0 241 81.5t133 243.5zM552 -157l45 155h116l-28 -94q73 -8 111 -45.5t38 -82.5q0 -65 -63 -115t-189 -50q-71 0 -126 10l10 103q55 -5 81 -5q82 0 116 24q25 16 25 43q0 14 -10 27t-37 21t-89 9z" />
    <glyph glyph-name="Egrave" unicode="&#xc8;" horiz-adv-x="1155" 
d="M100 -38v1278h924v-151h-754v-391h707v-150h-707v-435h785v-151h-955zM701 1318h-127l-202 244h211z" />
    <glyph glyph-name="Eacute" unicode="&#xc9;" horiz-adv-x="1155" 
d="M100 -38v1278h924v-151h-754v-391h707v-150h-707v-435h785v-151h-955zM450 1318l115 244h206l-192 -244h-129z" />
    <glyph glyph-name="Ecircumflex" unicode="&#xca;" horiz-adv-x="1155" 
d="M100 -38v1278h924v-151h-754v-391h707v-150h-707v-435h785v-151h-955zM576 1467l-99 -149h-179l188 244h168l196 -244h-179z" />
    <glyph glyph-name="Edieresis" unicode="&#xcb;" horiz-adv-x="1155" 
d="M100 -37v1278h924v-151h-754v-391h707v-150h-707v-434h785v-152h-955zM330 1320v179h164v-179h-164zM655 1320v179h163v-179h-163z" />
    <glyph glyph-name="Igrave" unicode="&#xcc;" horiz-adv-x="528" 
d="M220 -38v1278h169v-1278h-169zM428 1318h-126l-202 244h210z" />
    <glyph glyph-name="Iacute" unicode="&#xcd;" horiz-adv-x="522" 
d="M144 -38v1278h169v-1278h-169zM100 1318l116 244h206l-191 -244h-131z" />
    <glyph glyph-name="Icircumflex" unicode="&#xce;" horiz-adv-x="752" 
d="M295 -38v1278h169v-1278h-169zM378 1467l-99 -149h-179l189 244h167l196 -244h-177z" />
    <glyph glyph-name="Idieresis" unicode="&#xcf;" horiz-adv-x="690" 
d="M264 -37v1278h169v-1278h-169zM100 1320v179h164v-179h-164zM426 1320v179h164v-179h-164z" />
    <glyph glyph-name="Eth" unicode="&#xd0;" horiz-adv-x="1395" 
d="M239 -30v581h-139v115h139v581h441q148 0 227 -18q110 -26 187 -92q102 -85 151.5 -218t49.5 -304q0 -195 -61.5 -335.5t-148 -204t-198.5 -91.5q-62 -14 -187 -14h-461zM408 121h273q127 0 198.5 23t113.5 65q60 61 94 161.5t34 246.5q0 151 -33.5 240.5t-87.5 143
t-120 74.5t-203 21h-269v-430h353v-115h-353v-430z" />
    <glyph glyph-name="Ntilde" unicode="&#xd1;" horiz-adv-x="1207" 
d="M100 -37v1278h174l671 -1004v1004h162v-1278h-173l-671 1004v-1004h-163zM339 1320q-1 90 50 143q50 55 127 55q54 0 148 -47q51 -27 82 -27q27 0 42.5 15.5t20.5 60.5h113q-2 -99 -49.5 -148.5t-120.5 -49.5q-56 0 -145 49q-59 30 -86 30q-29 0 -47 -20q-19 -21 -19 -61
h-116z" />
    <glyph glyph-name="Ograve" unicode="&#xd2;" horiz-adv-x="1422" 
d="M100 585q0 318 171 497.5t441 179.5q176 0 318.5 -84.5t217 -235.5t74.5 -342q0 -194 -78 -348t-222 -233t-311 -79q-181 0 -322.5 87.5t-215 238t-73.5 319.5zM274 582q0 -231 124.5 -364t311.5 -133q191 0 314.5 134.5t123.5 381.5q0 155 -53 271.5t-154.5 180.5
t-227.5 64q-179 0 -309 -123t-130 -412zM812 1319h-126l-202 244h210z" />
    <glyph glyph-name="Oacute" unicode="&#xd3;" horiz-adv-x="1422" 
d="M100 585q0 318 171 497.5t441 179.5q176 0 318.5 -84.5t217 -235.5t74.5 -342q0 -194 -78 -348t-222 -233t-311 -79q-181 0 -322.5 87.5t-215 238t-73.5 319.5zM274 582q0 -231 124.5 -364t311.5 -133q191 0 314.5 134.5t123.5 381.5q0 155 -53 271.5t-154.5 180.5
t-227.5 64q-179 0 -309 -123t-130 -412zM604 1319l115 244h206l-191 -244h-130z" />
    <glyph glyph-name="Ocircumflex" unicode="&#xd4;" horiz-adv-x="1422" 
d="M100 585q0 318 171 497.5t441 179.5q176 0 318.5 -84.5t217 -235.5t74.5 -342q0 -194 -78 -348t-222 -233t-311 -79q-181 0 -322.5 87.5t-215 238t-73.5 319.5zM274 582q0 -231 124.5 -364t311.5 -133q191 0 314.5 134.5t123.5 381.5q0 155 -53 271.5t-154.5 180.5
t-227.5 64q-179 0 -309 -123t-130 -412zM709 1467l-98 -148h-179l188 244h167l196 -244h-178z" />
    <glyph glyph-name="Otilde" unicode="&#xd5;" horiz-adv-x="1422" 
d="M100 586q0 318 171 497.5t441 179.5q176 0 318.5 -84.5t217 -235.5t74.5 -342q0 -194 -78 -348t-222 -233t-311 -79q-181 0 -322.5 87.5t-215 238t-73.5 319.5zM274 583q0 -231 124.5 -364t311.5 -133q191 0 314.5 134.5t123.5 381.5q0 155 -53 271.5t-154.5 180.5
t-227.5 64q-179 0 -309 -123t-130 -412zM420 1320q-1 90 49 144t128 54q54 0 148 -47q51 -26 81 -26q28 0 42.5 15t20.5 61h114q-2 -99 -50 -149t-121 -50q-55 0 -144 49q-59 31 -86 31q-30 0 -47 -20q-20 -21 -19 -62h-116z" />
    <glyph glyph-name="Odieresis" unicode="&#xd6;" horiz-adv-x="1422" 
d="M100 587q0 318 171 497.5t441 179.5q176 0 318.5 -84.5t217 -236t74.5 -342.5q0 -194 -78 -348t-222 -232.5t-311 -78.5q-181 0 -322.5 87t-215 238t-73.5 320zM274 583q0 -231 124.5 -363.5t311.5 -132.5q191 0 314.5 134.5t123.5 380.5q0 156 -53 272.5t-154.5 180.5
t-227.5 64q-179 0 -309 -123.5t-130 -412.5zM463 1321v178h164v-178h-164zM789 1321v178h163v-178h-163z" />
    <glyph glyph-name="multiply" unicode="&#xd7;" horiz-adv-x="959" 
d="M100 327l274 274l-274 274l107 106l273 -274l273 273l105 -105l-272 -273l273 -274l-106 -106l-273 274l-275 -275z" />
    <glyph glyph-name="Oslash" unicode="&#xd8;" horiz-adv-x="1450" 
d="M1118 1131l146 164l86 -74l-154 -172q76 -112 101 -195q36 -110 36 -246q0 -196 -79.5 -349.5t-223 -232t-304.5 -78.5q-121 0 -218 34q-75 27 -175 100l-147 -164l-86 74l154 171q-86 130 -114.5 222t-28.5 221q0 197 78 351t220 233.5t315 79.5q116 0 204 -31t190 -108
zM1013 1013q-82 64 -143.5 88t-144.5 24q-191 0 -315.5 -130t-124.5 -387q0 -101 19 -179q14 -58 59 -144zM1084 923l-648 -725q67 -55 124 -77q75 -28 161 -28q190 0 314 134t124 376q0 181 -75 320z" />
    <glyph glyph-name="Ugrave" unicode="&#xd9;" horiz-adv-x="1205" 
d="M936 1240h169v-738q0 -193 -43.5 -306t-157.5 -184.5t-299 -71.5q-179 0 -293 62t-163 179t-49 321v738h169v-737q0 -167 31 -245.5t106 -121t184 -42.5q187 0 266.5 84.5t79.5 324.5v737zM704 1319h-126l-202 244h210z" />
    <glyph glyph-name="Uacute" unicode="&#xda;" horiz-adv-x="1205" 
d="M936 1240h169v-738q0 -193 -43.5 -306t-157.5 -184.5t-299 -71.5q-179 0 -293 62t-163 179t-49 321v738h169v-737q0 -167 31 -245.5t106 -121t184 -42.5q187 0 266.5 84.5t79.5 324.5v737zM495 1319l115 244h206l-192 -244h-129z" />
    <glyph glyph-name="Ucircumflex" unicode="&#xdb;" horiz-adv-x="1205" 
d="M936 1240h169v-738q0 -193 -43.5 -306t-157.5 -184.5t-299 -71.5q-179 0 -293 62t-163 179t-49 321v738h169v-737q0 -167 31 -245.5t106 -121t184 -42.5q187 0 266.5 84.5t79.5 324.5v737zM601 1467l-99 -148h-179l188 244h168l196 -244h-179z" />
    <glyph glyph-name="Udieresis" unicode="&#xdc;" horiz-adv-x="1205" 
d="M936 1242h169v-738q0 -194 -43.5 -306.5t-157.5 -184t-299 -71.5q-179 0 -293 62t-163 179t-49 321v738h169v-737q0 -167 31 -246t106 -121.5t184 -42.5q187 0 266.5 84.5t79.5 325.5v737zM355 1321v178h164v-178h-164zM680 1321v178h165v-178h-165z" />
    <glyph glyph-name="Yacute" unicode="&#xdd;" horiz-adv-x="1372" 
d="M593 -38v541l-493 737h206l252 -386q69 -108 129 -216q58 101 140 226l247 376h198l-510 -737v-541h-169zM579 1318l115 244h206l-192 -244h-129z" />
    <glyph glyph-name="Thorn" unicode="&#xde;" horiz-adv-x="1175" 
d="M100 -30v1277h169v-259h313q127 0 195 -13q95 -16 158.5 -60.5t101.5 -123.5t38 -174q0 -162 -104 -275t-375 -113h-327v-259h-169zM269 380h331q163 0 232 61t69 171q0 79 -40 136.5t-106 75.5q-43 13 -160 13h-326v-457z" />
    <glyph glyph-name="germandbls" unicode="&#xdf;" horiz-adv-x="1100" 
d="M100 -30v870q0 160 38.5 246t129.5 134.5t203 48.5q151 0 237.5 -75.5t86.5 -174.5q0 -45 -15.5 -92t-56 -117t-51 -97.5t-10.5 -47.5q0 -29 19 -56t106 -84q119 -78 158 -125q55 -67 55 -158q0 -121 -89 -207.5t-229 -86.5q-109 0 -192 58.5t-124 151.5l136 63
q43 -81 86.5 -112.5t91.5 -31.5q66 0 113.5 45t47.5 107q0 48 -29 83q-17 23 -97 77q-145 99 -179 149t-34 101q0 35 11.5 69.5t56.5 111.5t58.5 115t13.5 68q0 54 -47 95.5t-127 41.5q-93 0 -152.5 -57.5t-59.5 -248.5v-864h-156z" />
    <glyph glyph-name="agrave" unicode="&#xe0;" horiz-adv-x="1052" 
d="M757 84q-87 -74 -167.5 -104.5t-172.5 -30.5q-154 0 -235.5 74.5t-81.5 189.5q0 69 31 125t81 90t113 52q47 12 139 23q190 23 280 54q1 32 1 41q0 96 -45 135q-60 54 -178 54q-110 0 -163.5 -39t-78.5 -138l-153 21q21 99 69 159.5t138.5 93t210.5 32.5q119 0 193 -28
t108.5 -70t48.5 -107q8 -40 8 -144v-210q0 -218 10 -276t39 -111h-164q-24 48 -31 114zM744 434q-85 -35 -256 -59q-96 -13 -136.5 -30.5t-62 -51t-21.5 -74.5q0 -63 47 -105t139 -42q91 0 161.5 40t103.5 108q25 53 25 157v57zM659 1010h-127l-201 245h210z" />
    <glyph glyph-name="aacute" unicode="&#xe1;" horiz-adv-x="1052" 
d="M757 84q-87 -74 -167.5 -104.5t-172.5 -30.5q-154 0 -235.5 74.5t-81.5 189.5q0 69 31 125t81 90t113 52q47 12 139 23q190 23 280 54q1 32 1 41q0 96 -45 135q-60 54 -178 54q-110 0 -163.5 -39t-78.5 -138l-153 21q21 99 69 159.5t138.5 93t210.5 32.5q119 0 193 -28
t108.5 -70t48.5 -107q8 -40 8 -144v-210q0 -218 10 -276t39 -111h-164q-24 48 -31 114zM744 434q-85 -35 -256 -59q-96 -13 -136.5 -30.5t-62 -51t-21.5 -74.5q0 -63 47 -105t139 -42q91 0 161.5 40t103.5 108q25 53 25 157v57zM439 1010l116 245h206l-192 -245h-130z" />
    <glyph glyph-name="acircumflex" unicode="&#xe2;" horiz-adv-x="1052" 
d="M757 84q-87 -74 -167.5 -104.5t-172.5 -30.5q-154 0 -235.5 74.5t-81.5 189.5q0 69 31 125t81 90t113 52q47 12 139 23q190 23 280 54q1 32 1 41q0 96 -45 135q-60 54 -178 54q-110 0 -163.5 -39t-78.5 -138l-153 21q21 99 69 159.5t138.5 93t210.5 32.5q119 0 193 -28
t108.5 -70t48.5 -107q8 -40 8 -144v-210q0 -218 10 -276t39 -111h-164q-24 48 -31 114zM744 434q-85 -35 -256 -59q-96 -13 -136.5 -30.5t-62 -51t-21.5 -74.5q0 -63 47 -105t139 -42q91 0 161.5 40t103.5 108q25 53 25 157v57zM529 1158l-99 -148h-179l188 245h168
l195 -245h-177z" />
    <glyph glyph-name="atilde" unicode="&#xe3;" horiz-adv-x="1052" 
d="M757 85q-87 -75 -167.5 -105.5t-172.5 -30.5q-154 0 -235.5 74.5t-81.5 190.5q0 68 31 124.5t81 90.5t113 52q47 11 139 23q190 23 280 53q1 33 1 41q0 97 -45 136q-60 53 -178 53q-110 0 -163.5 -38.5t-78.5 -137.5l-153 21q21 99 69 159t138.5 92.5t210.5 32.5
q119 0 193 -27.5t108.5 -69.5t48.5 -107q8 -40 8 -144v-210q0 -219 10 -276.5t39 -111.5h-164q-24 49 -31 115zM744 434q-85 -34 -256 -58q-96 -14 -136.5 -31.5t-62 -51t-21.5 -74.5q0 -63 47 -105t139 -42q91 0 161.5 40t103.5 108q25 54 25 158v56zM235 1033
q-1 90 49 145q51 53 129 53q53 0 147 -47q51 -26 81 -26q28 0 43 15t20 62h114q-2 -100 -50 -150t-120 -50q-56 0 -145 49q-59 32 -85 32q-31 0 -48 -21q-19 -21 -19 -62h-116z" />
    <glyph glyph-name="adieresis" unicode="&#xe4;" horiz-adv-x="1052" 
d="M757 84q-87 -74 -167.5 -104.5t-172.5 -30.5q-154 0 -235.5 74.5t-81.5 189.5q0 69 31 125t81 90t113 52q47 12 139 23q190 23 280 54q1 32 1 41q0 96 -45 135q-60 54 -178 54q-110 0 -163.5 -39t-78.5 -138l-153 21q21 99 69 159.5t138.5 93t210.5 32.5q119 0 193 -28
t108.5 -70t48.5 -107q8 -40 8 -144v-210q0 -218 10 -276t39 -111h-164q-24 48 -31 114zM744 434q-85 -35 -256 -59q-96 -13 -136.5 -30.5t-62 -51t-21.5 -74.5q0 -63 47 -105t139 -42q91 0 161.5 40t103.5 108q25 53 25 157v57zM282 1077v178h164v-178h-164zM608 1077v178
h164v-178h-164z" />
    <glyph glyph-name="aring" unicode="&#xe5;" horiz-adv-x="1052" 
d="M757 83q-87 -74 -167.5 -104.5t-172.5 -30.5q-154 0 -235.5 74.5t-81.5 190.5q0 68 31 124t81 90t113 52q47 12 139 23q190 24 280 54q1 33 1 41q0 97 -45 135q-60 54 -178 54q-110 0 -163.5 -39t-78.5 -137l-153 21q21 98 69 158.5t138.5 93t210.5 32.5q119 0 193 -28
t108.5 -70t48.5 -107q8 -40 8 -144v-210q0 -218 10 -275.5t39 -111.5h-164q-24 48 -31 114zM744 433q-85 -35 -256 -59q-96 -13 -136.5 -30.5t-62 -51t-21.5 -74.5q0 -63 47 -105t139 -42q91 0 161.5 40t103.5 108q25 53 25 157v57zM370 1136q0 63 46.5 109t109.5 46
q65 0 111 -46.5t46 -113.5t-46 -113t-110 -46q-65 0 -111 46.5t-46 117.5zM436 1135q0 -41 27 -69t65 -28t65 28t27 66q0 40 -26.5 68t-65.5 28q-38 0 -65 -28t-27 -65z" />
    <glyph glyph-name="ae" unicode="&#xe6;" horiz-adv-x="1657" 
d="M1552 261q-43 -145 -147.5 -224.5t-259.5 -79.5q-111 0 -194 42t-150 130q-91 -88 -183.5 -130t-200.5 -42q-150 0 -233.5 77t-83.5 188q0 75 43.5 140.5t121 100t246.5 56.5q130 17 219 42q1 22 1 35q0 111 -46 155t-159 44q-77 0 -129 -18.5t-76.5 -52t-41.5 -108.5
l-152 19q24 102 69.5 162t131 93.5t199.5 33.5q146 0 235 -43q51 -25 86 -81q56 61 126 92.5t171 31.5q141 0 233.5 -68t135.5 -180.5t43 -221.5q0 -17 -2 -53h-669q2 -126 31.5 -182.5t93.5 -94.5t140 -38q90 0 152.5 51.5t85.5 144.5zM886 529h509q-13 139 -79 202.5
t-172 63.5q-110 0 -180 -70t-78 -196zM732 442q-68 -29 -280 -63q-95 -15 -133 -44q-52 -42 -52 -108q0 -62 46.5 -104t134.5 -42q100 0 174.5 50t97.5 123q12 45 12 188z" />
    <glyph glyph-name="ccedilla" unicode="&#xe7;" horiz-adv-x="1006" 
d="M752 325l154 -20q-25 -160 -129 -250t-256 -90q-190 0 -305.5 124.5t-115.5 355.5q0 150 50 262t151 168.5t221 56.5q151 0 246.5 -76t122.5 -216l-152 -24q-22 93 -77 140.5t-134 47.5q-118 0 -192.5 -85t-74.5 -269q0 -187 71.5 -271.5t187.5 -84.5q92 0 154 56.5
t78 174.5zM389 -131l45 155h117l-29 -94q74 -8 111.5 -45.5t37.5 -82.5q0 -65 -62.5 -115.5t-189.5 -50.5q-71 0 -125 11l9 101q56 -3 82 -3q82 0 115 22q25 18 25 43q0 16 -10 28t-36.5 21t-89.5 10z" />
    <glyph glyph-name="egrave" unicode="&#xe8;" horiz-adv-x="1053" 
d="M786 268l162 -20q-39 -143 -142.5 -221t-264.5 -78q-203 0 -322 125t-119 351q0 234 120 362.5t312 128.5q186 0 303.5 -126t117.5 -356q0 -14 -1 -41h-690q9 -153 86.5 -234t193.5 -81q86 0 147 45t97 145zM271 521h516q-10 118 -58 175q-76 92 -195 92
q-108 0 -182 -72.5t-81 -194.5zM632 1010h-126l-202 245h210z" />
    <glyph glyph-name="eacute" unicode="&#xe9;" horiz-adv-x="1053" 
d="M786 268l162 -20q-39 -143 -142.5 -221t-264.5 -78q-203 0 -322 125t-119 351q0 234 120 362.5t312 128.5q186 0 303.5 -126t117.5 -356q0 -14 -1 -41h-690q9 -153 86.5 -234t193.5 -81q86 0 147 45t97 145zM271 521h516q-10 118 -58 175q-76 92 -195 92
q-108 0 -182 -72.5t-81 -194.5zM440 1010l115 245h206l-191 -245h-130z" />
    <glyph glyph-name="ecircumflex" unicode="&#xea;" horiz-adv-x="1053" 
d="M786 268l162 -20q-39 -143 -142.5 -221t-264.5 -78q-203 0 -322 125t-119 351q0 234 120 362.5t312 128.5q186 0 303.5 -126t117.5 -356q0 -14 -1 -41h-690q9 -153 86.5 -234t193.5 -81q86 0 147 45t97 145zM271 521h516q-10 118 -58 175q-76 92 -195 92
q-108 0 -182 -72.5t-81 -194.5zM529 1158l-99 -148h-179l188 245h168l195 -245h-177z" />
    <glyph glyph-name="edieresis" unicode="&#xeb;" horiz-adv-x="1053" 
d="M786 268l162 -20q-39 -143 -142.5 -221t-264.5 -78q-203 0 -322 125t-119 351q0 234 120 362.5t312 128.5q186 0 303.5 -126t117.5 -356q0 -14 -1 -41h-690q9 -153 86.5 -234t193.5 -81q86 0 147 45t97 145zM271 521h516q-10 118 -58 175q-76 92 -195 92
q-108 0 -182 -72.5t-81 -194.5zM282 1077v178h164v-178h-164zM607 1077v178h164v-178h-164z" />
    <glyph glyph-name="igrave" unicode="&#xec;" horiz-adv-x="528" 
d="M242 -31v926h157v-926h-157zM428 1010h-126l-202 245h210z" />
    <glyph glyph-name="iacute" unicode="&#xed;" horiz-adv-x="522" 
d="M108 -31v926h157v-926h-157zM100 1010l116 245h206l-191 -245h-131z" />
    <glyph glyph-name="icircumflex" unicode="&#xee;" horiz-adv-x="751" 
d="M287 -31v926h157v-926h-157zM378 1158l-99 -148h-179l188 245h168l195 -245h-177z" />
    <glyph glyph-name="idieresis" unicode="&#xef;" horiz-adv-x="690" 
d="M265 -31v926h158v-926h-158zM100 1076v179h165v-179h-165zM426 1076v179h164v-179h-164z" />
    <glyph glyph-name="eth" unicode="&#xf0;" horiz-adv-x="1056" 
d="M304 1248h189q63 -47 110 -89l185 89l40 -89l-150 -73q278 -320 278 -662q0 -221 -120.5 -348.5t-308.5 -127.5q-223 0 -347 169q-80 111 -80 304q0 227 112 351t281 124q51 0 89 -10.5t96 -40.5q-31 63 -55 98t-69 87l-239 -111l-39 90l208 95q-84 79 -180 144zM794 431
q0 167 -79 255.5t-194 88.5q-114 0 -188 -88.5t-74 -270.5q0 -169 76.5 -254.5t190.5 -85.5q112 0 190 90.5t78 264.5z" />
    <glyph glyph-name="ntilde" unicode="&#xf1;" horiz-adv-x="952" 
d="M100 -30v926h142v-132q102 152 294 152q84 0 153.5 -30t105 -79t48.5 -116q9 -43 9 -152v-569h-157v563q0 96 -18 143.5t-65 75.5t-109 28q-101 0 -173.5 -63.5t-72.5 -241.5v-505h-157zM210 1032q0 91 51 145q49 54 127 54q53 0 147 -47q51 -27 82 -27q28 0 42.5 15.5
t21.5 61.5h113q-3 -100 -50.5 -149.5t-120.5 -49.5q-55 0 -145 49q-58 31 -85 31q-29 0 -48 -21t-18 -62h-117z" />
    <glyph glyph-name="ograve" unicode="&#xf2;" horiz-adv-x="1068" 
d="M100 433q0 257 144 381q119 102 291 102q191 0 312 -125t121 -345q0 -179 -53.5 -281.5t-156 -159t-223.5 -56.5q-194 0 -314.5 124.5t-120.5 359.5zM262 433q0 -179 77.5 -267t195.5 -88q117 0 194.5 88.5t77.5 271.5q0 171 -78 260t-194 89q-118 0 -195.5 -88.5
t-77.5 -265.5zM640 1010h-126l-202 245h210z" />
    <glyph glyph-name="oacute" unicode="&#xf3;" horiz-adv-x="1068" 
d="M100 433q0 257 144 381q119 102 291 102q191 0 312 -125t121 -345q0 -179 -53.5 -281.5t-156 -159t-223.5 -56.5q-194 0 -314.5 124.5t-120.5 359.5zM262 433q0 -179 77.5 -267t195.5 -88q117 0 194.5 88.5t77.5 271.5q0 171 -78 260t-194 89q-118 0 -195.5 -88.5
t-77.5 -265.5zM448 1010l115 245h206l-192 -245h-129z" />
    <glyph glyph-name="ocircumflex" unicode="&#xf4;" horiz-adv-x="1068" 
d="M100 433q0 257 144 381q119 102 291 102q191 0 312 -125t121 -345q0 -179 -53.5 -281.5t-156 -159t-223.5 -56.5q-194 0 -314.5 124.5t-120.5 359.5zM262 433q0 -179 77.5 -267t195.5 -88q117 0 194.5 88.5t77.5 271.5q0 171 -78 260t-194 89q-118 0 -195.5 -88.5
t-77.5 -265.5zM536 1158l-98 -148h-179l188 245h167l196 -245h-177z" />
    <glyph glyph-name="otilde" unicode="&#xf5;" horiz-adv-x="1068" 
d="M100 433q0 258 144 382q119 101 291 101q191 0 312 -124.5t121 -345.5q0 -178 -53.5 -280.5t-156 -159.5t-223.5 -57q-194 0 -314.5 124.5t-120.5 359.5zM262 433q0 -178 77.5 -266t195.5 -88q117 0 194.5 88.5t77.5 271.5q0 171 -78 259.5t-194 88.5q-118 0 -195.5 -88
t-77.5 -266zM243 1033q-1 90 49 145q50 53 128 53q54 0 148 -47q51 -26 81 -26q28 0 42.5 15t20.5 62h114q-2 -100 -50 -150t-121 -50q-55 0 -144 49q-59 32 -86 32q-30 0 -47 -21q-20 -21 -19 -62h-116z" />
    <glyph glyph-name="odieresis" unicode="&#xf6;" horiz-adv-x="1068" 
d="M100 433q0 257 144 381q119 102 291 102q191 0 312 -125t121 -345q0 -179 -53.5 -281.5t-156 -159t-223.5 -56.5q-194 0 -314.5 124.5t-120.5 359.5zM262 433q0 -179 77.5 -267t195.5 -88q117 0 194.5 88.5t77.5 271.5q0 171 -78 260t-194 89q-118 0 -195.5 -88.5
t-77.5 -265.5zM290 1077v178h164v-178h-164zM615 1077v178h164v-178h-164z" />
    <glyph glyph-name="divide" unicode="&#xf7;" horiz-adv-x="1043" 
d="M432 773v179h178v-179h-178zM943 526h-843v147h843v-147zM432 248v179h178v-179h-178z" />
    <glyph glyph-name="oslash" unicode="&#xf8;" horiz-adv-x="1068" 
d="M789 849l86 111l84 -61l-93 -120q54 -75 74 -136q28 -87 28 -203q0 -261 -147 -384q-120 -99 -288 -99q-139 0 -245 70l-92 -118l-82 62l94 123q-51 60 -73 118q-35 96 -35 216q0 262 128.5 379t300.5 117q72 0 132 -17.5t128 -57.5zM701 734q-80 61 -167 61
q-116 0 -194 -89t-78 -265q0 -131 45 -219zM766 649l-391 -508q68 -55 154 -55q120 0 199 89t79 267q0 67 -11 116q-6 37 -30 91z" />
    <glyph glyph-name="ugrave" unicode="&#xf9;" horiz-adv-x="950" 
d="M710 -30v135q-108 -156 -294 -156q-82 0 -152.5 31.5t-105.5 78.5t-48 117q-10 46 -10 146v574h157v-513q0 -123 9 -166q15 -62 63 -97.5t119 -35.5q70 0 132 36.5t87.5 98.5t25.5 180v497h157v-926h-140zM620 1010h-126l-202 245h210z" />
    <glyph glyph-name="uacute" unicode="&#xfa;" horiz-adv-x="950" 
d="M710 -30v135q-108 -156 -294 -156q-82 0 -152.5 31.5t-105.5 78.5t-48 117q-10 46 -10 146v574h157v-513q0 -123 9 -166q15 -62 63 -97.5t119 -35.5q70 0 132 36.5t87.5 98.5t25.5 180v497h157v-926h-140zM380 1010l116 245h206l-191 -245h-131z" />
    <glyph glyph-name="ucircumflex" unicode="&#xfb;" horiz-adv-x="950" 
d="M710 -30v135q-108 -156 -294 -156q-82 0 -152.5 31.5t-105.5 78.5t-48 117q-10 46 -10 146v574h157v-513q0 -123 9 -166q15 -62 63 -97.5t119 -35.5q70 0 132 36.5t87.5 98.5t25.5 180v497h157v-926h-140zM477 1158l-99 -148h-179l189 245h167l196 -245h-178z" />
    <glyph glyph-name="udieresis" unicode="&#xfc;" horiz-adv-x="950" 
d="M710 -30v135q-108 -156 -294 -156q-82 0 -152.5 31.5t-105.5 78.5t-48 117q-10 46 -10 146v574h157v-513q0 -123 9 -166q15 -62 63 -97.5t119 -35.5q70 0 132 36.5t87.5 98.5t25.5 180v497h157v-926h-140zM230 1077v178h164v-178h-164zM556 1077v178h164v-178h-164z" />
    <glyph glyph-name="yacute" unicode="&#xfd;" horiz-adv-x="1048" 
d="M182 -379l-17 148q51 -14 89 -14q53 0 84.5 17.5t51.5 49.5q14 23 48 116q4 13 14 38l-352 928h169l193 -536q38 -102 67 -214q28 108 64 211l199 539h156l-352 -941q-56 -153 -88 -210q-42 -78 -96 -114.5t-128 -36.5q-46 0 -102 19zM438 1019l115 245h206l-192 -245
h-129z" />
    <glyph glyph-name="thorn" unicode="&#xfe;" horiz-adv-x="1003" 
d="M100 -377v1633h156v-450q64 67 113 89q62 29 142 29q119 0 209.5 -61t136.5 -171.5t46 -244.5q0 -142 -51 -255.5t-148 -174t-203 -60.5q-72 0 -134 28q-48 23 -111 89v-451h-156zM242 436q0 -179 72.5 -264.5t174.5 -85.5q105 0 180 88.5t75 273.5q0 178 -73 265.5
t-174 87.5t-178 -93.5t-77 -271.5z" />
    <glyph glyph-name="ydieresis" unicode="&#xff;" horiz-adv-x="1048" 
d="M182 -379l-17 148q51 -14 89 -14q53 0 84.5 17.5t51.5 49.5q14 23 48 116q4 13 14 38l-352 928h169l193 -536q38 -102 67 -214q28 108 64 211l199 539h156l-352 -941q-56 -153 -88 -210q-42 -78 -96 -114.5t-128 -36.5q-46 0 -102 19zM284 1085v179h163v-179h-163z
M608 1085v179h164v-179h-164z" />
    <glyph glyph-name="OE" unicode="&#x152;" horiz-adv-x="1815" 
d="M1715 121v-151h-750v184q-119 -206 -350 -206q-261 0 -397 202q-118 179 -118 460q0 280 123.5 469.5t391.5 189.5q231 0 350 -194v172h723v-151h-566v-390h522v-149h-522v-436h593zM615 1132q-88 0 -172 -56.5t-126.5 -172t-42.5 -306.5q0 -264 100.5 -388.5
t240.5 -124.5t239.5 124t99.5 410q0 267 -100 390.5t-239 123.5z" />
    <glyph glyph-name="oe" unicode="&#x153;" horiz-adv-x="1749" 
d="M881 130q-66 -86 -152.5 -129.5t-192.5 -43.5q-196 0 -316 124.5t-120 347.5q0 147 51 264t155.5 174t231.5 57q120 0 209 -50t134 -126q56 80 143.5 128t195.5 48q192 0 310.5 -131t116.5 -394h-683q2 -145 80.5 -229t194.5 -84q86 0 148.5 48.5t90.5 144.5l157 -22
q-38 -144 -140 -222t-259 -78q-116 0 -208.5 45.5t-146.5 127.5zM262 442q0 -162 62 -246q80 -110 208 -110q112 0 192.5 92.5t80.5 265.5q0 172 -79 262t-194 90q-76 0 -139.5 -43t-97 -126.5t-33.5 -184.5zM970 528h512q-11 131 -80 199.5t-172 68.5q-105 0 -177.5 -72
t-82.5 -196z" />
    <glyph glyph-name="Scaron" unicode="&#x160;" horiz-adv-x="1217" 
d="M100 373l159 14q12 -96 53.5 -157.5t128.5 -99t196 -37.5q97 0 171 28t110 78.5t36 109.5q0 61 -35 105.5t-115 75.5q-51 20 -227 62.5t-246 78.5q-93 49 -137.5 119.5t-44.5 159.5q0 96 54.5 180.5t160 128t235.5 43.5q141 0 250 -46t167 -134.5t63 -201.5l-162 -12
q-13 121 -88.5 183t-222.5 62q-153 0 -223.5 -56t-70.5 -136q0 -68 49 -113q50 -44 256 -91t283 -81q111 -52 164 -130.5t53 -181.5q0 -102 -58 -192.5t-168 -141t-246 -50.5q-174 0 -291 51t-183.5 152.5t-70.5 229.5zM591 1409l96 148h177l-195 -243h-168l-188 243h179z
" />
    <glyph glyph-name="scaron" unicode="&#x161;" horiz-adv-x="968" 
d="M100 246l155 24q13 -92 72.5 -142t166.5 -50q109 0 161.5 44t52.5 103q0 54 -47 84q-32 21 -160 54q-172 43 -239 75t-101.5 88t-34.5 123q0 62 28.5 115t77.5 88q36 27 99.5 45.5t135.5 18.5q109 0 191 -31t121.5 -84.5t54.5 -143.5l-154 -21q-10 71 -60 111.5
t-141 40.5q-108 0 -154.5 -36t-46.5 -84q0 -30 19 -54q19 -26 60 -42q24 -10 139 -40q166 -46 232 -74t103 -82t37 -134q0 -79 -45.5 -148.5t-131.5 -107t-195 -37.5q-181 0 -275.5 75t-120.5 222zM487 1106l96 149h177l-195 -245h-168l-188 245h179z" />
    <glyph glyph-name="Ydieresis" unicode="&#x178;" horiz-adv-x="1372" 
d="M593 -37v541l-493 737h206l252 -385q69 -108 129 -216q58 100 140 225l247 376h198l-510 -737v-541h-169zM441 1320v179h164v-179h-164zM766 1320v179h164v-179h-164z" />
    <glyph glyph-name="Zcaron" unicode="&#x17d;" horiz-adv-x="1210" 
d="M100 -38v156l654 819q70 88 133 152h-713v151h915v-151l-717 -887l-78 -89h816v-151h-1010zM618 1409l95 148h179l-197 -244h-167l-189 244h180z" />
    <glyph glyph-name="zcaron" unicode="&#x17e;" horiz-adv-x="1019" 
d="M100 -31v127l590 677q-100 -6 -177 -6h-378v128h757v-103l-501 -588l-97 -108q106 9 198 9h427v-136h-819zM539 1105l96 150h177l-195 -245h-168l-188 245h180z" />
    <glyph glyph-name="florin" unicode="&#x192;" horiz-adv-x="1107" 
d="M100 -375l31 135q88 -19 132 -19q47 0 72.5 24.5t40.5 107.5l154 908h-175l21 123h175l20 116q20 105 40 143q27 54 77 84.5t131 30.5q70 0 188 -33l-31 -133q-90 21 -134 21q-50 0 -74 -24t-41 -116l-17 -89h179l-22 -123h-179l-165 -951q-24 -129 -77 -178.5
t-150 -49.5q-82 0 -196 23z" />
    <glyph glyph-name="circumflex" unicode="&#x2c6;" horiz-adv-x="751" 
d="M378 1133l-99 -148h-179l188 245h167l196 -245h-177z" />
    <glyph glyph-name="tilde" unicode="&#x2dc;" horiz-adv-x="784" 
d="M101 1007q-1 90 49 145q50 54 128 54q54 0 148 -48q51 -26 81 -26q28 0 42.5 15.5t20.5 61.5h114q-2 -100 -50 -150t-121 -50q-55 0 -144 50q-59 31 -86 31q-30 0 -47 -21q-20 -21 -19 -62h-116z" />
    <glyph glyph-name="tibAa.Naro.Anusvara" unicode="&#xf00;" horiz-adv-x="1175" 
d="M1164 1703q67 -376 -200 -378h-193q-97 0 -134 -35q-27 -21 -36 -65h77v-199h-81q235 -163 363 -348q-2 320 -110 332v215h192v-980l-54 -2q-98 338 -523 632q-52 -25 -78 -60q238 -115 205 -230q-59 -134 -177 -175q-62 -20 -107 -14.5t-98 35.5q-298 154 -15 595h-73
v199h185v-199h-44q-101 -176 -88 -258q5 -85 95 -153q118 -62 178 16q67 85 -163 165q85 104 257 230h-124v199h122q-31 100 -116 117h-340v198h330q120 -12 160 -173q52 156 212 156h180q88 0 118 30q28 25 57 150h23zM595 1995q232 -7 228 -247q12 -219 -227 -227
q-161 3 -214 129q-10 24 -16.5 48t-8 51.5t3 60.5t15.5 76q20 48 78 76.5t141 32.5zM577 1845q-170 -2 -167 -93q-7 -78 171 -78q195 2 188 73q3 89 -192 98z" />
    <glyph glyph-name="tibTruncAa" unicode="&#xf01;" horiz-adv-x="1115" 
d="M122 1223h185v-194h-44q-101 -181 -88 -263q5 -85 95 -153q118 -62 178 16q67 85 -163 165q85 104 257 235h-124v194h260v-194h-81q321 -219 445 -786l-54 -2q-79 321 -523 632q-52 -25 -78 -60q238 -115 205 -230q-59 -134 -177 -175q-62 -20 -107 -14.5t-98 35.5
q-298 154 -15 600h-73v194z" />
    <glyph glyph-name="tibAchung_Shapkyu.Hon__Visarga" unicode="&#xf02;" horiz-adv-x="1640" 
d="M267 1225h675v-216q-3 -157 -117 -260q134 -27 185 -235q9 -102 44 -449h-74q-55 367 -141.5 430.5t-130 66t-186.5 -21.5l-3 210q143 40 253 20q135 184 -3 257h-434q-113 -102 -105 -210q7 -103 139 -303l-155 -192q-174 207 -157 363q7 160 210 362v178zM1331 1214
q262 -9 257 -285q13 -253 -256 -263q-181 3 -241 149q-11 28 -18.5 56t-9 59.5t3.5 69.5t18 87q23 55 88 89t158 38zM1311 1040q-191 -2 -188 -107q-8 -90 193 -90q219 2 211 85q3 103 -216 112zM1339 583q262 -9 257 -285q13 -253 -256 -263q-181 3 -241 149
q-11 28 -18.5 56t-9 59.5t3.5 69.5t18 87q23 55 88 89t158 38zM1319 409q-191 -2 -188 -107q-8 -90 193 -90q219 2 211 85q3 103 -216 112zM420 106q252 -225 390 -271q195 -81 247 -10q43 71 -138 91l76 147q62 -10 106 -30q60 -31 80 -72q33 -86 -74 -182
q-109 -91 -204 -108q-99 -20 -207 31q-98 40 -397 286z" />
    <glyph glyph-name="tibAchung_Shapkyu.Hon__XXX" unicode="&#xf03;" horiz-adv-x="1854" 
d="M864 1679q5 -95 -45 -151t-155 -62q-93 -7 -154.5 45t-63.5 133q-4 65 37 90t125 12q-37 -22 -35 -71.5t32.5 -75.5t74.5 -7.5t52.5 65t-36.5 89.5t-69 85t-24 128q7 35 17.5 66t28 55t28.5 34.5t13 10.5q4 0 4 -4q-13 -218 60.5 -268.5t90.5 -98t19 -75.5zM1273 609h445
l-36 -144h-446zM267 1225h675v-216q-3 -157 -117 -260q134 -27 185 -235q9 -102 44 -449h-74q-55 367 -141.5 430.5t-130 66t-186.5 -21.5l-3 210q143 40 253 20q135 184 -3 257h-434q-113 -102 -105 -210q7 -103 139 -303l-155 -192q-174 207 -157 363q7 160 210 362v178z
M1468 1214q262 -9 257 -285q13 -253 -256 -263q-181 3 -241 149q-11 28 -18.5 56t-9 59.5t3.5 69.5t18 87q23 55 88 89t158 38zM1448 1040q-191 -2 -188 -107q-8 -90 193 -90q219 2 211 85q3 103 -216 112zM1473 403q262 -9 257 -285q13 -253 -256 -263q-181 3 -241 149
q-11 28 -18.5 56t-9 59.5t3.5 69.5t18 87q23 55 88 89t158 38zM1453 229q-191 -2 -188 -107q-8 -90 193 -90q219 2 211 85q3 103 -216 112zM420 106q252 -225 390 -271q195 -81 247 -10q43 71 -138 91l76 147q62 -10 106 -30q60 -31 80 -72q33 -86 -74 -182
q-109 -91 -204 -108q-99 -20 -207 31q-98 40 -397 286zM356 1320l-49 25l91 160l99 -51q276 -109 401 22l45 -27q-186 -348 -552 -148z" />
    <glyph glyph-name="tibSnail" unicode="&#xf04;" horiz-adv-x="1443" 
d="M85 1191q4 28 13 32t17 3q316 -46 417.5 -183t156.5 -230q114 -109 268 -114q109 15 194.5 49t103.5 139q19 162 -256 177q-77 7 -91 -5.5t-17.5 -52t70 -51t89.5 -5t-113 -157.5q-149 25 -154 124q10 154 75.5 232t168.5 78q150 2 240.5 -62t61.5 -372
q-30 -267 -357 -282q-159 0 -274.5 67t-183.5 245.5t-137.5 244.5t-291.5 123zM516 328l107 130l195 -60q302 -81 526 113l49 -20q-247 -407 -641 -270z" />
    <glyph glyph-name="tibSnail2" unicode="&#xf05;" horiz-adv-x="843" 
d="M-58 764l6 213q92 -118 146 -176q118 -101 272 -106q109 15 194.5 49t103.5 139q19 162 -256 177q-77 7 -91 -5.5t-17.5 -52t70 -51t89.5 -5t-113 -157.5q-149 25 -154 124q10 154 75.5 232t168.5 78q150 2 240.5 -62t61.5 -372q-30 -267 -357 -282q-159 0 -288.5 100.5
t-150.5 156.5zM-22 301l-41 233l157 -94q390 -109 614 85l49 -20q-247 -407 -641 -270z" />
    <glyph glyph-name="tibSnailShey" unicode="&#xf06;" horiz-adv-x="1391" 
d="M11 1191q4 28 13 32t17 3q316 -46 417.5 -183t156.5 -230q114 -109 268 -114q109 15 194.5 49t103.5 139q19 162 -256 177q-77 7 -91 -5.5t-17.5 -52t70 -51t89.5 -5t-113 -157.5q-149 25 -154 124q10 154 75.5 232t168.5 78q150 2 240.5 -62t61.5 -372
q-30 -267 -357 -282q-159 0 -274.5 67t-183.5 245.5t-137.5 244.5t-291.5 123zM433 380l107 130l195 -60q302 -81 526 113l49 -20q-247 -407 -641 -270zM944 205v-673h-64q0 215 -33.5 327.5t-162.5 145.5l38 200h222z" />
    <glyph glyph-name="tibSnailShey2" unicode="&#xf07;" horiz-adv-x="2136" 
d="M1461 1175v-665l-97 43v665zM1865 1070q-13 -140 -154 -153q-140 13 -153 153q13 138 153 151q141 -13 154 -151zM1833 651q-13 -140 -154 -153q-140 13 -153 153q13 141 153 153q141 -12 154 -153zM11 1191q4 28 13 32t17 3q316 -46 417.5 -183t156.5 -230
q114 -109 268 -114q112 4 196 43.5t102 144.5q19 162 -256 177q-77 7 -91 -5.5t-17.5 -52t70 -51t89.5 -5t-113 -157.5q-149 25 -154 124q10 154 75.5 232t168.5 78q150 2 240.5 -62t61.5 -372q-30 -267 -357 -282q-159 0 -274.5 67t-183.5 245.5t-137.5 244.5t-291.5 123z
M2024 1176v-665l-97 43v665z" />
    <glyph glyph-name="tibPalmTree" unicode="&#xf08;" horiz-adv-x="1061" 
d="M685 1201q-9 -91 -58.5 -133.5t-125.5 -77.5q55 0 106.5 -0.5t102.5 -0.5q58 -5 71 4t35 28q11 14 17.5 43.5t4.5 88.5l-13 166l199 86l1 -140q17 -225 -97 -316q-88 -74 -169 -103.5t-203 -22.5l-280 14l121 117q126 125 126 184q0 60 -37 93.5t-100 33.5
q-174 0 -143 -220l-216 -96q9 198 105 300q54 55 135 87q103 20 202 20q106 0 146 -32q75 -28 70 -123zM316 763q202 7 263 -163q61 169 263 162h40l55 2l3 -211l-111 -2q-165 0 -210 -135q72 82 214 77h40l55 2l3 -211l-111 -2q-154 0 -203 -117v-654q0 -6 -88 -2v654
q-47 126 -206 126l-111 2l3 211l55 -2h40q163 5 234 -105q-37 157 -215 157l-111 2l3 211l55 -2h40zM549 124l6 16l-13 1q4 -9 7 -17z" />
    <glyph glyph-name="tibBhutanMark1" unicode="&#xf09;" horiz-adv-x="1165" 
d="M835 1055q103 -120 64 -273q-14 -76 -199 -193q321 -15 348 -466l-59 -3q-87 228 -316 228l-423 -13l4 242l268 10q68 41 118 89q27 48 36 93q12 98 -19 154q-68 125 -166 175q-63 30 -114 1q-85 -69 74 -275l-209 -91q-71 134 -69 215q-2 85 70 155q299 245 545 5z
M617 188q361 13 387 -467l-60 -2q-83 227 -313 227l-422 -13l3 243l359 12h46z" />
    <glyph glyph-name="tibBhutanMark2" unicode="&#xf0a;" horiz-adv-x="1697" 
d="M1615 -465q0 -106 -76 -106q-327 15 -601 114t-473.5 265t-309.5 404.5t-110 538.5q0 668 962 836q47 4 92.5 8.5t93 6.5t102.5 4.5t119 2.5q39 0 74.5 -2.5t66 -10t52 -22.5t27.5 -43q7 -69 -39 -71q-45 2 -90 2h-82q-1229 0 -1229 -742q0 -241 86 -437t233 -340.5
t345 -234t427 -113.5q34 -9 64.5 -11t56.5 -2q56 0 75 15t19 37v28q0 15 6.5 30t32.5 17q26 0 42 -22.5t24 -49.5t9 -56t1 -46zM1182 1066q103 -120 64 -273q-14 -76 -199 -193q321 -15 348 -466l-59 -3q-87 228 -316 228l-423 -13l4 242l268 10q68 41 118 89q27 48 36 93
q12 98 -19 154q-68 125 -166 175q-63 30 -114 1q-85 -69 74 -275l-209 -91q-71 134 -69 215q-2 85 70 155q299 245 545 5zM964 199q361 13 387 -467l-60 -2q-83 227 -313 227l-422 -13l3 243l359 12h46z" />
    <glyph glyph-name="tibTsek" unicode="&#xf0b;" horiz-adv-x="388" 
d="M105 1223h193v-415h-67q-26 152 -145 192z" />
    <glyph glyph-name="tibNBTsek" unicode="&#xf0c;" horiz-adv-x="388" 
d="M105 1223h193v-415h-67q-26 152 -145 192z" />
    <glyph glyph-name="tibShey" unicode="&#xf0d;" horiz-adv-x="397" 
d="M292 1224v-1576h-64q0 723 -41 1018q-34 296 -155 358l38 200h222z" />
    <glyph glyph-name="tibSheyShey" unicode="&#xf0e;" horiz-adv-x="970" 
d="M292 1224v-1576h-64q0 723 -41 1018q-34 296 -155 358l38 200h222zM820 1224v-1576h-64q0 723 -41 1018q-34 296 -155 358l38 200h222z" />
    <glyph glyph-name="tibTsekShey" unicode="&#xf0f;" horiz-adv-x="399" 
d="M299 764v-1114h-64q0 261 -41 556q-34 296 -155 358l38 200h222z" />
    <glyph glyph-name="tibTsekTsekShey" unicode="&#xf10;" horiz-adv-x="388" 
d="M309 610v-960h-64q0 215 -40 548q-27 179 -156 212l38 200h222zM105 1223h193v-261h-67q-26 57 -142 66zM99 923h193v-261h-67q-26 57 -142 66z" />
    <glyph glyph-name="tibTsekTsekTsekShey" unicode="&#xf11;" horiz-adv-x="675" 
d="M477 622v-960h-64q0 215 -40 548q-27 179 -156 212l38 200h222zM105 1223h193v-261h-67q-26 57 -142 66zM273 928h193v-261h-67q-26 57 -142 66zM377 1223h193v-261h-67q-26 57 -142 66z" />
    <glyph glyph-name="tibElaboratePlusShey" unicode="&#xf12;" horiz-adv-x="2988" 
d="M1812 770q0 -41 -11.5 -73.5t-30 -54t-40 -33.5t-45.5 -12q-45 0 -100 26t-126 95q-30 24 -67 43.5t-60 19.5q-26 0 -44.5 -6.5t-33.5 -24t-31 -45.5t-40 -75q-7 -28 -26 -28q-22 0 -22 28q9 140 44.5 204.5t124.5 64.5q32 0 62 -9.5t55 -25.5t45.5 -32.5t37.5 -33.5
q28 -22 46.5 -38t34.5 -25.5t32 -15t40 -5.5q91 0 106 134q6 21 21 21t21.5 -24.5t6.5 -48.5v-26zM1572 608v-960h-64q0 215 -40 548q-27 179 -156 212l38 200h222zM1200 1225h193v-261h-67q-26 57 -142 66zM1472 1225h193v-261h-67q-26 57 -142 66zM1788 1225h193v-261h-67
q-26 57 -142 66zM891 1224h193v-261h-67q-26 57 -142 66zM803 1003l-160 -38q-33 129 -145 165q-217 31 -432 31v64h737v-222zM2059 1222h737v-64q-215 0 -432 -31q-112 -36 -145 -165l-160 38v222zM1157 1339l-49 25l91 160l99 -51q276 -109 401 22l45 -27
q-186 -348 -552 -148zM1665 1698q5 -95 -45 -151t-155 -62q-93 -7 -154.5 45t-63.5 133q-4 65 80 149q40 40 76 42q-9 26 -4 70q8 74 25.5 98t28.5 34.5t13 10.5q4 0 4 -4q-1 -182 79 -212t97 -77.5t19 -75.5zM1374 1693q2 -49 32.5 -75t74.5 -7.5t52.5 65t-36.5 89.5
q-21 20 -39 35q-86 -62 -84 -107z" />
    <glyph glyph-name="tibCircle4Dots" unicode="&#xf13;" horiz-adv-x="2160" 
d="M1565 242q0 -115 -35.5 -207.5t-100 -156t-156.5 -99t-204 -35.5t-204.5 35.5t-158.5 99t-100.5 156t-34.5 207.5q0 116 34.5 210t100.5 159.5t158.5 100t204.5 34.5t204 -34.5t156.5 -100t100 -159.5t35.5 -210zM1423 250q0 80 -26 146t-72.5 111t-110 70t-145.5 25
q-84 0 -150.5 -25t-113 -70t-73.5 -111t-27 -146q0 -84 27 -152t73.5 -114t113 -71t150.5 -25q82 0 145.5 25t110 71t72.5 114t26 152zM403 250q0 -73 -42 -117t-111 -44t-113 44t-44 117q-2 67 40 107t117 40q69 0 111 -40t42 -107zM2044 250q0 -73 -42 -117t-109 -44
q-74 0 -116 44t-42 117q-2 67 40 107t118 40q67 0 109 -40t42 -107zM1224 1065q0 -71 -39.5 -114t-110.5 -43q-72 0 -114 43t-46 114q0 69 42 111t118 42q71 0 110.5 -42t39.5 -111zM1224 -571q0 -71 -39.5 -114t-110.5 -43q-72 0 -114 43t-46 114q0 71 42 112t118 41
q71 0 110.5 -41t39.5 -112z" />
    <glyph glyph-name="tibCircleDashCircle" unicode="&#xf14;" horiz-adv-x="803" 
d="M614 566l-35 -168h-436l35 168h436zM383 1230q262 -9 257 -285q13 -253 -256 -263q-181 3 -241 149q-11 28 -18.5 56t-9 59.5t3.5 69.5t18 87q23 55 88 89t158 38zM363 1056q-191 -2 -188 -107q-8 -90 193 -90q219 2 211 85q3 103 -216 112zM388 270q262 -9 257 -285
q13 -253 -256 -263q-181 3 -241 149q-11 28 -18.5 56t-9 59.5t3.5 69.5t18 87q23 55 88 89t158 38zM368 96q-191 -2 -188 -107q-8 -90 193 -90q219 2 211 85q3 103 -216 112z" />
    <glyph glyph-name="tibGuillotine" unicode="&#xf15;" horiz-adv-x="1530" 
d="M1436 -788h-226q-47 0 -88 23t-79.5 61t-76 86.5t-77.5 98.5t-83.5 98.5t-93.5 86.5t-108.5 61t-128.5 23h-395v1469h1356v-2007zM473 -137q114 0 199 -36t149.5 -91.5t114 -121t93 -125.5t85.5 -105.5t92 -59.5h4q-35 86 -66 178.5t-68.5 180.5t-86 167.5t-118.5 139
t-166.5 94.5t-229.5 35h-170v108h170q146 0 257.5 -42.5t196 -114t145 -164.5t104.5 -193.5t75 -201t56 -187.5h14v1102h-1130v-563h280zM702 991v-112h-509v-338h1130v338h-510v112h510v113h-1130v-113h509zM674 651h-398v115h398v-115zM1210 651h-366v115h366v-115z" />
    <glyph glyph-name="tibBrickWall" unicode="&#xf16;" horiz-adv-x="1526" 
d="M711 626v-287h-537v-113h651v400h523v110h-1061v283h538v115h-651v-508h537zM911 933h-540v-113h1063v-280h-523v-400h-823v285h537v115h-537v680h823v-287zM1434 -116h-609v-139h609v-369h-1346v369h623v139h-623v117h1346v-117zM682 -509v141h-481v-141h481zM1319 -509
v141h-467v-141h467z" />
    <glyph glyph-name="tibFeather" unicode="&#xf17;" horiz-adv-x="1585" 
d="M262 375q-26 0 -56 -9.5t-57.5 -21.5t-48.5 -21.5t-28 -9.5q-6 0 -6 5q0 36 17.5 87.5t51 107t81 110.5t108 98.5t132.5 70.5t154 27q52 0 111 -18.5t119 -50t116.5 -72.5t102.5 -86q37 -29 72.5 -52.5t73 -41t78 -28.5t85.5 -15q10 0 10 -4q0 -5 -4 -10t-6 -5
q-20 0 -50 -3t-54 -3q-26 0 -44 -13t-40 -26q-36 -21 -72.5 -42.5t-76.5 -38t-84.5 -27t-98.5 -10.5q-105 0 -185 16t-147.5 35t-128 35t-125.5 16zM305 481q34 0 86.5 -17t118 -38t139.5 -38t150 -17q71 0 130.5 8.5t102 20t66.5 23.5t24 20q-40 13 -77 37.5t-75.5 54
t-80.5 60.5t-92 56.5t-110.5 41.5t-135.5 16q-41 0 -86 -17t-88.5 -44t-83.5 -60t-70.5 -65t-48.5 -59t-18 -42q2 0 16.5 9t36 20.5t47 20.5t49.5 9zM545 443q-22 0 -44 7t-40 21.5t-29.5 36.5t-11.5 51q0 32 12.5 54.5t32.5 36.5t45.5 20t52.5 6q51 0 78 -34.5t27 -82.5
q0 -14 -4.5 -34t-17.5 -38t-37 -31t-64 -13zM147 651q-5 0 -6.5 12.5t-1.5 30.5q0 25 3 53.5t8 51.5q6 22 18.5 44t27.5 39.5t30.5 28.5t27.5 11q4 0 6 -9t3.5 -22t2 -26.5t0.5 -22.5q0 -17 -2 -27.5t-8 -15.5q-2 -5 -10 -12t-17.5 -14t-18 -13.5t-11.5 -9.5
q-12 -10 -18 -27t-9.5 -33t-8.5 -27.5t-16 -11.5zM336 864q0 13 7 34.5t13 39.5q6 15 12.5 33t15 33.5t21 26t31.5 10.5q11 0 20 -2t9 -15q0 -20 -10 -51t-21 -57q-8 -8 -24.5 -16.5t-30.5 -20.5q-9 -6 -15 -18.5t-10 -25t-7 -21.5t-5 -9t-3.5 8t-2 18.5t-0.5 20v12.5z
M500 850q-5 0 -5.5 9.5t-0.5 17.5q0 37 8.5 69.5t19.5 67.5q13 32 33 53t51 21q2 0 7 -3t5 -10q0 -3 -5.5 -20t-13.5 -37.5t-17 -38.5t-15 -22q-6 -7 -16 -10t-16 -9q-11 -8 -15 -23t-6 -29.5t-4.5 -25t-9.5 -10.5zM1147 817q4 0 11 -0.5t14 -2.5t12.5 -6.5t5.5 -12.5
q0 -4 -14.5 -18t-32.5 -29.5t-35 -28t-23 -12.5q-11 0 -17 6t-17 6q-10 0 -15 -4t-9 -8.5t-9.5 -8.5t-16.5 -4q0 12 17 32.5t40 40.5t48 35t41 15zM844 852q4 16 16.5 42.5t31 51.5t43 43.5t52.5 18.5q8 0 10 -3t2 -10q0 -6 -9 -23t-21 -35t-25 -32.5t-20 -15.5
q-24 -6 -36 -13.5t-18.5 -14t-10.5 -11t-11 -4.5q-4 0 -4 6zM1124 645q12 9 25.5 22.5t29 26t33 21t35.5 8.5q4 0 10 -0.5t11.5 -2.5t9.5 -6t4 -11q0 -5 -13.5 -18.5t-31.5 -28t-34.5 -26t-22.5 -11.5q-8 0 -16.5 4t-16.5 4q-17 0 -28 -9.5t-21 -9.5q0 7 4 12.5t9 10t9 8
t4 6.5zM59 443q-5 0 -8 10t-5.5 25.5t-3.5 34t-1 34.5q0 18 3.5 41t9 44t12.5 35.5t14 14.5t10.5 -12t5 -29.5t1 -37.5t-0.5 -36q-2 -18 -6 -40t-8.5 -40.5t-10.5 -31t-12 -12.5zM913 774q0 5 3.5 8t5.5 5l12 12t17 16.5t17 16t11 10.5q21 17 34.5 30.5t27 23.5t31 15
t46.5 5q0 -2 1 -4.5t1 -4.5q0 -5 -10.5 -17.5t-24.5 -26.5t-28.5 -26t-22.5 -16q-5 -4 -9 -5.5t-7.5 -2t-8.5 -1.5t-12 -3q-7 -4 -18 -11.5l-22 -15t-19.5 -13t-9.5 -5.5q-15 0 -15 10zM1206 531q0 11 16 25t33 28q15 10 27 21t24 20t26 14.5t32 5.5q19 0 26 -4t7 -10
q0 -4 -12.5 -17.5t-29.5 -28.5t-34.5 -26.5t-26.5 -11.5q-12 0 -19 4t-18 4q-7 0 -13.5 -4t-12.5 -8.5t-12.5 -8t-12.5 -3.5zM618 885q0 19 8 52.5t23 66t35.5 56.5t44.5 24q6 0 6 -9q0 -10 -5.5 -28.5t-13 -38t-15 -34.5t-11.5 -17q-20 -3 -30.5 -15.5t-16.5 -27t-10 -26
t-10 -11.5q-5 0 -5 8zM1339 502q-8 0 -8 8q0 1 15.5 16t37.5 31.5t45.5 30.5t38.5 14q13 0 21 -4t8 -12q0 -9 -12.5 -23t-29 -27.5t-33.5 -23.5t-27 -10q-8 0 -15.5 2t-13.5 2t-13 -2t-14 -2zM741 877q0 19 10.5 50t26 60t33.5 50.5t33 21.5q8 -2 9 -5.5t1 -8.5
q0 -10 -6.5 -28.5t-17 -37t-24 -33t-26.5 -16.5q-5 -4 -9 -14t-7.5 -20.5t-8 -19t-10.5 -8.5q-5 0 -4.5 3.5t0.5 5.5zM479 567q0 -20 13 -34.5t36 -14.5q17 0 30 13.5t13 27.5q0 19 -12 35t-35 16q-20 0 -32.5 -12t-12.5 -31z" />
    <glyph glyph-name="tib_WireCoil" unicode="&#xf18;" horiz-adv-x="1008" 
d="M-104 -778q34 15 69 34.5t67.5 44t60 54t48.5 64.5q-20 -5 -36.5 -6t-34.5 -1q-55 0 -100 8t-77 29t-49.5 58t-17.5 96q0 37 15.5 84t41.5 84l80 110q9 13 23.5 26t32 23t37 16.5t38.5 6.5q39 0 72 -24.5t56.5 -61.5t36.5 -79t13 -77q0 -32 -9.5 -61t-14.5 -62
q34 19 74 52t77.5 71.5t69.5 79t51 74.5q-17 -2 -36 -4t-38 -2q-52 0 -96.5 8t-77 29.5t-51 58.5t-18.5 94q0 18 4.5 40.5t12 45t18 43.5t22.5 37l82 115q9 13 22.5 25.5t31 22.5t37 16t40.5 6q39 0 72 -24.5t56.5 -61t36.5 -78.5t13 -76q0 -32 -10 -62t-16 -61
q40 12 70.5 27t56.5 34.5t49 46t47 62.5l67 20q-27 -53 -61 -98t-74.5 -86t-87.5 -79.5t-100 -78.5q-8 -20 -26.5 -56t-43.5 -76.5t-52.5 -80t-53.5 -65.5q-38 -38 -92 -82t-111 -86q-7 -15 -21 -42t-32 -59.5t-39.5 -66.5t-44 -63.5t-46 -51t-44.5 -28.5zM190 -422
q0 27 -12.5 65t-34.5 72.5t-51 59t-63 24.5q-21 0 -43.5 -10t-41 -25.5t-30.5 -35t-12 -37.5q0 -33 22 -58t53.5 -41.5t66.5 -25t62 -8.5q45 0 84 12v8zM569 27q0 23 -13 60.5t-35 73t-51.5 61.5t-61.5 26q-21 0 -44 -10t-41.5 -26t-31 -36t-12.5 -39q0 -33 22 -57.5t54 -41
t67.5 -24.5t62.5 -8q23 0 42 3t42 10v8z" />
    <glyph glyph-name="tib_Shey" unicode="&#xf19;" horiz-adv-x="338" 
d="M297 52l-62 -170v-947q-2 -34 -39 -36q-30 2 -32 36v41q0 24 -3.5 97.5t-10 168t-16 198t-28 195.5t-39 160.5t-50.5 86.5l63 170h217z" />
    <glyph glyph-name="tibSymbolO" unicode="&#xf1a;" horiz-adv-x="623" 
d="M558 757q0 -54 -17 -100.5t-49.5 -79.5t-79 -51.5t-104.5 -18.5q-54 0 -99 18.5t-77.5 51.5t-48.5 79.5t-16 100.5t16 101.5t48.5 77.5t77.5 47.5t99 17.5q58 0 103.5 -17.5t79 -47.5t50.5 -77.5t17 -101.5zM455 757q0 32 -12 56t-30 43.5t-45 29t-60 9.5q-30 0 -56 -9.5
t-43 -29t-28 -43.5t-11 -56q0 -65 39 -103.5t99 -38.5q71 0 109 37.5t38 104.5z" />
    <glyph glyph-name="tibSymbolOO" unicode="&#xf1b;" horiz-adv-x="1419" 
d="M573 697q0 -56 -19 -101.5t-50.5 -79t-78 -50.5t-99.5 -17q-59 0 -104 17t-77.5 50.5t-48.5 79t-16 101.5q0 54 16 99t48.5 77.5t77.5 49.5t104 17q53 0 98.5 -17t78 -49.5t51.5 -77.5t19 -99zM468 697q0 32 -11 58t-29 43t-45 28t-57 11q-33 0 -60 -11t-43 -28t-27 -43
t-11 -58q0 -67 39 -104t102 -37q66 0 104 36t38 105zM1341 697q0 -56 -16 -101.5t-48.5 -79t-78 -50.5t-99.5 -17q-58 0 -104 17t-77.5 50.5t-50 79t-18.5 101.5q0 54 18.5 99t50 77.5t77.5 49.5t104 17q54 0 99.5 -17t78 -49.5t48.5 -77.5t16 -99zM1237 697q0 32 -9.5 58
t-28 43t-44 28t-56.5 11q-36 0 -61 -11t-43 -28t-27 -43t-9 -58q0 -67 35.5 -104t104.5 -37q65 0 101.5 36t36.5 105z" />
    <glyph glyph-name="tibSymbolOOO" unicode="&#xf1c;" horiz-adv-x="1354" 
d="M537 281q0 -57 -16.5 -104t-48.5 -79.5t-78.5 -48.5t-102.5 -16q-54 0 -100.5 16t-77.5 48.5t-50.5 79.5t-19.5 104q0 53 19.5 98.5t50.5 76.5t77.5 48.5t100.5 17.5q56 0 102.5 -17.5t78.5 -48.5t48.5 -76.5t16.5 -98.5zM431 281q0 30 -8.5 54.5t-27 43t-46.5 30.5
t-58 12q-32 0 -57 -12t-43.5 -30.5t-28 -43t-9.5 -54.5q0 -65 36.5 -104t101.5 -39q69 0 104.5 37t35.5 106zM1311 281q0 -57 -18.5 -104t-48.5 -79.5t-77.5 -48.5t-103.5 -16t-100.5 16t-77.5 48.5t-50.5 79.5t-17.5 104q0 53 17.5 98.5t50.5 76.5t77.5 48.5t100.5 17.5
t100 -17.5t77.5 -48.5t52 -76.5t18.5 -98.5zM1205 281q0 30 -10.5 54.5t-30 43t-45.5 30.5t-56 12t-56 -12t-44.5 -30.5t-29 -43t-10.5 -54.5q0 -65 38.5 -104t101.5 -39q64 0 103 37t39 106zM923 951q0 -58 -16.5 -104.5t-48.5 -77.5t-77.5 -48.5t-103.5 -17.5
q-54 0 -99.5 17.5t-77.5 48.5t-50.5 77.5t-18.5 104.5q0 56 18.5 100t50.5 75.5t77.5 51t99.5 19.5q58 0 103.5 -19.5t77.5 -51t48.5 -75.5t16.5 -100zM817 951q0 30 -8.5 55t-27 44.5t-45.5 30t-59 10.5t-57 -10.5t-44.5 -30t-29 -44.5t-9.5 -55q0 -65 37.5 -103.5
t102.5 -38.5t102.5 38.5t37.5 103.5z" />
    <glyph glyph-name="tibSymbolX" unicode="&#xf1d;" horiz-adv-x="972" 
d="M892 970l-301 -304l155 -155q80 -80 153 -149l-110 -116l-304 302q-71 -76 -149.5 -154.5t-147.5 -145.5l-115 114l300 304l-302 304l123 106l291 -298q37 33 76 72l77 77q39 39 74.5 76.5t67.5 72.5z" />
    <glyph glyph-name="tibSymbolXX" unicode="&#xf1e;" horiz-adv-x="2044" 
d="M1955 966l-302 -304q76 -75 157 -155t152 -149l-108 -116l-306 302q-69 -76 -150 -154.5t-150 -145.5l-112 114l302 304l-306 304l125 106l291 -298q34 33 72 71.5t76.5 77.5t75.5 76.5t71 72.5zM903 966l-302 -304l156 -155q79 -80 153 -149l-110 -116l-304 302
q-71 -76 -150 -154.5t-148 -145.5l-114 114l300 304l-302 304l123 106l291 -298q36 33 75 72l78 77q39 39 74.5 76.5t67.5 72.5z" />
    <glyph glyph-name="tibSymbolOX" unicode="&#xf1f;" horiz-adv-x="1576" 
d="M1492 968l-304 -300q75 -75 157 -156t151 -152l-108 -117l-304 304q-71 -73 -151 -153l-150 -151l-115 117l304 308l-304 300l125 105l291 -293q35 33 72.5 71.5t76.5 76.5t74.5 76.5t72.5 73.5zM624 659q0 -68 -22 -125.5t-61 -93.5t-94 -58.5t-123 -22.5
q-65 0 -119.5 22.5t-94 58.5t-60.5 93.5t-21 125.5q0 65 21 120.5t60.5 93t94 58.5t119.5 21q68 0 123 -21t94 -58.5t61 -93t22 -120.5zM496 659q0 36 -10 66.5t-34 53t-54.5 36.5t-73.5 14q-36 0 -67.5 -14t-53.5 -36.5t-34 -53t-12 -66.5q0 -77 46 -124.5t121 -47.5
q81 0 126.5 44.5t45.5 127.5z" />
    <glyph glyph-name="tibZero" unicode="&#xf20;" horiz-adv-x="981" 
d="M771 552q-72 -107 -188 -113t-204 48q-217 126 -198 308q11 80 73 222q48 70 80.5 115.5t97.5 72.5q52 20 109 3q100 0 218 -71q145 -64 127 -304q-32 -165 -115 -281zM707 1028q-50 49 -96 62q-47 0 -73.5 -27.5t-58.5 -67.5t-60 -98.5t-52 -131.5q-3 -88 47 -167
q53 -46 107.5 -38t73.5 37.5t46 87.5q125 255 66 343z" />
    <glyph glyph-name="tibOne" unicode="&#xf21;" horiz-adv-x="912" 
d="M758 794q0 -20 -1 -51t-4 -73q0 -91 -71 -173t-159 -153l-102 -74q-140 -91 -193 -91l-12 55l10 43q4 5 13 14t37.5 22.5t58.5 34.5t70 59q41 40 66 69t36 51.5t24.5 62t16.5 100.5q2 22 1 196t-6 196q-32 -10 -59.5 -16t-45.5 -13.5t-30.5 -18t-19.5 -34.5
q-2 -20 -2 -201q2 -25 -2 -56t-66 -94q-33 -27 -57 -27l-31 3l-104 24v36q50 42 52 130v227q13 15 67.5 39t94.5 38l163 60l32 21q8 10 19 16t21 8h183v-430z" />
    <glyph glyph-name="tibTwo" unicode="&#xf22;" horiz-adv-x="1032" 
d="M978 166q-8 -3 -15 -10.5t-10 -9.5q-53 -21 -70 -23q-25 0 -48 17q-5 1 -7 3l-3 5q-2 5 -2 6t-12 12q9 584 -24.5 616.5t-106.5 33.5q-55 -5 -185 -93t-145 -92l-64 139l47 33q113 80 198 123q15 2 27.5 7t26.5 7q10 6 24 11t22 10v-1q55 33 57 90q5 41 -57 51l-51 -8
q-54 -18 -148 -70.5t-171 -87.5q-60 13 -106 45l-47 38l358 185l44 12l108 5q177 6 218 -129q2 -43 -17 -69t-41 -49q18 -8 32.5 -16.5t27.5 -16.5q37 -22 68 -55q67 -45 72 -317v-402z" />
    <glyph glyph-name="tibThree" unicode="&#xf23;" horiz-adv-x="1233" 
d="M920 212q18 345 18 375q0 222 -82 227q-8 -7 -98 -80q-28 -39 -108 -144l-42 -3l-37 3l-40 9l-45 26l102 122q67 87 107.5 131t85.5 67q50 35 70 72q-10 10 -31 10q-49 0 -94 -37q-116 -105 -156 -190l-29 20l-103 54q2 3 25 33q37 60 85 98l102 87q5 5 5 30
q-17 15 -40 15q-35 0 -175 -125q-22 -12 -124 -122h-5q-6 -1 -13 -1h-7q-15 0 -56 33l-44 38l104 99q165 173 316 165q59 0 164 10l25 -34l6 -38v-33l-1 -14q11 4 31 8t50 11q25 0 59 -12l36 -13q0 -44 4 -57q0 -27 -2 -45l-47 -72q44 -5 76.5 -34t57.5 -106q6 -35 11 -96.5
t-6 -486.5h-155z" />
    <glyph glyph-name="tibFour" unicode="&#xf24;" horiz-adv-x="1253" 
d="M1009 305l-1 -26q-12 -12 -39 -22l-26 -7l-100 37q-99 37 -154 75q-65 42 -120 84.5t-76 72.5q-47 55 -84.5 118t-70.5 143l-74 165l194 135l140 82l106 50l14 -73v-34q-2 -25 5.5 -65t20.5 -83q12 -27 43.5 -65t80.5 -75q16 -13 38.5 -26.5t46.5 -25.5q5 -11 21 -58
q0 -2 -1.5 -8.5t-3.5 -16.5l-18 -28l-23 -12l-127 52q-72 33 -124.5 79.5t-67.5 82.5t-41 106l-22 60l-48 -30q-19 -10 -45 -32q13 -35 26.5 -72.5t26.5 -70.5q30 -68 66.5 -122.5t80 -107t97.5 -95t118 -75.5q11 -8 25.5 -15.5t29.5 -12.5q3 0 15.5 -5t22.5 -10q5 -4 9 -4
t8 -1q5 -4 15.5 -8t14.5 -6z" />
    <glyph glyph-name="tibFive" unicode="&#xf25;" horiz-adv-x="1052" 
d="M980 224l-15 -13q-31 -5 -146 0q-4 1 -10.5 3.5t-11.5 6.5l-93 86q-22 20 -47 59.5t-50 90.5q-40 70 -40 155v120q-47 -33 -97 -68t-100 -67q-5 -8 -13 -8q-12 0 -28 12q-27 23 -48 61.5t-47 98.5q-12 21 -16 39.5t-4 31.5q3 44 5.5 84t5.5 81q2 70 39 157l175 20
l-29 -103q-35 -112 -35 -165q0 -64 4 -85q10 -65 53 -70q37 -2 73 31q20 14 41 47t29 72q2 85 57 238l33 72l174 11l21 -13l-46 -55q-45 -72 -60 -162t-30 -216q-7 -175 30.5 -272.5t74.5 -134.5z" />
    <glyph glyph-name="tibSix" unicode="&#xf26;" horiz-adv-x="972" 
d="M876 703q-26 -80 -66 -130q-35 -36 -72.5 -75.5t-71.5 -70.5q-243 0 -373 153q-117 138 -117 388v242l145 50v-250q-13 -328 195 -413l49 -20q50 -15 60 -17h11q50 0 84 45q1 0 8 11t15 26q-3 6 -8 13t-15 13q-32 14 -200 70q-42 14 -79 25l290 277l97 -55l-153 -138
q45 -15 96.5 -35t94.5 -35q5 -20 12 -32t-2 -42z" />
    <glyph glyph-name="tibSeven" unicode="&#xf27;" horiz-adv-x="1043" 
d="M885 912q0 -70 -2.5 -115t-9.5 -71q-28 -110 -51 -154v5q-50 -88 -129 -88q-8 0 -19 1.5t-17 5.5q-67 26 -82 28q-15 7 -33.5 7.5t-29.5 2.5q-140 0 -232 -78l-73 -60q-19 106 -15 111l123 127q18 20 71.5 70t67.5 105t14 80q-33 3 -98 -40q-13 -7 -13 -40v-22
q-50 -15 -142 -35l-2 2q-1 3 -1 5q8 97 28 140q40 47 113 75l122 43l157 14l-4 -129q-3 -53 -26.5 -102t-66.5 -101l-18 -18l-22 -24q25 0 79 -0.5t104 -20.5q30 0 44.5 28t17 41.5t3 23.5t0.5 17q4 131 7 269.5t2 231.5l133 34v-369z" />
    <glyph glyph-name="tibEight" unicode="&#xf28;" horiz-adv-x="957" 
d="M842 175l-158 12v140q0 400 -268 463l-272 62l180 127l305 270l125 -2q-278 -290 -298 -305q30 -12 57.5 -21t57.5 -19q271 -103 271 -575v-152z" />
    <glyph glyph-name="tibNine" unicode="&#xf29;" horiz-adv-x="1087" 
d="M972 1263l-66 -113l-32 -38q-38 -72 -77.5 -145.5t-77.5 -146.5q0 -5 -1.5 -14t-3.5 -14q2 -29 85 -37l-60 -102q-162 19 -177 139q0 11 12 40.5t28.5 64.5t39 80.5t74.5 149.5q-14 -2 -29.5 -3.5t-29.5 -6.5l2 5q-7 -7 -13.5 -12t-13.5 -7q-3 0 -9 -5.5t-7 -9.5
q-27 -30 -53 -65t-66 -91q-41 -89 -69.5 -150.5t-41.5 -94.5q-22 -60 -33.5 -122t-11.5 -120q0 -123 163 -230l-100 -43l-72 51l-90 82q-58 58 -58 155q0 303 243 627q75 93 172 143z" />
    <glyph glyph-name="tibHalfOne" unicode="&#xf2a;" horiz-adv-x="1149" 
d="M771 552q-72 -107 -188 -113t-204 48q-217 126 -198 308q11 80 73 222q48 70 80.5 115.5t97.5 72.5q52 20 109 3q100 0 218 -71q145 -64 127 -304q-32 -165 -115 -281zM707 1028q-50 49 -96 62q-47 0 -73.5 -27.5t-58.5 -67.5t-60 -98.5t-52 -131.5q-3 -88 47 -167
q53 -46 107.5 -38t73.5 37.5t46 87.5q125 255 66 343zM1104 990q-1 -41 -18.5 -83.5t-51 -74.5t-73.5 -62q-32 -3 -54 40q2 16 16 31t28 29t30 32t21.5 39.5t-3 48t-49.5 20.5q-34 -2 -96 -36.5t-141 -96.5q-26 -22 -123 -101l-191 -158q-65 -57 -382 -317q-23 -19 -36 -1.5
t-29 65.5q372 331 466 413l172 142q89 72 107 88q80 62 148 85.5t125 26.5q75 -7 95.5 -26t29 -46.5t9.5 -57.5z" />
    <glyph glyph-name="tibHalfTwo" unicode="&#xf2b;" horiz-adv-x="1165" 
d="M758 794q0 -20 -1 -51t-4 -73q0 -91 -71 -173t-159 -153l-102 -74q-140 -91 -193 -91l-12 55l10 43q4 5 13 14t37.5 22.5t58.5 34.5t70 59q41 40 66 69t36 51.5t24.5 62t16.5 100.5q2 22 1 196t-6 196q-32 -10 -59.5 -16t-45.5 -13.5t-30.5 -18t-19.5 -34.5
q-2 -20 -2 -201q2 -25 -2 -56t-66 -94q-33 -27 -57 -27l-31 3l-104 24v36q50 42 52 130v227q13 15 67.5 39t94.5 38l163 60l32 21q8 10 19 16t21 8h183v-430zM1120 914q-1 -41 -18.5 -83.5t-51 -74.5t-73.5 -62q-32 -3 -54 40q2 16 16 31t28 29t30 32t21.5 39.5t-3 48
t-49.5 20.5q-34 -2 -96 -36.5t-141 -96.5q-26 -22 -123 -101l-191 -158q-65 -57 -382 -317q-23 -19 -36 -1.5t-29 65.5q372 331 466 413l172 142q89 72 107 88q80 62 148 85.5t125 26.5q75 -7 95.5 -26t29 -46.5t9.5 -57.5z" />
    <glyph glyph-name="tibHalfThree" unicode="&#xf2c;" horiz-adv-x="1256" 
d="M978 166q-8 -3 -15 -10.5t-10 -9.5q-53 -21 -70 -23q-25 0 -48 17q-5 1 -7 3l-3 5q-2 5 -2 6t-12 12q9 584 -24.5 616.5t-106.5 33.5q-55 -5 -185 -93t-145 -92l-64 139l47 33q113 80 198 123q15 2 27.5 7t26.5 7q10 6 24 11t22 10v-1q55 33 57 90q5 41 -57 51l-51 -8
q-54 -18 -148 -70.5t-171 -87.5q-60 13 -106 45l-47 38l358 185l44 12l108 5q177 6 218 -129q2 -43 -17 -69t-41 -49q18 -8 32.5 -16.5t27.5 -16.5q37 -22 68 -55q67 -45 72 -317v-402zM1225 831q-1 -41 -18.5 -83.5t-51 -74.5t-73.5 -62q-32 -3 -54 40q2 16 16 31t28 29
t30 32t21.5 39.5t-3 48t-49.5 20.5q-34 -2 -96 -36.5t-141 -96.5q-26 -22 -123 -101l-191 -158q-65 -57 -382 -317q-23 -19 -36 -1.5t-29 65.5q372 331 466 413l172 142q89 72 107 88q80 62 148 85.5t125 26.5q75 -7 95.5 -26t29 -46.5t9.5 -57.5z" />
    <glyph glyph-name="tibHalfFour" unicode="&#xf2d;" horiz-adv-x="1374" 
d="M920 212q18 345 18 375q0 222 -82 227q-8 -7 -98 -80q-28 -39 -108 -144l-42 -3l-37 3l-40 9l-45 26l102 122q67 87 107.5 131t85.5 67q50 35 70 72q-10 10 -31 10q-49 0 -94 -37q-116 -105 -156 -190l-29 20l-103 54q2 3 25 33q37 60 85 98l102 87q5 5 5 30
q-17 15 -40 15q-35 0 -175 -125q-22 -12 -124 -122h-5q-6 -1 -13 -1h-7q-15 0 -56 33l-44 38l104 99q165 173 316 165q59 0 164 10l25 -34l6 -38v-33l-1 -14q11 4 31 8t50 11q25 0 59 -12l36 -13q0 -44 4 -57q0 -27 -2 -45l-47 -72q44 -5 76.5 -34t57.5 -106q6 -35 11 -96.5
t-6 -486.5h-155zM1340 809q-1 -41 -18.5 -83.5t-51 -74.5t-73.5 -62q-32 -3 -54 40q2 16 16 31t28 29t30 32t21.5 39.5t-3 48t-49.5 20.5q-34 -2 -96 -36.5t-141 -96.5q-26 -22 -123 -101l-191 -158q-65 -57 -382 -317q-23 -19 -36 -1.5t-29 65.5q372 331 466 413l172 142
q89 72 107 88q80 62 148 85.5t125 26.5q75 -7 95.5 -26t29 -46.5t9.5 -57.5z" />
    <glyph glyph-name="tibHalfFive" unicode="&#xf2e;" horiz-adv-x="1305" 
d="M1009 305l-1 -26q-12 -12 -39 -22l-26 -7l-100 37q-99 37 -154 75q-65 42 -120 84.5t-76 72.5q-47 55 -84.5 118t-70.5 143l-74 165l194 135l140 82l106 50l14 -73v-34q-2 -25 5.5 -65t20.5 -83q12 -27 43.5 -65t80.5 -75q16 -13 38.5 -26.5t46.5 -25.5q5 -11 21 -58
q0 -2 -1.5 -8.5t-3.5 -16.5l-18 -28l-23 -12l-127 52q-72 33 -124.5 79.5t-67.5 82.5t-41 106l-22 60l-48 -30q-19 -10 -45 -32q13 -35 26.5 -72.5t26.5 -70.5q30 -68 66.5 -122.5t80 -107t97.5 -95t118 -75.5q11 -8 25.5 -15.5t29.5 -12.5q3 0 15.5 -5t22.5 -10q5 -4 9 -4
t8 -1q5 -4 15.5 -8t14.5 -6zM1225 831q-1 -41 -18.5 -83.5t-51 -74.5t-73.5 -62q-32 -3 -54 40q2 16 16 31t28 29t30 32t21.5 39.5t-3 48t-49.5 20.5q-34 -2 -96 -36.5t-141 -96.5q-26 -22 -123 -101l-191 -158q-65 -57 -382 -317q-23 -19 -36 -1.5t-29 65.5
q372 331 466 413l172 142q89 72 107 88q80 62 148 85.5t125 26.5q75 -7 95.5 -26t29 -46.5t9.5 -57.5z" />
    <glyph glyph-name="tibHalfSix" unicode="&#xf2f;" horiz-adv-x="1254" 
d="M980 224l-15 -13q-31 -5 -146 0q-4 1 -10.5 3.5t-11.5 6.5l-93 86q-22 20 -47 59.5t-50 90.5q-40 70 -40 155v120q-47 -33 -97 -68t-100 -67q-5 -8 -13 -8q-12 0 -28 12q-27 23 -48 61.5t-47 98.5q-12 21 -16 39.5t-4 31.5q3 44 5.5 84t5.5 81q2 70 39 157l175 20
l-29 -103q-35 -112 -35 -165q0 -64 4 -85q10 -65 53 -70q37 -2 73 31q20 14 41 47t29 72q2 85 57 238l33 72l174 11l21 -13l-46 -55q-45 -72 -60 -162t-30 -216q-7 -175 30.5 -272.5t74.5 -134.5zM1225 831q-1 -41 -18.5 -83.5t-51 -74.5t-73.5 -62q-32 -3 -54 40
q2 16 16 31t28 29t30 32t21.5 39.5t-3 48t-49.5 20.5q-34 -2 -96 -36.5t-141 -96.5q-26 -22 -123 -101l-191 -158q-65 -57 -382 -317q-23 -19 -36 -1.5t-29 65.5q372 331 466 413l172 142q89 72 107 88q80 62 148 85.5t125 26.5q75 -7 95.5 -26t29 -46.5t9.5 -57.5z" />
    <glyph glyph-name="tibHalfSeven" unicode="&#xf30;" horiz-adv-x="1276" 
d="M876 703q-26 -80 -66 -130q-35 -36 -72.5 -75.5t-71.5 -70.5q-243 0 -373 153q-117 138 -117 388v242l145 50v-250q-13 -328 195 -413l49 -20q50 -15 60 -17h11q50 0 84 45q1 0 8 11t15 26q-3 6 -8 13t-15 13q-32 14 -200 70q-42 14 -79 25l290 277l97 -55l-153 -138
q45 -15 96.5 -35t94.5 -35q5 -20 12 -32t-2 -42zM1182 1062q-1 -41 -18.5 -83.5t-51 -74.5t-73.5 -62q-32 -3 -54 40q2 16 16 31t28 29t30 32t21.5 39.5t-3 48t-49.5 20.5q-34 -2 -96 -36.5t-141 -96.5q-26 -22 -123 -101l-191 -158q-65 -57 -382 -317q-23 -19 -36 -1.5
t-29 65.5q372 331 466 413l172 142q89 72 107 88q80 62 148 85.5t125 26.5q75 -7 95.5 -26t29 -46.5t9.5 -57.5z" />
    <glyph glyph-name="tibHalfEight" unicode="&#xf31;" horiz-adv-x="1295" 
d="M885 912q0 -70 -2.5 -115t-9.5 -71q-28 -110 -51 -154v5q-50 -88 -129 -88q-8 0 -19 1.5t-17 5.5q-67 26 -82 28q-15 7 -33.5 7.5t-29.5 2.5q-140 0 -232 -78l-73 -60q-19 106 -15 111l123 127q18 20 71.5 70t67.5 105t14 80q-33 3 -98 -40q-13 -7 -13 -40v-22
q-50 -15 -142 -35l-2 2q-1 3 -1 5q8 97 28 140q40 47 113 75l122 43l157 14l-4 -129q-3 -53 -26.5 -102t-66.5 -101l-18 -18l-22 -24q25 0 79 -0.5t104 -20.5q30 0 44.5 28t17 41.5t3 23.5t0.5 17q4 131 7 269.5t2 231.5l133 34v-369zM1192 966q-1 -41 -18.5 -83.5
t-51 -74.5t-73.5 -62q-32 -3 -54 40q2 16 16 31t28 29t30 32t21.5 39.5t-3 48t-49.5 20.5q-34 -2 -96 -36.5t-141 -96.5q-26 -22 -123 -101l-191 -158q-65 -57 -382 -317q-23 -19 -36 -1.5t-29 65.5q372 331 466 413l172 142q89 72 107 88q80 62 148 85.5t125 26.5
q75 -7 95.5 -26t29 -46.5t9.5 -57.5z" />
    <glyph glyph-name="tibHalfNine" unicode="&#xf32;" horiz-adv-x="1258" 
d="M842 175l-158 12v140q0 400 -268 463l-272 62l180 127l305 270l125 -2q-278 -290 -298 -305q30 -12 57.5 -21t57.5 -19q271 -103 271 -575v-152zM1225 831q-1 -41 -18.5 -83.5t-51 -74.5t-73.5 -62q-32 -3 -54 40q2 16 16 31t28 29t30 32t21.5 39.5t-3 48t-49.5 20.5
q-34 -2 -96 -36.5t-141 -96.5q-26 -22 -123 -101l-191 -158q-65 -57 -382 -317q-23 -19 -36 -1.5t-29 65.5q372 331 466 413l172 142q89 72 107 88q80 62 148 85.5t125 26.5q75 -7 95.5 -26t29 -46.5t9.5 -57.5z" />
    <glyph glyph-name="tibHalfZero" unicode="&#xf33;" horiz-adv-x="1303" 
d="M972 1263l-66 -113l-32 -38q-38 -72 -77.5 -145.5t-77.5 -146.5q0 -5 -1.5 -14t-3.5 -14q2 -29 85 -37l-60 -102q-162 19 -177 139q0 11 12 40.5t28.5 64.5t39 80.5t74.5 149.5q-14 -2 -29.5 -3.5t-29.5 -6.5l2 5q-7 -7 -13.5 -12t-13.5 -7q-3 0 -9 -5.5t-7 -9.5
q-27 -30 -53 -65t-66 -91q-41 -89 -69.5 -150.5t-41.5 -94.5q-22 -60 -33.5 -122t-11.5 -120q0 -123 163 -230l-100 -43l-72 51l-90 82q-58 58 -58 155q0 303 243 627q75 93 172 143zM1201 916q-1 -41 -18.5 -83.5t-51 -74.5t-73.5 -62q-32 -3 -54 40q2 16 16 31t28 29
t30 32t21.5 39.5t-3 48t-49.5 20.5q-34 -2 -96 -36.5t-141 -96.5q-26 -22 -123 -101l-191 -158q-65 -57 -382 -317q-23 -19 -36 -1.5t-29 65.5q372 331 466 413l172 142q89 72 107 88q80 62 148 85.5t125 26.5q75 -7 95.5 -26t29 -46.5t9.5 -57.5z" />
    <glyph glyph-name="tibTsekDashDash" unicode="&#xf34;" horiz-adv-x="619" 
d="M197 1222h193v-415h-67q-26 152 -145 192zM165 693q315 11 288 -407l-52 -2q-23 198 -223 198l-111 2l3 211l55 -2h40zM179 294q315 11 288 -407l-52 -2q-23 198 -223 198l-111 2l3 211l55 -2h40z" />
    <glyph glyph-name="tib_SunMoon" unicode="&#xf35;" horiz-adv-x="67" 
d="M-582 -1280q-28 6 -57 14.5t-53 28t-40 44.5t-16 57v26q6 30 21.5 58t34.5 54t48.5 40t65.5 14q28 0 57 -12t52 -31t37 -45t14 -54q0 -71 -50 -121q-24 -26 -53 -44t-59 -29h-2zM-589 -1420q-40 0 -78 11.5t-72.5 31t-63.5 47.5t-49 65l65 77q20 -21 45.5 -47t51.5 -41
q30 -15 60.5 -26t60.5 -11q26 0 56 11t62.5 26t60.5 35.5t41 40.5q15 0 15 -13q0 -9 -4.5 -16.5t-10.5 -20.5v2q-2 -6 -3.5 -7.5t-7.5 -9.5q-17 -24 -38.5 -47.5t-49.5 -46.5t-59.5 -40t-61.5 -21h-20zM-614 -1043q-11 0 -22 -1t-18.5 -6.5t-14 -13t-6.5 -20.5
q0 -15 13 -34.5t30.5 -33.5t39 -22.5t38.5 -8.5q22 0 39 10.5t17 32.5q0 21 -11 39.5t-28 31.5t-38.5 19.5t-38.5 6.5z" />
    <glyph glyph-name="tibFourDots" unicode="&#xf36;" horiz-adv-x="1809" 
d="M1067 1242q-17 -151 -170 -170q-153 19 -170 170q17 153 170 168q155 -15 170 -168zM1796 503q-20 -153 -173 -171q-151 18 -170 171q19 153 170 168q156 -15 173 -168zM1067 -224q-17 -151 -170 -170q-153 19 -170 170q17 153 170 168q155 -15 170 -168zM349 503
q-15 -153 -168 -171q-153 18 -168 171q15 153 168 168q155 -15 168 -168z" />
    <glyph glyph-name="tib_Circle" unicode="&#xf37;" horiz-adv-x="43" 
d="M-541 -1425q-35 7 -71.5 17.5t-65.5 35.5t-49.5 56t-20.5 70v33q9 38 27 72.5t42 67.5q26 32 61.5 49.5t80.5 17.5q37 0 72.5 -15.5t63.5 -39t46.5 -56t18.5 -66.5q0 -89 -63 -151q-30 -32 -65.5 -55t-74.5 -36h-2zM-582 -1129q-13 0 -26 -2.5t-22.5 -9t-18.5 -15
t-9 -25.5q0 -19 16.5 -43t38 -41t48.5 -28t48 -11q28 0 48.5 13t20.5 41q0 26 -12.5 48.5t-34.5 38.5t-49 25t-48 9z" />
    <glyph glyph-name="tibHighLaMark" unicode="&#xf38;" horiz-adv-x="1479" 
d="M925 1016q-10 -118 -66.5 -173t-143.5 -100q63 0 121.5 -1t116.5 -1q67 -5 82 6t40 36q12 18 20 56.5t5 114.5l-15 214l227 111l1 -180q20 -291 -111 -408q-99 -97 -192 -135t-232 -28l-321 18l138 150q145 162 145 238q0 77 -42.5 121t-114.5 44q-198 0 -163 -285
l-247 -123q10 255 120 387q62 71 154 113q118 25 231 25q122 0 167 -42q85 -36 80 -158z" />
    <glyph glyph-name="tib.Flag" unicode="&#xf39;" horiz-adv-x="41" 
d="M75 1662q3 -47 -22 -94.5t-74.5 -89.5t-119.5 -68t-156 -26q12 -15 25 -41t26 -52.5t20.5 -51.5t7.5 -40h-60q-11 30 -29.5 62.5t-40 63.5t-45 60t-45.5 49l115 140q49 -2 106 4.5t111 18.5t102.5 29t78.5 36z" />
    <glyph glyph-name="tibSnail3Circles" unicode="&#xf3a;" horiz-adv-x="2662" 
d="M79 918q4 28 13 32t17 3q316 -46 417.5 -183t156.5 -230q114 -109 268 -114q109 15 194.5 49t103.5 139q19 162 -256 177q-77 7 -91 -5.5t-17.5 -52t70 -51t89.5 -5t-113 -157.5q-149 25 -154 124q10 154 75.5 232t168.5 78q150 2 240.5 -62t61.5 -372
q-30 -267 -357 -282q-159 0 -274.5 67t-183.5 245.5t-137.5 244.5t-291.5 123zM1671 924q262 -9 257 -285q13 -253 -256 -263q-181 3 -241 149q-11 28 -18.5 56t-9 59.5t3.5 69.5t18 87q23 55 88 89t158 38zM1651 750q-191 -2 -188 -107q-8 -90 193 -90q219 2 211 85
q3 103 -216 112zM2261 1231q262 -9 257 -285q13 -253 -256 -263q-181 3 -241 149q-11 28 -18.5 56t-9 59.5t3.5 69.5t18 87q23 55 88 89t158 38zM2241 1057q-191 -2 -188 -107q-8 -90 193 -90q219 2 211 85q3 103 -216 112zM2277 632q262 -9 257 -285q13 -253 -256 -263
q-181 3 -241 149q-11 28 -18.5 56t-9 59.5t3.5 69.5t18 87q23 55 88 89t158 38zM2257 458q-191 -2 -188 -107q-8 -90 193 -90q219 2 211 85q3 103 -216 112z" />
    <glyph glyph-name="tibRevSnail3Circles" unicode="&#xf3b;" horiz-adv-x="2574" 
d="M2547 918q-222 -57 -291.5 -123t-137.5 -244.5t-183.5 -245.5t-274.5 -67q-327 15 -357 282q-29 308 61.5 372t240.5 62q103 0 168.5 -78t75.5 -232q-5 -99 -154 -124q-129 164 -113 157.5t89.5 5t70 51t-17.5 52t-91 5.5q-275 -15 -256 -177q18 -105 103.5 -139
t194.5 -49q154 5 268 114q55 93 156.5 230t417.5 183q8 1 17 -3t13 -32zM955 924q93 -4 158 -38t88 -89q13 -49 17.5 -87t3 -69.5t-8.5 -59.5t-18 -56q-60 -146 -241 -149q-269 10 -256 263q-5 276 257 285zM975 750q-219 -9 -216 -112q-8 -83 211 -85q201 0 193 90
q3 105 -188 107zM365 1231q93 -4 158 -38t88 -89q13 -49 17.5 -87t3 -69.5t-8.5 -59.5t-18 -56q-60 -146 -241 -149q-269 10 -256 263q-5 276 257 285zM385 1057q-219 -9 -216 -112q-8 -83 211 -85q201 0 193 90q3 105 -188 107zM349 632q93 -4 158 -38t88 -89
q13 -49 17.5 -87t3 -69.5t-8.5 -59.5t-18 -56q-60 -146 -241 -149q-269 10 -256 263q-5 276 257 285zM369 458q-219 -9 -216 -112q-8 -83 211 -85q201 0 193 90q3 105 -188 107z" />
    <glyph glyph-name="tibAlbatrossL" unicode="&#xf3c;" horiz-adv-x="1350" 
d="M788 906q-238 0 -337 -75.5t-135 -181.5q-40 -135 -40 -500l-8 -491q2 -84 -14 -136.5t-43 -86t-63 -53t-73 -35.5h-105q43 21 83 39.5t69.5 48.5t46 80.5t13.5 136.5v960q28 451 525 440q-106 499 323 517l72 2q66 1 103.5 9.5t60 27t37 48.5t34.5 74v-77
q-5 -33 -8.5 -66.5t-11 -64.5t-21.5 -57.5t-38.5 -46.5t-62 -32t-93.5 -12q-110 -9 -197 -26t-117 -71q-38 -62 0 -371z" />
    <glyph glyph-name="tibAlbatrossR" unicode="&#xf3d;" horiz-adv-x="1347" 
d="M599 906q38 309 0 371q-30 54 -117 71t-197 26q-56 0 -93.5 12t-62 32t-38.5 46.5t-21.5 57.5t-11 64.5t-8.5 66.5v77q20 -44 34.5 -74t37 -48.5t60 -27t103.5 -9.5l72 -2q429 -18 323 -517q497 11 525 -440v-960q-3 -86 13.5 -136.5t46 -80.5t69.5 -48.5t83 -39.5h-105
q-38 16 -73.5 35.5t-62.5 53t-43 86t-14 136.5l-8 491q0 365 -40 500q-36 106 -135 181.5t-337 75.5z" />
    <glyph glyph-name="tibTailR" unicode="&#xf3e;" horiz-adv-x="957" 
d="M41 1235q587 -18 592 -460v-674v-286q-3 -86 13.5 -136.5t46 -80.5t69.5 -48.5t83 -39.5h-105q-38 16 -73.5 35.5t-62.5 53t-43 86t-14 136.5l-8 491q0 365 -40 500q-36 106 -133 173.5t-296 73.5z" />
    <glyph glyph-name="tibTailL" unicode="&#xf3f;" horiz-adv-x="959" 
d="M816 1059q-199 -6 -296 -73.5t-133 -173.5q-40 -135 -40 -500l-8 -491q2 -84 -14 -136.5t-43 -86t-63 -53t-73 -35.5h-105q43 21 83 39.5t69.5 48.5t46 80.5t13.5 136.5v286v674q5 442 592 460z" />
    <glyph glyph-name="tibKa" unicode="&#xf40;" horiz-adv-x="1199" 
d="M128 1224h954v-1528h-80l-33 1165q-13 129 -103 164h-204l18 -678h-71q-13 526 -120 680h-217q143 -140 91 -221q-57 -154 -187 -246l-107 175q113 109 141 169q27 61 -18 123l-64 -2v199z" />
    <glyph glyph-name="tibKha" unicode="&#xf41;" horiz-adv-x="1216" 
d="M152 1223h943l2 -843h-28q-66 90 -207 123t-422 4l42 193l46 16q-32 199 38 308h-214q-69 -43 -98 -143q-33 -179 -48 -469l-9 -710h-85v1083q-1 190 40 243v195zM678 1024q-52 -72 -61 -124q-14 -51 7 -184q286 12 378 -85q11 345 -109 393h-215z" />
    <glyph glyph-name="tibGa" unicode="&#xf42;" horiz-adv-x="1214" 
d="M105 1224h982v-1579h-92l-16 1210q-44 155 -122 170h-169l11 -623l-77 2q-12 66 -68 91.5t-201 29t-243 -3.5l-5 179l52 1q-23 142 -15 194q3 53 54 130h-91v199zM274 1025q-57 -72 -63 -124q-14 -48 26 -200q281 11 373 -46q0 309 -108 370h-228z" />
    <glyph glyph-name="tibGha" unicode="&#xf43;" horiz-adv-x="1148" 
d="M587 -362q158 159 253 295q124 178 23 280q-118 97 -294 -42q18 -45 23 -91q4 -17 -4 -18q-6 -2 -19 7q-54 60 -117 71q-61 17 -239 12v184q11 66 47 105h-76v180h772q25 295 -93 409h-241v-370l-46 -2q-104 86 -494 57v159l31 4q-46 76 20 152h-51l2 194h960v-783h-698
q-53 -46 -57 -105q206 2 261 -129q115 148 241 178q121 22 210 -64q37 -41 51 -81q15 -40 4 -91q-21 -97 -147 -259q-133 -158 -235 -252h-87zM207 1030q-52 -31 -57 -68q-8 -34 23 -84q224 0 386 -40q-7 176 -92 192h-260z" />
    <glyph glyph-name="tibNga" unicode="&#xf44;" horiz-adv-x="1101" 
d="M105 1224h873v-199h-704q-86 -67 -92 -112q-15 -41 17 -124l437 4q379 -12 406 -504h-63q-76 307 -374 308l-513 -1v185l41 5q-14 47 -18 72q-8 31 -2 54q3 44 60 113h-75z" />
    <glyph glyph-name="tibCa" unicode="&#xf45;" horiz-adv-x="1169" 
d="M87 1224h983v-196h-422q0 -100 -24 -169q122 3 182.5 -0.5t123.5 -11.5q125 -26 154 -144q23 -124 -58 -266q-77 -125 -209 -165q-67 -19 -138 -15q-72 6 -147 35q-163 66 -451 308l104 175q42 -28 172 -138q106 51 161 162q25 52 32 109q11 56 0 120h-463v196zM607 795
q-66 -115 -177 -199q157 -109 287 -161q39 -16 81 -23q40 -5 77 -2q80 12 98 50q30 67 11 123q-17 48 -90 63l-106 14q-80 3 -181 0v135z" />
    <glyph glyph-name="tibCha" unicode="&#xf46;" horiz-adv-x="1177" 
d="M89 1224h983v-196h-450q7 -58 6 -120q-2 -61 -14 -139q75 109 213 109q259 -5 261 -298q-10 -260 -261 -276q-155 5 -244 158q-72 -158 -224 -159q-251 18 -271 282q7 287 265 296q118 0 213 -100q-26 177 -80 247h-397v196zM353 700q-155 -14 -199 -115q21 -92 205 -100
q173 9 200 95q-42 108 -206 120zM808 695q-157 -11 -190 -110q19 -91 194 -95q188 4 214 89q-47 103 -218 116z" />
    <glyph glyph-name="tibJa" unicode="&#xf47;" horiz-adv-x="1205" 
d="M102 1222h968v-195h-843l-12 -147h797v-192h-800l-5 -122h253q359 1 503 -91q128 -133 138 -486l-59 2q-10 236 -128 328q-103 51 -348 51h-457l45 657h-52v195z" />
    <glyph glyph-name="tibNya" unicode="&#xf49;" horiz-adv-x="1102" 
d="M243 1223h684v-197q0 -120 -19 -184q120 -68 134 -204q15 -84 -132 -312q-130 -193 -481 -676h-77q481 664 510 824q8 47 2 87q-20 83 -62 120q-93 82 -188 93q-60 5 -94 -34q-49 -82 143 -202l-143 -138q-99 89 -121 156q-28 69 11 148q170 289 443 167q12 104 -78 154
h-520q-58 -7 -49 -96q38 -110 135 -179l-100 -140q-337 281 2 457v156z" />
    <glyph glyph-name="tibTta" unicode="&#xf4a;" horiz-adv-x="1092" 
d="M932 1138q46 -38 52 -69q10 -29 -7 -92l-217 -532l-52 29l19 83q-31 106 -124 127q-57 6 -111 -1q-54 -8 -121 -37q-86 -37 -112 -152q-12 -109 49 -242q166 -299 369 -604h-77q-95 132 -373 584q-140 204 -126 359q11 156 140 224q78 36 151 41q73 9 146 -17
q151 -49 204 -219l144 350q16 58 -34 56h-755v198h835v-86z" />
    <glyph glyph-name="tibTtha" unicode="&#xf4b;" horiz-adv-x="1162" 
d="M122 1223h884v-187q130 -61 91.5 -166t-130.5 -154q97 -52 109 -100h26v-205q-681 23 -980 -355v1167zM325 1027q-32 -49 -42 -83q292 -87 489 -150q140 92 163 169q0 46 -43 64h-567zM253 869q-58 -167 -69 -468q354 223 780 211q-38 48 -207 104q-253 84 -504 153z" />
    <glyph glyph-name="tibDda" unicode="&#xf4c;" horiz-adv-x="1137" 
d="M1002 1225v-198h-50q107 -140 5 -257h48v-202h-483q-360 50 -395 -911h-73q26 656 91 881q95 240 380 232h352q117 127 -3 257h-765v198h893z" />
    <glyph glyph-name="tibDdha" unicode="&#xf4d;" horiz-adv-x="1216" 
d="M117 1224h945v-195h-75q63 -13 20 -115h58v-178h-551q-272 11 -327 -250q-35 -134 -38 -447h-74q0 268 15 473q5 429 414 409h421q44 70 -46 108h-762v195zM600 -394q155 193 247 328q125 178 23 280q-115 98 -210 -30q17 -58 4 -118q3 -17 16 -22q-5 0 -20 12
q-61 75 -123 86q-63 17 -242 12v183q12 67 50 104h-78v181h777l1 -181h-615q-51 -44 -58 -104q240 -10 270 -116q85 133 158 166q120 22 207 -65q42 -40 55 -81q13 -42 3 -90q-20 -97 -148 -259q-132 -158 -262 -313z" />
    <glyph glyph-name="tibNna" unicode="&#xf4e;" horiz-adv-x="1208" 
d="M1082 1028h-428q-70 -69 -79 -147q99 8 225 -3q60 -7 155 -45q134 -89 137 -249q38 -276 -332 -255q-316 15 -255 330q-143 -30 -233 -253q-48 -117 -60 -790h-78l8 753q3 112 37 250q58 230 340 254l1 155h-415v196h977v-196zM767 699q-123 -3 -200 -25
q-3 -163 200 -163q273 0 265 85q10 113 -265 103z" />
    <glyph glyph-name="tibTa" unicode="&#xf4f;" horiz-adv-x="1100" 
d="M150 1224h826v-197h-745q-51 2 -36 -55l153 -354q88 171 190 221q77 24 150 17q70 -7 147 -42q131 -68 145 -225q8 -155 -129 -358q-278 -452 -373 -610l-92 2q217 328 384 628q61 133 48 243q-25 115 -110 150q-68 30 -120 37q-55 8 -106.5 -5t-118.5 -120l18 -83
l-48 -29l-228 532q-19 63 -7 93q5 30 52 69v86z" />
    <glyph glyph-name="tibTha" unicode="&#xf50;" horiz-adv-x="1154" 
d="M170 1224h857v-1141q-233 236 -467 246l-298 2q-108 -8 -177 -27v227q2 -2 19 3q0 67 75 110q-259 232 -9 380v200zM269 1026q-64 -53 -72 -88q-5 -37 8 -67q22 -63 149 -155q273 103 508 227q-17 51 -78 81zM890 866q-338 -172 -548 -250q-102 -38 -97 -82q187 4 317 2
q98 -7 185.5 -28.5t221.5 -146.5q-14 238 -79 505z" />
    <glyph glyph-name="tibDa" unicode="&#xf51;" horiz-adv-x="1098" 
d="M103 1224h883v-198h-718q-145 -125 -27 -252h308q285 3 379 -235q98 -237 85 -883h-70q1 891 -390 916h-454v202h52q-103 127 25 252h-73v198z" />
    <glyph glyph-name="tibDha" unicode="&#xf52;" horiz-adv-x="1118" 
d="M992 1045h-706q-90 -38 -47 -123h423q409 20 417 -409q12 -205 12 -473h-72q-2 313 -37 447q-56 261 -326 250h-557v178h58q-45 117 19 130h-72v180h888v-180zM444 -393q178 193 270 328q123 178 22 280q-114 98 -240 -30q15 -58 23 -118q3 -17 -3 -22q-7 0 -20 12
q-62 75 -122 86q-63 17 -242 12v183q12 67 50 104h-78v181h813l2 -181h-653q-52 -44 -57 -104q237 -10 268 -116q59 140 187 166q123 22 210 -65q42 -40 53 -81q15 -42 4 -90q-19 -97 -147 -259q-130 -158 -283 -313z" />
    <glyph glyph-name="tibNa" unicode="&#xf53;" horiz-adv-x="1142" 
d="M118 1224h905v-196h-350l3 -155q247 -24 302 -254q35 -138 38 -250l10 -753h-78q-14 673 -60 790q-90 223 -199 253q60 -315 -238 -330q-372 -21 -333 255q5 160 136 249q97 38 155 45q127 11 209 3q-9 82 -77 147h-423v196zM443 699q-275 10 -265 -103q-10 -85 265 -85
q190 0 185 163q-64 22 -185 25z" />
    <glyph glyph-name="tibPa" unicode="&#xf54;" horiz-adv-x="1235" 
d="M137 1222h541v-195h-401q-92 -95 -90 -138q-5 -38 60 -138q308 13 476 -37q169 -40 289 -167q16 374 -147 480v195h235v-990h-70q-80 252 -297 290q-115 19 -224 23t-399 -8l18 209l30 3q-48 73 -43 128q0 55 68 150h-51z" />
    <glyph glyph-name="tibPha" unicode="&#xf55;" horiz-adv-x="1179" 
d="M634 1222v-196h-410q-124 -149 -7 -302q93 8 173 5q69 0 120 -10q157 153 319 272v231h233v-996q-232 215 -380 256.5t-260 48t-345 -6.5l22 188q13 2 48 2q-112 148 0 312h-43v196h530zM874 937q-172 -115 -289 -230q222 -41 414 -198q5 267 -125 428z" />
    <glyph glyph-name="tibBa" unicode="&#xf56;" horiz-adv-x="1216" 
d="M104 1224h967v-990h-58q-84 232 -320 285q-102 19 -177 20q-132 2 -433 0l5 209l46 3q-51 73 -46 128q0 55 71 147h-55v198zM246 1026q-90 -92 -90 -135q-5 -38 58 -138q359 13 514 -35q185 -37 256 -159q14 367 -153 467h-585z" />
    <glyph glyph-name="tibBha" unicode="&#xf57;" horiz-adv-x="1131" 
d="M530 -383q177 192 270 330q124 179 22 279q-115 96 -283 -29q16 -60 21 -120q5 -16 -3 -18q-5 -2 -18 7q-62 76 -125 88q-62 15 -242 10v185q13 68 50 105h-77v182h727q-58 40 -167 70q-113 33 -255 36l-340 -6v150h37q-35 45 -33 83q-2 38 33 80v175h858v-693h-1l1 -77
h-700q-51 -45 -55 -105q240 -8 269 -117q105 137 233 165q122 24 208 -63q40 -42 54 -80q15 -40 1 -90q-20 -100 -146 -258q-132 -162 -284 -315zM439 886q298 10 488 -119q-10 225 -158 279h-542q-48 -37 -48 -72q0 -33 48 -88h212z" />
    <glyph glyph-name="tibMa" unicode="&#xf58;" horiz-adv-x="1249" 
d="M152 1225h650v-197h-185v-163q255 -71 441 -343q4 387 -151 488v215h228v-1000h-70q-167 282 -383 415q23 -323 -237 -328q-292 -7 -293 260q-10 162 118 247q127 85 282 56q5 92 -62 153h-338v197zM623 665q-103 44 -193 39q-243 -5 -223 -122q13 -112 225 -107
q193 5 191 190z" />
    <glyph glyph-name="tibTsa" unicode="&#xf59;" horiz-adv-x="1184" 
d="M103 1224h758l-3 2q-10 17 -23 33l130 129q36 -50 85 -92q16 -18 23 -15q12 2 18 22q19 70 27 185q0 10 13 11q10 -1 15 -11q27 -165 12 -259q-13 -98 -77 -176q-26 -54 -73 0l-58 65v-89h-285q0 -101 -25 -170q123 4 183 -0.5t123 -10.5q125 -27 154 -145
q23 -124 -72 -254q-62 -136 -193 -176q-69 -20 -139 -15q-73 5 -148 33q-163 67 -450 308l103 175q42 -26 174 -138q105 52 160 163q25 52 33 110q8 55 0 120h-465v195zM623 796q-65 -115 -177 -200q159 -108 289 -162q38 -15 80 -21q40 -7 76 -2q80 10 82 60q47 57 28 112
q-18 48 -90 63l-106 13q-80 4 -182 0v137z" />
    <glyph glyph-name="tibTsha" unicode="&#xf5a;" horiz-adv-x="1201" 
d="M127 1223h760l-3 2q-12 16 -25 33l132 128q35 -50 85 -91q16 -17 23 -15q12 1 18 21q19 70 27 185q0 10 13 12q9 -2 15 -12q27 -165 12 -258q-13 -98 -77 -177q-26 -53 -73 0q-32 35 -63 69v-92h-310q6 -60 5 -120q-2 -62 -14 -140q75 108 214 108q258 -3 260 -296
q-9 -260 -260 -277q-155 5 -244 158q-73 -158 -225 -160q-250 20 -271 282q8 288 266 297q117 0 212 -99q-27 175 -80 247h-397v195zM392 698q-155 -13 -200 -115q22 -92 205 -100q174 10 200 97q-41 106 -205 118zM846 695q-157 -12 -189 -112q19 -90 194 -93q186 3 213 88
q-47 103 -218 117z" />
    <glyph glyph-name="tibDza" unicode="&#xf5b;" horiz-adv-x="1180" 
d="M117 1222h744l-2 2q-13 15 -25 33l130 129q37 -50 87 -92q15 -18 23 -17q10 4 17 24q18 70 26 185q0 8 14 11q10 -3 15 -11q26 -165 10 -260q-12 -97 -75 -175q-29 -55 -74 0q-33 35 -65 70v-94h-698l-12 -148h824v-174h-829l-5 -149h255q359 1 500 -90
q130 -135 132 -442l-60 3q-3 189 -120 282q-102 76 -348 76h-455l43 642h-52v195z" />
    <glyph glyph-name="tibDzha" unicode="&#xf5c;" horiz-adv-x="1182" 
d="M537 -501q175 192 270 330q123 175 21 277q-116 98 -283 -29q15 -58 22 -118q5 -17 -4 -22q-6 -1 -18 10q-62 77 -127 87q-61 17 -240 12v183q12 67 49 105h-75v183h830q-49 35 -105 57q-134 30 -409 30l-343 -8l32 439h-34v189h744l-2 2q-13 15 -25 33l130 128
q37 -50 87 -93q15 -17 23 -15q10 2 17 23q18 69 26 184q0 10 14 11q10 -1 15 -11q26 -164 10 -259q-12 -96 -75 -176q-29 -54 -74 0q-33 38 -68 75l2 -91h-725l-7 -72h778v-151h-785l-3 -61h263q309 6 412 -40q117 -39 255 -290l-48 -17q-35 52 -79 90l2 -160h-697
q-53 -45 -58 -105q240 -8 268 -117q107 139 234 167q121 23 210 -63q40 -42 53 -82q15 -42 2 -92q-19 -96 -145 -258q-134 -158 -287 -313z" />
    <glyph glyph-name="tibWa" unicode="&#xf5d;" horiz-adv-x="1173" 
d="M706 1224v-373h257q-5 125 -99 152v221h197v-1155h-28q-152 165 -213.5 187t-166.5 30q-140 3 -334 0l20 190h59q-34 72 -15 128q13 55 93 132v115h173q-20 167 -98 175h-347q-26 -37 -31 -63q-5 -25 6 -55q24 -55 147 -157l-122 -180q-143 152 -133 243q-10 87 133 280
v130h502zM481 646q-82 -65 -20 -167q283 4 342 -21q111 -25 196 -102q-1 102 -13 290h-505z" />
    <glyph glyph-name="tibZha" unicode="&#xf5e;" horiz-adv-x="1069" 
d="M235 1223h687l-2 -425q112 -77 125 -220l20 -920h-75l-33 790q-10 115 -90 175q-18 -235 -262 -238q-228 -12 -250 213q-5 123 32 187q48 86 141.5 100.5t190.5 2.5q85 -13 128 -52q-2 137 -88 194h-527q-70 -172 -60 -220q-5 -110 138 -344l-100 -175q-200 260 -175 427
q9 137 200 383v122zM815 663q-58 45 -128 50q-65 5 -110 0q-165 -13 -152 -103q7 -32 56 -45.5t180 -7.5t154 106z" />
    <glyph glyph-name="tibZa" unicode="&#xf5f;" horiz-adv-x="1190" 
d="M1072 1225v-1098h-72q-60 140 -310 176q-113 14 -278 14q-93 1 -330 -14l20 202q345 18 540 -5q198 -23 348 -107q-5 215 -8 254h-838v200h828q-10 130 -80 180h-783v198h963z" />
    <glyph glyph-name="tibAchung" unicode="&#xf60;" horiz-adv-x="1084" 
d="M267 1225h675v-216q-3 -157 -117 -260q134 -27 185 -235q9 -102 44 -449h-74q-55 367 -141.5 430.5t-130 66t-186.5 -21.5l-3 210q143 40 253 20q135 184 -3 257h-434q-113 -102 -105 -210q7 -103 139 -303l-155 -192q-174 207 -157 363q7 160 210 362v178z" />
    <glyph glyph-name="tibYa" unicode="&#xf61;" horiz-adv-x="1269" 
d="M139 1223h272v-198h-74q-135 -359 65 -422q255 -35 235 425l-65 -3v198h229v-198h-69q4 -159 -18 -294q195 -53 323 -161q5 373 -143 455v198h233v-1030h-71q-99 285 -407 337q-70 -112 -130 -145q-98 -35 -213 3q-320 128 -55 637h-112v198z" />
    <glyph glyph-name="tibRa" unicode="&#xf62;" horiz-adv-x="1260" 
d="M1121 1224v-198h-456v-257q470 19 463 -705h-77q-20 507 -391 499h-525l3 211h468q-20 162 -123 252h-343v198h981z" />
    <glyph glyph-name="tibLa" unicode="&#xf63;" horiz-adv-x="1191" 
d="M241 1225h461v-475q182 -8 274 -123q23 300 -132 382v216h215v-996h-58q-55 228 -177 288q-38 18 -142 28q-103 7 -240 0l22 205h173q-8 229 -108 275h-257q-66 -108 -53 -211q5 -102 153 -339l-156 -93q-140 232 -145 375q20 177 170 328v140z" />
    <glyph glyph-name="tibSha" unicode="&#xf64;" horiz-adv-x="1099" 
d="M158 1223h835v-1590h-85l-11 1096q-217 -330 -539 -186q115 -90 45 -374q-8 -23 -18 -30q-12 -1 -18 22q-67 387 -355 415l76 193q115 -20 129 -48q-19 60 -5 142q11 86 58 164h-115zM348 1027q-118 -193 -30 -278q130 -101 322 -50q172 62 223 328h-515z" />
    <glyph glyph-name="tibSsa" unicode="&#xf65;" horiz-adv-x="1081" 
d="M933 1030h-102q45 -81 59 -167q11 -85 -14 -165q77 55 135 66l79 -193q-289 -23 -355 -410q-7 -23 -19 -22q-11 7 -18 30q-70 284 43 374q-321 -144 -550 186v-1096h-83v1590h823zM238 1030q50 -269 223 -331q192 -51 325 50q85 85 -33 281h-515z" />
    <glyph glyph-name="tibSa" unicode="&#xf66;" horiz-adv-x="1151" 
d="M657 1223v-192h-107q282 -158 395 -366q5 278 -115 366v192h197v-1023l-70 1q-99 455 -607 679l83 151h-128q-113 -93 -127 -145q-15 -50 39 -128q330 20 370 -470l-64 10q-31 173 -151 227q-87 45 -324 15l37 211l55 7q-40 85 -27 137q12 56 97 136h-120v192h567z" />
    <glyph glyph-name="tibHa" unicode="&#xf67;" horiz-adv-x="1175" 
d="M414 -350q210 265 416 597q194 298 25 402q-78 50 -128 31q-72 -18 -153 -103q13 -78 20 -125q8 -47 8 -115h-38q-55 173 -105 215q-54 27 -124 33q-86 9 -238 -1l25 220q22 143 132 223h-129v197h955v-197h-715q-146 -97 -158 -223q275 13 333 -154q77 145 199 205
q101 55 228 -8q133 -78 117 -250q-20 -172 -182 -397q-208 -318 -397 -550h-91z" />
    <glyph glyph-name="tibAa" unicode="&#xf68;" horiz-adv-x="1148" 
d="M122 1225h185v-199h-44q-101 -176 -88 -258q5 -85 95 -153q118 -62 178 16q67 85 -163 165q85 104 257 230h-124v199h260v-199h-81q235 -163 363 -348q-2 320 -110 332v215h192v-980l-54 -2q-98 338 -523 632q-52 -25 -78 -60q238 -115 205 -230q-59 -134 -177 -175
q-62 -20 -107 -14.5t-98 35.5q-298 154 -15 595h-73v199z" />
    <glyph glyph-name="tibKssa" unicode="&#xf69;" horiz-adv-x="1200" 
d="M1094 1224l-4 -870h-81q-2 553 -95 673h-227q10 -45 10 -168q2 -130 -5 -213h-47q-30 320 -110 381h-211q38 -106 6 -161q-21 -54 -166 -135l-74 138q120 75 149 108q33 34 16 50h-140v197h979zM984 422h-104q47 -70 57 -91q15 -85 -10 -165q77 58 128 75l79 -194
q-284 -31 -352 -418q-5 -23 -15 -22q-12 5 -22 30q-100 282 4 360q-430 -98 -479 199l-28 -759h-87v1187h825zM287 422q22 -211 225 -255q200 -33 322 50q86 85 -30 205h-517z" />
    <glyph glyph-name="tibRaGoFixed" unicode="&#xf6a;" horiz-adv-x="1240" 
d="M1102 1223v-195h-440v-260q470 19 463 -705h-76q-20 507 -392 499h-525l3 211h469q-20 162 -124 255h-343v195h965z" />
    <glyph glyph-name="tib_Achung" unicode="&#xf71;" horiz-adv-x="38" 
d="M-744 303h629v-200q-7 -112 -97 -160q117 -70 148 -176q20 -109 20 -316h-64q-14 215 -115 285q-60 40 -155 48l-156 2v189q122 25 272 -12q88 104 -12 158h-407q-110 -86 -96 -170q13 -64 133 -206l-135 -150q-166 166 -156 319q15 136 191 226v163z" />
    <glyph glyph-name="tib.Gigu" unicode="&#xf72;" 
d="M-220 1215q-281 254 -436 305q-220 92 -277 12q-48 -82 155 -103l-70 -147q-182 8 -223 97q-39 95 81 205q122 101 230 120q112 25 232 -35q112 -44 447 -322z" />
    <glyph glyph-name="tib_Achung.Gigu" unicode="&#xf73;" horiz-adv-x="40" 
d="M-220 1215q-281 254 -436 305q-220 92 -277 12q-48 -82 155 -103l-70 -147q-182 8 -223 97q-39 95 81 205q122 101 230 120q112 25 232 -35q112 -44 447 -322zM-744 303h629v-200q-7 -112 -97 -160q117 -70 148 -176q20 -109 20 -316h-64q-14 215 -115 285
q-60 40 -155 48l-156 2v189q122 25 272 -12q88 104 -12 158h-407q-110 -86 -96 -170q13 -64 133 -206l-135 -150q-166 166 -156 319q15 136 191 226v163z" />
    <glyph glyph-name="tib_Shapkyu" unicode="&#xf74;" horiz-adv-x="41" 
d="M-910 398q252 -225 390 -271q195 -81 247 -10q43 71 -138 91l76 147q62 -10 106 -30q60 -31 80 -72q33 -86 -74 -182q-109 -91 -204 -108q-99 -20 -207 31q-98 40 -397 286z" />
    <glyph glyph-name="tib_Achung_Shapkyu" unicode="&#xf75;" horiz-adv-x="24" 
d="M-744 303h629v-200q-7 -112 -97 -160q117 -70 148 -176q20 -109 20 -316h-64q-14 215 -115 285q-60 40 -155 48l-156 2v189q122 25 272 -12q88 104 -12 158h-407q-110 -86 -96 -170q13 -64 133 -206l-135 -150q-166 166 -156 319q15 136 191 226v163zM-782 -484
q252 -225 390 -271q195 -81 247 -10q43 71 -138 91l76 147q62 -10 106 -30q60 -31 80 -72q33 -86 -74 -182q-109 -91 -204 -108q-99 -20 -207 31q-98 40 -397 286z" />
    <glyph glyph-name="tib_Rata.RevGigu" unicode="&#xf76;" horiz-adv-x="1257" 
d="M1180 733h4v-830h-55q-92 146 -259 173q-347 34 -601 0l1 190q211 16 474 14.5t360 -142.5l-2 564zM173 1356q335 278 447 322q120 60 232 35q108 -19 230 -120q120 -110 81 -205q-41 -89 -223 -97l-70 147q203 21 155 103q-57 80 -277 -12q-155 -51 -436 -305z" />
    <glyph glyph-name="tib_Rata_Achung.RevGigu" unicode="&#xf77;" horiz-adv-x="1257" 
d="M1180 733h4v-830h-55q-92 146 -259 173q-347 34 -601 0l1 190q211 16 474 14.5t360 -142.5l-2 564zM173 1356q335 278 447 322q120 60 232 35q108 -19 230 -120q120 -110 81 -205q-41 -89 -223 -97l-70 147q203 21 155 103q-57 80 -277 -12q-155 -51 -436 -305zM560 -75
h629v-200q-7 -112 -97 -160q117 -70 148 -176q20 -109 20 -316h-64q-14 215 -115 285q-60 40 -155 48l-156 2v189q122 25 272 -12q88 104 -12 158h-407q-110 -86 -96 -170q13 -64 133 -206l-135 -150q-166 166 -156 319q15 136 191 226v163z" />
    <glyph glyph-name="tib_Lata.RevGigu" unicode="&#xf78;" horiz-adv-x="1257" 
d="M173 1356q335 278 447 322q120 60 232 35q108 -19 230 -120q120 -110 81 -205q-41 -89 -223 -97l-70 147q203 21 155 103q-57 80 -277 -12q-155 -51 -436 -305zM341 697h433v-418q171 -7 257 -108q22 264 -124 336v190h202v-876h-54q-52 201 -167 253q-35 16 -133 25
q-97 6 -226 0l21 180h163q-8 202 -102 242h-241q-62 -95 -50 -185q5 -90 144 -299l-147 -81q-131 204 -136 330q19 155 160 288v123z" />
    <glyph glyph-name="tib_Lata_Achung.RevGigu" unicode="&#xf79;" horiz-adv-x="1257" 
d="M173 1356q335 278 447 322q120 60 232 35q108 -19 230 -120q120 -110 81 -205q-41 -89 -223 -97l-70 147q203 21 155 103q-57 80 -277 -12q-155 -51 -436 -305zM560 -75h629v-200q-7 -112 -97 -160q117 -70 148 -176q20 -109 20 -316h-64q-14 215 -115 285
q-60 40 -155 48l-156 2v189q122 25 272 -12q88 104 -12 158h-407q-110 -86 -96 -170q13 -64 133 -206l-135 -150q-166 166 -156 319q15 136 191 226v163zM403 736h433v-418q171 -7 257 -108q22 264 -124 336v190h202v-876h-54q-52 201 -167 253q-35 16 -133 25q-97 6 -226 0
l21 180h163q-8 202 -102 242h-241q-62 -95 -50 -185q5 -90 144 -299l-147 -81q-131 204 -136 330q19 155 160 288v123z" />
    <glyph glyph-name="tib.Drengbo" unicode="&#xf7a;" horiz-adv-x="34" 
d="M-195 1212q-319 164 -730 320l118 150q395 -168 732 -328z" />
    <glyph glyph-name="tib.DrengboDrengbo" unicode="&#xf7b;" horiz-adv-x="26" 
d="M-232 1222l-14 16q-305 153 -691 300l118 150q130 -56 248 -111q-106 103 -224 210l165 96q306 -301 561 -573l-127 -69l-11 -23l-16 8z" />
    <glyph glyph-name="tib.Naro" unicode="&#xf7c;" horiz-adv-x="23" 
d="M62 1726q67 -376 -200 -378h-193q-97 0 -134 -35q-40 -32 -40 -115h-45q-23 147 -128 167h-365v198h355q120 -12 160 -173q52 156 212 156h180q88 0 118 30q28 25 57 150h23z" />
    <glyph glyph-name="tib.NaroNaro" unicode="&#xf7d;" horiz-adv-x="28" 
d="M63 2019q67 -376 -200 -378h-193q-97 0 -134 -35q-33 -27 -39 -160q59 100 187 100h180q88 0 154 17q45 30 77 118h23q11 -331 -256 -333h-193q-97 0 -134 -35q-40 -32 -40 -115h-45q-23 147 -128 150h-365v198h355q82 3 127 -71q-32 166 -116 179h-365v198h355
q120 -8 160 -169q52 156 212 156h180q88 0 118 30q28 25 57 150h23z" />
    <glyph glyph-name="tib.Anusvara" unicode="&#xf7e;" 
d="M-640 1789q262 -9 257 -285q13 -253 -256 -263q-181 3 -241 149q-11 28 -18.5 56t-9 59.5t3.5 69.5t18 87q23 55 88 89t158 38zM-660 1615q-191 -2 -188 -107q-8 -90 193 -90q219 2 211 85q3 103 -216 112z" />
    <glyph glyph-name="tibVisarga" unicode="&#xf7f;" horiz-adv-x="750" 
d="M383 1230q262 -9 257 -285q13 -253 -256 -263q-181 3 -241 149q-11 28 -18.5 56t-9 59.5t3.5 69.5t18 87q23 55 88 89t158 38zM363 1056q-191 -2 -188 -107q-8 -90 193 -90q219 2 211 85q3 103 -216 112zM378 470q262 -9 257 -285q13 -253 -256 -263q-181 3 -241 149
q-11 28 -18.5 56t-9 59.5t3.5 69.5t18 87q23 55 88 89t158 38zM358 296q-191 -2 -188 -107q-8 -90 193 -90q219 2 211 85q3 103 -216 112z" />
    <glyph glyph-name="tib_RevGigu" unicode="&#xf80;" horiz-adv-x="35" 
d="M-1179 1353q335 278 447 322q120 60 232 35q108 -19 230 -120q120 -110 81 -205q-41 -89 -223 -97l-70 147q203 21 155 103q-57 80 -277 -12q-155 -51 -436 -305z" />
    <glyph glyph-name="tib_Achung.RevGigu" unicode="&#xf81;" horiz-adv-x="1184" 
d="M11 1361q335 278 447 322q120 60 232 35q108 -19 230 -120q120 -110 81 -205q-41 -89 -223 -97l-70 147q203 21 155 103q-57 80 -277 -12q-155 -51 -436 -305zM287 295h629v-200q-7 -112 -97 -160q117 -70 148 -176q20 -109 20 -316h-64q-14 215 -115 285q-60 40 -155 48
l-156 2v189q122 25 272 -12q88 104 -12 158h-407q-110 -86 -96 -170q13 -64 133 -206l-135 -150q-166 166 -156 319q15 136 191 226v163z" />
    <glyph glyph-name="tib.SunMoonHon" unicode="&#xf82;" horiz-adv-x="34" 
d="M-381 1702q5 -95 -45 -151t-155 -62q-93 -7 -154.5 45t-63.5 133q-4 65 37 90t125 12q-37 -22 -35 -71.5t32.5 -75.5t74.5 -7.5t52.5 65t-36.5 89.5t-69 85t-24 128q7 35 17.5 66t28 55t28.5 34.5t13 10.5q4 0 4 -4q-13 -218 60.5 -268.5t90.5 -98t19 -75.5zM-889 1343
l-49 25l91 160l99 -51q276 -109 401 22l45 -27q-186 -348 -552 -148z" />
    <glyph glyph-name="tib.SunMoon" unicode="&#xf83;" horiz-adv-x="45" 
d="M-889 1343l-49 25l91 160l99 -51q276 -109 401 22l45 -27q-186 -348 -552 -148zM-616 1967q232 -7 228 -247q12 -219 -227 -227q-161 3 -214 129q-10 24 -16.5 48t-8 51.5t3 60.5t15.5 76q20 48 78 76.5t141 32.5zM-634 1817q-170 -2 -167 -93q-7 -78 171 -78
q195 2 188 73q3 89 -192 98z" />
    <glyph glyph-name="tib_Halanta" unicode="&#xf84;" horiz-adv-x="47" 
d="M-329 -415q-319 165 -575 253l118 152q240 -102 577 -264z" />
    <glyph glyph-name="tibPaluta" unicode="&#xf85;" horiz-adv-x="1157" 
d="M264 1223h684v-197q0 -120 -19 -184q120 -68 134 -204q15 -84 -132 -312q-103 -152 -299 -416q-91 -107 119 -107l-82 -153q-242 34 -148 208q338 483 362 616q8 47 2 87q-20 83 -62 120q-93 82 -188 93q-60 5 -94 -34q-49 -82 143 -202l-143 -138q-99 89 -121 156
q-28 69 11 148q170 289 443 167q12 104 -78 157h-520q-58 -10 -49 -99q38 -110 135 -179l-100 -140q-337 281 2 457v156z" />
    <glyph glyph-name="tib.CupHook" unicode="&#xf86;" horiz-adv-x="21" 
d="M-621 1451q2 28 19 75.5t90.5 98t60.5 268.5q0 4 4 4q2 0 13 -10.5t28.5 -34.5t28 -55t17.5 -66q0 -86 -24 -128t-69 -85t-36.5 -89.5t52.5 -65t74.5 7.5t32.5 75.5t-35 71.5q84 13 125 -12t37 -90q-2 -81 -63.5 -133t-154.5 -45q-105 6 -155 62t-45 151z" />
    <glyph glyph-name="tib.Shey" unicode="&#xf87;" horiz-adv-x="25" 
d="M-590 2057v-734h-64l-30 288q-15 224 -166 246l38 200h222z" />
    <glyph glyph-name="tibSuperX" unicode="&#xf88;" horiz-adv-x="1179" 
d="M584 846q-51 -37 -91.5 -65t-96.5 -88q100 -2 187 -3t181 -5zM1087 698l-53 -163h-1016l43 163h154q79 68 150.5 111t145.5 86q-74 48 -148.5 91t-154.5 86h-137l42 152h1023l-51 -152h-137q-73 -43 -140.5 -86t-143.5 -91q69 -43 139.5 -90.5t136.5 -111.5zM396 1068
q47 -26 89.5 -53t86.5 -55q31 15 60.5 31t56.5 27t54 24t58 30z" />
    <glyph glyph-name="tibSuper3" unicode="&#xf89;" horiz-adv-x="1328" 
d="M88 1334q115 187 172 266q60 97 138 119q67 15 165 -34q100 -59 98 -159q-4 -95 -152 -205l-39 148q109 86 39 127q-54 33 -144 -119q-65 -112 -186 -282zM1143 1215q-121 170 -186 282q-90 152 -144 119q-70 -41 39 -127l-39 -148q-148 110 -152 205q-2 100 98 159
q98 49 165 34q78 -22 138 -119q57 -79 172 -266z" />
    <glyph glyph-name="tibCamel" unicode="&#xf8a;" horiz-adv-x="1130" 
d="M978 674q-77 257 -191 324q-149 92 -199 -3q-42 -99 137 -125l-62 -175q-162 9 -197 116q-20 65 8 136q-161 219 -279 58q-32 -103 149 -109l-47 -180q-161 -8 -207 94q-44 111 50 252q96 132 189 164q109 42 242 -134q90 89 170 108q100 30 197 -59q119 -145 145 -289z
" />
    <glyph glyph-name="tibSuper3Trunc" unicode="&#xf8b;" horiz-adv-x="1464" 
d="M925 1016q-10 -118 -66.5 -173t-143.5 -100q63 0 121.5 -1t116.5 -1q67 -5 82 6t40 36q12 18 20 56.5t5 114.5l-15 214l227 111l1 -180q20 -291 -111 -408q-99 -97 -192 -135t-232 -28l-321 18l138 150q145 162 145 238q0 77 -42.5 121t-114.5 44q-198 0 -163 -285
l-247 -123q10 255 120 387q62 71 154 113q118 25 231 25q122 0 167 -42q85 -36 80 -158z" />
    <glyph glyph-name="tib_Ka" unicode="&#xf90;" 
d="M-1079 400h955v-947h-113v585q-13 128 -105 160h-202l19 -455h-94q9 307 -86 453l-239 -5q159 -103 107 -185q-63 -113 -128 -158l-134 132q82 63 106 112t6 99l-92 7v202z" />
    <glyph glyph-name="tib_Kha" unicode="&#xf91;" horiz-adv-x="30" 
d="M-1050 400h970l13 -680h-28q-67 90 -199.5 122.5t-413.5 3.5l-2 194l90 15q-50 38 40 143h-270q-70 -40 -98 -140q-32 -180 -39 -605h-103v510q-2 185 40 242v195zM-468 198q-99 -88 -57 -143q268 10 360 -85q12 183 -108 228h-195z" />
    <glyph glyph-name="tib_Ga" unicode="&#xf92;" horiz-adv-x="27" 
d="M-1155 401h1027v-949h-107l-22 577q-11 155 -101 170h-209l12 -448l-62 6q-26 72 -88.5 97t-198.5 35t-246 -8l-5 178l52 3q-10 65 40 137h-92v202zM-987 199q-55 -70 -36 -137q288 10 378 -60q27 140 -107 197h-235z" />
    <glyph glyph-name="tib_Gha" unicode="&#xf93;" horiz-adv-x="28" 
d="M-550 -1217q176 192 270 330q123 174 21 275q-115 100 -291 -40q18 -46 23 -90q3 -15 -3 -21q-7 -2 -20 10q-55 60 -117 71q-62 17 -240 10v184q10 66 48 105h-76v183h801q-6 295 -125 420h-238v-383l-45 -2q-105 87 -495 55v162l32 3q-49 75 20 165h-52v182h962v-785
h-697q-53 -44 -58 -105q205 1 260 -127q116 147 241 177q120 21 209 -64q40 -40 53 -81q13 -42 3 -90q-20 -97 -146 -259q-134 -161 -309 -315zM-914 220q-50 -43 -56 -80q-7 -35 23 -85q223 0 388 -40q-10 178 -93 205h-262z" />
    <glyph glyph-name="tib_Nga" unicode="&#xf94;" horiz-adv-x="30" 
d="M-1061 398h871v-200h-703q-87 -67 -75 -148l437 3q380 -13 406 -505h-63q-77 308 -377 320l-510 -12v184l42 5q-12 91 38 153h-73z" />
    <glyph glyph-name="tib_Ca" unicode="&#xf95;" horiz-adv-x="26" 
d="M-1069 399h937v-200h-462q-2 -97 -25 -120q123 3 203 0q84 -2 144 -12q126 -23 156 -143q20 -124 -51 -195q-105 -135 -240 -175q-67 -20 -139 -14q-71 4 -143 34q-165 68 -410 260l103 173q42 -30 56 -41.5t76 -48.5q105 53 140 102q23 53 31.5 85.5t1.5 94.5h-378v200z
M-636 15q-66 -115 -155 -136q155 -112 284 -164q41 -16 81 -21q42 -7 77 -4q147 24 132 112q-19 50 -89 63q-65 10 -148 14q-80 3 -182 0v136z" />
    <glyph glyph-name="tib_Cha" unicode="&#xf96;" horiz-adv-x="33" 
d="M-1129 400h971v-200h-480q9 -56 7 -85.5t-13 -104.5q75 107 246 107q244 -2 247 -255q-10 -262 -247 -277q-190 4 -280 160q-70 -160 -241 -161q-244 21 -264 283q7 245 260 255q134 0 229 -100q-25 110 -79 178h-356v200zM-923 -58q-200 -18 -191 -75q-25 -93 195 -102
q231 -5 218 97q0 67 -222 80zM-416 -63q-228 -12 -225 -70q-17 -90 228 -95q224 -2 199 85q18 62 -202 80z" />
    <glyph glyph-name="tib_Ja" unicode="&#xf97;" horiz-adv-x="31" 
d="M-1008 401h915v-200h-786l-14 -100h744v-192h-747l-7 -97h255q305 2 450 -93q129 -133 130 -437l-61 2q0 188 -119 278q-101 54 -348 54h-402l42 585h-52v200z" />
    <glyph glyph-name="tib_Nya" unicode="&#xf99;" 
d="M-825 398h686v-197q0 -75 -20 -140q122 -68 135 -205q15 -82 -131 -310q-137 -240 -229 -337h-78q227 324 257 484q8 48 1 88q-20 80 -60 118q-95 82 -188 94q-62 3 -95 -35q-48 -80 143 -202l-143 -138q-98 90 -120 158q-28 68 10 147q172 245 443 166q12 75 -78 110
h-520q-57 -6 -50 -93q38 -112 137 -182l-102 -141q-335 285 2 458v157z" />
    <glyph glyph-name="tib_Tta" unicode="&#xf9a;" horiz-adv-x="30" 
d="M-195 311q47 -38 52 -68q12 -29 -5 -90l-195 -470l-50 31l18 84q-51 83 -85.5 97t-87.5 6q-73 -12 -140.5 -43.5t-92.5 -141.5q-12 -113 48 -247l207 -276h-92q-138 156 -195 258q-138 202 -128 358q13 155 143 222q77 38 148 47q72 3 149 -19q65 -48 140 -201l121 285
q15 60 -35 58h-705v198h785v-88z" />
    <glyph glyph-name="tib_Ttha" unicode="&#xf9b;" horiz-adv-x="27" 
d="M-1005 400h745v-142q167 -75 188 -152q24 -76 -88 -216q95 -49 108 -99h24v-205q-632 67 -907 -215l-70 -1v1030zM-802 201q-33 -46 -45 -81q394 -85 492 -149q103 115 122 160q20 50 -32 70h-537zM-875 46q-58 -166 -68 -438q333 248 780 178q-39 50 -209 104
q-153 86 -503 156z" />
    <glyph glyph-name="tib_Dda" unicode="&#xf9c;" horiz-adv-x="0" 
d="M-135 398v-200h-50q107 -140 7 -233h47v-202h-460q-375 25 -392 -617h-77q30 380 94 587q93 240 380 232h328q118 103 -5 233h-723v200h851z" />
    <glyph glyph-name="tib_Ddha" unicode="&#xf9d;" horiz-adv-x="18" 
d="M-433 -1099l-57 28l152 210q123 179 22 280q-114 99 -205 -30q16 -60 23 -120q3 -15 -5 -18q-5 -2 -18 7q-64 76 -125 88q-64 15 -242 10v187q12 66 50 105h-78v178q-59 -62 -80 -168q-35 -134 -39 -445h-71q0 268 13 471q5 429 417 410h416q44 84 -45 122h-761v183h943
v-181h-73q63 -14 20 -130h56v-179h-550q-158 7 -243 -81h752l1 -180h-593q-52 -47 -58 -105q240 -10 270 -120q56 138 153 166q123 24 210 -63q42 -40 53 -80q15 -40 4 -92q-19 -98 -147 -258z" />
    <glyph glyph-name="tib_Nna" unicode="&#xf9e;" horiz-adv-x="0" 
d="M-95 199h-369q-68 -65 -76 -143q98 8 235 3q51 -3 125 -32q125 -60 125 -268q-7 -273 -302 -255q-313 15 -255 330q-92 -30 -188 -237q-42 -136 -49 -498h-80l7 445q7 108 38 247q59 230 285 255l4 153h-379v200h879v-200zM-349 -126q-123 -5 -201 -27q-2 -163 201 -163
q244 0 234 83q11 114 -234 107z" />
    <glyph glyph-name="tib_Ta" unicode="&#xf9f;" horiz-adv-x="0" 
d="M-987 399h833v-198h-752q-51 1 -35 -59l154 -350q86 172 205 220q73 27 146 20q72 -6 149 -45q130 -66 143 -221q12 -155 -127 -359l-163 -245l-92 2l174 260q60 135 46 245q-25 113 -108 150q-70 28 -122 37q-55 10 -115 3q-56 -22 -121 -127l16 -83l-48 -32l-228 535
q-17 62 -7 90q7 32 52 70v87z" />
    <glyph glyph-name="tib_Tha" unicode="&#xfa0;" horiz-adv-x="23" 
d="M-975 397h857v-1048l-97 -3q-193 150 -411 165h-255q-112 -14 -179 -34v229q2 -2 19 1q0 67 73 110q-258 232 -7 382v198zM-878 201q-63 -57 -72 -90q-5 -35 9 -69q21 -63 145 -155q236 104 515 227q-19 53 -80 85zM-255 39q-380 -170 -550 -252q-101 -38 -95 -80
q187 4 275 2q84 -3 167 -22q148 -30 282 -151q-15 236 -79 503z" />
    <glyph glyph-name="tib_Da" unicode="&#xfa1;" horiz-adv-x="28" 
d="M-1018 401h905v-198h-740q-118 -67 -28 -177h338q287 8 377 -232q46 -238 86 -630h-78q-40 637 -382 659h-483v201l52 2q-67 87 26 177h-73v198z" />
    <glyph glyph-name="tib_Dha" unicode="&#xfa2;" horiz-adv-x="25" 
d="M-462 -982l-55 27l108 151q95 125 -7 227q-115 98 -231 -30q16 -57 21 -117q4 -16 -3 -20q-5 -3 -18 9q-64 75 -101.5 89t-217.5 9v183q12 69 50 104h-76v185h723q-83 80 -235 75h-510v178h58q-45 117 17 130h-72v180h904v-182h-720q-90 -38 -49 -123h380
q407 20 415 -410q12 -203 12 -472h-72q-1 314 -35 445q-23 109 -85 172l2 -178h-573q-52 -42 -55 -104q191 -6 220 -116q56 136 180 165q121 23 210 -64q41 -40 53 -78q15 -42 3 -92q-18 -98 -118 -206z" />
    <glyph glyph-name="tib_Na" unicode="&#xfa3;" horiz-adv-x="26" 
d="M-1024 399h895v-198h-398l2 -125q251 -29 308 -257q33 -137 45 -653h-78q-12 323 -59 441q-91 225 -203 252q60 -283 -255 -298q-337 -22 -297 255q4 130 137 218q68 43 118 43q129 14 227 4q-10 55 -80 120h-362v198zM-774 -99q-241 8 -233 -77q-7 -82 233 -82
q205 0 199 132q-77 22 -199 27z" />
    <glyph glyph-name="tib_Pa" unicode="&#xfa4;" horiz-adv-x="27" 
d="M-1067 400h523v-200h-383q-92 -90 -32 -180q294 12 462 -38q167 -40 285 -167q17 285 -143 385v200h231v-896h-68q-80 248 -295 286q-118 22 -217.5 24.5t-390.5 -7.5l16 207l34 3q-47 93 23 183h-50z" />
    <glyph glyph-name="tib_Pha" unicode="&#xfa5;" 
d="M-560 398v-198h-471q-115 -80 -5 -232q93 7 171 5q69 0 182 -11q162 98 318 203v233h235v-878q-28 -27 -48 -7q-212 187 -378 227q-104 28 -247 35q-140 7 -373 -7l20 187q13 3 48 3q-110 150 0 242h-42v198h590zM-318 112q-175 -102 -290 -164q223 -38 415 -196
q3 266 -125 360z" />
    <glyph glyph-name="tib_Ba" unicode="&#xfa6;" horiz-adv-x="34" 
d="M-1135 399h1000v-990h-60q-81 232 -326 283q-100 20 -242 22q-130 2 -393 0l3 207l48 1q-51 77 -48 132q0 55 75 145h-57v200zM-991 199q-92 -90 -92 -133q-7 -39 58 -139q319 14 537 -35q197 -36 267 -158q11 367 -154 465h-616z" />
    <glyph glyph-name="tib_Bha" unicode="&#xfa7;" horiz-adv-x="40" 
d="M-598 -1207q178 192 273 330q122 177 20 278q-115 97 -283 -30q17 -58 23 -118q2 -17 -3 -20q-7 -3 -20 8q-62 77 -125 87q-60 17 -242 12v183q12 68 50 107h-76v181h726q-56 39 -165 69q-115 33 -320 36l-340 -5v150h39q-35 45 -34 82q-1 38 34 82v175h921v-694v-76
h-700q-51 -45 -55 -107q239 -7 269 -117q105 139 233 167q120 23 207 -63q40 -42 53 -82q15 -38 2 -90q-19 -98 -145 -258q-132 -160 -284 -314zM-751 61q363 10 550 -118q-7 223 -157 278h-603q-50 -38 -49 -73q-1 -33 49 -87h210z" />
    <glyph glyph-name="tib_Ma" unicode="&#xfa8;" horiz-adv-x="33" 
d="M-1126 399h662v-198h-209v-162q279 -72 465 -343q4 385 -151 485v218h230v-1002h-69q-166 284 -410 417q20 -325 -273 -328q-290 -7 -293 260q-7 161 121 246q125 85 312 55q7 94 -58 154h-327v198zM-669 -163q-104 44 -227 40q-243 -5 -222 -123q14 -110 224 -103
q226 1 225 186z" />
    <glyph glyph-name="tib_Tsa" unicode="&#xfa9;" horiz-adv-x="24" 
d="M-1034 397h783l-3 3q-10 15 -23 32l130 128q36 -51 85 -91q16 -17 23 -15q12 1 18 20q19 71 27 186q0 9 13 10q10 -1 15 -10q27 -165 12 -258q-13 -98 -77 -177q-26 -53 -73 0q-25 29 -50 55v-81h-330q-2 -99 -23 -167q121 3 201 0q84 -5 145 -13q127 -25 155 -142
q20 -127 -73 -257q-103 -135 -237 -175q-68 -21 -138 -15q-72 5 -147 34q-165 68 -490 310l104 171q43 -26 88 -56q65 -44 125 -80q105 51 160 163q23 52 33 108q7 57 0 119h-453v198zM-526 -31q-66 -117 -176 -200q158 -110 286 -160q40 -19 82 -25q40 -5 77 0
q78 11 125 60q43 55 25 110q-17 50 -89 63q-65 10 -148 15q-80 3 -182 0v137z" />
    <glyph glyph-name="tib_Tsha" unicode="&#xfaa;" horiz-adv-x="28" 
d="M-1020 403h780q-11 13 -23 33l128 129q37 -50 87 -94q15 -16 25 -15q10 2 17 24q21 68 26 183q0 8 12 10q12 -2 17 -10q25 -163 11 -258q-13 -97 -78 -177q-27 -53 -70 0q-40 45 -82 87v-112h-376q20 -90 0 -243q78 108 246 108q277 -2 280 -295q-15 -260 -280 -277
q-188 4 -280 157q-70 -157 -241 -160q-270 20 -290 285q8 285 285 295q133 0 230 -100q-10 150 -84 230h-340v200zM-316 -114q-194 -8 -225 -108q20 -92 228 -95q205 3 227 85q-47 108 -230 118zM-826 -109q-175 -13 -219 -113q25 -92 224 -100q195 8 221 95
q-43 108 -226 118z" />
    <glyph glyph-name="tib_Dza" unicode="&#xfab;" 
d="M-1012 398h807l-2 2q-12 17 -25 33l130 129q37 -52 87 -92q15 -18 23 -15q12 2 17 20q20 72 26 187q0 6 14 10q10 -4 16 -10q27 -165 12 -259q-13 -98 -77 -176q-28 -54 -73 0q-13 15 -27 30v-57h-801l-12 -145h798v-192h-801l-7 -131h255q358 1 503 -90
q129 -135 130 -442l-61 3q0 187 -119 282q-101 52 -346 52h-457l42 663h-52v198z" />
    <glyph glyph-name="tib_Dzha" unicode="&#xfac;" horiz-adv-x="23" 
d="M-309 -1044l-55 27l92 172q35 110 -27 171q-115 97 -281 -31q15 -59 20 -119q5 -15 -2 -18t-18 8q-64 75 -127 87q-62 15 -240 12v183q10 68 48 107h-76v180h783q-17 10 -37 15q-130 30 -405 30l-343 -12l32 467h-34v165h812l60 131l103 -103q24 -22 39 0q33 65 43 152
q0 13 10 15q10 -2 10 -15q5 -195 -40 -330q-10 -22 -27 -25q-23 -4 -43 13q-7 5 -18 15q-65 52 -132 122v-140h-720l-5 -84h740v-143h-747l-5 -93h265q307 6 410 -39q117 -38 255 -280l-48 -16q-42 65 -98 108v-133h-697q-55 -47 -60 -107q242 -8 270 -117q108 137 232 167
q121 22 200 -60q51 -45 56 -131t-90 -211z" />
    <glyph glyph-name="tib_Wazur" unicode="&#xfad;" horiz-adv-x="28" 
d="M-232 167q-150 -83 -227 -168q134 -32 227 -113v281zM-132 272v-613q-250 190 -543 227q225 251 443 361z" />
    <glyph glyph-name="tib_Zha" unicode="&#xfae;" horiz-adv-x="25" 
d="M-892 398h693l-2 -390q110 -77 124 -223l3 -620h-73l-17 490q-12 116 -90 178q-17 -235 -283 -210q-270 -42 -295 202q-5 106 31 170q50 83 175 99t222 2q85 -13 132 -51q-5 100 -90 155h-534q-130 -160 -116 -210q-7 -107 136 -340l-100 -175q-201 256 -175 425
q7 138 259 375v123zM-306 -127q-60 42 -130 48q-65 5 -175 0q-163 -11 -151 -86q8 -32 58 -45.5t212.5 -9t185.5 92.5z" />
    <glyph glyph-name="tib_Za" unicode="&#xfaf;" horiz-adv-x="41" 
d="M-129 397v-1100h-72q-60 141 -310 176q-113 14 -278 14q-99 1 -335 -14l21 204q347 18 544 -5q196 -25 350 -107q-7 215 -10 252h-842v200h832q-12 128 -82 180h-785v200h967z" />
    <glyph glyph-name="tib_AchungFixed" unicode="&#xfb0;" horiz-adv-x="43" 
d="M-811 398h670v-219q14 -120 -118 -221q130 -82 162 -192q41 -113 28 -342h-72q0 230 -126 309q-65 40 -97 50q-102 8 -245 -15l-3 210q211 38 300 0q88 146 -2 220h-427q-115 -104 -106 -209q6 -105 110 -241l-155 -192q-144 143 -129 302q7 156 210 361v179z" />
    <glyph glyph-name="tib_Yata" unicode="&#xfb1;" horiz-adv-x="37" 
d="M-110 399q27 -145 -141 -230q-82 -41 -204 -41q-121 1 -275 41q-75 17 -131 4q-52 -10 -87 -50q212 -177 487 -192q310 -15 395 348q8 29 61 25q17 -3 15 -36q-93 -525 -503 -515q-343 18 -638 285q61 130 153 181q90 50 237 42q308 -82 413 -33q147 33 125 178z" />
    <glyph glyph-name="tib_Rata" unicode="&#xfb2;" horiz-adv-x="38" 
d="M-118 178v-530h-23q-122 200 -293 219q-134 10 -224 11.5t-160.5 0t-138 -6.5t-157.5 -10l5 205q113 11 464 11t429 -141l-7 236z" />
    <glyph glyph-name="tib_Lata" unicode="&#xfb3;" horiz-adv-x="36" 
d="M-979 401h467v-475q213 -10 307 -123q21 300 -134 380v218h215v-997h-55q-58 229 -183 279q-67 28 -170 36q-103 9 -273 0l20 207h210q-10 225 -110 275h-260q-119 -108 -104 -213q5 -102 154 -339l-159 -93q-140 232 -143 377q27 153 218 328v140z" />
    <glyph glyph-name="tib_Sha" unicode="&#xfb4;" horiz-adv-x="37" 
d="M-944 398h825l-3 -1246h-87l-25 751q-200 -330 -522 -188q115 -88 47 -372q-10 -25 -22 -28q-10 -2 -16 22q-65 385 -417 415l78 193q122 -17 197 -72q-25 79 -13 165q13 85 58 160h-103zM-767 198q-119 -190 -30 -275q131 -101 323 -48q173 62 225 323h-518z" />
    <glyph glyph-name="tib_Ssa" unicode="&#xfb5;" horiz-adv-x="30" 
d="M-239 199h-102q44 -73 57 -160q12 -86 -13 -165q76 55 196 74l79 -195q-352 -30 -417 -415q-5 -24 -17 -22q-11 5 -21 30q-69 283 46 372q-321 -142 -521 186l-29 -783h-85v1278h825zM-936 199q50 -261 225 -323q192 -53 322 48q87 87 -30 275h-517z" />
    <glyph glyph-name="tib_Sa" unicode="&#xfb6;" horiz-adv-x="22" 
d="M-459 400v-192h-173q305 -162 420 -367q3 279 -117 367v192h197v-1024l-70 2q-97 455 -627 678l80 152h-157q-115 -95 -128 -145q-17 -52 40 -128q358 18 383 -472l-63 12q-28 173 -152 225q-100 46 -336 15l33 213l57 7q-39 83 -27 136q10 57 97 137h-120v192h663z" />
    <glyph glyph-name="tib_Ha" unicode="&#xfb7;" 
d="M-516 -889q217 269 287 370q162 235 -8 339q-79 51 -129 33q-71 -18 -151 -103q11 -77 20 -125q6 -47 6 -114h-38q-53 170 -157 215q-53 25 -95 32q-86 8 -236 -2l23 219q22 146 133 223h-130v198h915v-198h-675q-145 -95 -158 -223q298 16 358 -154q75 149 197 209
q102 53 228 -10q134 -77 117 -250q-20 -170 -148 -335q-70 -90 -255 -317z" />
    <glyph glyph-name="tib_Aa" unicode="&#xfb8;" horiz-adv-x="27" 
d="M-1128 397h215v-198h-75q-100 -178 -87 -258q3 -87 125 -157q118 -58 178 20q67 82 -165 165q105 103 279 230h-124v198h310v-198h-115q254 -163 382 -352q-2 324 -112 332v218h195v-980l-55 -1q-96 336 -558 630q-52 -24 -80 -60q220 -114 187 -230q-57 -134 -177 -174
q-62 -20 -120 -13q-62 5 -115 35q-300 152 -18 595h-70v198z" />
    <glyph glyph-name="tib_Kssa" unicode="&#xfb9;" horiz-adv-x="21" 
d="M-146 398v-797h-72q-3 478 -98 618h-243q8 -63 3 -326h-48q-27 246 -109 326h-208q35 -123 3 -180q-21 -55 -165 -133l-75 138q119 72 150 105q35 37 17 70h-140v179h985zM-264 -329h-104q44 -57 60 -92q10 -83 -11 -165q75 57 126 75l80 -193q-285 -62 -361 -270
q-9 -22 -17 -20q-12 5 -22 30q-95 170 27 290q-438 -60 -490 120l-43 -462h-79l5 889h827zM-959 -329q13 -132 210 -173q213 -20 323 18q87 65 -17 155h-516z" />
    <glyph glyph-name="tib_Wa" unicode="&#xfba;" horiz-adv-x="25" 
d="M-508 400v-373h280q-7 123 -100 150v223h197v-1155h-29q-141 158 -230 187q-66 21 -173 28q-98 3 -292 0l19 192h60q-35 70 -17 128q15 55 95 132v115h132q-19 166 -97 175h-302q-26 -37 -33 -64q-3 -26 8 -56q24 -54 145 -157l-120 -178q-143 151 -135 241
q-8 89 135 282v130h457zM-695 -180q-80 -65 -18 -167q243 4 323 -21q112 -24 197 -100q-2 101 -13 288h-489z" />
    <glyph glyph-name="tib_Ya" unicode="&#xfbb;" horiz-adv-x="30" 
d="M-1152 400h296v-199h-100q-163 -358 35 -421q294 -35 274 425l-94 -4v199h294v-199h-105q3 -158 -19 -293q232 -57 360 -162q7 374 -141 455v199h235v-1030h-72q-100 283 -447 336q-68 -113 -168 -148q-98 -33 -212 5q-321 128 -26 638h-110v199z" />
    <glyph glyph-name="tib_Ra" unicode="&#xfbc;" horiz-adv-x="31" 
d="M-148 401v-198h-411v-257q468 19 463 -705h-77q-21 507 -391 499h-525l3 210h468q-20 163 -123 253h-343v198h936z" />
    <glyph glyph-name="tibXMark" unicode="&#xfbe;" horiz-adv-x="924" 
d="M571 476l301 -297l-102 -104l-295 293l-295 -293l-106 104l295 297l-299 295l116 90l289 -284q72 69 146.5 142.5t142.5 141.5l102 -96z" />
    <glyph glyph-name="tibXDot4Mark" unicode="&#xfbf;" horiz-adv-x="1335" 
d="M1260 942q-104 -91 -219.5 -196.5t-231.5 -215.5l205 -207q54 -52 105 -103.5t102 -102.5q20 -17 35.5 -34.5t15.5 -31.5q0 -27 -31 -27q-6 1 -18 7t-35.5 22t-60.5 44.5t-94 74.5t-135.5 112t-184.5 158q-88 -81 -166 -153t-139 -128.5t-100 -93t-48 -47.5l-72 80
q36 33 85 77.5t107.5 97t124 111t134.5 120.5q-81 63 -161 130t-156 133t-146.5 128.5t-132.5 116.5h332q68 -93 161.5 -196t204.5 -218q65 59 125.5 118.5t113.5 116t97.5 107t77.5 92.5zM1305 508q0 -54 -33 -89.5t-88 -35.5q-28 0 -51 9.5t-39.5 26t-25.5 39.5t-9 50
q0 54 34.5 87.5t90.5 33.5q55 0 88 -33.5t33 -87.5zM387 508q0 -54 -34 -89.5t-91 -35.5q-54 0 -87.5 35.5t-33.5 89.5t33.5 87.5t87.5 33.5q57 0 91 -33.5t34 -87.5zM868 968q0 -54 -33.5 -87t-89.5 -33q-55 0 -87.5 33t-32.5 87q0 56 32.5 88.5t87.5 32.5q56 0 89.5 -32.5
t33.5 -88.5zM868 88q0 -54 -33.5 -87.5t-89.5 -33.5q-55 0 -87.5 33.5t-32.5 87.5t32.5 85.5t87.5 31.5q56 0 89.5 -31.5t33.5 -85.5z" />
    <glyph glyph-name="tibEgg" unicode="&#xfc0;" horiz-adv-x="1116" 
d="M104 733q0 92 36 175t98 144t145 97t177 36t177 -36t144 -97t97 -144t36 -175q0 -94 -36 -177t-97 -144t-144 -97t-177 -36t-177 36t-145 97t-98 144t-36 177zM560 1105q-76 0 -142 -29t-115 -80t-77 -118t-28 -145t28 -146t77 -119t115 -80t142 -29q74 0 140 29t115 80
t77 119t28 146t-28 145t-77 118t-115 80t-140 29z" />
    <glyph glyph-name="tibEggSmall" unicode="&#xfc1;" horiz-adv-x="1063" 
d="M533 1089q-47 0 -86.5 -17t-68 -46t-44.5 -68t-16 -82q0 -47 16 -86t45 -67.5t68 -44t86 -15.5q44 0 82.5 15.5t67 44t45 67.5t16.5 86q0 43 -17 82t-45.5 68t-67 46t-81.5 17zM218 876q0 64 25.5 120t68.5 98t100 66.5t121 24.5t120.5 -24.5t98.5 -66.5t66.5 -98
t24.5 -120t-24.5 -121t-66.5 -100t-98.5 -68t-120.5 -25t-121 25t-100 68t-68.5 100t-25.5 121z" />
    <glyph glyph-name="tibCyclone" unicode="&#xfc2;" horiz-adv-x="1380" 
d="M127 419q0 75 20 145t56 131.5t87 112t112 86.5t131.5 56t146.5 20t145.5 -18.5t129.5 -52.5t109 -82t85 -107q-6 78 -32.5 135t-74 105t-116.5 94.5t-160 103.5q-28 -22 -66 -22q-25 0 -47.5 9.5t-39 26t-26 38.5t-9.5 47t10 47.5t26.5 39t38 26.5t45.5 10
q25 0 47.5 -10.5t38.5 -27.5t25.5 -39t9.5 -46q0 -5 -1 -10t-3 -11q111 -72 191.5 -133t132 -123.5t76 -132t24.5 -158.5q0 -35 -2.5 -72t-13.5 -79q5 -29 8.5 -56t3.5 -53q0 -76 -20 -146.5t-56 -132t-87 -112.5t-112.5 -87.5t-132.5 -56.5t-147 -20q-77 0 -147.5 19.5
t-131 55.5t-110.5 86t-86 112q4 -85 30 -144.5t72 -108t111 -92.5t147 -98l13 -8q28 23 67 23q25 0 47 -9.5t38.5 -26t26 -38.5t9.5 -47t-10 -47t-26 -39t-37.5 -27t-43.5 -10q-27 0 -49.5 10t-39.5 27.5t-26.5 40t-9.5 47.5v9t2 9q-107 70 -185 132t-128 125.5t-74 133.5
t-24 156q0 35 5.5 77t16.5 87q-5 25 -7.5 48t-2.5 52zM266 419q0 -86 33 -161.5t89.5 -132t132 -89t159.5 -32.5q85 0 161 32.5t133 89t90.5 132t33.5 161.5q0 85 -33.5 160.5t-90.5 132t-133 89t-161 32.5q-84 0 -159.5 -32.5t-132 -89t-89.5 -132t-33 -160.5z" />
    <glyph glyph-name="tibBullseye" unicode="&#xfc3;" horiz-adv-x="1661" 
d="M827 -625q-2 -4 -10 -12q-8 -12 -33 -31q-16 -12 -41.5 -22.5t-64.5 -10.5v430q-127 25 -236.5 91.5t-189.5 163t-126 218t-46 257.5q0 153 59.5 289.5t160.5 237.5t237.5 160.5t291.5 59.5q154 0 289 -59.5t236.5 -160.5t161 -237.5t59.5 -289.5q0 -136 -45 -257.5
t-126 -218t-190.5 -163t-238.5 -91.5v-430q-29 2 -49.5 7.5t-30.5 9.5q-23 10 -36 23.5t-19 25.5q-11 12 -13 24v-14zM453 461q0 77 29.5 145t80.5 119t120 79.5t146 28.5q76 0 143.5 -28.5t119 -79.5t80 -119t28.5 -145q0 -117 -62.5 -208t-162.5 -134v-273q98 25 186 84.5
t154.5 142t106.5 182t40 204.5q0 124 -52 239t-140 203t-203 140t-238 52q-127 0 -241.5 -52t-201.5 -140t-139 -203t-52 -239q0 -105 39.5 -204.5t106.5 -181t154 -142t183 -87.5v275q-98 41 -161.5 133t-63.5 209zM752 461q0 30 22.5 51.5t54.5 21.5q29 0 51.5 -21.5
t22.5 -51.5q0 -21 -10 -37.5t-25 -26.5l107 -160v-43q74 37 119 108t45 157q0 63 -24.5 117.5t-66.5 95t-98.5 64.5t-120.5 24q-65 0 -119.5 -24t-94.5 -64.5t-62.5 -95t-22.5 -117.5q0 -82 40 -150t108 -106v34l108 160q-34 23 -34 64zM842 -543q8 -27 18 -40t20.5 -19
t16.5 -7.5l6 -1.5v848h-151v-848q0 3 21.5 11t41.5 53q0 2 3 14.5t6 24.5t4 22.5l1 10.5l1 -9.5t3.5 -20.5t4.5 -22.5t4 -15.5z" />
    <glyph glyph-name="tibBell" unicode="&#xfc4;" horiz-adv-x="1059" 
d="M467 859q18 4 33 7.5t32 3.5q36 0 61 -11l39 52q0 8 -14 15t-31.5 12t-33 8.5t-21.5 3.5q-5 0 -21 -3.5t-34 -8.5t-31.5 -12t-13.5 -15zM576 1219q0 -29 7 -49.5t14.5 -34.5t15 -23t7.5 -15q0 -8 -3 -15t-15 -7q0 -20 -9.5 -33.5t-9.5 -35.5q0 -10 12 -10.5t26 -9.5
q27 22 45 49t18 62q0 29 -13 47t-28.5 31t-34 25t-28.5 30zM488 1230q-12 -18 -29.5 -30t-34 -25t-29 -30t-12.5 -48q0 -35 16.5 -62t42.5 -49q16 9 29.5 9.5t13.5 10.5q0 22 -11 35.5t-11 33.5q-13 0 -14.5 7t-1.5 15q0 6 6 15t15 23t16 34.5t7 49.5zM463 809
q-29 -16 -29 -42q0 -25 30 -43t68 -18q44 0 73.5 18t29.5 43q0 26 -29.5 42t-73.5 16q-37 0 -69 -16zM463 654q25 -15 37.5 -16.5t31.5 -1.5q23 0 42.5 4t32.5 11v-223q-33 -14 -75 -14q-33 0 -69 14v226zM275 247q66 -16 127 -30.5t134 -14.5q54 0 101.5 7.5t93.5 21.5
q16 4 33 8.5t33 7.5q5 -19 12 -39.5t8 -41.5q-70 -15 -137.5 -29.5t-143.5 -14.5q-75 0 -144 14t-139 30q0 24 6 37zM296 287q10 16 29.5 31.5t44 31t49.5 29t48 21.5q22 -14 65 -14q44 0 79 20q31 -13 69 -37.5t64 -49.5q11 -9 17 -16.5t13 -15.5q-57 -14 -120 -29.5
t-122 -15.5q-41 0 -88 9.5t-89 21.5zM77 -379q111 -26 219.5 -45t235.5 -19q66 0 125.5 5.5t116.5 14.5t112 21.5t115 25.5l15 -32l-10 -50q-27 -27 -56 -43q-42 -22 -96 -35t-110.5 -21t-112 -10.5t-100.5 -2.5q-42 0 -97.5 1.5t-113 8t-111.5 20.5t-92 39q-15 5 -25.5 16
t-21.5 24l-14 49zM383 1239q0 11 13 15.5t30.5 10t35 13.5t26.5 24q0 8 5 15.5t13 14.5t15.5 11t10.5 4q6 0 12 -4t14.5 -11t14 -14.5t7.5 -15.5q5 -16 23 -24t35.5 -13.5t31.5 -10t14 -15.5h16q12 -2 19.5 -15t12.5 -28t8.5 -26.5t8.5 -11.5q15 -1 30.5 -15.5t15.5 -29.5
q0 -21 -11 -41.5t-28 -34.5q11 -14 19 -20t8 -21q0 -19 -12.5 -35t-32.5 -16q-11 0 -20 10q-11 0 -14.5 -5t-3.5 -8l8 -15l-76 -85q44 -35 44 -75q0 -42 -39.5 -72t-104.5 -30q-58 0 -99 30t-41 72q0 39 34 69l-66 91l5 15q0 3 -2.5 8t-14.5 5q-11 -10 -22 -10q-18 0 -31 16
t-13 35q0 15 8.5 21t19.5 20q-38 31 -38 76q0 15 15.5 29.5t29.5 15.5q6 0 9.5 11.5t8 26.5t11 28t19.5 15h18zM225 -9q14 59 23 127q69 -11 141 -27t143 -16q62 0 113 9t102 21l73 13q11 -68 22.5 -124t28.5 -108.5t41 -105t60 -114.5q-107 -26 -218.5 -42t-221.5 -16
q-109 0 -217 15.5t-213 40.5q44 89 73.5 164.5t49.5 162.5z" />
    <glyph glyph-name="tibVajra" unicode="&#xfc5;" horiz-adv-x="1022" 
d="M446 588q19 11 41 16t43 5t42 -5t42 -16l53 57q0 10 -19 18.5t-43.5 15.5t-47 10.5t-27.5 3.5q-7 0 -29 -3.5t-45.5 -10.5t-42.5 -15.5t-19 -18.5zM394 197q0 -10 19 -18.5t42.5 -15t45.5 -10t29 -3.5q5 0 27.5 3.5t47 10t43.5 15t19 18.5l-53 55q-41 -19 -84 -19
q-45 0 -84 19zM472 -216q0 40 -9.5 69t-20 48.5t-19 31t-8.5 16.5q0 9 3.5 20t17.5 11q0 13 4 23.5t10 21.5t10.5 21.5t4.5 25.5q1 6 -5 9t-14.5 5t-18.5 4.5t-19 9.5q-34 -31 -57 -66t-23 -85q0 -41 16.5 -65.5t39 -41t45 -31t37.5 -35.5zM587 1058q0 -40 8.5 -69
t19.5 -48.5t20.5 -30.5t9.5 -18t-3 -17.5t-20 -10.5q0 -15 -4.5 -26t-9.5 -21.5t-9 -21t-4 -25.5q0 -7 4.5 -9t13.5 -3.5t18.5 -4.5t20.5 -10q30 30 54.5 65.5t24.5 83.5q0 43 -16.5 67.5t-39 41t-45.5 30t-37 36.5zM593 -224q14 21 38 35.5t46 31t38 41t16 65.5
q0 50 -24.5 85t-54.5 66q-11 -7 -20.5 -10.5t-18.5 -4.5t-13.5 -4t-4.5 -9q0 -15 4 -25.5t9 -21.5t9.5 -21.5t4.5 -23.5q17 0 20 -11t3 -20q0 -5 -9.5 -16.5t-20.5 -31t-19.5 -48.5t-8.5 -69zM466 1067q-15 -23 -37.5 -36.5t-45 -30t-39 -41t-16.5 -67.5q0 -48 23 -83.5
t57 -65.5q9 6 19 9t18.5 5t14.5 5t5 8q0 15 -4.5 25.5t-10.5 21t-10 21.5t-4 26q-14 0 -17.5 10.5t-3.5 17.5t8.5 18t19 30.5t20 48.5t9.5 69zM487 533q-29 -16 -46.5 -45.5t-17.5 -67.5q0 -47 29.5 -83.5t77.5 -36.5q22 0 42.5 9.5t35 26.5t23 38.5t8.5 45.5q0 25 -8.5 47
t-23.5 39q-30 37 -77 37q-25 0 -43 -10zM328 1082q0 17 18 23t41.5 13t46 17t31.5 33q4 10 13 21t18 20t18 15t16 6q5 0 14.5 -6t19 -15t17 -20t12.5 -21q10 -22 33 -32t46.5 -17.5t41 -14.5t17.5 -22h23q17 -2 26.5 -19t16 -36.5t10.5 -35.5t13 -16q19 -8 38.5 -22
t19.5 -41t-14 -54t-36 -45q15 -19 26 -26.5t11 -27.5q0 -26 -16 -48.5t-42 -22.5q-15 0 -32 13q-12 0 -16.5 -5t-4.5 -10l9 -22l-96 -114q22 -25 36 -57t14 -73q0 -37 -14 -70t-36 -58l96 -112l-9 -23q0 -6 4.5 -11t16.5 -5q17 13 32 13q25 0 41.5 -22t16.5 -47
q0 -21 -11 -28t-26 -28q22 -17 36 -44.5t14 -53.5q0 -25 -19.5 -43.5t-38.5 -18.5q-7 0 -12 -16t-11.5 -35.5t-16 -36.5t-26.5 -20h-23q0 -16 -17.5 -24t-41 -15t-46.5 -17t-33 -29q-9 -23 -30.5 -42.5t-32.5 -19.5q-7 0 -16 5.5t-18 14.5t-18 19.5t-13 22.5q-9 21 -32 30.5
t-46 16t-41 13.5t-18 25h-21q-21 3 -30.5 20t-15 36.5t-9 35.5t-10.5 16q-21 0 -42.5 18.5t-21.5 43.5q0 26 15 53.5t35 44.5q-5 10 -11 16.5t-11 11.5t-8.5 11t-3.5 17q0 25 17 47t41 22q17 0 29 -13q15 0 20.5 5t5.5 11l-11 23l98 112q-23 25 -37 58t-14 70q0 41 14 73
t37 57l-98 114l11 22q0 5 -5.5 10t-20.5 5q-15 -13 -29 -13q-25 0 -41.5 22.5t-16.5 48.5q0 18 11.5 26.5t22.5 27.5q-20 18 -35 45t-15 54q0 26 21.5 41.5t42.5 21.5q7 0 10.5 16t9 35.5t15 36.5t30.5 19h21z" />
    <glyph glyph-name="tib_lotus" unicode="&#xfc6;" horiz-adv-x="0" 
d="M-505 -283q23 23 34 63t4 78.5t-22 79.5t-21 41q-5 0 -10 -13.5t9 -54.5t14.5 -84.5t-10.5 -68.5t-22.5 -33.5t-31.5 -8.5q-29 -10 -78 9t-70.5 87.5t-16.5 135t36 126.5t80 111.5t63 51.5t68.5 -55t94.5 -143t37.5 -149t-35 -101.5t-62.5 -55t-61 -16.5zM-243 -217
q50 57 50 134q0 39 -6.5 73.5t-29.5 58.5q-11 0 -11 -10q0 -25 5.5 -54t5.5 -60t-6 -60t-19.5 -52t-33.5 -37t-48 -14q-11 0 -20.5 1t-18.5 2q32 36 46.5 75t14.5 99q0 31 -14.5 63.5t-31.5 61t-31.5 46.5t-14.5 20q0 7 20 27.5t47 43.5t53 40.5t39 17.5q42 -23 74.5 -57.5
t55 -69.5t34.5 -65t12 -46q0 -37 -9 -79.5t-29.5 -78t-53 -59t-80.5 -23.5v2zM-834 -227q-32 0 -62.5 22t-54 57.5t-39 80.5t-15.5 88q0 38 16 71.5t42 63t60.5 55.5t68.5 48q10 0 30.5 -14t41 -34.5t36.5 -42.5t16 -38q-66 -144 -67 -200.5t7 -93.5t40 -73q0 -3 -16 -5
t-40.5 1t-48 32t-38 69.5t-21 85t-6.5 75.5q0 11 1 18t1 10t-2 3q-10 0 -22 -19t-12 -49q0 -57 16 -113t68 -95v-3zM-704 -425q0 64 76 116q16 0 27.5 -4.5t28.5 -8.5l-6 -28t-3 -30q0 -11 4.5 -26t12.5 -29t18 -24t23 -10t13 12q-21 30 -29.5 51.5t-8.5 46.5q0 21 9 28
t32 13q8 2 14.5 4t14.5 5q6 3 14 5.5t19 8.5q12 0 25 -11.5t23 -26.5t16.5 -32t6.5 -31q0 -73 -59.5 -107.5t-144.5 -34.5q-63 14 -94.5 47.5t-31.5 65.5zM-939 -206q-48 0 -86.5 24.5t-66 61.5t-41.5 81t-14 83q0 18 10 57.5t27 80t40 70.5t49 30q10 0 19 -10.5t17 -25.5
t12.5 -30t4.5 -23q0 -7 -11 -21t-24.5 -36t-24.5 -54.5t-11 -76.5q0 -27 5 -56t18 -57.5t31.5 -52.5t45.5 -41v-4zM-414 -270h8q13 3 16 3q57 0 93 -31t60 -79q8 0 13 3t5 15q0 16 -9 28.5t-20.5 24.5t-25.5 22t-26 20v1q24 6 52.5 9.5t47.5 3.5q16 0 33 -8.5t31 -20.5
t22.5 -28t8.5 -31q0 -33 -17.5 -58t-45 -42.5t-62 -26.5t-70.5 -9q-16 0 -33 2.5t-17 7.5q0 13 5 25t5 31q0 37 -17 73.5t-57 62.5v2zM-734 -457q-12 -12 -34.5 -17.5t-34.5 -5.5q-31 4 -62.5 12.5t-55 24.5t-38 40.5t-14.5 57.5q0 47 20.5 69t70.5 22q22 -9 44 -13.5
t51 -4.5q-12 -11 -26 -23.5t-25.5 -24.5t-20.5 -24.5t-9 -25.5q0 -26 19 -26q15 0 24 20t23.5 43.5t38.5 43t66 19.5q11 0 23 -7t14 -9q-47 -20 -62.5 -59t-15.5 -83zM-106 176q-12 13 -21.5 25t-19.5 24q0 6 10 16t24.5 18t29.5 14t23 6q12 0 32 -21.5t39 -56t33 -76.5
t14 -81q0 -28 -12.5 -61.5t-34 -63t-49 -53t-56.5 -30.5q10 17 20.5 37.5t19.5 42.5t14.5 43t5.5 41q0 45 -22 90t-50 86zM-84 -190q11 5 25 11.5t27.5 14t23 12.5t11.5 5q16 0 32.5 -10t30.5 -25.5t23 -33.5t9 -31q0 -35 -18.5 -56.5t-40.5 -34t-43.5 -17t-27.5 -4.5
q-20 0 -25.5 6.5t-5.5 18.5q0 34 -30.5 61t-59.5 45q7 4 18 10t21 6q14 0 31.5 -12t34 -28t30 -28.5t21.5 -12.5q6 0 6 9q0 37 -29 59.5t-64 32.5v2zM-932 -235q-82 -10 -82 -122q0 -6 -5.5 -6.5t-11.5 -0.5q-62 0 -104 35.5t-42 88.5q0 12 8 23.5t21 21.5t27.5 16t28.5 6
q26 -12 47 -24.5t20 -14.5q-12 -10 -24 -17t-21.5 -16t-15.5 -22.5t-6 -33.5q16 0 25 12t19.5 25.5t26.5 25t48 11.5q8 0 22 -0.5t19 -3.5v-4z" />
    <glyph glyph-name="tibDoubleVajra" unicode="&#xfc7;" horiz-adv-x="1829" 
d="M1179 555q8 -18 12.5 -41.5t4.5 -41.5q0 -25 -4.5 -45t-12.5 -40l46 -36q10 0 17.5 18t13 39.5t10 40.5t4.5 25q0 4 -4.5 23.5t-10 43t-13 40.5t-17.5 17zM698 598q-10 0 -17.5 -17t-13.5 -40.5t-9 -43t-3 -23.5q0 -6 3 -25t9 -40.5t13.5 -39.5t17.5 -18l51 36
q-12 34 -12 85q0 39 12 79zM838 213q0 -9 17 -18t40.5 -15.5t43 -10.5t26.5 -4q5 0 24.5 4t42 10.5t39.5 15.5t17 18l-47 49q-18 -5 -38 -9t-38 -4q-24 0 -45.5 4t-42.5 11zM877 679q21 9 42.5 12t45.5 3q18 0 37.5 -3t33.5 -8l52 56q0 6 -17 14t-39.5 13t-42 9.5t-24.5 4.5
q-7 0 -26.5 -4.5t-43 -9.5t-40.5 -13t-17 -14zM1018 1116q0 -37 8.5 -63t18 -44t17.5 -28.5t8 -15.5q0 -10 -2.5 -18t-16.5 -8q0 -14 -4.5 -24.5t-8.5 -21t-7.5 -20.5t-3.5 -20t15.5 -12.5t34.5 -13.5q31 28 51 61t20 77q0 36 -14 57.5t-35.5 38.5t-42.5 30.5t-33 31.5z
M320 528q38 0 63.5 8t43.5 18t28 18t17 8q6 0 17 -2t11 -17q24 0 41.5 -12t41.5 -12q7 0 9.5 4t4 11t3.5 17t8 18q-29 29 -61 50.5t-75 21.5q-37 0 -58.5 -14.5t-38.5 -36t-30.5 -42.5t-35.5 -31zM1023 -180q12 21 33 35t42.5 31t35.5 38.5t14 58.5q0 45 -20 79t-51 57
q-18 -8 -34 -11t-16 -12q0 -13 3.5 -24t5.5 -18q15 -18 15 -44q14 0 16.5 -9t2.5 -18q0 -7 -8 -17.5t-17.5 -27.5t-18 -43.5t-8.5 -62.5zM1613 535q-21 10 -33.5 31t-29 42.5t-38 36t-58.5 14.5q-46 0 -78.5 -21.5t-59.5 -50.5q12 -19 12.5 -34.5t13.5 -15.5q23 0 41.5 12
t41.5 12q0 15 11 17t18 2q5 0 16 -8t28.5 -18t43.5 -18t62 -8zM309 414q22 -12 36 -33.5t30.5 -41.5t38 -34t58.5 -14q43 0 75 19.5t61 52.5q-13 18 -13 34t-12 16q-24 0 -41.5 -13t-41.5 -13q0 -15 -11 -16t-17 -1q-7 0 -17 8.5t-28 18t-43.5 17t-63.5 7.5zM904 1123
q-11 -18 -32.5 -31.5t-42 -30.5t-36.5 -38.5t-16 -57.5q0 -44 21.5 -77t51.5 -61q19 11 36.5 13.5t17.5 12.5t-4 20t-9 20.5t-9.5 21t-4.5 24.5q-15 0 -17.5 8t-2.5 18q0 5 10 15.5t19.5 28.5t18 44t8.5 63zM913 -168q0 36 -8.5 62.5t-18 43.5t-19.5 27.5t-10 17.5
q0 9 2.5 18t17.5 9q0 9 4 21t9 23q6 7 10 18t4 24q0 7 -17.5 11.5t-36.5 11.5q-30 -23 -51.5 -57t-21.5 -79q0 -37 16 -58.5t36.5 -39t42 -31t32.5 -34.5zM1604 421q-36 0 -62 -7.5t-43.5 -17t-28.5 -18t-16 -8.5q-7 0 -18 1t-11 16q-23 0 -41.5 13t-41.5 13
q-13 0 -13.5 -16t-12.5 -34q27 -33 59.5 -52.5t78.5 -19.5q37 0 58.5 14t38 34t30 41.5t32.5 33.5zM897 627q-42 -20 -71 -62t-29 -93q0 -37 13.5 -68t36 -52.5t52 -33t64.5 -11.5q34 0 64.5 11.5t54 33t36.5 52.5t13 68q0 35 -14 65q-20 44 -62 73.5t-92 29.5
q-35 0 -66 -13zM296 681q3 16 19 25t34 14t32 8.5t14 10.5q2 20 21 38.5t37 18.5q25 0 51 -12.5t40 -34.5q17 13 25 24t29 11q19 0 38.5 -15.5t19.5 -36.5q0 -14 -9 -31q0 -12 4 -16t11 -4l18 8l97 -86q8 13 22.5 25.5t27.5 22.5l-78 103l8 17q0 6 -4 11t-16 5
q-16 -10 -28 -10q-24 0 -39 20t-15 42q0 10 3 16.5t7.5 10.5t10.5 9.5t12 15.5q-19 16 -33 41.5t-14 50.5q0 18 19.5 35.5t37.5 20.5q7 0 10.5 15t9 32.5t14 32.5t25.5 19h20q0 13 17 20t38.5 13t42.5 17t29 29q10 17 29.5 36t31.5 19q11 0 29.5 -19t28.5 -36
q10 -23 30 -31.5t42 -14.5t37.5 -13t15.5 -20h23q16 -4 25 -19t14 -32.5t9 -32.5t10 -15q21 -3 39 -20.5t18 -35.5q0 -25 -12.5 -50.5t-34.5 -41.5q13 -20 24 -27t11 -25q0 -22 -15.5 -42t-37.5 -20q-13 0 -30 10q-12 0 -16 -5t-4 -11l8 -17l-84 -99q31 -24 53 -50l95 84
l18 -8q6 0 11 4t5 16q-12 14 -12 31q0 21 21 36.5t42 15.5q18 0 25 -11t28 -24q16 22 41 34.5t50 12.5q23 0 38 -18t19 -39q0 -7 15 -10.5t33 -8.5t34 -14t17 -25v-22q12 0 19.5 -16t13.5 -38t14.5 -42t30.5 -28q18 -10 37 -30t19 -31t-19 -30.5t-37 -29.5q-22 -7 -30.5 -28
t-14.5 -42.5t-13 -37t-20 -15.5v-24q-1 -16 -17 -24.5t-34 -14.5t-33 -9.5t-15 -10.5q-6 -17 -20 -35.5t-37 -18.5q-25 0 -50 10.5t-41 33.5q-10 -6 -16 -12t-12 -10.5t-11 -7.5t-14 -3q-21 0 -42 16t-21 35q0 15 12 33q0 9 -5 13.5t-11 4.5l-18 -5l-95 74
q-11 -14 -25 -27.5t-29 -21.5l85 -95l-8 -17q0 -4 4 -9t16 -5q16 10 30 10q22 0 37.5 -20.5t15.5 -39.5q0 -22 -11.5 -28.5t-23.5 -24.5q22 -18 34.5 -42t12.5 -49q0 -26 -18 -41.5t-39 -15.5q-6 0 -10 -15t-10 -34t-14 -34.5t-24 -18.5h-23q0 -17 -15.5 -22t-37.5 -11
t-42 -14.5t-30 -30.5q-8 -19 -27.5 -37.5t-30.5 -18.5q-12 0 -31.5 18.5t-29.5 37.5q-8 22 -29 32t-42.5 14.5t-38.5 11t-17 20.5h-20q-17 3 -25.5 18.5t-14 34.5t-9 34t-10.5 15q-18 0 -37.5 15.5t-19.5 41.5q0 25 14 49t33 42q-12 18 -22.5 24.5t-10.5 28.5
q0 19 13.5 39.5t40.5 20.5q15 0 28 -10q12 0 16 5t4 9l-8 17l86 99q-33 14 -52 45l-103 -74l-18 5q-15 0 -15 -18q8 -8 8.5 -15t0.5 -18q0 -19 -19.5 -35t-38.5 -16q-12 0 -18 3t-10 7.5t-11.5 10.5t-14.5 12q-14 -23 -40 -33.5t-51 -10.5q-18 0 -37 18t-21 36q0 7 -14 10.5
t-32 9.5t-34 14.5t-19 24.5v24q-15 0 -20 16.5t-12 37t-16.5 41.5t-28.5 29q-20 9 -37.5 28.5t-17.5 30.5q0 12 17.5 30.5t37.5 30.5q19 8 28.5 27t16.5 42t12 39t20 16v22z" />
    <glyph glyph-name="tibDagger" unicode="&#xfc8;" horiz-adv-x="1022" 
d="M563 186q-10 -2 -28 -2q-15 0 -35 4l6 -2v-1067l-467 1309l422 -217q-27 20 -27 51q0 37 41 63q-8 2 -24 11q-66 28 -106 85.5t-40 135.5q0 55 25.5 104t66.5 84l-82 107l9 18q0 17 -21 17q-14 -11 -31 -11q-22 0 -38.5 20.5t-16.5 45.5q0 20 10.5 28.5t24.5 24.5
q-21 19 -34 45.5t-13 50.5q0 23 18.5 41.5t38.5 18.5q6 0 10 15t10.5 33.5t15.5 36t26 21.5h24q0 17 18.5 23t43.5 12q22 8 41.5 18.5t29.5 30.5q8 19 28.5 37.5t33.5 18.5q12 0 32.5 -18.5t28.5 -37.5q8 -18 25.5 -28.5t38.5 -18.5q24 -6 46.5 -13t22.5 -24h25
q16 -4 25.5 -21.5t14.5 -36t9 -33.5t10 -15q23 0 41.5 -18.5t18.5 -41.5q0 -24 -13.5 -50.5t-33.5 -45.5q12 -16 22 -24.5t10 -28.5q0 -25 -16 -45.5t-39 -20.5q-12 0 -29 11q-14 0 -17 -5.5t-3 -11.5l6 -18l-86 -103q47 -32 73.5 -83.5t26.5 -108.5q0 -78 -40 -135.5
t-105 -85.5q-14 -9 -39 -15q37 -22 37 -59q0 -29 -29 -53l422 219l-465 -1309v1067zM598 1233q0 -39 8 -65.5t19.5 -45t19.5 -31t8 -18.5q0 -8 -2 -18.5t-18 -10.5q0 -26 -13.5 -43.5t-13.5 -46.5q0 -12 17.5 -13t35.5 -11q33 26 55.5 61t22.5 82q0 41 -16 64.5t-37.5 39
t-44.5 28.5t-35 38zM481 1243q-12 -23 -34.5 -37t-44 -30.5t-38 -40t-16.5 -62.5q0 -47 22.5 -82t55.5 -61q16 10 34.5 11t18.5 13q0 29 -13 46.5t-13 43.5q-17 0 -20 10.5t-3 18.5q0 6 9.5 18.5t20.5 31t20 45t9 65.5zM543 878q-6 0 -27.5 -3t-45.5 -9t-42 -14t-18 -19
l43 -59q43 18 90 18q45 0 82 -14l49 55q0 11 -18.5 19t-41 14t-44 9t-27.5 3zM569 188l-6 -2q2 0 3 1t3 1z" />
    <glyph glyph-name="tibSmilingEgg" unicode="&#xfc9;" horiz-adv-x="1397" 
d="M725 -385q-162 0 -287 63t-210.5 162.5t-130.5 225t-45 251.5q0 43 20 109.5t51.5 129.5t68 109t69.5 46q0 -22 -7.5 -45.5t-17 -49.5t-17 -54t-7.5 -58q0 -92 47 -170.5t120.5 -135t165.5 -88t182 -31.5q92 0 184.5 32.5t165.5 89t120 135t47 170.5q0 52 -13.5 103
t-13.5 102q25 0 45.5 -23.5t37 -60.5t29 -80t20.5 -83.5t12.5 -72t4.5 -44.5q0 -144 -38.5 -277t-117 -234t-200 -161t-285.5 -60zM729 176q-87 0 -164 26t-136.5 78.5t-94 129t-34.5 177.5q0 39 19 94t51.5 106.5t74 87.5t88.5 36q7 0 16 -1t9 -8q-20 -33 -31 -71.5
t-11 -76.5q0 -104 61.5 -160t151.5 -56q111 0 174 64t63 166q0 35 -15 67t-46 47v16q56 0 103.5 -29.5t81 -78.5t52.5 -110t19 -126q0 -74 -37 -141.5t-96.5 -120.5t-137.5 -84.5t-161 -31.5zM707 601q-30 0 -55.5 15.5t-44.5 39.5t-29.5 56.5t-10.5 68.5q0 56 30.5 98
t67.5 81t67.5 80.5t30.5 96.5l22 -5q19 -5 19 -58q0 -34 -17 -76t-35 -64q-7 -11 -19.5 -30.5t-24.5 -42t-21 -44.5t-9 -34q0 -16 13 -38t38 -22q12 0 25 9t14 22q0 20 -34 32l2 26q0 5 6.5 16t16 21.5t23 18t30.5 7.5q43 -4 68 -34.5t25 -72.5q0 -81 -57.5 -124t-140.5 -43
z" />
    <glyph glyph-name="tibYinYang" unicode="&#xfca;" horiz-adv-x="1554" 
d="M775 1175q97 0 187 -28.5t168.5 -79t143 -118.5t110.5 -146.5t71.5 -164.5t25.5 -171q0 -94 -24.5 -185t-70 -172t-110 -149.5t-144.5 -118.5t-173 -78t-195 -28q-103 0 -197 27t-174.5 75.5t-146 115t-111.5 145t-71 165.5t-25 178q0 102 25 196.5t72 176t113 148
t147.5 113.5t177 73t201.5 26zM775 1077q-132 0 -239.5 -45t-187 -118t-129 -165.5t-65.5 -187.5q18 24 44.5 50t62.5 47.5t82.5 35.5t105.5 14q74 0 128.5 -20t95.5 -52t71.5 -72t56.5 -81q24 -35 48.5 -68t56.5 -58.5t73.5 -41.5t100.5 -16q57 0 100 16.5t74.5 41.5
t53 55.5t35 59.5t20.5 52t10 33q-2 34 -23.5 85.5t-59 109.5t-90 116t-118.5 104.5t-143.5 75.5t-163.5 29zM766 -164q119 0 220.5 44t179.5 113.5t130 156t72 171.5q-51 -66 -124 -100.5t-164 -34.5q-80 0 -137 20.5t-99.5 53t-74.5 73.5t-62 83q-23 33 -47 65t-54.5 57
t-69 40.5t-89.5 15.5q-32 0 -61 -9t-55.5 -23.5t-50 -34t-44.5 -40.5q-23 -23 -44 -48t-40 -54q1 -51 22 -111.5t59 -121.5t92 -118t121.5 -101t148 -70.5t171.5 -26.5zM1080 688q21 0 39.5 -8t32.5 -21.5t22 -31.5t8 -39q0 -22 -8 -40.5t-22 -32.5t-32.5 -22t-39.5 -8
q-44 0 -73.5 29.5t-29.5 73.5q0 21 8 39t22 31.5t32.5 21.5t40.5 8zM443 434q21 0 40 -8t32.5 -22.5t21.5 -33.5t8 -40q0 -44 -29.5 -73.5t-72.5 -29.5q-21 0 -39 8t-32 22t-22 32.5t-8 40.5q0 21 8 40t22 33.5t32 22.5t39 8z" />
    <glyph glyph-name="tibYinYangYin" unicode="&#xfcb;" horiz-adv-x="1587" 
d="M52 470q0 147 57 276t155 224t229.5 150t282.5 55t283.5 -55t230.5 -150t154.5 -224t56.5 -276q0 -159 -58.5 -293t-158 -231t-231 -151t-277.5 -54q-151 0 -282.5 56.5t-229.5 155.5t-155 232t-57 285zM1336 713q0 -69 -30 -141t-79.5 -129.5t-113 -94.5t-130.5 -37
q-65 0 -120.5 18t-104.5 72q-52 -14 -91 -62t-39 -107q0 -58 24.5 -115.5t66 -103.5t95.5 -74.5t113 -28.5q42 0 87 3.5t91 26.5q71 33 125.5 90.5t92.5 128.5t58 151t20 160q0 68 -17.5 133t-47.5 126v-16zM880 246q33 0 56.5 -23t23.5 -58q0 -36 -23.5 -56.5t-56.5 -20.5
q-30 0 -54.5 20.5t-24.5 56.5q0 35 24.5 58t54.5 23zM749 556q0 97 -62 152t-192 55q-129 0 -209.5 -70t-114.5 -227q7 -124 56 -235t127 -195.5t180.5 -135.5t219.5 -57q-50 29 -92.5 73t-72 95.5t-45.5 108t-16 112.5q0 45 16 91t45.5 85.5t70 68.5t89.5 41v38zM495 659
q31 0 56 -24.5t25 -55.5q0 -39 -25 -60t-56 -21q-30 0 -52.5 21t-22.5 60q0 31 22.5 55.5t52.5 24.5zM776 1074q-158 0 -286 -69t-209 -193q94 52 214 52q175 0 269.5 -79.5t94.5 -228.5q0 -27 -2 -45t-11 -32q29 -24 63 -37.5t69 -13.5q39 0 85 26t84 66.5t63 92t25 100.5
q0 34 -9 72.5t-28 77.5t-49.5 74t-73.5 64q-63 41 -140.5 57t-158.5 16zM1039 756q30 0 52.5 -21t22.5 -60q0 -33 -22.5 -58t-52.5 -25q-31 0 -55 25t-24 58q0 39 24 60t55 21z" />
    <glyph glyph-name="tibYinYangYinYang" unicode="&#xfcc;" horiz-adv-x="1591" 
d="M54 458q0 149 57.5 280.5t156.5 230.5t231 155.5t284 56.5q149 0 280.5 -57.5t229.5 -157.5t154.5 -233t56.5 -284q0 -148 -57.5 -278.5t-156.5 -228.5t-230.5 -154.5t-276.5 -56.5q-152 0 -284 57.5t-231 156.5t-156.5 231t-57.5 282zM1150 800q0 -72 -21.5 -135
t-61.5 -112.5t-96.5 -83t-124.5 -44.5q5 -52 33 -96t69.5 -75.5t91.5 -48.5t101 -17q50 0 98 25t84 64.5t58.5 87.5t22.5 93q0 81 -22 160t-60.5 149.5t-95 128t-127.5 96.5q51 -72 51 -183v-9zM430 829q75 0 140 -22.5t116.5 -63t85.5 -97.5t47 -125q50 2 93 29.5t74 69
t48 93t17 99.5q0 53 -25.5 101.5t-65 85.5t-86 59.5t-91.5 22.5q-83 0 -162.5 -22.5t-150.5 -63t-128.5 -97.5t-97.5 -127q40 32 80.5 43t105.5 15zM1130 87q-74 0 -137 21.5t-113.5 61t-84.5 95.5t-48 126q-53 -3 -96 -30t-73.5 -68.5t-47.5 -91t-17 -100.5q0 -52 25 -99.5
t64.5 -83.5t88 -58.5t95.5 -22.5q81 0 159.5 20.5t147.5 60t127 95.5t97 126q-36 -29 -80 -40.5t-107 -11.5zM410 105q0 76 22.5 140.5t63 115t98 84.5t127.5 49q-3 52 -31 95t-69.5 74t-92.5 47t-102 16q-52 0 -99.5 -25t-84.5 -64t-59.5 -87.5t-22.5 -95.5
q0 -81 20.5 -159t60 -147.5t96.5 -127t131 -97.5q-29 36 -42.5 78.5t-15.5 103.5zM792 951q28 0 51.5 -24.5t23.5 -58.5t-23.5 -57.5t-51.5 -23.5q-33 0 -56.5 23.5t-23.5 57.5t23.5 58.5t56.5 24.5zM1204 528q30 0 52.5 -21.5t22.5 -57.5q0 -34 -22.5 -57.5t-52.5 -23.5
q-31 0 -54.5 23.5t-23.5 57.5q0 36 23.5 57.5t54.5 21.5zM792 121q28 0 51.5 -21.5t23.5 -59.5q0 -30 -23.5 -55.5t-51.5 -25.5q-33 0 -56.5 25.5t-23.5 55.5q0 38 23.5 59.5t56.5 21.5zM351 530q28 0 51.5 -22.5t23.5 -55.5q0 -36 -23.5 -58.5t-51.5 -22.5
q-33 0 -56.5 22.5t-23.5 58.5q0 33 23.5 55.5t56.5 22.5z" />
    <glyph glyph-name="tibSymbolXXX" unicode="&#xfcf;" horiz-adv-x="1348" 
d="M770 897q50 -50 105 -104t106 -103l-78 -78l-205 205q-49 -50 -103.5 -102.5t-102.5 -102.5l-78 78l207 207l-207 203l86 73l198 -202q48 45 100 99.5t103 102.5l72 -73zM1118 364q25 -26 52.5 -53t56.5 -55l102 -101l-76 -82l-206 207l-103 -102l-104 -98l-76 75
l205 209l-205 201l84 70l199 -201q49 48 102 101.5t102 101.5l74 -72zM399 364q50 -54 107 -109t106 -100l-77 -82l-205 207q-25 -23 -51 -48.5t-54 -53.5l-102 -98l-80 75l207 209l-207 201l82 70l205 -201q45 48 99 101.5t103 101.5l72 -72z" />
    <glyph glyph-name="uni200C" unicode="&#x200c;" horiz-adv-x="39" 
d="M40 -827h-40v1538h40v-1538z" />
    <glyph glyph-name="uni200D" unicode="&#x200d;" horiz-adv-x="39" 
d="M40 -827h-40v1538h40v-1538zM185 817l-137 -71l137 -72v-24l-165 85l-165 -86v24l137 71l-137 72v24l165 -85l165 86v-24z" />
    <glyph glyph-name="endash" unicode="&#x2013;" horiz-adv-x="1193" 
d="M100 377v127h993v-127h-993z" />
    <glyph glyph-name="emdash" unicode="&#x2014;" horiz-adv-x="1985" 
d="M100 377v127h1785v-127h-1785z" />
    <glyph glyph-name="quoteleft" unicode="&#x2018;" horiz-adv-x="382" 
d="M268 1012v-183h-168v144q0 116 28 169q37 70 115 106l39 -61q-48 -21 -70.5 -60.5t-25.5 -114.5h82z" />
    <glyph glyph-name="quoteright" unicode="&#x2019;" horiz-adv-x="381" 
d="M113 1057v182h168v-144q0 -116 -27 -168q-37 -70 -117 -106l-37 62q46 19 69 60.5t26 113.5h-82z" />
    <glyph glyph-name="quotesinglbase" unicode="&#x201a;" horiz-adv-x="381" 
d="M113 1v182h168v-143q0 -117 -27 -169q-37 -70 -117 -106l-37 62q46 19 69 60.5t26 113.5h-82z" />
    <glyph glyph-name="quotedblleft" unicode="&#x201c;" horiz-adv-x="653" 
d="M268 1012v-183h-168v144q0 116 28 169q36 70 116 106l38 -61q-47 -21 -70 -60.5t-26 -114.5h82zM538 1012v-183h-168v144q0 116 28 169q37 70 116 106l39 -61q-49 -21 -71.5 -60.5t-25.5 -114.5h82z" />
    <glyph glyph-name="quotedblright" unicode="&#x201d;" horiz-adv-x="653" 
d="M114 1057v182h168v-144q0 -116 -26 -168q-38 -70 -118 -106l-38 62q47 19 70.5 60.5t25.5 113.5h-82zM385 1057v182h168v-144q0 -116 -28 -168q-37 -70 -116 -106l-39 62q47 19 70.5 60.5t26.5 113.5h-82z" />
    <glyph glyph-name="quotedblbase" unicode="&#x201e;" horiz-adv-x="653" 
d="M114 1v182h168v-143q0 -117 -26 -169q-38 -70 -118 -106l-38 62q47 19 70.5 60.5t25.5 113.5h-82zM385 1v182h168v-143q0 -117 -28 -169q-37 -70 -116 -106l-39 62q47 19 70.5 60.5t26.5 113.5h-82z" />
    <glyph glyph-name="dagger" unicode="&#x2020;" horiz-adv-x="1054" 
d="M447 -324v1056h-347v140h347v354h157v-354h350v-140h-350v-1056h-157z" />
    <glyph glyph-name="daggerdbl" unicode="&#x2021;" horiz-adv-x="1057" 
d="M449 -324v322h-349v141h349v631h-349v141h349v326h158v-326h350v-141h-350v-631h350v-141h-350v-322h-158z" />
    <glyph glyph-name="bullet" unicode="&#x2022;" horiz-adv-x="643" 
d="M100 596q0 91 65.5 156t155.5 65q92 0 157 -65t65 -156t-65 -156.5t-157 -65.5q-90 0 -155.5 65.5t-65.5 156.5z" />
    <glyph glyph-name="ellipsis" unicode="&#x2026;" horiz-adv-x="1570" 
d="M100 -4v178h180v-178h-180zM696 -4v178h178v-178h-178zM1290 -4v178h180v-178h-180z" />
    <glyph glyph-name="perthousand" unicode="&#x2030;" horiz-adv-x="1920" 
d="M347 -77l524 1347h113l-523 -1347h-114zM100 928q0 173 68.5 252.5t180.5 79.5q111 0 181 -79.5t70 -248.5q0 -171 -61 -257.5t-188 -86.5q-111 0 -181 80.5t-70 259.5zM229 921q0 -133 34 -179t91 -46q52 0 80 40q37 52 37 187q0 132 -38 187q-30 41 -82 41
q-55 0 -83 -39q-39 -56 -39 -191zM732 263q0 173 69 252t180 79t181.5 -79.5t70.5 -248.5q0 -170 -61 -256.5t-189 -86.5q-111 0 -181 81t-70 259zM861 256q0 -131 35 -178t91 -47q52 0 79 39q38 53 38 188q0 133 -39 187q-30 41 -82 41q-53 0 -82 -40q-40 -54 -40 -190z
M1320 263q0 173 68.5 252t180.5 79q111 0 181 -79.5t70 -248.5q0 -170 -60.5 -256.5t-188.5 -86.5q-111 0 -181 81t-70 259zM1449 256q0 -131 34.5 -178t90.5 -47q52 0 80 39q37 53 37 188q0 133 -38 187q-29 41 -82 41q-55 0 -83 -40q-39 -54 -39 -190z" />
    <glyph glyph-name="guilsinglleft" unicode="&#x2039;" horiz-adv-x="606" 
d="M275 437l231 -396h-131l-275 396l275 399h131z" />
    <glyph glyph-name="guilsinglright" unicode="&#x203a;" horiz-adv-x="594" 
d="M331 440l-231 396h130l264 -391l-264 -404h-130z" />
    <glyph glyph-name="Euro" unicode="&#x20ac;" horiz-adv-x="1190" 
d="M813 1125q-147 0 -245 -71q-60 -42 -107 -118q-50 -80 -58 -152h594l-24 -116h-584q-1 -19 -1 -35q0 -67 1 -81h561l-24 -116h-519q37 -200 176 -284q100 -60 217 -60q164 0 255 85v-179q-109 -50 -241 -50q-394 0 -533 327q-27 66 -47 161h-134l25 116h91q-2 37 -2 80
v36h-114l25 116h100q55 285 282 409q140 76 310 76q161 0 273 -71l-35 -162q-107 89 -242 89z" />
    <glyph glyph-name="trademark" unicode="&#x2122;" horiz-adv-x="1557" 
d="M330 523v605h-230v106h580v-106h-232v-605h-118zM759 523v711h174l180 -567l173 567h171v-711h-108v596l-183 -596h-107l-191 605v-605h-109z" />
    <glyph glyph-name="uni25CC" unicode="&#x25cc;" horiz-adv-x="883" 
d="M248 1007l-55 43l90 88l39 -60zM633 1007l-74 71l39 60l90 -88zM158 837l-6 59l6 64l69 -9l-6 -55l6 -47zM723 837l-72 12l6 47l-6 55l72 9l4 -64zM440 611l-63 7l12 67l51 -6l52 6l12 -67zM283 661l-90 88l55 41l74 -72zM492 1111l-52 6l-51 -6l-12 66l63 8l64 -8z
M598 661l-39 57l74 72l55 -41z" />
    <glyph glyph-name="leftAngleBracket" unicode="&#x3008;" horiz-adv-x="575" 
d="M126 356l377 -798l-72 -41l-391 839l424 842l72 -41z" />
    <glyph glyph-name="rightAngleBracket" unicode="&#x3009;" horiz-adv-x="575" 
d="M114 -483l-74 33l377 798l-377 793l74 41l391 -826z" />
    <glyph glyph-name="leftDoubleAngleBracket" unicode="&#x300a;" horiz-adv-x="854" 
d="M778 -443l-71 -41l-392 840l424 842l72 -41l-410 -801zM504 -443l-74 -41l-389 840l424 842l72 -41l-410 -801z" />
    <glyph glyph-name="rightDoubleAngleBracket" unicode="&#x300b;" horiz-adv-x="854" 
d="M317 -451l377 799l-377 793l74 40l391 -825l-391 -840zM41 -451l377 799l-377 793l74 40l391 -825l-391 -840z" />
    <glyph glyph-name="leftCornerBracket" unicode="&#x300c;" horiz-adv-x="559" 
d="M119 1106v-1663h-78v1743h485v-80h-407z" />
    <glyph glyph-name="rightCornerBracket" unicode="&#x300d;" horiz-adv-x="590" 
d="M527 -863h-487v80h407v1671h80v-1751z" />
    <glyph glyph-name="leftWhiteCornerBracket" unicode="&#x300e;" horiz-adv-x="590" 
d="M544 -863h-504v247h264v1504h240v-1751zM384 808v-1503h-264v-88h344v1591h-80z" />
    <glyph glyph-name="rightWhiteCornerBracket" unicode="&#x300f;" horiz-adv-x="840" 
d="M777 -549h-737v1734h743q-212 -228 -318 -447t-106 -433q0 -398 418 -854z" />
    <glyph glyph-name="leftBlackConcave" unicode="&#x3010;" horiz-adv-x="840" 
d="M759 1185v-1734h-727q408 471 408 889q0 391 -400 845h719z" />
    <glyph glyph-name="rightBlackConcave" unicode="&#x3011;" horiz-adv-x="440" 
d="M120 856v-1023l289 -288l-55 -41l-314 315v1051l314 315l55 -41z" />
    <glyph glyph-name="leftTortoiseShell" unicode="&#x3014;" horiz-adv-x="440" 
d="M392 -161l-305 -327l-55 49l280 303v991l-272 281l55 49l297 -305v-1041z" />
    <glyph glyph-name="rightTortoiseShell" unicode="&#x3015;" horiz-adv-x="926" 
d="M41 1186h848l-494 -867l502 -868h-856v1735zM121 -469h565l-369 780l377 795h-573v-1575z" />
    <glyph glyph-name="leftWhiteConcave" unicode="&#x3016;" horiz-adv-x="926" 
d="M47 -535l477 862l-483 859h842v-1721h-836zM604 321l-362 -776h559v1561h-559z" />
    <glyph glyph-name="rightWhiteConcave" unicode="&#x3017;" horiz-adv-x="440" 
d="M272 925v-1179l129 -201l-64 -41l-297 463v738l314 480l55 -49zM120 691v-710l72 -111v932z" />
    <glyph glyph-name="leftWhiteTortoiseShell" unicode="&#x3018;" horiz-adv-x="440" 
d="M408 705v-738l-297 -463l-64 41l129 200v1180l-137 211l55 49zM328 691l-72 111v-933l72 112v710z" />
    <glyph glyph-name="rightWhiteTortoiseShell" unicode="&#x3019;" horiz-adv-x="580" 
d="M527 1105h-229v-1583h229v-80h-487v1743h487v-80zM119 1105v-1583h100v1583h-100z" />
    <glyph glyph-name="leftWhiteSquareBracket" unicode="&#x301a;" horiz-adv-x="580" 
d="M526 1185v-1743h-487v80h229v1583h-229v80h487zM447 1105h-100v-1583h100v1583z" />
    <glyph glyph-name="rightWhiteSquareBracket" unicode="&#x301b;" horiz-adv-x="1153" 
d="M950 526l-217 -100l-428 131l-207 -187l-57 25l330 285l428 -131l188 172l62 -25z" />
    <glyph glyph-name="waveDash" unicode="&#x301c;" horiz-adv-x="739" 
d="M336 887l-33 -15l-262 494l96 69l70 -53zM666 887l-31 -15l-264 494l98 69l68 -53z" />
    <glyph glyph-name="reversedDoublePrime" unicode="&#x301d;" horiz-adv-x="739" 
d="M92 911l156 455l86 69l78 -75l-289 -455zM389 911l156 455l86 69l78 -75l-289 -455z" />
    <glyph glyph-name="doublePrime" unicode="&#x301e;" horiz-adv-x="740" 
d="M123 482l-31 6q72 205 110.5 316.5t44.5 137.5q8 31 31 50.5t55 19.5q30 0 54 -20.5t24 -54.5q0 -10 -4 -21.5t-15 -31t-30.5 -49.5t-51.5 -77t-78 -114.5t-109 -161.5zM420 482l-31 6q72 205 110.5 316.5t44.5 137.5q8 31 31 50.5t55 19.5q30 0 54 -20.5t24 -54.5
q0 -10 -4 -21.5t-15 -31t-30.5 -49.5t-51.5 -77t-78 -114.5t-109 -161.5z" />
    <glyph glyph-name="tibRaGo2_tib_Ra" unicode="&#x301f;" horiz-adv-x="1065" 
d="M485 902v125h-370v194h868v-194h-317q-57 -51 -89 -125h427v-198h-411v-257q468 19 463 -705h-77q-21 507 -391 499h-525l3 210h468q-20 163 -123 253h-343v198h417z" />
    <glyph glyph-name="tibHalf" horiz-adv-x="1225" 
d="M1225 831q-1 -41 -18.5 -83.5t-51 -74.5t-73.5 -62q-32 -3 -54 40q2 16 16 31t28 29t30 32t21.5 39.5t-3 48t-49.5 20.5q-34 -2 -96 -36.5t-141 -96.5q-26 -22 -123 -101l-191 -158q-65 -57 -382 -317q-23 -19 -36 -1.5t-29 65.5q372 331 466 413l172 142q89 72 107 88
q80 62 148 85.5t125 26.5q75 -7 95.5 -26t29 -46.5t9.5 -57.5z" />
    <glyph glyph-name="tibRaGo" horiz-adv-x="1065" 
d="M515 892q-30 82 -94 137h-343v197h933v-197h-410v-137h-86z" />
    <glyph glyph-name="tib.Gigu.Anusvara" horiz-adv-x="0" 
d="M-220 1215q-281 254 -436 305q-220 92 -277 12q-48 -82 155 -103l-70 -147q-182 8 -223 97q-39 95 81 205q122 101 230 120q112 25 232 -35q112 -44 447 -322zM-113 1928q232 -7 228 -247q12 -219 -227 -227q-161 3 -214 129q-10 24 -16.5 48t-8 51.5t3 60.5t15.5 76
q20 48 78 76.5t141 32.5zM-131 1778q-170 -2 -167 -93q-7 -78 171 -78q195 2 188 73q3 89 -192 98z" />
    <glyph glyph-name="tib.Gigu.SunMoonHon" horiz-adv-x="0" 
d="M-234 1212q-252 283 -424 373q-186 92 -251 19q-56 -76 143 -119l-85 -139q-180 28 -212 121q-28 98 103 195q132 87 242 94q114 13 198 -62q127 -78 404 -388zM141 1750q4 -76 -39.5 -123t-133.5 -47q-80 -6 -133 35.5t-54 106.5q-4 52 11 81.5t128 -0.5
q-32 -18 -15 -54t66 -45t56.5 28t-31.5 71.5t-59.5 68t-20.5 102.5q6 27 15 52t24 44t24.5 27.5t11.5 8.5q3 0 3 -3q-11 -175 52.5 -214.5t78 -77.5t16.5 -61zM-288 1441l-41 22l76 141l80 -45q226 -96 328 20l38 -24q-153 -306 -453 -130z" />
    <glyph glyph-name="tib.Gigu.SunMoon" horiz-adv-x="0" 
d="M-234 1212q-252 283 -424 373q-186 92 -251 19q-56 -76 143 -119l-85 -139q-180 28 -212 121q-28 98 103 195q132 87 242 94q114 13 198 -62q127 -78 404 -388zM-290 1414l-39 19l73 122l76 -39q217 -83 315 17l36 -20q-147 -264 -434 -112zM-104 1967q198 -6 194 -216
q11 -192 -193 -199q-137 3 -182 113q-9 21 -14.5 42t-6.5 45t2.5 53t13.5 67q17 42 66 67t120 28zM-119 1836q-145 -2 -142 -82q-6 -68 145 -68q166 2 160 64q3 78 -163 86z" />
    <glyph glyph-name="tib.GiguL" horiz-adv-x="0" 
d="M-435 1222q-189 321 -313 404q-171 137 -239 61q-59 -77 113 -137l-95 -143q-156 40 -171 142q-14 109 115 204q129 87 227 87q103 7 195 -79q88 -67 320 -424z" />
    <glyph glyph-name="tib.GiguL.Anusvara" horiz-adv-x="0" 
d="M-435 1222q-189 321 -313 404q-171 137 -239 61q-59 -77 113 -137l-95 -143q-156 40 -171 142q-14 109 115 204q129 87 227 87q103 7 195 -79q88 -67 320 -424zM-215 1917q232 -7 228 -247q12 -219 -227 -227q-161 3 -214 129q-10 24 -16.5 48t-8 51.5t3 60.5t15.5 76
q20 48 78 76.5t141 32.5zM-233 1767q-170 -2 -167 -93q-7 -78 171 -78q195 2 188 73q3 89 -192 98z" />
    <glyph glyph-name="tib.GiguL.SunMoonHon" horiz-adv-x="0" 
d="M-2 1697q0 -79 -47.5 -124.5t-142.5 -45.5q-84 0 -136.5 46.5t-52.5 115.5q0 54 38.5 72t114.5 3q-35 -17 -35 -58t25 -63.5t66 -9.5t51.5 51.5t-28 51.5t-58 48.5t-14 66t17 56t28 45t27 27t12.5 7.5q5 0 5 -4q-24 -140 39.5 -160.5t76.5 -60.5t13 -64zM-435 1222
q-189 321 -313 404q-171 137 -239 61q-59 -77 113 -137l-95 -143q-156 40 -171 142q-14 109 115 204q129 87 227 87q103 7 195 -79q88 -67 320 -424zM-422 1397l-41 22l76 141l80 -45q226 -96 328 20l38 -24q-153 -306 -453 -130z" />
    <glyph glyph-name="tib.GiguL.SunMoon" horiz-adv-x="0" 
d="M-435 1222q-189 321 -313 404q-171 137 -239 61q-59 -77 113 -137l-95 -143q-156 40 -171 142q-14 109 115 204q129 87 227 87q103 7 195 -79q88 -67 320 -424zM-416 1414l-39 19l73 122l76 -39q217 -83 315 17l36 -20q-147 -264 -434 -112zM-230 1967q198 -6 194 -216
q11 -192 -193 -199q-137 3 -182 113q-9 21 -14.5 42t-6.5 45t2.5 53t13.5 67q17 42 66 67t120 28zM-245 1836q-145 -2 -142 -82q-6 -68 145 -68q166 2 160 64q3 78 -163 86z" />
    <glyph glyph-name="tib.Drengbo.Anusvara" horiz-adv-x="0" 
d="M-195 1212q-319 164 -730 320l118 150q395 -168 732 -328zM-113 1928q232 -7 228 -247q12 -219 -227 -227q-161 3 -214 129q-10 24 -16.5 48t-8 51.5t3 60.5t15.5 76q20 48 78 76.5t141 32.5zM-131 1778q-170 -2 -167 -93q-7 -78 171 -78q195 2 188 73q3 89 -192 98z" />
    <glyph glyph-name="tib.Drengbo.SunMoonHon" horiz-adv-x="0" 
d="M124 1759q0 -80 -47.5 -125t-142.5 -45q-84 0 -137 46t-53 115q0 54 39 72.5t114 3.5q-34 -18 -34 -58.5t25 -63.5t65.5 -10t51.5 52t-28 52t-58 48.5t-14 65.5t17 56t28 45.5t27 27t13 7.5q4 0 4 -5q-23 -140 40.5 -160.5t76.5 -60t13 -63.5zM-195 1212
q-319 164 -730 320l118 150q395 -168 732 -328zM-309 1482l-41 22l76 141l80 -45q226 -96 328 20l38 -24q-153 -306 -453 -130z" />
    <glyph glyph-name="tib.Drengbo.SunMoon" horiz-adv-x="0" 
d="M-195 1212q-319 164 -730 320l118 150q395 -168 732 -328zM-306 1465l-39 19l73 122l76 -39q217 -83 315 17l36 -20q-147 -264 -434 -112zM-69 1974q198 -6 194 -216q11 -192 -193 -199q-137 3 -182 113q-9 21 -14.5 42t-6.5 45t2.5 53t13.5 67q17 42 66 67t120 28z
M-84 1843q-145 -2 -142 -82q-6 -68 145 -68q166 2 160 64q3 78 -163 86z" />
    <glyph glyph-name="tib.DrengboL" horiz-adv-x="4" 
d="M-391 1206q-319 164 -730 320l118 150q395 -168 732 -328z" />
    <glyph glyph-name="tib.DrengboL.Anusvara" horiz-adv-x="0" 
d="M-391 1206q-319 164 -730 320l118 150q395 -168 732 -328zM-279 1903q232 -7 228 -247q12 -219 -227 -227q-161 3 -214 129q-10 24 -16.5 48t-8 51.5t3 60.5t15.5 76q20 48 78 76.5t141 32.5zM-297 1753q-170 -2 -167 -93q-7 -78 171 -78q195 2 188 73q3 89 -192 98z" />
    <glyph glyph-name="tib.DrengboL.SunMoonHon" horiz-adv-x="0" 
d="M-7 1728q0 -80 -47.5 -125.5t-142.5 -45.5q-84 0 -136.5 46.5t-52.5 115.5q0 54 38.5 72.5t114.5 2.5q-35 -17 -35 -58t25 -63.5t66 -9.5t51.5 51.5t-28 51.5t-58 49t-14 66t17 56t28 45t27 26.5t12.5 7.5q5 0 5 -4q-24 -140 39.5 -160.5t76.5 -60.5t13 -63zM-391 1206
q-319 164 -730 320l118 150q395 -168 732 -328zM-476 1441l-41 22l76 141l80 -45q226 -96 328 20l38 -24q-153 -306 -453 -130z" />
    <glyph glyph-name="tib.DrengboL.SunMoon" horiz-adv-x="0" 
d="M-391 1206q-319 164 -730 320l118 150q395 -168 732 -328zM-474 1432l-39 19l73 122l76 -39q217 -83 315 17l36 -20q-147 -264 -434 -112zM-288 1985q198 -6 194 -216q11 -192 -193 -199q-137 3 -182 113q-9 21 -14.5 42t-6.5 45t2.5 53t13.5 67q17 42 66 67t120 28z
M-303 1854q-145 -2 -142 -82q-6 -68 145 -68q166 2 160 64q3 78 -163 86z" />
    <glyph glyph-name="tib.DrengboDrengbo.Anusvara" horiz-adv-x="0" 
d="M-448 1204l-14 16q-305 153 -691 300l118 150q130 -56 248 -111q-106 103 -224 210l165 96q306 -301 561 -573l-127 -69l-11 -23l-16 8zM-269 1890q232 -7 228 -247q12 -219 -227 -227q-161 3 -214 129q-10 24 -16.5 48t-8 51.5t3 60.5t15.5 76q20 48 78 76.5t141 32.5z
M-287 1740q-170 -2 -167 -93q-7 -78 171 -78q195 2 188 73q3 89 -192 98z" />
    <glyph glyph-name="tib.DrengboDrengbo.SunMoonHon" horiz-adv-x="0" 
d="M-8 1681q0 -80 -47.5 -125t-142.5 -45q-84 0 -137 46t-53 115q0 54 39 72.5t114 3.5q-34 -18 -34 -59t24.5 -63.5t65.5 -9.5t52 52t-28 52t-58.5 48.5t-14 65.5t17.5 56t28 45.5t27 27t13 7.5q4 0 4 -5q-24 -140 40 -160.5t77 -60t13 -63.5zM-448 1204l-14 16
q-305 153 -691 300l118 150q130 -56 248 -111q-106 103 -224 210l165 96q306 -301 561 -573l-127 -69l-11 -23l-16 8zM-459 1405l-41 22l76 141l80 -45q226 -96 328 20l38 -24q-153 -306 -453 -130z" />
    <glyph glyph-name="tib.DrengboDrengbo.SunMoon" horiz-adv-x="0" 
d="M-448 1204l-14 16q-305 153 -691 300l118 150q130 -56 248 -111q-106 103 -224 210l165 96q306 -301 561 -573l-127 -69l-11 -23l-16 8zM-459 1405l-41 22l76 141l80 -45q226 -96 328 20l38 -24q-153 -306 -453 -130zM-232 1953q198 -6 194 -216q11 -192 -193 -199
q-137 3 -182 113q-9 21 -14.5 42t-6.5 45t2.5 53t13.5 67q17 42 66 67t120 28zM-247 1822q-145 -2 -142 -82q-6 -68 145 -68q166 2 160 64q3 78 -163 86z" />
    <glyph glyph-name="tib.DrengboDrengboL" horiz-adv-x="80" 
d="M-418 1207l-14 16q-305 153 -691 300l118 150q130 -56 248 -111q-106 103 -224 210l165 96q306 -301 561 -573l-127 -69l-11 -23l-16 8z" />
    <glyph glyph-name="tib.DrengboDrengboL.Anusvara" horiz-adv-x="30" 
d="M-391 1206q-319 164 -730 320l118 150q395 -168 732 -328zM-279 1903q232 -7 228 -247q12 -219 -227 -227q-161 3 -214 129q-10 24 -16.5 48t-8 51.5t3 60.5t15.5 76q20 48 78 76.5t141 32.5zM-297 1753q-170 -2 -167 -93q-7 -78 171 -78q195 2 188 73q3 89 -192 98z" />
    <glyph glyph-name="tib.DrengboDrengboL.SunMoonHon" horiz-adv-x="31" 
d="M-8 1681q0 -80 -47.5 -125t-142.5 -45q-84 0 -137 46t-53 115q0 54 39 72.5t114 3.5q-34 -18 -34 -59t24.5 -63.5t65.5 -9.5t52 52t-28 52t-58.5 48.5t-14 65.5t17.5 56t28 45.5t27 27t13 7.5q4 0 4 -5q-24 -140 40 -160.5t77 -60t13 -63.5zM-448 1204l-14 16
q-305 153 -691 300l118 150q130 -56 248 -111q-106 103 -224 210l165 96q306 -301 561 -573l-127 -69l-11 -23l-16 8zM-459 1405l-41 22l76 141l80 -45q226 -96 328 20l38 -24q-153 -306 -453 -130z" />
    <glyph glyph-name="tib.DrengboDrengboL.SunMoon" horiz-adv-x="24" 
d="M-448 1204l-14 16q-305 153 -691 300l118 150q130 -56 248 -111q-106 103 -224 210l165 96q306 -301 561 -573l-127 -69l-11 -23l-16 8zM-459 1405l-41 22l76 141l80 -45q226 -96 328 20l38 -24q-153 -306 -453 -130zM-232 1953q198 -6 194 -216q11 -192 -193 -199
q-137 3 -182 113q-9 21 -14.5 42t-6.5 45t2.5 53t13.5 67q17 42 66 67t120 28zM-247 1822q-145 -2 -142 -82q-6 -68 145 -68q166 2 160 64q3 78 -163 86z" />
    <glyph glyph-name="tib.Naro.Anusvara" horiz-adv-x="73" 
d="M-18 1684q67 -376 -200 -378h-193q-97 0 -134 -35q-40 -32 -40 -115h-45q-23 147 -128 167h-365v198h355q120 -12 160 -173q52 156 212 156h180q88 0 118 30q28 25 57 150h23zM-576 1962q232 -7 228 -247q12 -219 -227 -227q-161 3 -214 129q-10 24 -16.5 48t-8 51.5
t3 60.5t15.5 76q20 48 78 76.5t141 32.5zM-594 1812q-170 -2 -167 -93q-7 -78 171 -78q195 2 188 73q3 89 -192 98z" />
    <glyph glyph-name="tib.Naro.SunMoonHon" horiz-adv-x="73" 
d="M-404 1821q0 -76 -44.5 -121t-134.5 -45q-79 0 -128.5 45.5t-49.5 112.5q0 52 36.5 70.5t106.5 3.5q-32 -17 -32 -57.5t23 -62t61.5 -8.5t48.5 50t-26.5 49.5t-54.5 48t-11 61.5t22.5 45t25 26.5t11.5 7.5q5 0 5 -4q-5 -80 56 -100.5t73 -59.5t12 -62zM-18 1684
q67 -376 -200 -378h-193q-97 0 -134 -35q-40 -32 -40 -115h-45q-23 147 -128 167h-365v198h355q120 -12 160 -173q52 156 212 156h180q88 0 118 30q28 25 57 150h23zM-802 1561l-37 17l68 115l74 -36q204 -79 296 16l35 -20q-139 -249 -411 -106z" />
    <glyph glyph-name="tib.Naro.SunMoon" horiz-adv-x="73" 
d="M-56 1626q65 -335 -193 -336h-186q-94 0 -130 -32q-38 -28 -38 -102h-44q-22 131 -123 149h-353v176h343q116 -11 154 -154q51 139 205 139h174q85 0 114 26q27 23 55 134h22zM-789 1514l-37 17l68 115l74 -36q204 -79 296 16l35 -20q-139 -249 -411 -106zM-568 1993
q198 -6 194 -216q11 -192 -193 -199q-137 3 -182 113q-9 21 -14.5 42t-6.5 45t2.5 53t13.5 67q17 42 66 67t120 28zM-583 1862q-145 -2 -142 -82q-6 -68 145 -68q166 2 160 64q3 78 -163 86z" />
    <glyph glyph-name="tib.NaroL" horiz-adv-x="38" 
d="M-148 1702q67 -376 -200 -378h-193q-97 0 -134 -35q-40 -32 -40 -115h-45q-23 147 -128 167h-365v198h355q120 -12 160 -173q52 156 212 156h180q88 0 118 30q28 25 57 150h23z" />
    <glyph glyph-name="tib.NaroL.Anusvara" horiz-adv-x="35" 
d="M-18 1684q67 -376 -200 -378h-193q-97 0 -134 -35q-40 -32 -40 -115h-45q-23 147 -128 167h-365v198h355q120 -12 160 -173q52 156 212 156h180q88 0 118 30q28 25 57 150h23zM-576 1962q232 -7 228 -247q12 -219 -227 -227q-161 3 -214 129q-10 24 -16.5 48t-8 51.5
t3 60.5t15.5 76q20 48 78 76.5t141 32.5zM-594 1812q-170 -2 -167 -93q-7 -78 171 -78q195 2 188 73q3 89 -192 98z" />
    <glyph glyph-name="tib.NaroL.SunMoonHon" horiz-adv-x="44" 
d="M-404 1821q0 -76 -44.5 -121t-134.5 -45q-79 0 -128.5 45.5t-49.5 112.5q0 52 36.5 70.5t106.5 3.5q-32 -17 -32 -57.5t23 -62t61.5 -8.5t48.5 50t-26.5 49.5t-54.5 48t-11 61.5t22.5 45t25 26.5t11.5 7.5q5 0 5 -4q-5 -80 56 -100.5t73 -59.5t12 -62zM-18 1684
q67 -376 -200 -378h-193q-97 0 -134 -35q-40 -32 -40 -115h-45q-23 147 -128 167h-365v198h355q120 -12 160 -173q52 156 212 156h180q88 0 118 30q28 25 57 150h23zM-802 1561l-37 17l68 115l74 -36q204 -79 296 16l35 -20q-139 -249 -411 -106z" />
    <glyph glyph-name="tib.NaroL.SunMoon" horiz-adv-x="47" 
d="M-56 1626q65 -335 -193 -336h-186q-94 0 -130 -32q-38 -28 -38 -102h-44q-22 131 -123 149h-353v176h343q116 -11 154 -154q51 139 205 139h174q85 0 114 26q27 23 55 134h22zM-789 1514l-37 17l68 115l74 -36q204 -79 296 16l35 -20q-139 -249 -411 -106zM-568 1993
q198 -6 194 -216q11 -192 -193 -199q-137 3 -182 113q-9 21 -14.5 42t-6.5 45t2.5 53t13.5 67q17 42 66 67t120 28zM-583 1862q-145 -2 -142 -82q-6 -68 145 -68q166 2 160 64q3 78 -163 86z" />
    <glyph glyph-name="tib.NaroNaro.Anusvara" horiz-adv-x="57" 
d="M-19 1779q67 -266 -199 -313h-192q-97 0 -133 -32q-33 -24 -39 -100q58 91 186 91h179q88 0 153 15q45 28 77 107h23q11 -276 -255 -278h-192q-97 0 -133 -32q-40 -29 -40 -104h-45q-23 133 -128 136h-363v156h353q82 3 127 -65q-32 106 -116 118h-363v150h353
q120 -8 160 -124q52 112 211 112h179q88 0 118 27q28 23 56 136h23zM-589 1968q202 -5 199 -198q10 -176 -198 -182q-140 2 -187 104q-9 19 -14.5 38.5t-6.5 41t2.5 48t13.5 61.5q18 38 68.5 61t122.5 26zM-605 1823q-148 2 -145 -50q-6 -62 149 -62q170 1 164 58
q2 57 -168 54z" />
    <glyph glyph-name="tib.NaroNaro.SunMoonHon" horiz-adv-x="73" 
d="M-19 1779q67 -266 -199 -313h-192q-97 0 -133 -32q-33 -24 -39 -100q58 91 186 91h179q88 0 153 15q45 28 77 107h23q11 -276 -255 -278h-192q-97 0 -133 -32q-40 -29 -40 -104h-45q-23 133 -128 136h-363v156h353q82 3 127 -65q-32 106 -116 118h-363v150h353
q120 -8 160 -124q52 112 211 112h179q88 0 118 27q28 23 56 136h23zM-371 1897q4 -64 -38 -104t-129 -40q-77 -5 -128.5 30t-52.5 90q-4 44 10.5 69t123.5 0q-30 -16 -14 -46t63.5 -38t54.5 23.5t-30.5 60.5t-57 57.5t-19.5 86.5q5 23 14 44t23.5 37.5t23.5 23.5t11 7
q3 0 3 -3q-11 -148 50.5 -181t75.5 -65.5t16 -51.5zM-785 1635l-40 19l73 119l78 -38q218 -81 316 17l37 -20q-148 -259 -437 -110z" />
    <glyph glyph-name="tib.NaroNaro.SunMoon" horiz-adv-x="73" 
d="M-19 1779q67 -266 -199 -313h-192q-97 0 -133 -32q-33 -24 -39 -100q58 91 186 91h179q88 0 153 15q45 28 77 107h23q11 -276 -255 -278h-192q-97 0 -133 -32q-40 -29 -40 -104h-45q-23 133 -128 136h-363v156h353q82 3 127 -65q-32 106 -116 118h-363v150h353
q120 -8 160 -124q52 112 211 112h179q88 0 118 27q28 23 56 136h23zM-785 1635l-40 19l73 119l78 -38q218 -81 316 17l37 -20q-148 -259 -437 -110zM-551 2065q196 -5 192 -183q11 -163 -191 -169q-136 3 -180 96q-9 18 -14.5 36t-6.5 38.5t2.5 45t13.5 56.5
q17 35 65.5 56.5t118.5 23.5zM-566 1954q-144 -2 -141 -70q-5 -57 144 -57q164 1 159 54q3 66 -162 73z" />
    <glyph glyph-name="tib.NaroNaroL" horiz-adv-x="50" 
d="M-31 1983q67 -376 -200 -378h-193q-97 0 -134 -35q-33 -27 -39 -160q59 100 187 100h180q88 0 154 17q45 30 77 118h23q11 -331 -256 -333h-193q-97 0 -134 -35q-40 -32 -40 -115h-45q-23 147 -128 150h-365v198h355q82 3 127 -71q-32 166 -116 179h-365v198h355
q120 -8 160 -169q52 156 212 156h180q88 0 118 30q28 25 57 150h23z" />
    <glyph glyph-name="tib.NaroNaroL.Anusvara" horiz-adv-x="45" 
d="M-141 1779q67 -266 -199 -313h-192q-97 0 -133 -32q-33 -24 -39 -100q58 91 186 91h179q88 0 153 15q45 28 77 107h23q11 -276 -255 -278h-192q-97 0 -133 -32q-40 -29 -40 -104h-45q-23 133 -128 136h-363v156h353q82 3 127 -65q-32 106 -116 118h-363v150h353
q120 -8 160 -124q52 112 211 112h179q88 0 118 27q28 23 56 136h23zM-711 1968q202 -5 199 -198q10 -176 -198 -182q-140 2 -187 104q-9 19 -14.5 38.5t-6.5 41t2.5 48t13.5 61.5q18 38 68.5 61t122.5 26zM-727 1823q-148 2 -145 -50q-6 -62 149 -62q170 1 164 58
q2 57 -168 54z" />
    <glyph glyph-name="tib.NaroNaroL.SunMoonHon" horiz-adv-x="43" 
d="M-147 1779q67 -266 -199 -313h-192q-97 0 -133 -32q-33 -24 -39 -100q58 91 186 91h179q88 0 153 15q45 28 77 107h23q11 -276 -255 -278h-192q-97 0 -133 -32q-40 -29 -40 -104h-45q-23 133 -128 136h-363v156h353q82 3 127 -65q-32 106 -116 118h-363v150h353
q120 -8 160 -124q52 112 211 112h179q88 0 118 27q28 23 56 136h23zM-499 1897q4 -64 -38 -104t-129 -40q-77 -5 -128.5 30t-52.5 90q-4 44 10.5 69t123.5 0q-30 -16 -14 -46t63.5 -38t54.5 23.5t-30.5 60.5t-57 57.5t-19.5 86.5q5 23 14 44t23.5 37.5t23.5 23.5t11 7
q3 0 3 -3q-11 -148 50.5 -181t75.5 -65.5t16 -51.5zM-913 1635l-40 19l73 119l78 -38q218 -81 316 17l37 -20q-148 -259 -437 -110z" />
    <glyph glyph-name="tib.NaroNaroL.SunMoon" horiz-adv-x="40" 
d="M-163 1779q67 -266 -199 -313h-192q-97 0 -133 -32q-33 -24 -39 -100q58 91 186 91h179q88 0 153 15q45 28 77 107h23q11 -276 -255 -278h-192q-97 0 -133 -32q-40 -29 -40 -104h-45q-23 133 -128 136h-363v156h353q82 3 127 -65q-32 106 -116 118h-363v150h353
q120 -8 160 -124q52 112 211 112h179q88 0 118 27q28 23 56 136h23zM-929 1635l-40 19l73 119l78 -38q218 -81 316 17l37 -20q-148 -259 -437 -110zM-695 2065q196 -5 192 -183q11 -163 -191 -169q-136 3 -180 96q-9 18 -14.5 36t-6.5 38.5t2.5 45t13.5 56.5
q17 35 65.5 56.5t118.5 23.5zM-710 1954q-144 -2 -141 -70q-5 -57 144 -57q164 1 159 54q3 66 -162 73z" />
    <glyph glyph-name="tib.RevGigu.Anusvara" horiz-adv-x="73" 
d="M-1179 1353q335 278 447 322q120 60 232 35q108 -19 230 -120q120 -110 81 -205q-41 -89 -223 -97l-70 147q203 21 155 103q-57 80 -277 -12q-155 -51 -436 -305zM-1180 1946q232 -7 228 -247q12 -219 -227 -227q-161 3 -214 129q-10 24 -16.5 48t-8 51.5t3 60.5t15.5 76
q20 48 78 76.5t141 32.5zM-1198 1796q-170 -2 -167 -93q-7 -78 171 -78q195 2 188 73q3 89 -192 98z" />
    <glyph glyph-name="tib.RevGigu.SunMoonHon" horiz-adv-x="73" 
d="M-1035 1713q0 -79 -47 -124.5t-142 -45.5q-84 0 -137 46.5t-53 115.5q0 54 39 72t114 3q-34 -17 -34 -58t24.5 -63.5t65.5 -9.5t52 51.5t-28 51.5t-58.5 48.5t-14 66t17.5 56t28 45t27 27t13 7.5q4 0 4 -4q-24 -140 39.5 -160.5t76.5 -60.5t13 -64zM-1179 1353
q335 278 447 322q120 60 232 35q108 -19 230 -120q120 -110 81 -205q-41 -89 -223 -97l-70 147q203 21 155 103q-57 80 -277 -12q-155 -51 -436 -305zM-1473 1440l-41 22l76 141l80 -45q226 -96 328 20l38 -24q-153 -306 -453 -130z" />
    <glyph glyph-name="tib.RevGigu.SunMoon" horiz-adv-x="73" 
d="M-1179 1353q335 278 447 322q120 60 232 35q108 -19 230 -120q120 -110 81 -205q-41 -89 -223 -97l-70 147q203 21 155 103q-57 80 -277 -12q-155 -51 -436 -305zM-1219 2011q232 -7 228 -247q12 -219 -227 -227q-161 3 -214 129q-10 24 -16.5 48t-8 51.5t3 60.5t15.5 76
q20 48 78 76.5t141 32.5zM-1237 1861q-170 -2 -167 -93q-7 -78 171 -78q195 2 188 73q3 89 -192 98zM-1473 1440l-41 22l76 141l80 -45q226 -96 328 20l38 -24q-153 -306 -453 -130z" />
    <glyph glyph-name="tib_RevGiguL" horiz-adv-x="37" 
d="M-1336 1338q335 278 447 322q120 60 232 35q108 -19 230 -120q120 -110 81 -205q-41 -89 -223 -97l-70 147q203 21 155 103q-57 80 -277 -12q-155 -51 -436 -305z" />
    <glyph glyph-name="tib.RevGiguL.Anusvara" horiz-adv-x="33" 
d="M-1349 1354q335 278 447 322q120 60 232 35q108 -19 230 -120q120 -110 81 -205q-41 -89 -223 -97l-70 147q203 21 155 103q-57 80 -277 -12q-155 -51 -436 -305zM-1350 1947q232 -7 228 -247q12 -219 -227 -227q-161 3 -214 129q-10 24 -16.5 48t-8 51.5t3 60.5t15.5 76
q20 48 78 76.5t141 32.5zM-1368 1797q-170 -2 -167 -93q-7 -78 171 -78q195 2 188 73q3 89 -192 98z" />
    <glyph glyph-name="tib.RevGiguL.SunMoonHon" horiz-adv-x="35" 
d="M-1167 1711q0 -79 -47 -124.5t-142 -45.5q-84 0 -137 46.5t-53 115.5q0 54 39 72t114 3q-34 -17 -34 -58t24.5 -63.5t65.5 -9.5t52 51.5t-28 51.5t-58.5 48.5t-14 66t17.5 56t28 45t27 27t13 7.5q4 0 4 -4q-24 -140 39.5 -160.5t76.5 -60.5t13 -64zM-1311 1351
q335 278 447 322q120 60 232 35q108 -19 230 -120q120 -110 81 -205q-41 -89 -223 -97l-70 147q203 21 155 103q-57 80 -277 -12q-155 -51 -436 -305zM-1605 1438l-41 22l76 141l80 -45q226 -96 328 20l38 -24q-153 -306 -453 -130z" />
    <glyph glyph-name="tib.RevGiguL.SunMoon" horiz-adv-x="38" 
d="M-1360 1360q335 278 447 322q120 60 232 35q108 -19 230 -120q120 -110 81 -205q-41 -89 -223 -97l-70 147q203 21 155 103q-57 80 -277 -12q-155 -51 -436 -305zM-1400 2018q232 -7 228 -247q12 -219 -227 -227q-161 3 -214 129q-10 24 -16.5 48t-8 51.5t3 60.5t15.5 76
q20 48 78 76.5t141 32.5zM-1418 1868q-170 -2 -167 -93q-7 -78 171 -78q195 2 188 73q3 89 -192 98zM-1654 1447l-41 22l76 141l80 -45q226 -96 328 20l38 -24q-153 -306 -453 -130z" />
    <glyph glyph-name="tibKa_Shapkyu" horiz-adv-x="1223" 
d="M352 135q284 -254 439 -305q220 -92 278 -12q48 80 -155 103l85 165q4 -1 7 -1l-27 777q-15 133 -107 166h-201l16 -680h-71q-14 525 -107 680h-227q152 -141 100 -221q-56 -152 -185 -244l-110 172q114 110 144 168q25 62 6 125h-120v195h972v-1160q20 -8 38 -17
q59 -28 82 -75q37 -96 -83 -205q-124 -101 -230 -121q-112 -22 -234 35q-110 45 -446 321z" />
    <glyph glyph-name="tibKa_Yata" horiz-adv-x="1226" 
d="M122 1224h967v-836q17 -132 -130 -209q-83 -40 -205 -40q-122 2 -275 42q-75 15 -132 2q-51 -10 -85 -50q210 -179 485 -192q310 -15 394 350q10 27 63 25q18 -7 17 -37q-95 -528 -505 -516q-344 20 -639 286q64 129 154 182q90 50 238 40q307 -80 412 -33
q116 25 128 115l-3 63l-27 445q-15 131 -108 166h-184l19 -681h-70q-15 525 -112 681h-235q152 -141 97 -223q-55 -151 -184 -243l-111 172q116 110 145 171q26 59 8 123h-122v197z" />
    <glyph glyph-name="tibKa_Yata_Shapkyu" horiz-adv-x="1212" 
d="M236 -16q282 -254 438 -305q219 -94 279 -14q48 82 -155 105l75 152q-79 -27 -175 -25q-344 17 -639 285q64 128 154 180t238 40q307 -78 412 -32q115 25 126 115l-28 375q-15 129 -108 169h-170l18 -577h-70q-15 420 -112 577l-235 -1q152 -143 97 -223
q-55 -151 -183 -245l-112 174q117 110 145 168q27 62 8 126l-136 1v195h971v-749h-3q-10 -101 -130 -163q-83 -42 -205 -42q-122 2 -275 47q-75 13 -128 0q-54 -12 -89 -52q210 -175 485 -190q310 -16 397 349q7 28 60 25q18 -7 17 -37q-70 -380 -302 -478q148 -34 190 -115
q38 -97 -85 -205q-120 -102 -228 -122q-110 -22 -232 35q-110 48 -448 323z" />
    <glyph glyph-name="tibKa_Rata" horiz-adv-x="1220" 
d="M113 1224h970v-845h4v-476h-55q-92 146 -259 173q-81 12 -258 12t-231 -5t-112 -7l1 190q115 13 426 13t408 -141l-5 210l-30 513q-17 128 -109 166h-168l18 -679h-70q-15 525 -110 680h-236q151 -142 100 -222q-59 -152 -187 -245l-110 173q115 110 143 170q27 60 9 123
h-139v197z" />
    <glyph glyph-name="tibKa_Rata_Shapkyu" horiz-adv-x="1205" 
d="M968 862q-15 128 -106 166h-202l20 -573h-72q-15 419 -111 573h-237q153 -133 100 -215q-42 -130 -170 -221l-108 171q100 89 126 149q27 61 9 116l-90 1v195h953v-730h2v-530h-65q-80 200 -252 221q-78 17 -273 17t-250 -4t-115 -6l6 192q114 10 443 10t427 -140l-8 236
zM240 49q283 -254 440 -304q218 -93 277 -15q48 84 -155 105l85 167q166 -28 210 -117q36 -96 -84 -205q-121 -101 -230 -121q-111 -22 -231 33q-112 48 -447 325z" />
    <glyph glyph-name="tibKa_Lata" horiz-adv-x="1226" 
d="M250 437h467v-388q213 -7 305 -122q25 210 -132 292v218h128l-25 425q-16 128 -108 166h-195l17 -538h-69q-15 384 -111 538h-237q150 -141 98 -221q-41 -132 -170 -223l-108 173q102 88 128 147q25 61 7 124h-90v196h947v-787l-1 -908h-51q-58 226 -183 275
q-67 31 -172 38q-103 10 -272 0l20 207h210q-10 140 -111 186h-260q-105 -58 -92 -163q5 -102 142 -298l-157 -95q-127 191 -132 340q25 153 207 278v140z" />
    <glyph glyph-name="tibKa_Lata_Shapkyu" horiz-adv-x="1235" 
d="M294 474h446v-366q202 -7 289 -119q21 204 -127 280v205h123l-25 407q-13 122 -100 148h-191l15 -505h-67q-12 369 -102 504h-256q143 -125 93 -199q-40 -126 -160 -215l-103 167q93 80 120 140q23 57 6 107l-86 1v195h938v-1526h-55q-53 131 -173 178q-62 27 -160 35
q-100 10 -259 0l19 197h200q-9 130 -107 176h-247q-101 -53 -86 -155q5 -96 135 -283l-152 -88q-120 181 -123 320q23 146 195 265v131zM365 -266q215 -195 364 -245q208 -86 263 -11q47 78 -148 100l80 156q158 -25 201 -111q37 -92 -78 -194q-118 -95 -222 -115
q-103 -21 -218 34q-107 43 -372 261z" />
    <glyph glyph-name="tibRa_Ka" horiz-adv-x="1208" 
d="M129 891h442q-30 82 -94 137h-343v196h933v-196h-410v-137h425v-1242h-80l-31 879q-14 128 -105 162h-202l18 -540h-71q-14 390 -109 538l-238 -8q152 -129 100 -207q-58 -153 -168 -227l-110 175q98 90 125 150q26 60 10 109l-92 10v201z" />
    <glyph glyph-name="tibRa_Ka_Shapkyu" horiz-adv-x="1190" 
d="M128 889h441q-31 82 -95 138h-343v197h937v-197h-412v-138h427v-950h-82l-32 588q-13 129 -105 160h-201l16 -540h-70q-13 392 -108 539l-238 -7q153 -130 100 -208q-57 -154 -170 -225l-107 173q95 90 122 150q30 62 10 110l-90 8v202zM244 16q284 -254 440 -305
q219 -92 277 -12q48 80 -155 103l85 165q167 -26 210 -115q38 -98 -82 -205q-123 -103 -231 -121q-112 -22 -234 35q-110 45 -445 321z" />
    <glyph glyph-name="tibRa_Ka_Yata" horiz-adv-x="1242" 
d="M164 884h441q-31 90 -95 145h-343v194h933v-194h-410v-145h427v-692h-3q5 -120 -130 -191q-84 -40 -205 -40q-122 1 -275 43q-75 13 -129 0q-53 -8 -88 -50q210 -175 485 -192q310 -15 397 350q6 29 60 25q18 -6 16 -36q-95 -527 -505 -517q-343 20 -638 287
q63 128 153 181q90 50 239 40q306 -80 411 -31q132 28 129 141v9q-2 15 -4 28h2l-27 283q-13 129 -105 160h-201l16 -540h-70q-13 392 -110 539l-236 -7q150 -128 98 -208q-57 -154 -168 -225l-109 173q97 90 124 150q26 62 10 110l-90 8v202z" />
    <glyph glyph-name="tibRa_Ka_Yata_Shapkyu" horiz-adv-x="1209" 
d="M124 883h440q-30 90 -93 145h-343v196h935v-196h-412v-145h428v-622h-5q5 -122 -130 -192q-83 -41 -205 -41q-123 3 -276 45q-72 13 -129 0q-51 -10 -86 -50q211 -177 486 -192q310 -15 395 348q7 30 60 25q19 -5 17 -36q-67 -372 -288 -475q148 -29 188 -110
q38 -97 -83 -207q-122 -100 -232 -120q-108 -23 -230 35q-113 43 -447 322l137 131q282 -253 437 -305q220 -91 278 -10q48 80 -155 104l73 146q-80 -28 -181 -26q-345 20 -639 285q62 128 154 183q88 50 236 40q307 -80 412 -33q127 26 130 133l-30 260q-13 128 -105 162
h-202l17 -472h-70q-13 322 -110 468l-238 -6q151 -129 100 -207q-55 -153 -144 -177l-110 175q74 40 100 99q30 61 10 110l-90 10v200z" />
    <glyph glyph-name="tibLa_Ka" horiz-adv-x="1176" 
d="M1064 1224v-573l4 -998h-82l-32 637q-13 130 -106 163h-129l19 -540h-72q-13 388 -107 538l-240 -10q154 -126 102 -206q-58 -154 -170 -227l-108 175q96 90 123 152q28 58 10 106l-90 12v198h805q-147 90 -343 97h-139v172h165q-8 70 -96 108h-329q-28 -8 -33 -70
q17 -43 100 -158l-108 -137q-120 127 -122 223q-5 94 138 213v125h505v-304q154 -29 244 -85q6 153 -109 213v176h200z" />
    <glyph glyph-name="tibLa_Ka_Shapkyu" horiz-adv-x="1242" 
d="M189 660h827q-140 82 -367 89h-136v171h161q-5 70 -93 108h-330q-27 -22 -32 -69q17 -44 97 -159l-107 -136q-120 126 -120 221q-5 95 137 214v125h505v-304q192 -28 283 -86q5 153 -111 215v175h203v-564h2v-865h-69q75 -30 102 -86q37 -97 -85 -205
q-122 -102 -230 -120q-110 -24 -232 35q-111 43 -446 321l136 132q284 -253 439 -305q218 -92 278 -12q48 82 -155 105l83 164q57 -7 99 -22l-30 495q-14 128 -107 162h-167l19 -539h-72q-13 389 -108 537h-239q152 -137 100 -215q-58 -153 -168 -227l-110 175
q98 90 125 150q27 70 7 117l-89 2v201z" />
    <glyph glyph-name="tibSa_Ka" horiz-adv-x="1192" 
d="M1080 1224v-558h2v-1016h-80l-32 655q-15 128 -105 161h-188l18 -541h-70q-15 391 -108 540l-238 -9q151 -128 100 -206q-57 -154 -169 -227l-110 175q97 90 125 148q27 62 9 110l-90 10v200h745q-175 179 -470 307l65 57h-244q-51 -45 -28 -110q240 6 257 -79l38 -166
q-95 50 -180 61q-112 12 -218 -16v185q3 0 13 3h13q-53 52 24 122h-50v194h643v-194h-63q190 -110 328 -269q-22 204 -152 274v189h215z" />
    <glyph glyph-name="tibSa_Ka_Shapkyu" horiz-adv-x="1235" 
d="M1094 1225v-578h1v-865h-80l-30 502q-13 128 -106 162h-194l19 -539h-72q-13 389 -110 537l-237 -8q152 -129 100 -207q-58 -153 -168 -227l-110 175q98 90 125 150q27 62 7 109l-89 10v201h770q-185 192 -496 325l65 57h-244q-51 -45 -26 -110q236 7 255 -78l40 -167
q-99 50 -184 62q-108 11 -218 -19v187q7 0 13 3h14q-54 52 23 122h-50v196h645v-196h-63q196 -110 335 -268q-22 203 -152 273v191h217zM259 -141q283 -253 438 -305q218 -92 277 -12q50 82 -155 105l85 164q166 -27 210 -115q38 -97 -84 -205q-121 -102 -230 -120
q-110 -24 -231 35q-114 43 -447 321z" />
    <glyph glyph-name="tibSa_Ka_Yata" horiz-adv-x="1261" 
d="M1115 1224v-580h1v-534q17 -135 -130 -211q-83 -40 -205 -40q-121 1 -275 45q-75 13 -131 1q-52 -11 -89 -50q214 -178 489 -191q310 -15 393 346q10 29 63 25q19 -5 17 -36q-95 -525 -505 -515q-343 18 -638 285q61 128 153 181q90 50 237 44q308 -84 411 -45
q130 43 129 158l-29 173q-13 129 -106 162h-200l16 -408h-70q-16 258 -110 408l-238 -10q152 -128 100 -207q-32 -108 -145 -180l-108 174q71 45 100 103q26 62 8 110l-88 10v202h783q-193 193 -510 328l65 57h-243q-52 -45 -27 -109q238 7 255 -78l38 -167q-95 50 -180 62
q-111 12 -218 -17v185q3 0 13 2q9 2 14 2q-44 80 23 120h-50v195h643v-195h-63q207 -109 337 -267q-14 202 -145 272v190h215z" />
    <glyph glyph-name="tibSa_Ka_Yata_Shapkyu" horiz-adv-x="1219" 
d="M176 -385q283 -253 438 -305q218 -92 278 -12q49 82 -155 104l80 160q-55 -12 -116 -10q-344 20 -639 285q62 130 154 183q90 50 236 40q307 -80 412 -33q105 23 125 100l-33 178q-14 130 -105 163h-190l16 -410h-70q-13 259 -110 409l-236 -10q150 -127 98 -207
q-32 -107 -143 -178l-109 173q72 43 99 105q30 58 10 107l-90 11v199h761q-180 188 -486 318l65 57h-244q-51 -45 -28 -109q238 7 255 -78l42 -167q-99 50 -184 62q-108 12 -218 -17v185q7 0 13 2q10 2 14 2q-44 80 23 120h-50v181h635v-181h-53q193 -109 325 -267
q-14 202 -145 272v176h216v-556v-467q2 -173 -123 -232q-83 -40 -205 -40q-123 2 -277 44q-73 13 -130 0q-51 -10 -88 -50q213 -177 487 -192q311 -15 395 348q10 30 63 25q18 -5 17 -36q-80 -432 -369 -502q154 -28 195 -113q37 -97 -85 -205q-120 -104 -230 -120
q-110 -24 -231 35q-110 43 -447 321z" />
    </font>
</defs>
</svg>
